<?xml version="1.0" encoding="UTF-8"?>
<!DOCTYPE svg PUBLIC "-//W3C//DTD SVG 1.1//EN" "http://www.w3.org/Graphics/SVG/1.1/DTD/svg11.dtd">
<svg xmlns="http://www.w3.org/2000/svg" version="1.1" width="96px" height="96px" style="shape-rendering:geometricPrecision; text-rendering:geometricPrecision; image-rendering:optimizeQuality; fill-rule:evenodd; clip-rule:evenodd" xmlns:xlink="http://www.w3.org/1999/xlink">
<g><path style="opacity:0.991" fill="#99be13" d="M 42.5,3.5 C 50.169,1.6712 55.8357,4.1712 59.5,11C 66.9385,11.0699 74.2718,11.7365 81.5,13C 82.1258,13.7504 82.6258,14.5838 83,15.5C 83.4996,22.1583 83.6663,28.825 83.5,35.5C 75.4931,35.3336 67.4931,35.5003 59.5,36C 53,37.1667 49.1667,41 48,47.5C 47.5001,59.4954 47.3335,71.4954 47.5,83.5C 36.8281,83.6665 26.1615,83.4998 15.5,83C 13.6667,82.5 12.5,81.3333 12,79.5C 11.3333,58.1667 11.3333,36.8333 12,15.5C 12.5,13.6667 13.6667,12.5 15.5,12C 22.1667,11.6667 28.8333,11.3333 35.5,11C 37.3612,7.97503 39.6945,5.47503 42.5,3.5 Z M 45.5,12.5 C 50.1585,12.0146 51.4919,13.848 49.5,18C 44.7282,18.8104 43.3948,16.9771 45.5,12.5 Z"/></g>
<g><path style="opacity:0.981" fill="#99be13" d="M 95.5,44.5 C 95.5,61.1667 95.5,77.8333 95.5,94.5C 94.8333,94.5 94.5,94.8333 94.5,95.5C 81.8333,95.5 69.1667,95.5 56.5,95.5C 55.3488,78.5738 55.1821,61.5738 56,44.5C 69.1666,43.1754 82.3333,43.1754 95.5,44.5 Z M 67.5,51.5 C 72.8437,51.334 78.1771,51.5006 83.5,52C 87.5,54.3333 87.5,56.6667 83.5,59C 78.1667,59.6667 72.8333,59.6667 67.5,59C 63.5808,56.5069 63.5808,54.0069 67.5,51.5 Z M 65.5,68.5 C 70.1585,68.0146 71.4919,69.848 69.5,74C 64.7282,74.8104 63.3948,72.9771 65.5,68.5 Z M 81.5,68.5 C 86.1585,68.0146 87.4919,69.848 85.5,74C 80.7282,74.8104 79.3948,72.9771 81.5,68.5 Z M 65.5,80.5 C 70.1585,80.0146 71.4919,81.848 69.5,86C 64.7282,86.8104 63.3948,84.9771 65.5,80.5 Z M 81.5,80.5 C 86.1585,80.0146 87.4919,81.848 85.5,86C 80.7282,86.8104 79.3948,84.9771 81.5,80.5 Z"/></g>
</svg>
