<?xml version="1.0" encoding="utf-8"?>
<!-- Generator: Adobe Illustrator 16.0.0, SVG Export Plug-In . SVG Version: 6.00 Build 0)  -->
<!DOCTYPE svg PUBLIC "-//W3C//DTD SVG 1.1//EN" "http://www.w3.org/Graphics/SVG/1.1/DTD/svg11.dtd">
<svg version="1.1" id="Layer_1" xmlns="http://www.w3.org/2000/svg" xmlns:xlink="http://www.w3.org/1999/xlink" x="0px" y="0px"
	 width="1565px" height="395px" viewBox="0 0 1565 395" enable-background="new 0 0 1565 395" xml:space="preserve">
<g>
	<g>
		<path fill="#4B4F54" d="M356.263,138.497c-20.556,1.491-57.64,13.248-77.246,45.572l3.853,9.791
			c16.517-29.1,36.036-47.18,105.392-53.728c77.931-7.354,115.018,5.709,116.849,4.352
			C486.463,131.804,398.165,130.449,356.263,138.497z"/>
		<g>
			<g>
				<defs>
					<path id="SVGID_1_" d="M96.4,356.818c32.218-8.545,53.556-23.467,57.261-43.421c4.408-23.714-33.479-53.84-86.395-79.892
						c1.255-10.686,1.923-21.746,1.923-33.105c0-11.479-0.681-22.662-1.976-33.452c73.479,33.439,133.678,81.404,126.431,120.333
						C187.165,322.088,149.315,346.952,96.4,356.818z M137.379,312.774c1.137-6.169-3.743-15.31-11.999-21.084
						c-19.514,33.999-48.04,61.875-51.603,65.331C104.417,348.344,133.769,332.145,137.379,312.774z M7.916,37.979
						c9.063,10.494,17.143,21.463,24.273,32.781c12.565,16.218,22.651,38.213,29.1,63.837c1.411,4.648,2.681,9.319,3.813,14.015
						c97.714,38.213,160.088,92.733,151.133,140.83c-5.567,29.896-37.804,52.181-86.58,64.912
						c80.105-14.637,137.339-51.775,147.033-103.937C292.743,164.064,172.564,69.226,7.916,37.979z M254.505,107.994
						c-9.401,4.445-17.435,9.768-24.382,15.769c22.409,19.164,39.253,39.838,49.197,60.971c-0.109-0.221-0.184-0.443-0.304-0.664
						c0.552-0.856,1.141-1.719,1.77-2.62c2.057-3.388,4.641-6.785,7.897-9.973c3.029-3.386,6.286-6.942,10.352-9.833
						c7.499-6.632,17.133-11.604,27.013-15.654c9.911-3.997,20.312-6.271,30.197-7.479c0,0,0.005-0.004,0.018-0.011
						C356.263,138.5,311.311,81.095,254.505,107.994z"/>
				</defs>
				<clipPath id="SVGID_2_">
					<use xlink:href="#SVGID_1_"  overflow="visible"/>
				</clipPath>
				<g clip-path="url(#SVGID_2_)">
					<g>
						<polygon fill="#F89E1C" points="154.806,152.879 169.206,128.255 140.265,128.283 						"/>
						<polygon fill="#F7971D" points="154.806,152.879 140.627,128.347 126.468,152.879 						"/>
						<polygon fill="#F7971D" points="154.806,152.879 183.125,152.879 168.966,128.347 						"/>
						<polygon fill="#F89F1B" points="154.864,152.879 169.044,177.417 183.202,152.879 						"/>
						<polygon fill="#DB8A27" points="126.468,152.879 140.627,177.417 154.806,152.879 						"/>
						<polygon fill="#F68C21" points="154.806,152.879 140.627,177.417 169.044,177.417 154.864,152.879 						"/>
						<polygon fill="#F5871F" points="154.806,103.764 140.627,128.298 168.966,128.298 						"/>
						<polygon fill="#F37424" points="154.806,103.764 168.966,128.298 183.125,103.764 						"/>
						<polygon fill="#F58B1F" points="154.806,103.764 126.468,103.764 140.627,128.298 						"/>
						<polygon fill="#F37424" points="154.806,103.764 140.627,79.234 126.468,103.764 						"/>
						<polygon fill="#EE6E22" points="183.125,103.764 168.966,79.234 154.806,103.764 						"/>
						<polygon fill="#D54C35" points="154.806,103.764 168.966,79.234 140.627,79.234 						"/>
						<polygon fill="#F5871F" points="112.3,79.213 98.137,103.746 126.468,103.746 						"/>
						<polygon fill="#F37424" points="112.3,79.213 126.468,103.746 140.634,79.213 						"/>
						<polygon fill="#F58B1F" points="112.3,79.213 83.969,79.213 98.137,103.746 						"/>
						<polygon fill="#E59025" points="112.3,79.213 98.137,54.673 83.969,79.213 						"/>
						<polygon fill="#D54C35" points="140.634,79.213 126.468,54.673 112.3,79.213 						"/>
						<polygon fill="#F68C21" points="112.3,79.213 126.468,54.673 98.137,54.673 						"/>
						<polygon fill="#E59025" points="69.824,54.6 55.662,79.132 83.989,79.132 						"/>
						<polygon fill="#F58B1F" points="69.824,54.6 83.989,79.132 98.162,54.6 						"/>
						<polygon fill="#B68243" points="69.824,54.6 41.491,54.6 55.662,79.132 						"/>
						<polygon fill="#A46A52" points="69.824,54.6 55.662,30.06 41.491,54.6 						"/>
						<polygon fill="#F37927" points="98.162,54.6 83.989,30.06 69.824,54.6 						"/>
						<polygon fill="#F68C21" points="69.824,54.6 83.989,30.06 55.662,30.06 						"/>
						<polygon fill="#A28953" points="27.28,30.212 13.107,54.751 41.439,54.751 						"/>
						<polygon fill="#65807B" points="27.28,30.212 41.439,54.751 55.613,30.212 						"/>
						<polygon fill="#F58B1F" points="27.28,30.212 -1.051,30.212 13.107,54.751 						"/>
						<polygon fill="#F58B1F" points="27.28,30.212 13.107,5.683 -1.051,30.212 						"/>
						<polygon fill="#F37927" points="55.613,30.212 41.439,5.683 27.28,30.212 						"/>
						<polygon fill="#F68C21" points="27.28,30.212 41.439,5.683 13.107,5.683 						"/>
						<polygon fill="#B68243" points="27.554,79.28 41.723,54.741 13.381,54.741 						"/>
						<polygon fill="#F48022" points="27.554,79.28 13.381,54.741 -0.781,79.28 						"/>
						<polygon fill="#7D896C" points="27.554,79.28 55.877,79.28 41.723,54.741 						"/>
						<polygon fill="#7D896C" points="27.554,79.28 41.723,103.81 55.877,79.28 						"/>
						<polygon fill="#F37927" points="-0.781,79.28 13.381,103.81 27.554,79.28 						"/>
						<polygon fill="#F68C21" points="27.554,79.28 13.381,103.81 41.723,103.81 						"/>
						<polygon fill="#65807B" points="69.793,103.592 83.958,79.054 55.631,79.054 						"/>
						<polygon fill="#7D896C" points="69.793,103.592 55.631,79.054 41.459,103.592 						"/>
						<polygon fill="#7C936D" points="69.793,103.592 98.116,103.592 83.958,79.054 						"/>
						<polygon fill="#CA8930" points="69.862,103.563 84.042,128.101 98.193,103.563 						"/>
						<polygon fill="#7D896C" points="41.576,103.539 55.735,128.075 69.908,103.539 						"/>
						<polygon fill="#80966B" points="69.908,103.574 55.105,128.942 84.113,128.245 						"/>
						<polygon fill="#F5871F" points="112.264,128.283 126.437,103.746 98.105,103.746 						"/>
						<polygon fill="#E59025" points="112.264,128.283 98.105,103.746 83.937,128.283 						"/>
						<polygon fill="#E38626" points="112.264,128.283 140.595,128.283 126.437,103.746 						"/>
						<polygon fill="#E59025" points="112.358,128.283 126.538,152.819 140.696,128.283 						"/>
						<polygon fill="#A28953" points="84.042,128.283 98.2,152.819 112.358,128.283 						"/>
						<polygon fill="#B68243" points="112.358,128.283 98.2,152.819 126.538,152.819 						"/>
						<polygon fill="#A28953" points="112.418,177.278 126.584,152.739 98.252,152.739 						"/>
						<polygon fill="#7D896C" points="112.418,177.278 98.252,152.739 84.093,177.278 						"/>
						<polygon fill="#B68243" points="112.418,177.278 140.743,177.278 126.584,152.739 						"/>
						<polygon fill="#00A895" points="112.418,177.278 126.584,201.806 140.743,177.278 						"/>
						<polygon fill="#7D896C" points="83.945,177.237 98.252,201.806 112.418,177.278 						"/>
						<polygon fill="#6A9875" points="112.418,177.278 98.252,201.806 126.584,201.806 						"/>
						<polygon fill="#00A293" points="69.92,152.778 84.088,128.243 55.755,128.243 						"/>
						<polygon fill="#00A293" points="41.712,152.552 55.866,128.01 27.539,128.01 						"/>
						<polygon fill="#00A293" points="69.92,152.778 55.755,128.243 41.589,152.778 						"/>
						<polygon fill="#00A293" points="55.656,128.01 41.491,103.479 27.324,128.01 						"/>
						<polygon fill="#7D896C" points="69.92,152.778 98.252,152.778 84.088,128.243 						"/>
						<polygon fill="#65807B" points="69.92,152.778 84.088,177.31 98.252,152.778 						"/>
						<polygon fill="#F37927" points="41.589,152.778 55.755,177.31 69.92,152.778 						"/>
						<polygon fill="#00A293" points="69.92,152.778 55.755,177.31 84.088,177.31 						"/>
						<polygon fill="#A9343A" points="197.118,128.347 211.283,103.81 182.961,103.81 						"/>
						<polygon fill="#DB7D27" points="197.118,128.347 182.961,103.81 168.785,128.347 						"/>
						<polygon fill="#C33B32" points="197.118,128.347 225.448,128.347 211.283,103.81 						"/>
						<polygon fill="#C33B32" points="197.118,128.347 211.283,152.879 225.448,128.347 						"/>
						<polygon fill="#F37927" points="168.785,128.347 182.961,152.879 197.118,128.347 						"/>
						<polygon fill="#EA5F2C" points="197.118,128.347 182.961,152.879 211.283,152.879 						"/>
						<polygon fill="#FAAB18" points="197.361,177.417 183.202,201.952 211.535,201.952 						"/>
						<polygon fill="#F37A20" points="197.361,177.417 211.535,201.952 225.699,177.417 						"/>
						<polygon fill="#FAAB18" points="197.361,177.417 169.044,177.417 183.202,201.952 						"/>
						<polygon fill="#F58B1F" points="197.361,177.417 182.961,152.879 169.044,177.417 						"/>
						<polygon fill="#ED2937" points="225.699,177.417 211.535,152.879 197.361,177.417 						"/>
						<polygon fill="#F68C21" points="197.361,177.417 211.535,152.879 182.961,152.879 						"/>
						<polygon fill="#AF8A49" points="155.054,201.336 140.874,225.876 169.206,225.876 						"/>
						<polygon fill="#F9A11B" points="155.054,201.336 169.206,225.876 183.379,201.336 						"/>
						<polygon fill="#B98740" points="155.054,201.336 126.707,201.336 140.874,225.876 						"/>
						<polygon fill="#A28953" points="155.054,201.336 140.627,176.809 126.707,201.336 						"/>
						<polygon fill="#E58D25" points="183.379,201.336 169.206,176.809 155.054,201.336 						"/>
						<polygon fill="#B98740" points="155.054,201.336 169.206,176.809 140.627,176.809 						"/>
						<polygon fill="#FBB017" points="197.704,225.895 183.554,250.43 211.87,250.43 						"/>
						<polygon fill="#FBB017" points="197.704,225.895 211.87,250.43 226.05,225.895 						"/>
						<polygon fill="#FBB216" points="197.704,225.895 169.374,225.895 183.554,250.43 						"/>
						<polygon fill="#F9A719" points="197.704,225.895 183.302,201.349 169.374,225.895 						"/>
						<polygon fill="#F37927" points="226.05,225.895 211.87,201.349 197.704,225.895 						"/>
						<polygon fill="#F68C21" points="197.704,225.895 211.87,201.349 183.302,201.349 						"/>
						<polygon fill="#EA5F2C" points="240.042,201.813 225.862,226.353 254.2,226.353 						"/>
						<polygon fill="#A9343A" points="240.042,201.813 254.2,226.353 268.362,201.813 						"/>
						<polygon fill="#F37A20" points="240.042,201.813 211.698,201.813 225.862,226.353 						"/>
						<polygon fill="#EA5F2C" points="240.042,201.813 225.624,177.281 211.698,201.813 						"/>
						<polygon fill="#C33B32" points="268.782,201.952 254.2,177.281 240.042,201.813 						"/>
						<polygon fill="#ED2937" points="240.042,201.813 254.2,177.281 225.624,177.281 						"/>
						<polygon fill="#C33B32" points="281.562,177.417 267.384,201.952 295.729,201.952 						"/>
						<polygon fill="#F48022" points="281.562,177.417 295.729,201.952 309.886,177.417 						"/>
						<polygon fill="#C33B32" points="281.562,177.417 253.217,177.417 267.384,201.952 						"/>
						<polygon fill="#F58B1F" points="281.562,177.417 267.138,152.879 253.217,177.417 						"/>
						<polygon fill="#F37927" points="309.886,177.417 295.729,152.879 281.562,177.417 						"/>
						<polygon fill="#F68C21" points="281.562,177.417 295.729,152.879 267.138,152.879 						"/>
						<polygon fill="#E85335" points="282.3,226.67 268.141,251.211 296.479,251.211 						"/>
						<polygon fill="#F48022" points="282.3,226.67 296.479,251.211 310.644,226.67 						"/>
						<polygon fill="#A9343A" points="282.3,226.67 253.979,226.67 268.141,251.211 						"/>
						<polygon fill="#C33B32" points="282.3,226.67 267.9,202.136 253.979,226.67 						"/>
						<polygon fill="#F37927" points="310.644,226.67 296.479,202.136 282.3,226.67 						"/>
						<polygon fill="#ED2937" points="282.3,226.67 296.868,201.914 267.384,201.952 						"/>
						<polygon fill="#F5851F" points="239.835,250.894 225.662,275.439 254,275.439 						"/>
						<polygon fill="#ED2937" points="239.835,250.894 254,275.439 268.162,250.894 						"/>
						<polygon fill="#FCB514" points="239.835,250.894 211.494,250.894 225.662,275.439 						"/>
						<polygon fill="#F9A719" points="239.835,250.894 225.424,226.365 211.494,250.894 						"/>
						<polygon fill="#C33B32" points="268.162,250.894 254,226.365 239.835,250.894 						"/>
						<polygon fill="#F37927" points="239.835,250.894 254,226.365 225.424,226.365 						"/>
						<polygon fill="#F5871F" points="239.673,299.81 225.515,324.343 253.838,324.343 						"/>
						<polygon fill="#F48022" points="239.673,299.81 253.838,324.343 268.011,299.81 						"/>
						<polygon fill="#F9A719" points="239.673,299.81 211.347,299.81 225.515,324.343 						"/>
						<polygon fill="#FCB514" points="239.673,299.81 225.267,275.269 211.347,299.81 						"/>
						<polygon fill="#EA5F2C" points="268.011,299.81 253.838,275.269 239.673,299.81 						"/>
						<polygon fill="#F37927" points="239.673,299.81 253.838,275.269 225.267,275.269 						"/>
						<polygon fill="#FCB514" points="197.965,274.576 183.8,299.116 212.138,299.116 						"/>
						<polygon fill="#FCB514" points="197.965,274.576 212.138,299.116 226.298,274.576 						"/>
						<polygon fill="#F9A61A" points="197.965,274.576 169.634,274.576 183.8,299.116 						"/>
						<polygon fill="#FCB514" points="197.965,274.576 183.56,250.042 169.634,274.576 						"/>
						<polygon fill="#FCB514" points="226.298,274.576 212.138,250.042 197.965,274.576 						"/>
						<polygon fill="#FBB116" points="197.965,274.576 212.138,250.042 183.56,250.042 						"/>
						<polygon fill="#F89F1B" points="155.038,249.89 140.864,274.43 169.528,274.373 						"/>
						<polygon fill="#FBB017" points="155.038,249.89 169.634,274.576 183.669,249.87 						"/>
						<polygon fill="#F9A51A" points="155.038,249.89 126.695,249.89 140.864,274.43 						"/>
						<polygon fill="#E68F24" points="155.038,249.89 140.615,225.361 126.695,249.89 						"/>
						<polygon fill="#FCB514" points="183.364,249.89 169.191,225.361 155.038,249.89 						"/>
						<polygon fill="#F9A719" points="155.038,249.89 169.191,225.361 140.615,225.361 						"/>
						<polygon fill="#DB8A27" points="112.71,225.361 98.541,249.89 126.875,249.89 						"/>
						<polygon fill="#E59025" points="112.71,225.361 126.875,249.89 141.043,225.361 						"/>
						<polygon fill="#E38626" points="112.71,225.361 84.377,225.361 98.541,249.89 						"/>
						<polygon fill="#7D896C" points="112.71,225.361 98.299,200.821 84.377,225.361 						"/>
						<polygon fill="#D1862D" points="141.043,225.361 126.875,200.821 112.71,225.361 						"/>
						<polygon fill="#6A9875" points="112.71,225.361 126.875,200.821 98.299,200.821 						"/>
						<polygon fill="#F5871F" points="69.778,201.774 55.613,226.308 83.945,226.308 						"/>
						<polygon fill="#7D896C" points="69.778,201.774 83.945,226.308 98.105,201.774 						"/>
						<polygon fill="#F58B1F" points="69.778,201.774 41.445,201.774 55.613,226.308 						"/>
						<polygon fill="#F58B1F" points="69.778,201.774 55.36,177.237 41.445,201.774 						"/>
						<polygon fill="#7B846E" points="98.252,201.806 83.945,177.237 69.778,201.774 						"/>
						<polygon fill="#00A293" points="69.778,201.774 83.945,177.237 55.36,177.237 						"/>
						<polygon fill="#F5871F" points="113.02,274.386 98.84,298.919 127.18,298.919 						"/>
						<polygon fill="#F48022" points="113.02,274.386 127.18,298.919 141.347,274.386 						"/>
						<polygon fill="#F58B1F" points="113.02,274.386 84.682,274.386 98.84,298.919 						"/>
						<polygon fill="#F58B1F" points="113.02,274.386 98.601,249.864 84.682,274.386 						"/>
						<polygon fill="#F4921F" points="141.347,274.386 127.18,249.864 113.02,274.386 						"/>
						<polygon fill="#F68C21" points="113.02,274.386 127.18,249.864 98.601,249.864 						"/>
						<polygon fill="#F5871F" points="155.654,298.627 141.475,323.175 169.806,323.175 						"/>
						<polygon fill="#F37927" points="155.654,298.627 169.806,323.175 183.98,298.627 						"/>
						<polygon fill="#F58B1F" points="155.654,298.627 127.311,298.627 141.475,323.175 						"/>
						<polygon fill="#F37927" points="155.654,298.627 141.237,274.105 127.311,298.627 						"/>
						<polygon fill="#F68C21" points="183.98,298.627 169.806,274.105 155.654,298.627 						"/>
						<polygon fill="#FAAA19" points="155.654,298.627 169.806,274.105 141.237,274.105 						"/>
						<polygon fill="#F5871F" points="197.965,323.892 183.8,348.433 212.138,348.433 						"/>
						<polygon fill="#F48022" points="197.965,323.892 212.138,348.433 226.298,323.892 						"/>
						<polygon fill="#F9A11B" points="198.16,323.556 169.975,322.876 183.992,348.076 						"/>
						<polygon fill="#F68C21" points="198.16,323.556 183.754,299.016 169.975,322.876 						"/>
						<polygon fill="#FCB514" points="226.298,323.892 212.138,299.352 197.965,323.892 						"/>
						<polygon fill="#FAA819" points="198.16,323.556 212.333,299.016 183.754,299.016 						"/>
						<polygon fill="#F5871F" points="155.654,347.123 141.475,371.664 169.806,371.664 						"/>
						<polygon fill="#F48022" points="155.654,347.123 169.806,371.664 183.98,347.123 						"/>
						<polygon fill="#F58B1F" points="155.654,347.123 127.311,347.123 141.475,371.664 						"/>
						<polygon fill="#F58B1F" points="155.654,347.123 141.237,322.591 127.311,347.123 						"/>
						<polygon fill="#F5851F" points="183.98,347.123 169.806,322.591 155.654,347.123 						"/>
						<polygon fill="#F68C21" points="155.654,347.123 169.806,322.591 141.237,322.591 						"/>
						<polygon fill="#F68C21" points="127.121,347.575 141.289,323.053 112.71,323.053 						"/>
						<polygon fill="#F5871F" points="108.785,364.619 94.614,389.172 122.952,389.172 						"/>
						<polygon fill="#F48022" points="108.785,364.619 122.952,389.172 137.116,364.619 						"/>
						<polygon fill="#F58B1F" points="108.785,364.619 80.452,364.619 94.614,389.172 						"/>
						<polygon fill="#F58B1F" points="108.785,364.619 94.379,340.097 80.452,364.619 						"/>
						<polygon fill="#F37927" points="137.116,364.619 122.952,340.097 108.785,364.619 						"/>
						<polygon fill="#F68C21" points="108.785,364.619 122.952,340.097 94.379,340.097 						"/>
						<polygon fill="#F5871F" points="69.836,249.89 55.671,274.43 84.01,274.43 						"/>
						<polygon fill="#F48022" points="70.288,249.787 84.456,274.31 98.615,249.787 						"/>
						<polygon fill="#F58B1F" points="69.836,249.89 41.512,249.89 55.671,274.43 						"/>
						<polygon fill="#F58B1F" points="69.836,249.89 55.418,225.361 41.512,249.89 						"/>
						<polygon fill="#D37B2D" points="98.52,249.781 84.351,225.247 70.179,249.781 						"/>
						<polygon fill="#F68C21" points="70.172,249.89 84.345,225.361 55.768,225.361 						"/>
						<polygon fill="#F58B1F" points="240.463,348.852 212.144,348.852 226.298,373.386 						"/>
						<polygon fill="#F58B1F" points="240.463,348.852 226.057,324.316 212.144,348.852 						"/>
						<polygon fill="#F68C21" points="240.463,348.852 254.635,324.316 226.057,324.316 						"/>
						<polygon fill="#A9343A" points="282.242,275.439 253.922,275.439 268.075,299.98 						"/>
						<polygon fill="#84332D" points="282.242,275.439 267.825,250.899 253.922,275.439 						"/>
						<polygon fill="#84332D" points="282.242,275.439 296.412,250.899 267.825,250.899 						"/>
						<polygon fill="#E64D32" points="239.458,152.879 225.294,177.417 253.626,177.417 						"/>
						<polygon fill="#D54C35" points="239.458,152.879 253.626,177.417 267.783,152.879 						"/>
						<polygon fill="#C33B32" points="239.458,152.879 211.136,152.879 225.294,177.417 						"/>
						<polygon fill="#E64D32" points="239.458,152.879 225.294,128.347 211.136,152.879 						"/>
						<polygon fill="#F37927" points="267.783,152.879 253.626,128.347 239.458,152.879 						"/>
						<polygon fill="#F68C21" points="239.458,152.879 253.626,128.347 225.294,128.347 						"/>
					</g>
					<polygon fill="#A9343A" points="78.785,340.626 92.954,316.085 64.631,316.085 					"/>
					<polygon fill="#C33B32" points="78.785,340.626 64.631,316.085 50.464,340.626 					"/>
					<polygon fill="#84332D" points="78.785,340.626 107.129,340.626 92.954,316.085 					"/>
					<polygon fill="#ED2937" points="78.785,340.626 92.954,365.152 107.129,340.626 					"/>
					<polygon fill="#A9343A" points="50.464,340.626 64.631,365.152 78.785,340.626 					"/>
					<polygon fill="#D9272E" points="78.785,340.626 64.631,365.152 92.954,365.152 					"/>
					<polygon fill="#A9343A" points="121.067,316.104 135.241,291.563 106.908,291.563 					"/>
					<polygon fill="#C33B32" points="121.067,316.104 106.908,291.563 92.743,316.104 					"/>
					<polygon fill="#84332D" points="121.067,316.104 149.405,316.104 135.241,291.563 					"/>
					<polygon fill="#ED2937" points="121.067,316.104 135.241,340.638 149.405,316.104 					"/>
					<polygon fill="#A9343A" points="92.743,316.104 106.908,340.638 121.067,316.104 					"/>
					<polygon fill="#D9272E" points="121.067,316.104 106.908,340.638 135.241,340.638 					"/>
					<polygon fill="#A9343A" points="282.197,128.739 296.363,104.203 268.031,104.203 					"/>
					<polygon fill="#C33B32" points="282.197,128.739 268.031,104.203 253.87,128.739 					"/>
					<path fill="#FEDD3D" d="M282.197,128.739L282.197,128.739L282.197,128.739z"/>
					<polygon fill="#84332D" points="282.197,128.739 310.535,128.739 296.363,104.203 					"/>
					<polygon fill="#ED2937" points="282.197,128.739 295.864,152.921 310.535,128.739 					"/>
					<polygon fill="#A9343A" points="253.87,128.739 268.031,153.271 282.197,128.739 					"/>
					<polygon fill="#D9272E" points="282.197,128.739 268.031,153.271 295.864,152.921 					"/>
					<polygon fill="#A9343A" points="282.127,177.777 295.729,152.879 267.958,153.239 					"/>
					<polygon fill="#C33B32" points="282.127,177.777 267.958,153.239 253.794,177.777 					"/>
					<polygon fill="#84332D" points="282.127,177.777 310.458,177.777 295.729,152.879 					"/>
					<polygon fill="#A9343A" points="239.72,153.239 253.889,128.7 225.558,128.7 					"/>
					<polygon fill="#C33B32" points="239.72,153.239 268.049,153.239 253.889,128.7 					"/>
					<polygon fill="#ED2937" points="239.72,153.239 253.889,177.773 268.049,153.239 					"/>
					<polygon fill="#A9343A" points="284.644,87.208 298.803,62.673 270.471,62.673 					"/>
					<polygon fill="#C33B32" points="284.644,87.208 270.471,62.673 256.306,87.208 					"/>
					<polygon fill="#84332D" points="284.644,87.208 312.971,87.208 298.803,62.673 					"/>
					<polygon fill="#D9272E" points="282.269,79.744 296.447,104.276 310.612,79.744 					"/>
					<polygon fill="#A9343A" points="253.947,79.744 268.116,104.276 282.269,79.744 					"/>
					<polygon fill="#84332D" points="282.269,79.744 268.116,104.276 296.447,104.276 					"/>
					<polygon fill="#C33B32" points="324.611,104.347 310.444,79.813 296.273,104.347 					"/>
					<polygon fill="#ED2937" points="324.611,104.347 338.771,128.884 352.949,104.347 					"/>
					<polygon fill="#D9272E" points="296.273,104.347 310.444,128.884 324.611,104.347 					"/>
					<polygon fill="#C33B32" points="324.611,104.347 310.444,128.884 338.771,128.884 					"/>
					<polygon fill="#A9343A" points="324.611,153.239 338.771,128.7 310.444,128.7 					"/>
					<polygon fill="#C33B32" points="324.611,153.239 310.444,128.7 295.864,152.921 					"/>
					<polygon fill="#84332D" points="324.611,153.239 352.949,153.239 338.771,128.7 					"/>
					<polygon fill="#A9343A" points="295.729,152.879 310.444,177.773 324.611,153.239 					"/>
					<polygon fill="#A9343A" points="281.639,177.788 295.807,202.327 309.971,177.788 					"/>
					<polygon fill="#C33B32" points="367.167,128.707 353.002,104.169 338.823,128.707 					"/>
					<polygon fill="#A9343A" points="338.823,128.707 353.002,153.239 367.167,128.707 					"/>
					<polygon fill="#C33B32" points="239.789,104.276 268.134,104.276 253.973,79.744 					"/>
					<polygon fill="#ED2937" points="239.789,104.276 253.973,128.813 268.134,104.276 					"/>
					<polygon fill="#D9272E" points="211.471,104.276 225.635,128.813 239.789,104.276 					"/>
					<polygon fill="#84332D" points="239.789,104.276 225.635,128.813 253.973,128.813 					"/>
				</g>
			</g>
		</g>
	</g>
	<g>
		<path fill="#4B4F54" d="M442.132,347.937l-15.021-37.322h-80.347l-15.015,37.322h-15.021l62.13-151.802h16.161l62.133,151.802
			H442.132z M386.822,210.026l-35.726,88.753h71.693L386.822,210.026z"/>
		<path fill="#4B4F54" d="M541.354,347.937v-17.514c-7.739,11.364-21.852,20.239-38.238,20.239
			c-29.121,0-49.154-22.292-49.154-57.562c0-34.832,20.033-57.81,49.154-57.81c15.707,0,29.353,7.966,38.238,20.487v-59.641h12.063
			v151.799H541.354z M541.354,320.404v-54.392c-6.373-10.698-20.706-20.023-36.188-20.023c-24.354,0-38.459,20.486-38.459,47.111
			c0,26.624,14.105,46.883,38.459,46.883C520.648,339.983,534.981,330.887,541.354,320.404z"/>
		<path fill="#4B4F54" d="M610.313,347.937l-46.438-109.92h13.208l40.046,96.047l39.604-96.047h13.434l-46.427,109.92H610.313
			L610.313,347.937z"/>
		<path fill="#4B4F54" d="M748.088,347.937v-12.973c-9.79,10.704-22.072,15.698-37.332,15.698
			c-18.894,0-38.457-12.953-38.457-36.629c0-23.899,19.345-36.421,38.457-36.421c15.26,0,27.771,5.019,37.332,15.71v-22.304
			c0-16.39-13.201-25.265-29.581-25.265c-13.662,0-24.363,4.783-34.369,16.161l-6.602-8.194c11.374-12.299,24.118-18.43,42.33-18.43
			c22.304,0,40.05,10.698,40.05,35.271v77.375H748.088z M748.088,326.332V302.19c-7.744-9.992-20.034-15.233-33.241-15.233
			c-18.197,0-30.025,11.595-30.025,27.304c0,15.47,11.828,27.076,30.025,27.076C728.054,341.337,740.344,336.33,748.088,326.332z"/>
		<path fill="#4B4F54" d="M852.824,347.937v-74.422c0-21.154-10.695-27.525-26.637-27.525c-14.109,0-28.689,8.855-35.725,18.887
			v83.061h-11.842v-109.92h11.842v16.612c7.966-9.555,23.664-19.338,39.603-19.338c22.292,0,34.588,10.92,34.588,35.722v76.924
			H852.824L852.824,347.937z"/>
		<path fill="#4B4F54" d="M877.851,292.858c0-32.087,21.161-57.567,53.48-57.567c19.125,0,30.048,7.509,38.919,18.658l-8.194,7.273
			c-7.967-10.92-17.976-15.233-30.039-15.233c-25.712,0-41.416,20.486-41.416,46.869c0,26.402,15.704,47.125,41.416,47.125
			c12.063,0,22.072-4.556,30.039-15.476l8.194,7.287c-8.871,11.358-19.794,18.867-38.919,18.867
			C899.012,350.662,877.851,324.959,877.851,292.858z"/>
		<path fill="#4B4F54" d="M970.921,292.858c0-31.858,22.539-57.567,53.039-57.567c33.439,0,51.888,26.624,51.888,58.254v3.189
			h-91.955c1.15,23.898,17.08,43.713,43.027,43.713c13.874,0,26.624-5.247,35.96-15.254l6.13,7.726
			c-10.901,11.391-24.795,17.743-42.989,17.743C993.914,350.662,970.921,326.782,970.921,292.858z M1023.728,245.531
			c-25.935,0-38.917,22.742-39.835,41.884h79.892C1063.549,268.731,1051.273,245.531,1023.728,245.531z"/>
		<path fill="#4B4F54" d="M1175.633,347.937v-17.514c-7.725,11.364-21.853,20.239-38.227,20.239
			c-29.144,0-49.167-22.292-49.167-57.562c0-34.832,20.023-57.81,49.167-57.81c15.688,0,29.353,7.966,38.227,20.487v-59.641h12.073
			v151.799H1175.633z M1175.633,320.404v-54.392c-6.368-10.698-20.706-20.023-36.179-20.023c-24.353,0-38.466,20.486-38.466,47.111
			c0,26.624,14.113,46.883,38.466,46.883C1154.927,339.983,1169.265,330.887,1175.633,320.404z"/>
		<path fill="#4B4F54" d="M1281.45,347.937l-29.579-95.919l-13.107,95.919h-37.809l20.833-152.758h45.772l31.888,103.385
			l30.098-103.385h46.038l20.83,152.758h-38.061l-13.369-95.919l-29.57,95.919H1281.45z"/>
		<path fill="#4B4F54" d="M1409.272,196.465c11.312-1.798,32.412-3.846,51.174-3.846c50.914,0,85.644,26.225,85.644,77.408
			c0,55.789-36.25,79.974-86.669,79.974c-18.268,0-38.322-1.022-50.148-3.602V196.465L1409.272,196.465z M1447.583,315.786
			c4.627,0.521,11.063,0.787,16.453,0.787c25.474,0,42.706-14.662,42.706-46.546c0-29.317-19.287-42.183-43.469-42.183
			c-4.889,0-11.066,0.255-15.69,0.776V315.786L1447.583,315.786z"/>
		<g>
			<path fill="#4B4F54" d="M1545.112,350.001c-6.601,0-11.939-5.367-11.939-11.968c0-6.657,5.339-11.963,11.939-11.963
				c6.668,0,11.972,5.306,11.972,11.963C1557.081,344.634,1551.78,350.001,1545.112,350.001z M1545.112,327.602
				c-5.742,0-10.425,4.618-10.425,10.432c0,5.692,4.683,10.444,10.425,10.444c5.763,0,10.454-4.752,10.454-10.444
				C1555.566,332.22,1550.875,327.602,1545.112,327.602z M1548.444,344.919l-3.542-5.418h-2.602v5.418h-1.689v-13.702h5.581
				c2.316,0,4.233,1.632,4.233,4.174c0,3.037-2.705,4.06-3.484,4.06l3.66,5.469H1548.444L1548.444,344.919z M1546.192,332.786
				h-3.892v5.075h3.892c1.191,0,2.484-1.073,2.484-2.477C1548.677,333.854,1547.384,332.786,1546.192,332.786z"/>
		</g>
	</g>
</g>
</svg>
