<svg width="150" height="50" viewBox="0 0 150 50" fill="none" xmlns="http://www.w3.org/2000/svg">
<path d="M39.1343 19.9404C37.3906 20.0669 34.2447 21.0642 32.5815 23.8063L32.9084 24.6368C34.3095 22.1683 35.9653 20.6346 41.8488 20.0791C48.4597 19.4553 51.6058 20.5634 51.7611 20.4483C50.1792 19.3726 42.6889 19.2577 39.1343 19.9404Z" fill="#4B4F54"/>
<mask id="mask0_880_664" style="mask-type:luminance" maskUnits="userSpaceOnUse" x="9" y="11" width="31" height="28">
<path d="M17.0901 38.4602C19.8231 37.7353 21.6332 36.4695 21.9475 34.7768C22.3215 32.7652 19.1075 30.2096 14.6186 27.9996C14.7251 27.0931 14.7818 26.1549 14.7818 25.1913C14.7818 24.2175 14.724 23.2688 14.6142 22.3535C20.8474 25.1902 25.9541 29.259 25.3393 32.5614C24.7897 35.5141 21.5789 37.6233 17.0901 38.4602ZM20.5663 34.724C20.6628 34.2006 20.2488 33.4252 19.5485 32.9354C17.8931 35.8195 15.4732 38.1843 15.171 38.4774C17.7702 37.7414 20.2601 36.3672 20.5663 34.724ZM9.58398 11.4131C10.3528 12.3033 11.0382 13.2338 11.6431 14.1939C12.709 15.5697 13.5646 17.4355 14.1116 19.6092C14.2313 20.0035 14.339 20.3997 14.4351 20.7981C22.7242 24.0397 28.0154 28.6646 27.2557 32.7447C26.7834 35.2808 24.0488 37.1712 19.9111 38.2512C26.7064 37.0095 31.5616 33.8591 32.3839 29.4342C33.7459 22.1089 23.5511 14.0638 9.58398 11.4131ZM30.5021 17.3525C29.7047 17.7295 29.0231 18.1811 28.4338 18.6901C30.3348 20.3158 31.7637 22.0696 32.6072 23.8623C32.598 23.8436 32.5916 23.8247 32.5814 23.806C32.6282 23.7334 32.6782 23.6602 32.7316 23.5837C32.9061 23.2963 33.1253 23.0082 33.4015 22.7377C33.6584 22.4505 33.9347 22.1488 34.2796 21.9036C34.9158 21.341 35.733 20.9192 36.5711 20.5757C37.4119 20.2366 38.2942 20.0437 39.1328 19.9412C39.1328 19.9412 39.1332 19.9409 39.1343 19.9403C39.1343 19.9403 35.321 15.0706 30.5021 17.3525Z" fill="white"/>
</mask>
<g mask="url(#mask0_880_664)">
<path d="M22.0448 21.1601L23.2663 19.0713L20.8113 19.0737L22.0448 21.1601Z" fill="#F89E1C"/>
<path d="M22.0445 21.1597L20.8417 19.0786L19.6406 21.1597H22.0445Z" fill="#F7971D"/>
<path d="M22.0447 21.1597H24.447L23.2459 19.0786L22.0447 21.1597Z" fill="#F7971D"/>
<path d="M22.0496 21.1602L23.2525 23.2417L24.4535 21.1602H22.0496Z" fill="#F89F1B"/>
<path d="M19.6406 21.1602L20.8417 23.2417L22.0445 21.1602H19.6406Z" fill="#DB8A27"/>
<path d="M22.0446 21.1602L20.8418 23.2417H23.2524L22.0495 21.1602H22.0446Z" fill="#F68C21"/>
<path d="M22.0446 16.9932L20.8418 19.0744H23.2458L22.0446 16.9932Z" fill="#F5871F"/>
<path d="M22.0447 16.9932L23.2459 19.0744L24.447 16.9932H22.0447Z" fill="#F37424"/>
<path d="M22.0445 16.9932H19.6406L20.8417 19.0744L22.0445 16.9932Z" fill="#F58B1F"/>
<path d="M22.0445 16.9935L20.8417 14.9126L19.6406 16.9935H22.0445Z" fill="#F37424"/>
<path d="M24.447 16.9935L23.2459 14.9126L22.0447 16.9935H24.447Z" fill="#EE6E22"/>
<path d="M22.0446 16.9935L23.2458 14.9126H20.8418L22.0446 16.9935Z" fill="#D54C35"/>
<path d="M18.439 14.9111L17.2375 16.9923H19.6409L18.439 14.9111Z" fill="#F5871F"/>
<path d="M18.4387 14.9111L19.6406 16.9923L20.8423 14.9111H18.4387Z" fill="#F37424"/>
<path d="M18.439 14.9111H16.0356L17.2375 16.9923L18.439 14.9111Z" fill="#F58B1F"/>
<path d="M18.439 14.9108L17.2375 12.8291L16.0356 14.9108H18.439Z" fill="#E59025"/>
<path d="M20.8423 14.9108L19.6406 12.8291L18.4387 14.9108H20.8423Z" fill="#D54C35"/>
<path d="M18.439 14.9108L19.6409 12.8291H17.2375L18.439 14.9108Z" fill="#F68C21"/>
<path d="M14.8356 12.8232L13.6343 14.9043H16.0373L14.8356 12.8232Z" fill="#E59025"/>
<path d="M14.8354 12.8232L16.0371 14.9043L17.2394 12.8232H14.8354Z" fill="#F58B1F"/>
<path d="M14.8356 12.8232H12.4321L13.6343 14.9043L14.8356 12.8232Z" fill="#B68243"/>
<path d="M14.8356 12.8234L13.6343 10.7417L12.4321 12.8234H14.8356Z" fill="#A46A52"/>
<path d="M17.2394 12.8234L16.0371 10.7417L14.8354 12.8234H17.2394Z" fill="#F37927"/>
<path d="M14.8356 12.8234L16.0373 10.7417H13.6343L14.8356 12.8234Z" fill="#F68C21"/>
<path d="M11.2267 10.7544L10.0244 12.836H12.4278L11.2267 10.7544Z" fill="#A28953"/>
<path d="M11.2266 10.7544L12.4277 12.836L13.6301 10.7544H11.2266Z" fill="#65807B"/>
<path d="M11.2266 10.7544H8.82324L10.0243 12.836L11.2266 10.7544Z" fill="#F58B1F"/>
<path d="M11.2499 14.9166L12.4519 12.835H10.0476L11.2499 14.9166Z" fill="#B68243"/>
<path d="M11.2499 14.9166L10.0476 12.835L8.84619 14.9166H11.2499Z" fill="#F48022"/>
<path d="M11.25 14.9166H13.6526L12.452 12.835L11.25 14.9166Z" fill="#7D896C"/>
<path d="M11.25 14.9165L12.452 16.9974L13.6526 14.9165H11.25Z" fill="#7D896C"/>
<path d="M8.84619 14.9165L10.0476 16.9974L11.2499 14.9165H8.84619Z" fill="#F37927"/>
<path d="M11.2499 14.9165L10.0476 16.9974H12.4519L11.2499 14.9165Z" fill="#F68C21"/>
<path d="M14.833 16.979L16.0346 14.8975H13.6316L14.833 16.979Z" fill="#65807B"/>
<path d="M14.833 16.979L13.6317 14.8975L12.4294 16.979H14.833Z" fill="#7D896C"/>
<path d="M14.8328 16.979H17.2354L16.0344 14.8975L14.8328 16.979Z" fill="#7C936D"/>
<path d="M14.8389 16.9766L16.0418 19.0581L17.2422 16.9766H14.8389Z" fill="#CA8930"/>
<path d="M12.4395 16.9746L13.6406 19.056L14.8429 16.9746H12.4395Z" fill="#7D896C"/>
<path d="M14.8429 16.9775L13.5872 19.1295L16.0479 19.0704L14.8429 16.9775Z" fill="#80966B"/>
<path d="M18.4357 19.0737L19.638 16.9922H17.2346L18.4357 19.0737Z" fill="#F5871F"/>
<path d="M18.4357 19.0737L17.2346 16.9922L16.0327 19.0737H18.4357Z" fill="#E59025"/>
<path d="M18.4358 19.0737H20.8391L19.6381 16.9922L18.4358 19.0737Z" fill="#E38626"/>
<path d="M18.4438 19.0737L19.6467 21.1551L20.8478 19.0737H18.4438Z" fill="#E59025"/>
<path d="M16.0417 19.0737L17.2428 21.1551L18.4438 19.0737H16.0417Z" fill="#A28953"/>
<path d="M18.4439 19.0737L17.2429 21.1551H19.6468L18.4439 19.0737Z" fill="#B68243"/>
<path d="M18.449 23.2301L19.6507 21.1484H17.2473L18.449 23.2301Z" fill="#A28953"/>
<path d="M18.449 23.2301L17.2473 21.1484L16.0461 23.2301H18.449Z" fill="#7D896C"/>
<path d="M18.4487 23.2301H20.8515L19.6504 21.1484L18.4487 23.2301Z" fill="#B68243"/>
<path d="M18.4487 23.23L19.6504 25.3107L20.8515 23.23H18.4487Z" fill="#00A895"/>
<path d="M16.0334 23.2266L17.2471 25.3108L18.4488 23.23L16.0334 23.2266Z" fill="#7D896C"/>
<path d="M18.449 23.23L17.2473 25.3107H19.6507L18.449 23.23Z" fill="#6A9875"/>
<path d="M14.844 21.1516L16.0458 19.0703H13.6423L14.844 21.1516Z" fill="#00A293"/>
<path d="M12.4508 21.1322L13.6515 19.0503H11.2485L12.4508 21.1322Z" fill="#00A293"/>
<path d="M14.8437 21.1516L13.6421 19.0703L12.4404 21.1516H14.8437Z" fill="#00A293"/>
<path d="M13.6336 19.0502L12.432 16.9692L11.2302 19.0502H13.6336Z" fill="#00A293"/>
<path d="M14.8438 21.1516H17.2472L16.0456 19.0703L14.8438 21.1516Z" fill="#7D896C"/>
<path d="M14.8438 21.1519L16.0456 23.2329L17.2472 21.1519H14.8438Z" fill="#65807B"/>
<path d="M12.4404 21.1519L13.6421 23.2329L14.8437 21.1519H12.4404Z" fill="#F37927"/>
<path d="M14.844 21.1519L13.6423 23.2329H16.0458L14.844 21.1519Z" fill="#00A293"/>
<path d="M25.634 19.079L26.8357 16.9976H24.4331L25.634 19.079Z" fill="#A9343A"/>
<path d="M25.634 19.079L24.433 16.9976L23.2305 19.079H25.634Z" fill="#DB7D27"/>
<path d="M25.634 19.079H28.0373L26.8357 16.9976L25.634 19.079Z" fill="#C33B32"/>
<path d="M25.634 19.0786L26.8357 21.1597L28.0373 19.0786H25.634Z" fill="#C33B32"/>
<path d="M23.2305 19.0786L24.433 21.1597L25.634 19.0786H23.2305Z" fill="#F37927"/>
<path d="M25.634 19.0786L24.4331 21.1597H26.8357L25.634 19.0786Z" fill="#EA5F2C"/>
<path d="M25.6545 23.2417L24.4534 25.323H26.8569L25.6545 23.2417Z" fill="#FAAB18"/>
<path d="M25.6545 23.2417L26.8569 25.323L28.0585 23.2417H25.6545Z" fill="#F37A20"/>
<path d="M25.6546 23.2417H23.2524L24.4535 25.323L25.6546 23.2417Z" fill="#FAAB18"/>
<path d="M25.6546 23.2417L24.433 21.1602L23.2524 23.2417H25.6546Z" fill="#F58B1F"/>
<path d="M28.0585 23.2417L26.8569 21.1602L25.6545 23.2417H28.0585Z" fill="#ED2937"/>
<path d="M25.6547 23.2417L26.857 21.1602H24.4331L25.6547 23.2417Z" fill="#F68C21"/>
<path d="M22.0657 25.271L20.8628 27.3527H23.2662L22.0657 25.271Z" fill="#AF8A49"/>
<path d="M22.0657 25.271L23.2662 27.3527L24.4685 25.271H22.0657Z" fill="#F9A11B"/>
<path d="M22.0656 25.271H19.6609L20.8627 27.3527L22.0656 25.271Z" fill="#B98740"/>
<path d="M22.0656 25.2706L20.8417 23.1899L19.6609 25.2706H22.0656Z" fill="#A28953"/>
<path d="M24.4685 25.2706L23.2662 23.1899L22.0657 25.2706H24.4685Z" fill="#E58D25"/>
<path d="M22.0656 25.2706L23.2662 23.1899H20.8418L22.0656 25.2706Z" fill="#B98740"/>
<path d="M25.6835 27.3545L24.4832 29.4358H26.8852L25.6835 27.3545Z" fill="#FBB017"/>
<path d="M25.6838 27.3545L26.8855 29.4358L28.0884 27.3545H25.6838Z" fill="#FBB017"/>
<path d="M25.6838 27.3545H23.2805L24.4834 29.4358L25.6838 27.3545Z" fill="#FBB216"/>
<path d="M25.6838 27.3537L24.462 25.2715L23.2805 27.3537H25.6838Z" fill="#F9A719"/>
<path d="M28.0884 27.3537L26.8855 25.2715L25.6838 27.3537H28.0884Z" fill="#F37927"/>
<path d="M25.6836 27.3537L26.8853 25.2715H24.4619L25.6836 27.3537Z" fill="#F68C21"/>
<path d="M29.2752 25.3115L28.0723 27.3933H30.4762L29.2752 25.3115Z" fill="#EA5F2C"/>
<path d="M29.2754 25.3115L30.4764 27.3933L31.6778 25.3115H29.2754Z" fill="#A9343A"/>
<path d="M29.275 25.3115H26.8706L28.0721 27.3933L29.275 25.3115Z" fill="#F37A20"/>
<path d="M29.275 25.311L28.0519 23.23L26.8706 25.311H29.275Z" fill="#EA5F2C"/>
<path d="M31.7134 25.3228L30.4764 23.23L29.2754 25.311L31.7134 25.3228Z" fill="#C33B32"/>
<path d="M29.2753 25.311L30.4764 23.23H28.0522L29.2753 25.311Z" fill="#ED2937"/>
<path d="M32.7974 23.2417L31.5947 25.323H33.9992L32.7974 23.2417Z" fill="#C33B32"/>
<path d="M32.7974 23.2417L33.9992 25.323L35.2001 23.2417H32.7974Z" fill="#F48022"/>
<path d="M32.7973 23.2417H30.3928L31.5946 25.323L32.7973 23.2417Z" fill="#C33B32"/>
<path d="M32.7973 23.2417L31.5737 21.1602L30.3928 23.2417H32.7973Z" fill="#F58B1F"/>
<path d="M35.2001 23.2417L33.9992 21.1602L32.7974 23.2417H35.2001Z" fill="#F37927"/>
<path d="M32.7973 23.2417L33.9991 21.1602H31.5737L32.7973 23.2417Z" fill="#F68C21"/>
<path d="M32.86 27.4199L31.6589 29.5017H34.0629L32.86 27.4199Z" fill="#E85335"/>
<path d="M32.8601 27.4199L34.0629 29.5017L35.2645 27.4199H32.8601Z" fill="#F48022"/>
<path d="M32.8602 27.4199H30.4578L31.6591 29.5017L32.8602 27.4199Z" fill="#A9343A"/>
<path d="M32.8602 27.4196L31.6387 25.3384L30.4578 27.4196H32.8602Z" fill="#C33B32"/>
<path d="M35.2645 27.4196L34.0629 25.3384L32.8601 27.4196H35.2645Z" fill="#F37927"/>
<path d="M32.8601 27.4199L34.0959 25.3198L31.5947 25.323L32.8601 27.4199Z" fill="#ED2937"/>
<path d="M29.2575 29.4751L28.0552 31.5573H30.4591L29.2575 29.4751Z" fill="#F5851F"/>
<path d="M29.2578 29.4751L30.4594 31.5573L31.6608 29.4751H29.2578Z" fill="#ED2937"/>
<path d="M29.2577 29.4751H26.8535L28.0554 31.5573L29.2577 29.4751Z" fill="#FCB514"/>
<path d="M29.2577 29.4748L28.0352 27.394L26.8535 29.4748H29.2577Z" fill="#F9A719"/>
<path d="M31.6608 29.4748L30.4594 27.394L29.2578 29.4748H31.6608Z" fill="#C33B32"/>
<path d="M29.2579 29.4748L30.4595 27.394H28.0354L29.2579 29.4748Z" fill="#F37927"/>
<path d="M29.244 33.624L28.043 35.7052H30.4456L29.244 33.624Z" fill="#F5871F"/>
<path d="M29.2439 33.624L30.4455 35.7052L31.6478 33.624H29.2439Z" fill="#F48022"/>
<path d="M29.244 33.624H26.8411L28.0429 35.7052L29.244 33.624Z" fill="#F9A719"/>
<path d="M29.244 33.6243L28.0219 31.5425L26.8411 33.6243H29.244Z" fill="#FCB514"/>
<path d="M31.6478 33.6243L30.4455 31.5425L29.2439 33.6243H31.6478Z" fill="#EA5F2C"/>
<path d="M29.244 33.6243L30.4457 31.5425H28.022L29.244 33.6243Z" fill="#F37927"/>
<path d="M25.7058 31.4834L24.5042 33.5651H26.9081L25.7058 31.4834Z" fill="#FCB514"/>
<path d="M25.7058 31.4834L26.9081 33.5651L28.1093 31.4834H25.7058Z" fill="#FCB514"/>
<path d="M25.7061 31.4834H23.3027L24.5044 33.5651L25.7061 31.4834Z" fill="#F9A61A"/>
<path d="M25.7061 31.4836L24.4841 29.4023L23.3027 31.4836H25.7061Z" fill="#FCB514"/>
<path d="M28.1093 31.4836L26.9081 29.4023L25.7058 31.4836H28.1093Z" fill="#FCB514"/>
<path d="M25.7059 31.4836L26.9082 29.4023H24.4839L25.7059 31.4836Z" fill="#FBB116"/>
<path d="M22.0644 29.3892L20.8621 31.4709L23.2936 31.4661L22.0644 29.3892Z" fill="#F89F1B"/>
<path d="M22.0642 29.3894L23.3024 31.4835L24.493 29.3877L22.0642 29.3894Z" fill="#FBB017"/>
<path d="M22.0643 29.3892H19.6599L20.8619 31.4709L22.0643 29.3892Z" fill="#F9A51A"/>
<path d="M22.0643 29.3894L20.8407 27.3086L19.6599 29.3894H22.0643Z" fill="#E68F24"/>
<path d="M24.4671 29.3894L23.2648 27.3086L22.0642 29.3894H24.4671Z" fill="#FCB514"/>
<path d="M22.0643 29.3894L23.2649 27.3086H20.8408L22.0643 29.3894Z" fill="#F9A719"/>
<path d="M18.4737 27.3086L17.2717 29.3894H19.6753L18.4737 27.3086Z" fill="#DB8A27"/>
<path d="M18.4736 27.3086L19.6753 29.3894L20.8771 27.3086H18.4736Z" fill="#E59025"/>
<path d="M18.4738 27.3086H16.0703L17.2718 29.3894L18.4738 27.3086Z" fill="#E38626"/>
<path d="M18.4738 27.3088L17.2513 25.2271L16.0703 27.3088H18.4738Z" fill="#7D896C"/>
<path d="M20.8771 27.3088L19.6753 25.2271L18.4736 27.3088H20.8771Z" fill="#D1862D"/>
<path d="M18.4737 27.3088L19.6753 25.2271H17.2512L18.4737 27.3088Z" fill="#6A9875"/>
<path d="M14.8317 25.3081L13.6301 27.3893H16.0335L14.8317 25.3081Z" fill="#F5871F"/>
<path d="M14.8318 25.3081L16.0336 27.3893L17.2348 25.3081H14.8318Z" fill="#7D896C"/>
<path d="M14.8317 25.3081H12.4282L13.6301 27.3893L14.8317 25.3081Z" fill="#F58B1F"/>
<path d="M14.8317 25.308L13.6086 23.2266L12.4282 25.308H14.8317Z" fill="#F58B1F"/>
<path d="M17.2472 25.3108L16.0336 23.2266L14.8318 25.308L17.2472 25.3108Z" fill="#7B846E"/>
<path d="M14.832 25.308L16.0338 23.2266H13.6089L14.832 25.308Z" fill="#00A293"/>
<path d="M18.5 31.4673L17.2971 33.5484H19.7012L18.5 31.4673Z" fill="#F5871F"/>
<path d="M18.5 31.4673L19.7012 33.5484L20.903 31.4673H18.5Z" fill="#F48022"/>
<path d="M18.5001 31.4673H16.0962L17.2972 33.5484L18.5001 31.4673Z" fill="#F58B1F"/>
<path d="M18.5001 31.4674L17.2769 29.3872L16.0962 31.4674H18.5001Z" fill="#F58B1F"/>
<path d="M20.903 31.4674L19.7012 29.3872L18.5 31.4674H20.903Z" fill="#F4921F"/>
<path d="M18.5 31.4674L19.7012 29.3872H17.2769L18.5 31.4674Z" fill="#F68C21"/>
<path d="M22.1166 33.5234L20.9138 35.6058H23.3171L22.1166 33.5234Z" fill="#F5871F"/>
<path d="M22.1167 33.5234L23.3172 35.6058L24.5196 33.5234H22.1167Z" fill="#F37927"/>
<path d="M22.1167 33.5234H19.7124L20.9139 35.6058L22.1167 33.5234Z" fill="#F58B1F"/>
<path d="M22.1167 33.5236L20.8937 31.4434L19.7124 33.5236H22.1167Z" fill="#F37927"/>
<path d="M24.5196 33.5236L23.3172 31.4434L22.1167 33.5236H24.5196Z" fill="#F68C21"/>
<path d="M22.1166 33.5236L23.3171 31.4434H20.8936L22.1166 33.5236Z" fill="#FAAA19"/>
<path d="M25.7058 35.667L24.5042 37.7488H26.9081L25.7058 35.667Z" fill="#F5871F"/>
<path d="M25.7058 35.667L26.9081 37.7488L28.1093 35.667H25.7058Z" fill="#F48022"/>
<path d="M25.7225 35.6387L23.3315 35.5811L24.5206 37.7188L25.7225 35.6387Z" fill="#F9A11B"/>
<path d="M25.7225 35.6389L24.5004 33.5571L23.3315 35.5812L25.7225 35.6389Z" fill="#F68C21"/>
<path d="M28.1093 35.6672L26.9081 33.5854L25.7058 35.6672H28.1093Z" fill="#FCB514"/>
<path d="M25.7223 35.6389L26.9246 33.5571H24.5002L25.7223 35.6389Z" fill="#FAA819"/>
<path d="M22.1166 37.6377L20.9138 39.7195H23.3171L22.1166 37.6377Z" fill="#F5871F"/>
<path d="M22.1167 37.6377L23.3172 39.7195L24.5196 37.6377H22.1167Z" fill="#F48022"/>
<path d="M22.1167 37.6377H19.7124L20.9139 39.7195L22.1167 37.6377Z" fill="#F58B1F"/>
<path d="M22.1167 37.6377L20.8937 35.5566L19.7124 37.6377H22.1167Z" fill="#F58B1F"/>
<path d="M24.5196 37.6377L23.3172 35.5566L22.1167 37.6377H24.5196Z" fill="#F5851F"/>
<path d="M22.1166 37.6377L23.3171 35.5566H20.8936L22.1166 37.6377Z" fill="#F68C21"/>
<path d="M19.6961 37.6759L20.898 35.5957H18.4736L19.6961 37.6759Z" fill="#F68C21"/>
<path d="M18.1406 39.1217L16.9185 37.0415L15.7371 39.1217H18.1406Z" fill="#F58B1F"/>
<path d="M20.5442 39.1217L19.3427 37.0415L18.1409 39.1217H20.5442Z" fill="#F37927"/>
<path d="M18.1408 39.1217L19.3426 37.0415H16.9187L18.1408 39.1217Z" fill="#F68C21"/>
<path d="M14.8366 29.3892L13.635 31.4709H16.039L14.8366 29.3892Z" fill="#F5871F"/>
<path d="M14.875 29.3809L16.0769 31.4611L17.278 29.3809H14.875Z" fill="#F48022"/>
<path d="M14.8366 29.3892H12.4338L13.6349 31.4709L14.8366 29.3892Z" fill="#F58B1F"/>
<path d="M14.8366 29.3894L13.6135 27.3086L12.4338 29.3894H14.8366Z" fill="#F58B1F"/>
<path d="M17.2699 29.3805L16.0679 27.2993L14.8657 29.3805H17.2699Z" fill="#D37B2D"/>
<path d="M14.8652 29.3894L16.0675 27.3086H13.6433L14.8652 29.3894Z" fill="#F68C21"/>
<path d="M29.3107 37.7842H26.9084L28.1091 39.8654L29.3107 37.7842Z" fill="#F58B1F"/>
<path d="M29.3107 37.784L28.0887 35.7026L26.9084 37.784H29.3107Z" fill="#F58B1F"/>
<path d="M29.3109 37.784L30.5131 35.7026H28.0889L29.3109 37.784Z" fill="#F68C21"/>
<path d="M32.855 31.5571H30.4526L31.6532 33.6389L32.855 31.5571Z" fill="#A9343A"/>
<path d="M32.855 31.5568L31.632 29.4751L30.4526 31.5568H32.855Z" fill="#84332D"/>
<path d="M32.8548 31.5568L34.0569 29.4751H31.6318L32.8548 31.5568Z" fill="#84332D"/>
<path d="M29.2255 21.1602L28.0239 23.2417H30.4273L29.2255 21.1602Z" fill="#E64D32"/>
<path d="M29.2256 21.1602L30.4275 23.2417L31.6284 21.1602H29.2256Z" fill="#D54C35"/>
<path d="M29.2258 21.1602H26.8232L28.0243 23.2417L29.2258 21.1602Z" fill="#C33B32"/>
<path d="M29.2258 21.1597L28.0243 19.0786L26.8232 21.1597H29.2258Z" fill="#E64D32"/>
<path d="M31.6284 21.1597L30.4275 19.0786L29.2256 21.1597H31.6284Z" fill="#F37927"/>
<path d="M29.2255 21.1597L30.4273 19.0786H28.0239L29.2255 21.1597Z" fill="#F68C21"/>
<path d="M15.5957 37.0862L16.7977 35.0044H14.395L15.5957 37.0862Z" fill="#A9343A"/>
<path d="M15.5956 37.0862L14.3949 35.0044L13.1931 37.0862H15.5956Z" fill="#C33B32"/>
<path d="M15.5959 37.0862H18.0004L16.7979 35.0044L15.5959 37.0862Z" fill="#84332D"/>
<path d="M15.5959 37.0869L16.7979 39.1675L18.0004 37.0869H15.5959Z" fill="#ED2937"/>
<path d="M13.1931 37.0869L14.3949 39.1675L15.5956 37.0869H13.1931Z" fill="#A9343A"/>
<path d="M15.5957 37.0869L14.395 39.1675H16.7977L15.5957 37.0869Z" fill="#D9272E"/>
<path d="M19.1826 35.0061L20.3849 32.9243H17.9814L19.1826 35.0061Z" fill="#A9343A"/>
<path d="M19.1825 35.0061L17.9814 32.9243L16.7798 35.0061H19.1825Z" fill="#C33B32"/>
<path d="M19.1826 35.0061H21.5865L20.385 32.9243L19.1826 35.0061Z" fill="#84332D"/>
<path d="M19.1826 35.0063L20.385 37.0876L21.5865 35.0063H19.1826Z" fill="#ED2937"/>
<path d="M16.7798 35.0063L17.9814 37.0876L19.1825 35.0063H16.7798Z" fill="#A9343A"/>
<path d="M19.1826 35.0063L17.9814 37.0876H20.3849L19.1826 35.0063Z" fill="#D9272E"/>
<path d="M32.8511 19.1122L34.0528 17.0308H31.6494L32.8511 19.1122Z" fill="#A9343A"/>
<path d="M32.8512 19.1122L31.6495 17.0308L30.4482 19.1122H32.8512Z" fill="#C33B32"/>
<path d="M32.8513 19.1122H35.2552L34.053 17.0308L32.8513 19.1122Z" fill="#84332D"/>
<path d="M32.8513 19.1118L34.0107 21.1632L35.2552 19.1118H32.8513Z" fill="#ED2937"/>
<path d="M30.4482 19.1118L31.6495 21.1929L32.8512 19.1118H30.4482Z" fill="#A9343A"/>
<path d="M32.8511 19.1118L31.6494 21.1929L34.0105 21.1632L32.8511 19.1118Z" fill="#D9272E"/>
<path d="M32.8453 23.2723L33.9991 21.1602L31.6433 21.1907L32.8453 23.2723Z" fill="#A9343A"/>
<path d="M32.8451 23.2725L31.6432 21.1909L30.4417 23.2725H32.8451Z" fill="#C33B32"/>
<path d="M32.8455 23.2723H35.2488L33.9993 21.1602L32.8455 23.2723Z" fill="#84332D"/>
<path d="M29.248 21.1905L30.45 19.1089H28.0466L29.248 21.1905Z" fill="#A9343A"/>
<path d="M29.2478 21.1905H31.651L30.4498 19.1089L29.2478 21.1905Z" fill="#C33B32"/>
<path d="M29.2478 21.1909L30.4498 23.2721L31.651 21.1909H29.2478Z" fill="#ED2937"/>
<path d="M33.0587 15.5891L34.2599 13.5078H31.8564L33.0587 15.5891Z" fill="#A9343A"/>
<path d="M33.0589 15.5891L31.8566 13.5078L30.655 15.5891H33.0589Z" fill="#C33B32"/>
<path d="M33.0591 15.5891H35.4621L34.2602 13.5078L33.0591 15.5891Z" fill="#84332D"/>
<path d="M32.8574 14.9556L34.0601 17.0366L35.2618 14.9556H32.8574Z" fill="#D9272E"/>
<path d="M30.4546 14.9556L31.6565 17.0366L32.8571 14.9556H30.4546Z" fill="#A9343A"/>
<path d="M32.8573 14.9556L31.6567 17.0366H34.0601L32.8573 14.9556Z" fill="#84332D"/>
<path d="M36.4491 17.0431L35.2473 14.9619L34.0452 17.0431H36.4491Z" fill="#C33B32"/>
<path d="M36.4492 17.043L37.6504 19.1244L38.8531 17.043H36.4492Z" fill="#ED2937"/>
<path d="M34.0452 17.043L35.2473 19.1244L36.4491 17.043H34.0452Z" fill="#D9272E"/>
<path d="M36.4493 17.043L35.2476 19.1244H37.6505L36.4493 17.043Z" fill="#C33B32"/>
<path d="M36.4493 21.1905L37.6505 19.1089H35.2476L36.4493 21.1905Z" fill="#A9343A"/>
<path d="M36.4494 21.1905L35.2476 19.1089L34.0107 21.1636L36.4494 21.1905Z" fill="#C33B32"/>
<path d="M36.4492 21.1905H38.8531L37.6504 19.1089L36.4492 21.1905Z" fill="#84332D"/>
<path d="M33.999 21.1602L35.2473 23.2719L36.4491 21.1907L33.999 21.1602Z" fill="#A9343A"/>
<path d="M32.804 23.2729L34.0058 25.3546L35.2074 23.2729H32.804Z" fill="#A9343A"/>
<path d="M40.0592 19.1094L38.8576 17.0278L37.6548 19.1094H40.0592Z" fill="#C33B32"/>
<path d="M37.6548 19.1094L38.8576 21.1904L40.0592 19.1094H37.6548Z" fill="#A9343A"/>
<path d="M29.2539 17.0366H31.6584L30.4571 14.9556L29.2539 17.0366Z" fill="#C33B32"/>
<path d="M29.2539 17.0371L30.4571 19.1186L31.6584 17.0371H29.2539Z" fill="#ED2937"/>
<path d="M26.8513 17.0371L28.0529 19.1186L29.2535 17.0371H26.8513Z" fill="#D9272E"/>
<path d="M29.2537 17.0371L28.053 19.1186H30.4569L29.2537 17.0371Z" fill="#84332D"/>
</g>
<path d="M46.4185 37.707L45.1443 34.5409H38.3285L37.0547 37.707H35.7805L41.051 24.8296H42.4219L47.6927 37.707H46.4185ZM41.7266 26.008L38.696 33.5369H44.7777L41.7266 26.008Z" fill="#4B4F54"/>
<path d="M54.8356 37.7069V36.2212C54.1791 37.1852 52.9819 37.938 51.5919 37.938C49.1215 37.938 47.4221 36.047 47.4221 33.0551C47.4221 30.1003 49.1215 28.151 51.5919 28.151C52.9243 28.151 54.0819 28.8268 54.8356 29.8889V24.8296H55.8589V37.7067H54.8356V37.7069ZM54.8356 35.3713V30.7572C54.295 29.8497 53.0791 29.0586 51.7658 29.0586C49.6998 29.0586 48.5033 30.7965 48.5033 33.0551C48.5033 35.3136 49.6998 37.0321 51.7658 37.0321C53.0791 37.0321 54.295 36.2605 54.8356 35.3713Z" fill="#4B4F54"/>
<path d="M60.6852 37.7064L56.7458 28.3818H57.8663L61.2634 36.5295L64.623 28.3818H65.7626L61.8242 37.7064H60.6852Z" fill="#4B4F54"/>
<path d="M72.3728 37.7067V36.6062C71.5423 37.5143 70.5004 37.9379 69.2059 37.9379C67.6031 37.9379 65.9436 36.8391 65.9436 34.8307C65.9436 32.8033 67.5846 31.7411 69.2059 31.7411C70.5004 31.7411 71.5617 32.1668 72.3728 33.0737V31.1817C72.3728 29.7913 71.2529 29.0385 69.8634 29.0385C68.7045 29.0385 67.7967 29.4442 66.9479 30.4094L66.3879 29.7143C67.3527 28.671 68.4338 28.1509 69.9787 28.1509C71.8708 28.1509 73.3762 29.0584 73.3762 31.1429V37.7066H72.3728V37.7067ZM72.3728 35.874V33.826C71.7159 32.9784 70.6733 32.5338 69.553 32.5338C68.0093 32.5338 67.0059 33.5174 67.0059 34.85C67.0059 36.1623 68.0093 37.1469 69.553 37.1469C70.6733 37.1469 71.7159 36.7221 72.3728 35.874Z" fill="#4B4F54"/>
<path d="M81.2576 37.7066V31.3933C81.2576 29.5988 80.3504 29.0584 78.998 29.0584C77.8011 29.0584 76.5643 29.8096 75.9674 30.6606V37.7066H74.9629V28.3821H75.9674V29.7913C76.6432 28.9808 77.9749 28.1509 79.327 28.1509C81.218 28.1509 82.2611 29.0772 82.2611 31.1812V37.7066L81.2576 37.7066Z" fill="#4B4F54"/>
<path d="M83.3809 33.0343C83.3809 30.3123 85.1759 28.1509 87.9176 28.1509C89.5399 28.1509 90.4665 28.7879 91.2191 29.7336L90.524 30.3506C89.8481 29.4243 88.9991 29.0584 87.9758 29.0584C85.7946 29.0584 84.4624 30.7962 84.4624 33.0343C84.4624 35.274 85.7946 37.0319 87.9758 37.0319C88.9991 37.0319 89.8481 36.6454 90.524 35.7191L91.2191 36.3372C90.4665 37.3007 89.5399 37.9377 87.9176 37.9377C85.1759 37.9378 83.3809 35.7574 83.3809 33.0343Z" fill="#4B4F54"/>
<path d="M91.2759 33.0343C91.2759 30.3318 93.1879 28.1509 95.7752 28.1509C98.6118 28.1509 100.177 30.4094 100.177 33.0926V33.3631H92.3763C92.4738 35.3904 93.8252 37.0713 96.0263 37.0713C97.2032 37.0713 98.2848 36.6262 99.0768 35.7773L99.5968 36.4327C98.672 37.399 97.4934 37.9378 95.95 37.9378C93.2264 37.9378 91.2759 35.9121 91.2759 33.0343ZM95.7555 29.0195C93.5554 29.0195 92.4542 30.9487 92.3763 32.5726H99.1535C99.1335 30.9876 98.0921 29.0195 95.7555 29.0195Z" fill="#4B4F54"/>
<path d="M108.641 37.7069V36.2212C107.986 37.1852 106.788 37.938 105.399 37.938C102.926 37.938 101.228 36.047 101.228 33.0551C101.228 30.1003 102.926 28.151 105.399 28.151C106.729 28.151 107.889 28.8268 108.641 29.8889V24.8296H109.666V37.7067H108.641V37.7069ZM108.641 35.3713V30.7572C108.101 29.8497 106.885 29.0586 105.572 29.0586C103.506 29.0586 102.309 30.7965 102.309 33.0551C102.309 35.3136 103.506 37.0321 105.572 37.0321C106.885 37.0321 108.101 36.2605 108.641 35.3713Z" fill="#4B4F54"/>
<path d="M117.618 37.707L115.109 29.5702L113.997 37.707H110.79L112.557 24.7485H116.44L119.145 33.5187L121.698 24.7485H125.603L127.37 37.707H124.142L123.008 29.5702L120.499 37.707H117.618Z" fill="#4B4F54"/>
<path d="M128.461 24.8575C129.421 24.705 131.211 24.5312 132.802 24.5312C137.121 24.5312 140.067 26.7559 140.067 31.0978C140.067 35.8304 136.992 37.882 132.715 37.882C131.166 37.882 129.464 37.7953 128.461 37.5764L128.461 24.8575ZM131.711 34.9795C132.104 35.0237 132.65 35.0463 133.107 35.0463C135.268 35.0463 136.73 33.8025 136.73 31.0978C136.73 28.6108 135.093 27.5194 133.042 27.5194C132.627 27.5194 132.103 27.541 131.711 27.5852V34.9795Z" fill="#4B4F54"/>
<path d="M139.984 37.8816C139.425 37.8816 138.972 37.4263 138.972 36.8664C138.972 36.3017 139.425 35.8516 139.984 35.8516C140.55 35.8516 141 36.3017 141 36.8664C141 37.4263 140.55 37.8816 139.984 37.8816ZM139.984 35.9815C139.497 35.9815 139.1 36.3733 139.1 36.8665C139.1 37.3493 139.497 37.7524 139.984 37.7524C140.473 37.7524 140.871 37.3493 140.871 36.8665C140.871 36.3733 140.473 35.9815 139.984 35.9815ZM140.267 37.4505L139.967 36.9909H139.746V37.4505H139.603V36.2882H140.076C140.273 36.2882 140.435 36.4266 140.435 36.6423C140.435 36.8999 140.206 36.9867 140.14 36.9867L140.45 37.4506H140.267V37.4505ZM140.076 36.4213H139.746V36.8518H140.076C140.177 36.8518 140.287 36.7608 140.287 36.6417C140.287 36.5119 140.177 36.4213 140.076 36.4213Z" fill="#4B4F54"/>
</svg>
