<?xml version="1.0" encoding="utf-8"?>
<!-- Generator: Adobe Illustrator 19.2.1, SVG Export Plug-In . SVG Version: 6.00 Build 0)  -->
<svg version="1.1" id="layer" xmlns="http://www.w3.org/2000/svg" xmlns:xlink="http://www.w3.org/1999/xlink" x="0px" y="0px"
	 viewBox="0 0 652 652" style="enable-background:new 0 0 652 652;" xml:space="preserve">
<style type="text/css">
	.st0{fill:#0173CF;}
</style>
<g id="Page-1">
	<g id="aha">
		<path id="XMLID_496_" class="st0" d="M87.4,381.7l-10.5,47.1c0,1.4-1.4,2.1-2.8,2.1H23.5c-0.7,0-2.1-0.7-2.1-1.4
			c-0.7-0.7-0.7-1.4-0.7-2.1L87.4,225c0,0,1.4-3.5,5.6-4.9c14.8-2.8,37.9-6.3,54.1-9.1c3.5-0.7,4.9,2.8,4.9,2.8l65.3,215
			c0,0.7,0,1.4-0.7,2.1s-1.4,0.7-2.1,0.7h-29.5c-7.7,0-23.2,0.7-28.8,0.7c-1.4,0-2.8-0.7-2.8-2.1l-10.5-47.8L87.4,381.7z
			 M134.5,340.3c-4.2-16.9-10.5-47.1-16.9-73.1c-4.2,18.3-14.1,55.5-19,73.1H134.5z"/>
		<path id="XMLID_492_" class="st0" d="M284.2,290.4c35.8-24.6,66-19,80.8-4.2c17.6,18.3,7.7,42.2,13.3,142.6c0,0.7,0,1.4-0.7,2.1
			s-1.4,0.7-2.1,0.7c-5.6,0-16.2-0.7-21.1-0.7c-8.4,0-26,0.7-33,0.7c-0.7,0-1.4,0-2.1-0.7c-0.7-0.7-0.7-1.4-0.7-2.1
			c0.7-98.4,1.4-111.7-16.2-111.7c-6.3,0-11.2,2.8-16.9,4.9c0,50.6,0.7,65.3,2.8,106.1c0,0.7,0,1.4-0.7,1.4
			c-0.7,0.7-1.4,0.7-1.4,0.7l-56.2,0.7c-0.7,0-1.4,0-1.4-0.7c-0.7-0.7-0.7-1.4-0.7-1.4c1.4-146.8,0-177-4.2-208
			c-2.1-1.4,0.7-1.4,0.7-1.4c25.3-3.5,27.4-4.2,56.2-9.8c0,0,2.8,0,2.8,3.5C284.2,234.9,284.2,290.4,284.2,290.4z"/>
		<path id="XMLID_487_" class="st0" d="M476.7,416.1c-10.5,7.7-30.9,18.3-47.8,18.3c-26,0-42.2-19-42.2-47.1
			c0-43.6,51.3-56.2,87.8-61.1c0.7-7,0.7-14.8-17.6-14.8s-33.7,5.6-49.9,11.9c-0.7,0.7-2.1,0-2.8,0c-0.7-0.7-1.4-1.4-1.4-2.8
			l1.4-33.7c0-1.4,0.7-2.1,2.1-2.8c33-9.8,89.2-17.6,112.4,4.2c14.8,13.3,14.1,30.2,13.3,58.3c-0.7,40.7,0,52,2.1,82.2
			c0,0.7,0,1.4-0.7,2.1s-1.4,0.7-2.1,0.7l-52,0.7c-0.7,0-1.4,0-2.1-0.7c-0.7-0.7-0.7-1.4-0.7-2.1V416.1z M475.3,357.8
			c-13.3,1.4-33.7,2.8-33.7,20.4c0,15.5,16.9,20.4,33.7,9.8V357.8z"/>
		<g id="exclamation" transform="translate(76.000000, 0.000000)">
			<path id="XMLID_486_" class="st0" d="M493.4,358.5c-1.4,0-2.8-1.4-2.8-2.8c-3.5-76.6-4.2-85-8.4-132.8c0-1.4,0.7-2.8,2.8-3.5
				l56.2-9.1c0.7,0,2.1,0,2.8,0.7s0.7,1.4,0.7,2.8c-3.5,34.4-7,99.8-7.7,141.2c0,1.4-1.4,2.8-2.8,2.8L493.4,358.5z"/>
			<path id="Combined-Shape" class="st0" d="M483.6,423.8c0-0.2,0-0.5,0-0.7c0-9.5,0.2-19.3,0.3-27.8c0-3.6-0.1-6.7-0.3-9.4
				c0-0.5,0-1,0.2-1.4c0-1.7-0.1-3.4-0.2-4.8c0-0.7,0-1.4,0.7-2.1c0.7-0.7,1.4-0.7,2.1-0.7c14.2,1.4,39.1,0.7,50.5-0.7
				c0.7,0,1.4,0,2.1,0.7s0.7,1.4,0.7,2.1c0,1.9,0,3.7,0,5.6c0,0.2,0,0.5,0,0.7v43.6c0,0.7,0,1.4-0.7,2.1s-1.4,0.7-2.1,0.7
				c-20.4-0.7-33-0.7-50.6,0.7c-0.7,0-1.4,0-2.1-0.7s-0.7-1.4-0.7-2.1C483.6,427.6,483.6,425.7,483.6,423.8z"/>
		</g>
	</g>
</g>
</svg>
