<svg width="745" height="138" viewBox="0 0 745 138" fill="none" xmlns="http://www.w3.org/2000/svg">
<path opacity="0.1" fill-rule="evenodd" clip-rule="evenodd" d="M47.6323 -87.625C90.8829 -87.625 125.944 -52.5635 125.944 -9.31299C125.944 33.9375 90.8829 68.999 47.6323 68.999C4.3818 68.999 -30.6797 33.9375 -30.6797 -9.31299C-30.6797 -52.5635 4.38179 -87.625 47.6323 -87.625ZM125.702 138.243C125.568 154.337 112.412 167.275 96.3174 167.14C80.2233 167.005 67.2856 153.849 67.4203 137.755C67.5549 121.661 80.7109 108.723 96.805 108.858C112.899 108.993 125.837 122.149 125.702 138.243ZM755.999 68.9995C755.999 25.749 720.938 -9.31251 677.687 -9.3125C634.436 -9.3125 599.375 25.749 599.375 68.9995C599.375 112.25 634.436 147.312 677.687 147.312C720.938 147.312 755.999 112.25 755.999 68.9995Z" fill="#F5C825"/>
</svg>
