<svg width="745" height="138" viewBox="0 0 745 138" fill="none" xmlns="http://www.w3.org/2000/svg">
<path fill-rule="evenodd" clip-rule="evenodd" d="M47.6323 -87.624C90.8829 -87.624 125.944 -52.5625 125.944 -9.31202C125.944 33.9385 90.8829 69 47.6323 69C4.3818 69 -30.6797 33.9385 -30.6797 -9.31201C-30.6797 -52.5625 4.38179 -87.624 47.6323 -87.624ZM125.702 138.244C125.568 154.338 112.412 167.276 96.3174 167.141C80.2233 167.006 67.2856 153.85 67.4203 137.756C67.5549 121.662 80.7109 108.724 96.805 108.859C112.899 108.994 125.837 122.15 125.702 138.244ZM755.999 68.7358C755.999 25.4853 720.938 -9.57618 677.687 -9.57618C634.436 -9.57617 599.375 25.4853 599.375 68.7358C599.375 111.986 634.436 147.048 677.687 147.048C720.938 147.048 755.999 111.986 755.999 68.7358Z" fill="url(#paint0_angular_3534_62653)"/>
<defs>
<radialGradient id="paint0_angular_3534_62653" cx="0" cy="0" r="1" gradientUnits="userSpaceOnUse" gradientTransform="translate(677.687 68.7358) scale(78.312)">
<stop stop-color="#08616D"/>
<stop offset="1" stop-color="#00424B" stop-opacity="0"/>
</radialGradient>
</defs>
</svg>
