<svg xmlns="http://www.w3.org/2000/svg" height="800" width="1200" viewBox="-51.00123 -11.95 442.01066 71.7"><path d="M71.5082 47.1h-5.3v-2.9c-1.7 2.2-4.2 3.6-7.7 3.6-6.8 0-12.2-5.4-12.2-12.8s5.4-13 12.2-13c3.5 0 6 1.4 7.7 3.6v-3h5.3zm-19.7-12.2c0 4.3 2.8 7.8 7.4 7.8 4.4 0 7.4-3.4 7.4-7.8s-3-7.8-7.4-7.8c-4.7-.1-7.4 3.5-7.4 7.8zm41.6-7.4h-9.4v10.6c0 3.3 1.7 4.6 3.9 4.6 1.7 0 3.5-.7 4.9-1.7l2.1 4.3c-2 1.3-4.4 2.4-7.5 2.4-5.5 0-8.8-3-8.8-9.5V27.5h-4.9v-4.8h4.9v-7.4h5.4v7.4h9.4zm9.1-1.9c2-2.8 5-3.5 7.4-3.5 5.8 0 9.9 4 9.9 9.7v15.3h-5.4V33.5c0-4.1-2.1-6.4-5.7-6.4-3.4 0-6.3 2.3-6.3 6.4V47h-5.4V10.4h5.4v15.2zm44.6 9.2c0 .7-.1 1.4-.1 2h-18c.7 4.4 3.8 6.2 7.3 6.2 2.4 0 5-1 7.1-2.6l2.7 3.8c-3 2.5-6.3 3.4-10 3.4-7.3 0-12.5-5.1-12.5-12.8 0-7.6 5-12.8 12.2-12.8 6.6 0 11.3 5.2 11.3 12.8zm-18.1-2h12.7c-.6-3.8-2.8-6-6.2-6-3.8 0-5.9 2.4-6.5 6zm44.6-1.1V47h-5.4V33.5c0-4.1-2.1-6.4-5.7-6.4-3.4 0-6.3 2.3-6.3 6.4V47h-5.4V22.7h5.3v3c2-2.9 5-3.6 7.5-3.6 5.9-.1 10 3.9 10 9.6zm28.7 15.4h-5.3v-2.9c-1.7 2.2-4.2 3.6-7.7 3.6-6.8 0-12.2-5.4-12.2-12.8s5.4-13 12.2-13c3.5 0 6 1.4 7.7 3.6v-3h5.3zm-19.7-12.2c0 4.3 2.8 7.8 7.4 7.8 4.4 0 7.4-3.4 7.4-7.8s-3-7.8-7.4-7.8c-4.6-.1-7.4 3.5-7.4 7.8zm28.1-7.7c1.9-3.2 5.3-4.5 8.5-4.5 6 0 10.1 3.7 10.1 9.7v14.7h-2.9V33.3c0-4.8-2.8-7.8-7.7-7.8-4.5 0-8 3.2-8 8v13.7h-2.9V10.4h2.9zm45.9 7.7c0 .4 0 .8-.1 1.2h-20.1c.4 5.6 4.4 8.8 9.3 8.8 3.3 0 6-1.3 8.1-3.4l1.6 2c-3 3.1-6.4 4-9.8 4-7 0-12.1-5-12.1-12.4 0-7.2 5.1-12.4 11.9-12.4 6.3 0 11.1 5.1 11.2 12.2zm-20.2-1.3h17.2c-.4-5-3.8-8.4-8.3-8.4-4.9.1-8.3 3.6-8.9 8.4zm47.2 13.5h-2.9v-4.6c-1.9 3-5.1 5-9.5 5-6.7 0-12-5.2-12-12.4s5.3-12.4 12-12.4c4.4 0 7.6 2 9.5 5v-4.6h2.9zm-21.5-12c0 5.4 3.9 9.6 9.4 9.6 5.4 0 9.3-4.1 9.3-9.6s-3.9-9.7-9.3-9.7c-5.5 0-9.4 4.3-9.4 9.7zm30.3 12h-2.9V10.4h2.9zm22.3-21.4h-11.1v13.1c0 4.1 2.1 5.9 5.3 5.9 2.1 0 4-.7 5.4-1.8l1.4 2.2c-1.7 1.4-4.1 2.4-7 2.4-5 0-8-2.8-8-8.6V25.7h-5.5V23h5.5v-7.8h2.9V23h11.1zm6.7 1.5c1.9-3.2 5.3-4.5 8.5-4.5 6 0 10.1 3.7 10.1 9.7v14.7h-2.9V33.3c0-4.8-2.8-7.8-7.7-7.8-4.5 0-8 3.2-8 8v13.7h-2.9V10.4h2.9z" fill="#5A2D81"/><path d="M17.7082 22.6s-4.7-5.7-4.8-12c-.1-6.2 4.4-10.6 4.4-10.6s4.7 5.7 4.8 12c.1 6.2-4.4 10.6-4.4 10.6z" fill="#BACA33"/><path d="M42.8082 15.5s.5 12.6-5.7 21.3c-6.3 8.6-17 10.1-17 10.1s-.5-12.6 5.7-21.3c6.2-8.7 17-10.1 17-10.1zm-17.5-1.5c0 1.7 1.3 3 3 3s3-1.3 3-3-1.3-3-3-3-3 1.4-3 3z" fill="#799B3E"/><path d="M17.5082 35.6c0-.1 0-.1 0 0 0-2.6-.4-10.1-4.4-15.6-4.9-6.6-13.1-7.7-13.1-7.7s-.4 9.7 4.4 16.3c3.4 4.7 8.6 6.6 11.3 7.3v10.4c0 .5.4.9.9.9s.9-.4.9-.9V35.6z" fill="#BACA33"/></svg>