<svg width="150" height="50" viewBox="0 0 150 50" fill="none" xmlns="http://www.w3.org/2000/svg">
<path d="M36.362 34.214H34.257V33.0623C33.5819 33.936 32.589 34.492 31.1989 34.492C28.4982 34.492 26.3535 32.3474 26.3535 29.4084C26.3535 26.4694 28.4982 24.2453 31.1989 24.2453C32.589 24.2453 33.5819 24.8013 34.257 25.675V24.4836H36.362V34.214ZM28.5379 29.3687C28.5379 31.0765 29.65 32.4665 31.4769 32.4665C33.2244 32.4665 34.4159 31.1162 34.4159 29.3687C34.4159 27.6211 33.2244 26.2708 31.4769 26.2708C29.6102 26.2311 28.5379 27.6609 28.5379 29.3687ZM45.0598 26.4297H41.3265V30.6396C41.3265 31.9502 42.0017 32.4665 42.8755 32.4665C43.5506 32.4665 44.2655 32.1885 44.8215 31.7913L45.6556 33.4991C44.8613 34.0154 43.9081 34.4523 42.6769 34.4523C40.4925 34.4523 39.1818 33.2608 39.1818 30.6793V26.4297H37.2358V24.5233H39.1818V21.5843H41.3265V24.5233H45.0598V26.4297ZM48.674 25.675C49.4683 24.563 50.6598 24.285 51.613 24.285C53.9166 24.285 55.5449 25.8736 55.5449 28.1375V34.214H53.4003V28.8126C53.4003 27.1843 52.5662 26.2708 51.1364 26.2708C49.7861 26.2708 48.6343 27.1843 48.6343 28.8126V34.1743H46.4896V19.6382H48.6343V25.675H48.674ZM66.3874 29.3289C66.3874 29.607 66.3477 29.885 66.3477 30.1233H59.1988C59.4768 31.8708 60.708 32.5857 62.0981 32.5857C63.0513 32.5857 64.0839 32.1885 64.918 31.553L65.9903 33.0623C64.7988 34.0552 63.4882 34.4126 62.0187 34.4126C59.1194 34.4126 57.0541 32.3871 57.0541 29.3289C57.0541 26.3105 59.0399 24.2453 61.8995 24.2453C64.5208 24.2453 66.3874 26.3105 66.3874 29.3289ZM59.1988 28.5346H64.2428C64.0045 27.0254 63.1307 26.1516 61.7804 26.1516C60.2712 26.1516 59.4371 27.1048 59.1988 28.5346ZM76.9122 28.0977V34.1743H74.7676V28.8126C74.7676 27.1843 73.9335 26.2708 72.5037 26.2708C71.1534 26.2708 70.0016 27.1843 70.0016 28.8126V34.1743H67.8569V24.5233H69.9619V25.7148C70.7562 24.563 71.9477 24.285 72.9406 24.285C75.2839 24.2453 76.9122 25.8339 76.9122 28.0977ZM88.3108 34.214H86.2058V33.0623C85.5307 33.936 84.5378 34.492 83.1477 34.492C80.447 34.492 78.3023 32.3474 78.3023 29.4084C78.3023 26.4694 80.447 24.2453 83.1477 24.2453C84.5378 24.2453 85.5307 24.8013 86.2058 25.675V24.4836H88.3108V34.214ZM80.4867 29.3687C80.4867 31.0765 81.5988 32.4665 83.4257 32.4665C85.1732 32.4665 86.3647 31.1162 86.3647 29.3687C86.3647 27.6211 85.1732 26.2708 83.4257 26.2708C81.5988 26.2311 80.4867 27.6609 80.4867 29.3687ZM91.647 26.3105C92.4016 25.0396 93.7519 24.5233 95.0228 24.5233C97.4058 24.5233 99.0342 25.9928 99.0342 28.3757V34.214H97.8824V28.7332C97.8824 26.8268 96.7703 25.6353 94.8243 25.6353C93.037 25.6353 91.647 26.9062 91.647 28.8126V34.2537H90.4952V19.6382H91.647V26.3105ZM109.877 29.3687C109.877 29.5275 109.877 29.6864 109.837 29.8452H101.854C102.013 32.0694 103.602 33.3403 105.548 33.3403C106.858 33.3403 107.931 32.824 108.765 31.9899L109.4 32.7842C108.209 34.0154 106.858 34.3729 105.508 34.3729C102.728 34.3729 100.702 32.3871 100.702 29.4481C100.702 26.5885 102.728 24.5233 105.428 24.5233C107.931 24.5233 109.837 26.5488 109.877 29.3687ZM101.854 28.8523H108.685C108.526 26.8665 107.176 25.5162 105.389 25.5162C103.443 25.5559 102.092 26.946 101.854 28.8523ZM120.6 34.214H119.448V32.3871C118.694 33.5786 117.423 34.3729 115.675 34.3729C113.014 34.3729 110.909 32.3077 110.909 29.4481C110.909 26.5885 113.014 24.5233 115.675 24.5233C117.423 24.5233 118.694 25.3176 119.448 26.5091V24.6821H120.6V34.214ZM112.061 29.4481C112.061 31.5928 113.61 33.2608 115.794 33.2608C117.939 33.2608 119.488 31.6325 119.488 29.4481C119.488 27.2637 117.939 25.5956 115.794 25.5956C113.61 25.5956 112.061 27.3034 112.061 29.4481ZM124.095 34.214H122.943V19.6382H124.095V34.214ZM132.952 25.7148H128.543V30.9176C128.543 32.5459 129.377 33.2608 130.648 33.2608C131.482 33.2608 132.237 32.9828 132.793 32.5459L133.349 33.4197C132.674 33.9757 131.721 34.3729 130.569 34.3729C128.583 34.3729 127.392 33.2608 127.392 30.9573V25.7148H125.207V24.6424H127.392V21.5446H128.543V24.6424H132.952V25.7148ZM135.613 26.3105C136.367 25.0396 137.718 24.5233 138.989 24.5233C141.372 24.5233 143 25.9928 143 28.3757V34.214H141.848V28.7332C141.848 26.8268 140.736 25.6353 138.79 25.6353C137.003 25.6353 135.613 26.9062 135.613 28.8126V34.2537H134.461V19.6382H135.613V26.3105Z" fill="#5A2D81"/>
<path d="M14.9947 24.4837C14.9947 24.4837 13.128 22.2199 13.0883 19.7177C13.0486 17.2553 14.8358 15.5078 14.8358 15.5078C14.8358 15.5078 16.7025 17.7716 16.7422 20.2738C16.7819 22.7362 14.9947 24.4837 14.9947 24.4837Z" fill="#BACA33"/>
<path d="M24.9635 21.6637C24.9635 21.6637 25.1621 26.6679 22.6997 30.1232C20.1976 33.5388 15.9479 34.1346 15.9479 34.1346C15.9479 34.1346 15.7493 29.1303 18.2117 25.675C20.6742 22.2197 24.9635 21.6637 24.9635 21.6637ZM18.0132 21.068C18.0132 21.7431 18.5295 22.2594 19.2047 22.2594C19.8798 22.2594 20.3961 21.7431 20.3961 21.068C20.3961 20.3928 19.8798 19.8765 19.2047 19.8765C18.5295 19.8765 18.0132 20.4325 18.0132 21.068Z" fill="#799B3E"/>
<path d="M14.9152 29.6469C14.9152 29.6072 14.9152 29.6072 14.9152 29.6469C14.9152 28.6143 14.7564 25.6356 13.1677 23.4512C11.2216 20.8299 7.96491 20.3931 7.96491 20.3931C7.96491 20.3931 7.80605 24.2455 9.71242 26.8668C11.0628 28.7335 13.128 29.4881 14.2004 29.7661V33.8966C14.2004 34.0952 14.3592 34.254 14.5578 34.254C14.7564 34.254 14.9152 34.0952 14.9152 33.8966V29.6469Z" fill="#BACA33"/>
</svg>
