<svg width="100" height="100" viewBox="0 0 100 100" fill="none" xmlns="http://www.w3.org/2000/svg">
<path d="M79.2469 89C76.7141 89 73.7837 86.9514 73.6588 86.8533L59.802 77.788H19.3333C11.6099 77.788 4 70.5383 4 63.2517V25.764C4 18.8209 11.0533 14 19.3333 14H82.9383C90.8321 14 96 18.6001 96 25.764V63.2394C96 70.7959 90.321 77.1747 82.3704 77.1747V84.1055C82.3704 88.3621 80.519 89 79.2469 89ZM19.3333 15.2267C11.8143 15.2267 5.1358 19.6183 5.1358 25.764V63.2394C5.1358 69.8881 12.2005 76.5613 19.3333 76.5613H60.1314L74.4425 85.8229C74.4993 85.8719 77.0889 87.9205 79.2583 87.9205C80.2351 87.9205 81.2459 87.3808 81.2459 84.1055V76.5613H82.9383C90.4119 76.5613 94.8642 69.3852 94.8642 63.2517V25.764C94.8642 19.2993 90.1733 15.2267 82.9383 15.2267H19.3333Z" stroke="#00424B" stroke-width="2" stroke-miterlimit="10"/>
<path d="M25.4669 24L29.0719 29.1459L35.1888 30.9098L31.3 35.8541L31.4753 42.0902L25.4669 40L19.4584 42.0902L19.6337 35.8541L15.7449 30.9098L21.8618 29.1459L25.4669 24Z" fill="#10292D"/>
<path d="M50.024 24L53.6291 29.1459L59.7459 30.9098L55.8571 35.8541L56.0324 42.0902L50.024 40L44.0155 42.0902L44.1908 35.8541L40.3021 30.9098L46.4189 29.1459L50.024 24Z" fill="#10292D"/>
<path d="M74.5855 25.7428L77.3716 29.7197L77.5742 30.0089L77.9135 30.1067L82.6031 31.4591L79.6326 35.2359L79.4089 35.5204L79.419 35.8822L79.5536 40.6695L74.9141 39.0555L74.5855 38.9412L74.2569 39.0555L69.6174 40.6695L69.752 35.8822L69.7621 35.5204L69.5384 35.2359L66.5679 31.4591L71.2575 30.1067L71.5968 30.0089L71.7994 29.7197L74.5855 25.7428Z" stroke="#10292D" stroke-width="2"/>
</svg>
