<svg width="100" height="100" viewBox="0 0 100 100" fill="none" xmlns="http://www.w3.org/2000/svg">
<g clip-path="url(#clip0_2056_33127)">
<g clip-path="url(#clip1_2056_33127)">
<path d="M14.8125 8.00025C14.3152 8.04711 13.8535 8.27834 13.5181 8.64845C13.1827 9.01856 12.9979 9.50077 13 10.0002V84.0002C13.0001 84.5307 13.2108 85.0393 13.5859 85.4144C13.9609 85.7895 14.4696 86.0002 15 86.0002H30.6563C30.9213 86.004 31.1844 85.955 31.4304 85.8562C31.6763 85.7574 31.9001 85.6106 32.0889 85.4246C32.2776 85.2385 32.4275 85.0167 32.5298 84.7722C32.6321 84.5277 32.6847 84.2653 32.6847 84.0002C32.6847 83.7352 32.6321 83.4728 32.5298 83.2283C32.4275 82.9838 32.2776 82.762 32.0889 82.5759C31.9001 82.3898 31.6763 82.2431 31.4304 82.1443C31.1844 82.0455 30.9213 81.9965 30.6563 82.0002H17V12.0002H53V24.0002C53.0001 24.5307 53.2108 25.0393 53.5859 25.4144C53.9609 25.7895 54.4696 26.0002 55 26.0002H67V38.4377C65.3752 38.1545 63.7052 38.0315 62 38.0315C46.0075 38.0315 33.0313 51.0076 33.0313 67.0002C33.0313 82.9927 46.0075 95.969 62 95.969C77.9926 95.969 90.9688 82.9927 90.9688 67.0002C90.9688 54.1451 82.5993 43.2257 71 39.4377V24.0002C71.0021 23.7331 70.9506 23.4683 70.8486 23.2214C70.7466 22.9745 70.5962 22.7506 70.4063 22.5627L56.4063 8.56275C56.0294 8.19816 55.5244 7.99616 55 8.00025H15C14.9376 7.99731 14.875 7.99731 14.8125 8.00025ZM57 14.8127L64.1875 22.0002H57V14.8127ZM24.8125 22.0002C24.5498 22.0125 24.2921 22.0764 24.0542 22.1883C23.8162 22.3001 23.6026 22.4578 23.4255 22.6522C23.2484 22.8466 23.1114 23.074 23.0223 23.3214C22.9331 23.5688 22.8936 23.8313 22.9059 24.094C22.9182 24.3567 22.9821 24.6144 23.094 24.8523C23.2059 25.0903 23.3636 25.3039 23.5581 25.4809C23.7526 25.6579 23.98 25.7949 24.2274 25.884C24.4748 25.9731 24.7373 26.0126 25 26.0002H45C45.265 26.004 45.5282 25.955 45.7741 25.8562C46.02 25.7574 46.2439 25.6107 46.4326 25.4246C46.6214 25.2385 46.7712 25.0167 46.8735 24.7722C46.9758 24.5277 47.0285 24.2653 47.0285 24.0002C47.0285 23.7352 46.9758 23.4728 46.8735 23.2283C46.7712 22.9838 46.6214 22.762 46.4326 22.5759C46.2439 22.3898 46.02 22.2431 45.7741 22.1443C45.5282 22.0455 45.265 21.9965 45 22.0002H25C24.9376 21.9973 24.875 21.9973 24.8125 22.0002ZM24.8125 31.0002C24.5498 31.0125 24.2921 31.0764 24.0542 31.1883C23.8162 31.3001 23.6026 31.4578 23.4255 31.6522C23.2484 31.8466 23.1114 32.074 23.0223 32.3214C22.9331 32.5688 22.8936 32.8313 22.9059 33.094C22.9182 33.3567 22.9821 33.6144 23.094 33.8523C23.2059 34.0903 23.3636 34.3039 23.5581 34.4809C23.7526 34.6579 23.98 34.7949 24.2274 34.884C24.4748 34.9731 24.7373 35.0126 25 35.0002H45C45.265 35.004 45.5282 34.955 45.7741 34.8562C46.02 34.7574 46.2439 34.6107 46.4326 34.4246C46.6214 34.2385 46.7712 34.0167 46.8735 33.7722C46.9758 33.5277 47.0285 33.2653 47.0285 33.0002C47.0285 32.7352 46.9758 32.4728 46.8735 32.2283C46.7712 31.9838 46.6214 31.762 46.4326 31.5759C46.2439 31.3898 46.02 31.2431 45.7741 31.1443C45.5282 31.0455 45.265 30.9965 45 31.0002H25C24.9376 30.9973 24.875 30.9973 24.8125 31.0002ZM24.8125 40.0002C24.5498 40.0125 24.2921 40.0764 24.0542 40.1883C23.8162 40.3001 23.6026 40.4578 23.4255 40.6522C23.2484 40.8466 23.1114 41.074 23.0223 41.3214C22.9331 41.5688 22.8936 41.8313 22.9059 42.094C22.9182 42.3567 22.9821 42.6144 23.094 42.8523C23.2059 43.0903 23.3636 43.3039 23.5581 43.4809C23.7526 43.6579 23.98 43.7949 24.2274 43.884C24.4748 43.9731 24.7373 44.0126 25 44.0002H35.3438C35.6088 44.004 35.8719 43.955 36.1179 43.8562C36.3638 43.7574 36.5876 43.6106 36.7764 43.4246C36.9651 43.2385 37.115 43.0167 37.2173 42.7722C37.3196 42.5277 37.3722 42.2653 37.3722 42.0002C37.3722 41.7352 37.3196 41.4728 37.2173 41.2283C37.115 40.9838 36.9651 40.762 36.7764 40.5759C36.5876 40.3898 36.3638 40.2431 36.1179 40.1443C35.8719 40.0455 35.6088 39.9965 35.3438 40.0002H25C24.9376 39.9973 24.875 39.9973 24.8125 40.0002ZM62 41.969C75.8308 41.969 87.0313 53.1694 87.0313 67.0002C87.0313 80.831 75.8308 92.0315 62 92.0315C48.1692 92.0315 36.9688 80.831 36.9688 67.0002C36.9688 53.1694 48.1692 41.969 62 41.969ZM61.9688 49.0627C61.7061 49.0668 61.4469 49.1226 61.2058 49.2269C60.9647 49.3312 60.7465 49.482 60.5637 49.6706C60.3809 49.8592 60.237 50.082 60.1403 50.3262C60.0436 50.5705 59.9959 50.8313 60 51.094V54.094C58.7187 54.3545 57.4767 54.8585 56.4063 55.6877C54.7913 56.9387 53.6563 59.0147 53.6563 61.4377C53.6562 61.4482 53.6562 61.4586 53.6563 61.469C53.6963 63.7481 54.7779 65.6858 56.3125 66.8127C57.8471 67.9396 59.6213 68.4583 61.5 68.9377C63.2516 69.3847 64.6251 69.8475 65.3438 70.3752C66.0469 70.8915 66.3106 71.3038 66.3438 72.5315C66.3445 72.5585 66.3433 72.566 66.3438 72.594C66.327 73.8186 65.8817 74.5391 65.125 75.1252C64.3603 75.7176 63.1884 76.0763 62 76.094H61.9688C59.1363 76.083 58.0914 74.8664 57.4375 73.5315C57.3294 73.2847 57.1725 73.0624 56.9763 72.8778C56.7801 72.6931 56.5486 72.5501 56.2957 72.4571C56.0428 72.3642 55.7738 72.3232 55.5047 72.3368C55.2356 72.3504 54.9721 72.4182 54.7299 72.5362C54.4877 72.6541 54.2718 72.8198 54.0951 73.0232C53.9185 73.2267 53.7848 73.4637 53.7021 73.7201C53.6193 73.9765 53.5892 74.2469 53.6136 74.5153C53.6379 74.7836 53.7162 75.0442 53.8438 75.2815C54.8079 77.2498 56.8845 79.2824 60 79.9065V82.8752C59.9963 83.1403 60.0452 83.4034 60.1441 83.6493C60.2429 83.8953 60.3896 84.1191 60.5757 84.3078C60.7618 84.4966 60.9835 84.6465 61.2281 84.7487C61.4726 84.851 61.735 84.9037 62 84.9037C62.2651 84.9037 62.5275 84.851 62.772 84.7487C63.0165 84.6465 63.2382 84.4966 63.4243 84.3078C63.6104 84.1191 63.7571 83.8953 63.856 83.6493C63.9548 83.4034 64.0038 83.1403 64 82.8752V79.9065C65.2829 79.6462 66.5221 79.1116 67.5938 78.2815C69.2088 77.0306 70.3438 74.9546 70.3438 72.5315C70.3439 72.5211 70.3439 72.5107 70.3438 72.5002C70.3038 70.2211 69.2221 68.2834 67.6875 67.1565C66.1529 66.0297 64.3787 65.5421 62.5 65.0627C60.7485 64.6157 59.3749 64.1217 58.6563 63.594C57.9455 63.0721 57.6844 62.6975 57.6563 61.4377C57.656 61.4237 57.6565 61.4205 57.6563 61.4065C57.6648 60.1593 58.1109 59.4358 58.875 58.844C59.6398 58.2515 60.8116 57.8928 62 57.8752H62.0313C64.8637 57.8852 65.9086 59.134 66.5625 60.469C66.7998 60.9437 67.2156 61.3051 67.7188 61.4738C68.222 61.6426 68.7715 61.605 69.2471 61.3693C69.7226 61.1336 70.0853 60.719 70.2557 60.2164C70.4261 59.7137 70.3904 59.1641 70.1563 58.6877C69.1921 56.7189 67.1156 54.7181 64 54.094V51.094C64.0042 50.8261 63.9545 50.5601 63.8539 50.3117C63.7533 50.0634 63.6039 49.8378 63.4144 49.6483C63.225 49.4589 62.9994 49.3094 62.751 49.2088C62.5027 49.1082 62.2367 49.0586 61.9688 49.0627Z" fill="#00424B"/>
</g>
</g>
<defs>
<clipPath id="clip0_2056_33127">
<rect width="100" height="100" fill="white"/>
</clipPath>
<clipPath id="clip1_2056_33127">
<rect width="100" height="100" fill="white"/>
</clipPath>
</defs>
</svg>
