<svg width="100" height="100" viewBox="0 0 100 100" fill="none" xmlns="http://www.w3.org/2000/svg">
<g clip-path="url(#clip0_2056_33133)">
<path d="M75 10C64.7739 10 56 17.7238 56 27.9688C56 31.6871 57.3371 34.35 58.7813 36.875L54.3125 43.9062C54.1231 44.2084 54.0179 44.5558 54.0079 44.9123C53.9979 45.2688 54.0833 45.6215 54.2555 45.9339C54.4276 46.2462 54.6801 46.5069 54.9868 46.6889C55.2936 46.8708 55.6434 46.9675 56 46.9688H73.5938C73.7397 46.9921 73.7953 46.9984 73.8438 47C73.9408 47.003 73.9697 47.001 74 47C74.0607 46.998 74.0868 47.002 74.125 47C74.278 46.992 74.5375 46.9688 75 46.9688C85.2705 46.9688 94 38.2304 94 27.9688C93.9954 17.7269 85.2239 10 75 10ZM75 14C83.2341 14 89.9964 20.0002 90 27.9688C90 35.9232 82.9649 42.9688 75 42.9688C74.6598 42.9688 74.5396 42.9924 74.3438 43C74.3229 42.9997 74.3021 42.9997 74.2813 43C74.1884 42.983 74.0944 42.9725 74 42.9688H59.6563L62.7813 38.0625C62.9842 37.7534 63.0975 37.3941 63.1085 37.0245C63.1195 36.6549 63.0279 36.2894 62.8438 35.9688C61.1621 33.0951 60 31.2112 60 27.9688C60 19.9976 66.7624 14 75 14ZM68 19.9688C66.3648 19.9688 64.9505 20.697 63.875 21.75C62.7995 22.803 62 24.2693 62 25.9688C62 27.6682 62.7995 29.1032 63.875 30.1562C64.9505 31.2093 66.3648 31.9688 68 31.9688C69.6352 31.9688 71.0495 31.2093 72.125 30.1562C72.9783 29.3208 73.5366 28.1992 73.7813 26.9375C73.7857 26.915 73.8084 26.8976 73.8125 26.875C73.945 26.5917 74.0092 26.2813 74 25.9688C74.0097 25.6326 73.9345 25.2994 73.7813 25C73.5363 23.7387 72.9781 22.5854 72.125 21.75C71.0497 20.697 69.6354 19.9688 68 19.9688ZM82 19.9688C80.3648 19.9688 78.9505 20.697 77.875 21.75C76.7995 22.803 76 24.2693 76 25.9688C76 27.6682 76.7995 29.1032 77.875 30.1562C78.9505 31.2093 80.3648 31.9688 82 31.9688C83.6352 31.9688 85.0495 31.2093 86.125 30.1562C86.9783 29.3208 87.5366 28.1992 87.7813 26.9375C87.7857 26.915 87.8084 26.8976 87.8125 26.875C87.945 26.5917 88.0092 26.2813 88 25.9688C88.0097 25.6326 87.9345 25.2994 87.7813 25C87.5363 23.7387 86.9781 22.5854 86.125 21.75C85.0497 20.697 83.6354 19.9688 82 19.9688ZM68 23.9688C68.2971 23.9688 68.9023 24.1927 69.3438 24.625C69.7852 25.0573 69.9999 25.6057 70 25.9688C70 26.332 69.7851 26.8804 69.3438 27.3125C68.9025 27.7446 68.2979 27.9688 68 27.9688C67.7022 27.9688 67.1288 27.7446 66.6875 27.3125C66.2462 26.8804 66 26.332 66 25.9688C66 25.6055 66.2462 25.0571 66.6875 24.625C67.1288 24.1929 67.7022 23.9688 68 23.9688ZM82 23.9688C82.2971 23.9688 82.9023 24.1927 83.3438 24.625C83.7852 25.0573 83.9999 25.6057 84 25.9688C84 26.332 83.7851 26.8804 83.3438 27.3125C82.9025 27.7446 82.2979 27.9688 82 27.9688C81.7022 27.9688 81.1288 27.7446 80.6875 27.3125C80.2462 26.8804 80 26.332 80 25.9688C80 25.6055 80.2462 25.0571 80.6875 24.625C81.1288 24.1929 81.7022 23.9688 82 23.9688ZM7.81252 44.9688C7.31524 45.0156 6.85349 45.2468 6.51808 45.617C6.18267 45.9871 5.99786 46.4693 6.00002 46.9688V68.9688C6.00007 69.4992 6.2108 70.0078 6.58586 70.3829C6.96092 70.758 7.4696 70.9687 8.00002 70.9688H28.4375C44.4649 80.1792 52.6048 84.9946 56.375 87.3125C58.2895 88.4895 59.169 89.0757 59.5 89.3125C59.5828 89.3717 59.6458 89.4274 59.6563 89.4375C60.0176 89.7872 60.4973 89.9881 61 90H82C88.0006 90 93 86.1826 93 81C93 75.8174 88.2609 70.9688 82 70.9688H71C71.1867 69.3699 70.9953 67.6882 70.4375 66.0938C69.5129 63.4509 67.6817 60.9468 65.0625 59.2812L43.0625 45.3125C42.7448 45.1104 42.3765 45.0021 42 45L8.00002 44.9688C7.93755 44.9658 7.87498 44.9658 7.81252 44.9688ZM10 48.9688L41.4375 49L62.9375 62.6562C64.7074 63.7816 66.0182 65.6135 66.6563 67.4375C67.2944 69.2615 67.2001 70.9722 66.625 71.9688C66.0119 73.031 65.0326 73.6036 63.5 73.7188C61.9675 73.8338 59.9656 73.3736 58 72.25L44 64.25C43.5402 63.9877 42.9952 63.9182 42.4843 64.0567C41.9734 64.1952 41.5381 64.5304 41.2737 64.989C41.0093 65.4476 40.9373 65.9923 41.0734 66.5038C41.2095 67.0154 41.5427 67.4522 42 67.7188L56 75.7188C58.5498 77.1762 61.2511 77.9088 63.7813 77.7188C65.8972 77.5598 67.9234 76.5976 69.3125 74.9688H82C86.1405 74.9688 89 78.432 89 81C89 83.568 86.4008 86 82 86H61.7188C61.2105 85.6393 60.3637 85.0712 58.4688 83.9062C54.5686 81.5087 46.5543 76.7585 30 67.25C29.6973 67.0698 29.3523 66.9728 29 66.9688H10V48.9688ZM59.3438 86.9375C59.3102 86.9881 59.2789 87.0403 59.25 87.0938C59.2566 87.0677 59.2813 86.9687 59.2813 86.9688C59.2812 86.9688 59.3379 86.9425 59.3438 86.9375ZM59.0313 87.9062C59.0273 87.9791 59.0273 88.0521 59.0313 88.125C59.0277 88.0982 59 88.0311 59 88.0312C59 88.0314 59.0246 87.9323 59.0313 87.9062ZM59.0625 88.3125C59.0709 88.365 59.0813 88.4171 59.0938 88.4688C59.0903 88.4547 59.0659 88.4515 59.0625 88.4375C59.0549 88.4039 59.071 88.3665 59.0625 88.3125Z" fill="#00424B"/>
</g>
<defs>
<clipPath id="clip0_2056_33133">
<rect width="100" height="100" fill="white"/>
</clipPath>
</defs>
</svg>
