<?xml version="1.0" encoding="utf-8"?>
<!-- Generator: Adobe Illustrator 26.0.3, SVG Export Plug-In . SVG Version: 6.00 Build 0)  -->
<svg version="1.0" id="Layer_1" xmlns="http://www.w3.org/2000/svg" xmlns:xlink="http://www.w3.org/1999/xlink" x="0px" y="0px"
	 viewBox="0 0 660.5 481.2" style="enable-background:new 0 0 660.5 481.2;" xml:space="preserve">
<style type="text/css">
	.st0{fill-rule:evenodd;clip-rule:evenodd;fill:#EC5B47;}
	.st1{fill-rule:evenodd;clip-rule:evenodd;fill:#27C4C7;}
	.st2{fill:#EC5B47;}
	.st3{fill-rule:evenodd;clip-rule:evenodd;fill:#222222;}
</style>
<path class="st0" d="M94.2,183.4l5.1-6.5l47.1,32.8c9.6,6.7,9.2,20.3-0.8,26.4l-47.1,28.9c-11.4,7-26.5-0.7-26.5-13.5v-61.7
	c0-13.2,16-20.8,27.3-12.9L94.2,183.4z M80.6,251.6v-61.7c0-6.6,8-10.4,13.7-6.5l47.1,32.8c4.8,3.3,4.6,10.1-0.4,13.2l-47.1,28.9
	C88.1,261.9,80.6,258,80.6,251.6z"/>
<path class="st1" d="M94.2,216.3l5.1-6.7l47.1,34.1c9.6,6.9,9.2,21.1-0.8,27.4l-47.1,30.1c-11.4,7.3-26.5-0.7-26.5-14V223
	c0-13.7,16-21.6,27.3-13.4L94.2,216.3z M80.6,287.2V223c0-6.9,8-10.8,13.7-6.7l47.1,34.1c4.8,3.5,4.6,10.5-0.4,13.7l-47.1,30.1
	C88.1,297.8,80.6,293.8,80.6,287.2z"/>
<path class="st2" d="M117.9,253l2.1-10.4l22.9-14.6l2.1,8.3L117.9,253z"/>
<path class="st3" d="M188.8,236.8h32c9.5,0,17.2,7.4,17.2,16.4c0,9.1-7.7,16.4-17.2,16.4h-32V236.8z M197.8,261.1v-15.8h23.1
	c4.6,0,8.3,3.5,8.3,7.9c0,4.4-3.7,7.9-8.3,7.9H197.8z"/>
<path class="st3" d="M188.8,211.3h26.8c9.4,0,17,7.8,17,17.3c0,9.6-7.6,15.5-17,15.5h-26.8V211.3z M197.6,236.9v-16.6h18
	c4.5,0,8.2,3.7,8.2,8.3c0,4.6-3.7,8.3-8.2,8.3H197.6z"/>
<path class="st3" d="M252.7,269.7v-58.4h9.1v58.4H252.7z"/>
<path class="st3" d="M400.5,269.7v-58.4h9.1v58.4H400.5z"/>
<path class="st3" d="M278.2,238.2c0-14.9,11.7-27,26.1-27h15.2v9h-15.2c-9.6,0-17.4,8-17.4,18v4.5c0,9.9,7.8,18,17.4,18h10.9v-11.1
	h-7.7v-7.4h16.4v18.5c0,5,0,9,0,9h-19.6c-14.4,0-26.1-12.1-26.1-27V238.2z"/>
<path class="st3" d="M340.3,211.3h40.1v9h-16v49.4h-8v-49.4h-16.1V211.3z"/>
<path class="st3" d="M477.5,227v42.7h8.7v-58.4h-11.7l-16.7,33.4l-16.7-33.4h-11.5v58.4h8.7V227l13.9,27h11.3L477.5,227z"/>
<path class="st3" d="M506.3,211.3c0,0,5.5,0,12.2,0H541v9.3h-22.4c-2.3,0-4.1,0-4.1,0v14.9h23.5v9.3h-23.5v15.5c0,0,1.8,0,4.1,0H541
	v9.3h-22.4c-6.8,0-12.2,0-12.2,0V211.3z"/>
</svg>
