<svg width="150" height="50" viewBox="0 0 150 50" fill="none" xmlns="http://www.w3.org/2000/svg">
<path fill-rule="evenodd" clip-rule="evenodd" d="M23.3396 9.31341L35.1397 17.5309C37.5448 19.2095 37.4446 22.6167 34.9392 24.145L23.1391 31.3854C20.2831 33.1391 16.5 31.21 16.5 28.0032V12.5453C16.5 9.23825 20.5085 7.33419 23.3396 9.31341ZM18.6546 28.0282V12.5703C18.6546 10.9168 20.6589 9.96479 22.0869 10.9419L33.887 19.1594C35.0896 19.9861 35.0395 21.6897 33.7868 22.4664L21.9867 29.7068C20.5336 30.6087 18.6546 29.6317 18.6546 28.0282Z" fill="#EC5B47"/>
<path fill-rule="evenodd" clip-rule="evenodd" d="M23.3396 17.5055L35.1397 26.0487C37.5448 27.7774 37.4446 31.3349 34.9392 32.9133L23.1391 40.4543C20.2831 42.2832 16.5 40.279 16.5 36.9469V20.8626C16.5 17.4303 20.5085 15.4511 23.3396 17.5055ZM18.6546 36.9469V20.8626C18.6546 19.134 20.6589 18.1569 22.0869 19.1841L33.887 27.7272C35.0896 28.6041 35.0395 30.3579 33.7868 31.1596L21.9867 38.7006C20.5336 39.6025 18.6546 38.6004 18.6546 36.9469Z" fill="#27C4C7"/>
<path d="M27.9993 28.3791L28.5254 25.7735L34.2626 22.1157L34.7887 24.1951L27.9993 28.3791Z" fill="#EC5B47"/>
<path fill-rule="evenodd" clip-rule="evenodd" d="M45.7622 24.3203H53.7793C56.1593 24.3203 58.0884 26.1743 58.0884 28.4291C58.0884 30.7089 56.1593 32.5378 53.7793 32.5378H45.7622V24.3203ZM48.017 30.4083V26.4498H53.8043C54.9568 26.4498 55.8837 27.3267 55.8837 28.4291C55.8837 29.5314 54.9568 30.4083 53.8043 30.4083H48.017Z" fill="#222222"/>
<path fill-rule="evenodd" clip-rule="evenodd" d="M45.7622 17.9321H52.4765C54.8315 17.9321 56.7356 19.8863 56.7356 22.2664C56.7356 24.6715 54.8315 26.1496 52.4765 26.1496H45.7622V17.9321ZM47.9669 24.3458V20.1869H52.4765C53.6039 20.1869 54.5309 21.1139 54.5309 22.2664C54.5309 23.4188 53.6039 24.3458 52.4765 24.3458H47.9669Z" fill="#222222"/>
<path fill-rule="evenodd" clip-rule="evenodd" d="M61.7715 32.5633V17.9321H64.0513V32.5633H61.7715Z" fill="#222222"/>
<path fill-rule="evenodd" clip-rule="evenodd" d="M98.8 32.5633V17.9321H101.08V32.5633H98.8Z" fill="#222222"/>
<path fill-rule="evenodd" clip-rule="evenodd" d="M68.1597 24.6706C68.1597 20.9377 71.0909 17.9062 74.6986 17.9062H78.5067V20.161H74.6986C72.2935 20.161 70.3393 22.1653 70.3393 24.6706V25.798C70.3393 28.2783 72.2935 30.3076 74.6986 30.3076H77.4294V27.5267H75.5003V25.6728H79.609V30.3076C79.609 31.5603 79.609 32.5624 79.609 32.5624H74.6986C71.0909 32.5624 68.1597 29.531 68.1597 25.798V24.6706Z" fill="#222222"/>
<path fill-rule="evenodd" clip-rule="evenodd" d="M83.7183 17.9321H93.7646V20.1869H89.7561V32.5633H87.7518V20.1869H83.7183V17.9321Z" fill="#222222"/>
<path fill-rule="evenodd" clip-rule="evenodd" d="M118.091 21.8655V32.5633H120.271V17.9321H117.34L113.156 26.2999L108.972 17.9321H106.091V32.5633H108.27V21.8655L111.753 28.6299H114.584L118.091 21.8655Z" fill="#222222"/>
<path fill-rule="evenodd" clip-rule="evenodd" d="M125.306 17.9321C125.306 17.9321 126.684 17.9321 128.363 17.9321H134V20.2621H128.388C127.812 20.2621 127.361 20.2621 127.361 20.2621V23.995H133.248V26.325H127.361V30.2083C127.361 30.2083 127.812 30.2083 128.388 30.2083H134V32.5382H128.388C126.684 32.5382 125.331 32.5382 125.331 32.5382V17.9321H125.306Z" fill="#222222"/>
</svg>
