<svg width="601" height="212" viewBox="0 0 601 212" fill="none" xmlns="http://www.w3.org/2000/svg">
<path d="M0.0800781 81.9999C2.08008 81.2399 1.69008 79.2999 2.02008 77.7899C3.7461 69.1548 6.68876 60.8082 10.7601 52.9999C25.4601 32.8599 54.7601 28.0499 75.0301 36.8699C77.0801 37.7599 80.4501 37.7999 79.5701 41.6599C78.0501 42.5099 76.36 42.4299 74.72 42.6599C66.05 43.6099 60.3801 48.6599 58.5201 57.1199C57.8027 60.5355 57.4674 64.0203 57.5201 67.51C57.5201 89.27 57.5701 111.03 57.5201 132.79C57.6048 136.772 58.0026 140.741 58.7101 144.66C58.6501 156.66 64.1401 166.46 71.6301 175.17C79.7001 184.55 90.1601 190.17 102.28 192.69C103.6 192.96 105.46 192.52 105.8 194.69C58.8 200.27 11.9201 165.46 2.12006 117.69C1.79006 116.06 2.45006 113.86 0.120056 113.08V109.08C0.268502 108.959 0.388164 108.806 0.470337 108.633C0.55251 108.461 0.595154 108.271 0.595154 108.08C0.595154 107.888 0.55251 107.699 0.470337 107.526C0.388164 107.353 0.268502 107.201 0.120056 107.08L0.0800781 81.9999Z" fill="#FCC10F"/>
<path d="M80.0698 41C69.5898 34.6 58.1797 32.9201 46.1797 34.4801C33.372 36.0576 21.5486 42.1572 12.8398 51.68C12.2045 52.1918 11.5053 52.6188 10.7598 52.9501C24.9298 25.4801 47.3098 8.15005 77.3998 2.25005C117.08 -5.53995 149.74 7.50006 175.08 38.8901C176.51 40.6601 178.45 42.1501 179.08 44.5101C189.03 64.0801 181.57 91.8801 164.78 106.51C162.36 108.62 160.22 111.43 156.48 111.38C154.48 109.93 155.88 108.38 156.48 106.99C161.186 95.41 158.13 86.5867 147.31 80.5201C125.87 68.4701 104.78 55.8301 83.2498 43.9401C81.9398 43.2901 80.5098 42.68 80.0698 41Z" fill="#FE9800"/>
<path d="M155.48 111C163.71 108 168.76 101.41 173.2 94.4901C182.45 80.0501 184.58 64.4901 179.56 47.9701C179.311 46.848 179.154 45.7076 179.09 44.5601C191.94 63.1601 196.72 83.9901 194.72 106.18C190.47 153.25 154.41 189.46 107.31 194.65C106.811 194.685 106.31 194.685 105.81 194.65C85.2801 191.19 70.0502 180.55 61.3202 161.41C59.0902 156.52 56.8702 151.41 57.6402 145.78C59.9102 146.42 60.8101 148.59 62.3001 150.07C68.8701 156.6 75.9001 157.68 83.9101 152.95C103.47 141.4 122.99 129.75 142.61 118.29C146.84 115.75 150.52 112.2 155.48 111Z" fill="#FE5722"/>
<path fill-rule="evenodd" clip-rule="evenodd" d="M529.46 117.82C552.92 117.94 576.43 118 599.92 118L600.02 95.9699C598.88 94.4366 598.647 92.6553 598.414 90.8763C598.309 90.0795 598.205 89.2833 598.02 88.51C594.54 74.11 587.53 62.2999 573.9 55.2999C561.997 49.3128 548.271 48.0469 535.474 51.7561C522.677 55.4654 511.755 63.8755 504.9 75.2999C497.59 87.5799 495.12 101.02 495.83 115.12C496.94 136.52 504.94 154.34 524.94 164.02C546.31 174.37 568.1 173.56 589.31 162.56C589.396 162.515 589.485 162.471 589.575 162.426C590.656 161.881 591.91 161.25 591.91 159.8V134.3C580.6 142.218 566.768 145.689 553.06 144.05C539.19 142.58 529.23 133.84 526.71 121.23C526.16 118.46 526.75 117.82 529.46 117.82ZM542.849 96.8722C544.9 96.881 546.95 96.8899 549 96.8899C550.93 96.8899 552.859 96.8806 554.787 96.8713C558.856 96.8517 562.92 96.8321 566.97 96.8999C569.55 96.9599 570.43 96.3299 570.12 93.5199C568.93 83.0799 561.24 75.8599 550.77 75.6599C539.98 75.4599 530.71 82.9499 527.98 93.7699C527.33 96.3699 528.1 96.9399 530.54 96.8899C534.64 96.8366 538.745 96.8544 542.849 96.8722Z" fill="#00304B"/>
<path fill-rule="evenodd" clip-rule="evenodd" d="M288.217 167.158C289.42 166.105 289.7 163.997 290.26 159.78C311.55 178.88 346.27 172.15 360.05 148.55C374.74 123.34 374.61 97.32 359.83 72.21C349.53 54.72 328.64 46.72 309.27 51.1C302.09 52.73 295.85 56.25 289.8 61.59C289.8 56.4209 289.795 51.3217 289.79 46.2743C289.774 31.9587 289.759 18.0594 289.87 4.16003C289.9 0.860025 288.98 -0.0799895 285.7 0.0200105C277.7 0.230011 269.7 0.170011 261.7 0.0200105C258.91 -0.0399895 257.65 0.300024 257.65 3.69002C257.75 57.2967 257.75 110.9 257.65 164.5C257.65 167.75 258.74 168.36 261.65 168.27C266.159 168.135 270.663 168.162 275.165 168.188C276.994 168.199 278.822 168.21 280.65 168.21C284.893 168.21 287.015 168.21 288.217 167.158ZM333.13 131.16C337.06 125.1 338.36 118.31 338.71 110.89C338.56 103.85 337.41 96.7 333.49 90.25C324.5 75.59 304 73.6601 293 86.4001C290.815 88.6988 289.629 91.7691 289.7 94.94C289.723 96.084 289.748 97.2284 289.773 98.3731C289.953 106.704 290.133 115.05 289.64 123.35C289.13 131.88 293.56 136.73 300.26 140.24C311.7 146.21 325.99 142.16 333.13 131.16Z" fill="#00304B"/>
<path fill-rule="evenodd" clip-rule="evenodd" d="M457.18 60.8099L457.18 60.8101C456.181 60.1496 455.202 59.4653 454.229 58.7849C452.242 57.3949 450.278 56.0213 448.21 54.9001C427.52 43.8501 399.93 51.3601 387.21 72.7801C372.52 97.5401 372.58 123.29 387.14 148.15C397.42 165.72 418 173.97 437.49 169.92C444.9 168.39 451.33 164.82 457.62 159.33C457.646 159.903 457.669 160.346 457.688 160.708C457.72 161.325 457.74 161.706 457.74 162.09C457.742 165.335 457.747 168.582 457.751 171.83C457.767 183.551 457.784 195.295 457.69 207.04C457.66 209.91 458.12 211.15 461.42 211.04C469.57 210.8 477.74 210.86 485.89 211.04C488.74 211.11 489.56 210.26 489.49 207.42C489.361 201.455 489.386 195.501 489.41 189.553C489.42 187.174 489.43 184.797 489.43 182.42C489.37 140.8 489.37 99.1801 489.43 57.5601L489.43 57.5534C489.44 54.3871 489.447 52.2103 485.11 52.5101C480.916 52.7967 476.722 52.7315 472.527 52.6663C470.722 52.6382 468.916 52.6101 467.11 52.6101C458.28 52.6101 458.28 52.6101 457.18 60.8099ZM457.68 121.48V110.48C457.68 109.18 457.641 107.876 457.602 106.571C457.516 103.699 457.43 100.826 457.76 98C458.66 89.7099 454.1 84.8399 447.76 81.1199C442.039 77.8636 435.259 77.0088 428.908 78.7427C422.557 80.4766 417.153 84.6579 413.88 90.3699C406.63 103.16 406.6 116.57 413.3 129.57C418.02 138.63 426.11 142.94 436.3 142.89C449.24 142.82 457.68 134.27 457.68 121.48Z" fill="#00304B"/>
</svg>
