<?xml version="1.0" encoding="UTF-8"?>
<!DOCTYPE svg PUBLIC "-//W3C//DTD SVG 1.1//EN" "http://www.w3.org/Graphics/SVG/1.1/DTD/svg11.dtd">
<svg xmlns="http://www.w3.org/2000/svg" version="1.1" width="60px" height="60px" style="shape-rendering:geometricPrecision; text-rendering:geometricPrecision; image-rendering:optimizeQuality; fill-rule:evenodd; clip-rule:evenodd" xmlns:xlink="http://www.w3.org/1999/xlink">
<g><path style="opacity:0.89" fill="#9abf13" d="M 13.5,5.5 C 23.33,3.82919 27.1634,7.82919 25,17.5C 24.2411,19.6349 22.7411,20.9682 20.5,21.5C 19.5159,24.4281 19.1826,27.4281 19.5,30.5C 24.1978,29.8999 28.8645,29.0666 33.5,28C 36.7033,26.8281 38.2033,24.6614 38,21.5C 33.7827,18.617 32.4494,14.617 34,9.5C 34.3742,8.58377 34.8742,7.75044 35.5,7C 46.0359,3.00296 50.5359,6.50296 49,17.5C 48.2411,19.6349 46.7411,20.9682 44.5,21.5C 43.5709,24.5247 42.2376,27.3581 40.5,30C 33.9432,32.7085 27.2765,35.0418 20.5,37C 25.8819,41.0025 26.8819,46.0025 23.5,52C 11.3333,55.8333 7.16667,51.6667 11,39.5C 12.0852,38.7069 13.2519,38.0402 14.5,37.5C 15.8333,32.1667 15.8333,26.8333 14.5,21.5C 10.8213,20.1511 9.1546,17.4845 9.5,13.5C 9.2824,9.93421 10.6157,7.26754 13.5,5.5 Z M 15.5,10.5 C 20.1585,10.0146 21.4919,11.848 19.5,16C 14.7282,16.8104 13.3948,14.9771 15.5,10.5 Z M 39.5,10.5 C 44.1585,10.0146 45.4919,11.848 43.5,16C 38.7282,16.8104 37.3948,14.9771 39.5,10.5 Z M 15.5,42.5 C 20.1585,42.0146 21.4919,43.848 19.5,48C 14.7282,48.8104 13.3948,46.9771 15.5,42.5 Z"/></g>
</svg>
