<?xml version="1.0" encoding="UTF-8"?>
<!DOCTYPE svg PUBLIC "-//W3C//DTD SVG 1.1//EN" "http://www.w3.org/Graphics/SVG/1.1/DTD/svg11.dtd">
<svg xmlns="http://www.w3.org/2000/svg" version="1.1" width="58px" height="58px" style="shape-rendering:geometricPrecision; text-rendering:geometricPrecision; image-rendering:optimizeQuality; fill-rule:evenodd; clip-rule:evenodd" xmlns:xlink="http://www.w3.org/1999/xlink">
<g><path style="opacity:0.925" fill="#99be13" d="M 23.5,-0.5 C 26.8333,-0.5 30.1667,-0.5 33.5,-0.5C 34.4188,6.45512 37.7521,8.28845 43.5,5C 47.5494,5.68647 50.5494,8.01981 52.5,12C 48.1943,18.2332 49.8609,22.0665 57.5,23.5C 57.5,26.8333 57.5,30.1667 57.5,33.5C 50.5449,34.4188 48.7116,37.7521 52,43.5C 51.3135,47.5494 48.9802,50.5494 45,52.5C 38.7668,48.1943 34.9335,49.8609 33.5,57.5C 30.1667,57.5 26.8333,57.5 23.5,57.5C 22.5812,50.5449 19.2479,48.7116 13.5,52C 9.45062,51.3135 6.45062,48.9802 4.5,45C 8.80573,38.7668 7.13906,34.9335 -0.5,33.5C -0.5,30.1667 -0.5,26.8333 -0.5,23.5C 6.45512,22.5812 8.28845,19.2479 5,13.5C 5.68647,9.45062 8.01981,6.45062 12,4.5C 18.2332,8.80573 22.0665,7.13906 23.5,-0.5 Z M 17.5,12.5 C 23.833,13.3346 25.4997,16.5012 22.5,22C 26.5,26.6667 30.5,26.6667 34.5,22C 31.5437,17.4011 32.7104,14.2345 38,12.5C 42.8581,14.0503 44.3581,17.217 42.5,22C 45.2636,24.976 46.097,28.476 45,32.5C 40.8794,33.1388 36.7127,33.8055 32.5,34.5C 35.4094,37.5589 36.7427,41.2256 36.5,45.5C 31.1667,45.5 25.8333,45.5 20.5,45.5C 20.2573,41.2256 21.5906,37.5589 24.5,34.5C 20.5408,33.6735 16.5408,33.1735 12.5,33C 10.8473,28.8996 11.514,25.2329 14.5,22C 12.8121,17.9034 13.8121,14.7367 17.5,12.5 Z"/></g>
<g><path style="opacity:0.827" fill="#99bd12" d="M 16.5,15.5 C 18.1667,15.5 19.8333,15.5 21.5,15.5C 21.8287,21.9363 19.8287,22.9363 15.5,18.5C 16.1272,17.5832 16.4606,16.5832 16.5,15.5 Z"/></g>
<g><path style="opacity:0.795" fill="#99bd12" d="M 35.5,15.5 C 37.288,15.2148 38.9547,15.5481 40.5,16.5C 41.5527,19.953 40.2193,21.453 36.5,21C 35.5939,19.3005 35.2606,17.4672 35.5,15.5 Z"/></g>
<g><path style="opacity:0.8" fill="#99be14" d="M 17.5,23.5 C 22.3731,23.373 24.3731,25.7064 23.5,30.5C 20.1667,30.5 16.8333,30.5 13.5,30.5C 13.1868,27.1626 14.5201,24.8293 17.5,23.5 Z"/></g>
<g><path style="opacity:0.822" fill="#99be14" d="M 36.5,23.5 C 41.2116,23.5448 43.5449,25.8781 43.5,30.5C 40.1667,30.5 36.8333,30.5 33.5,30.5C 32.9093,27.3247 33.9093,24.9913 36.5,23.5 Z"/></g>
<g><path style="opacity:0.751" fill="#99be13" d="M 26.5,28.5 C 30.1378,27.7366 31.6378,29.0699 31,32.5C 26.4155,34.4126 24.9155,33.0793 26.5,28.5 Z"/></g>
<g><path style="opacity:0.811" fill="#99be14" d="M 26.5,36.5 C 31.8114,35.9724 34.1447,38.3057 33.5,43.5C 30.1667,43.5 26.8333,43.5 23.5,43.5C 22.9093,40.3247 23.9093,37.9913 26.5,36.5 Z"/></g>
</svg>
