<?xml version="1.0" encoding="UTF-8"?>
<!DOCTYPE svg PUBLIC "-//W3C//DTD SVG 1.1//EN" "http://www.w3.org/Graphics/SVG/1.1/DTD/svg11.dtd">
<svg xmlns="http://www.w3.org/2000/svg" version="1.1" width="96px" height="96px" style="shape-rendering:geometricPrecision; text-rendering:geometricPrecision; image-rendering:optimizeQuality; fill-rule:evenodd; clip-rule:evenodd" xmlns:xlink="http://www.w3.org/1999/xlink">
<g><path style="opacity:0.995" fill="#9abe13" d="M 36.5,11.5 C 43.8409,11.3337 51.1742,11.5003 58.5,12C 59.3366,13.0113 59.67,14.1779 59.5,15.5C 67.5069,15.3336 75.5069,15.5003 83.5,16C 85.3333,16.5 86.5,17.6667 87,19.5C 87.6667,38.1667 87.6667,56.8333 87,75.5C 86.5,77.3333 85.3333,78.5 83.5,79C 59.5,79.6667 35.5,79.6667 11.5,79C 9.66667,78.5 8.5,77.3333 8,75.5C 7.33333,56.8333 7.33333,38.1667 8,19.5C 8.5,17.6667 9.66667,16.5 11.5,16C 19.4931,15.5003 27.4931,15.3336 35.5,15.5C 35.4326,14.0413 35.7659,12.7079 36.5,11.5 Z M 45.5,32.5 C 47.1439,32.2865 48.6439,32.6198 50,33.5C 51.3158,36.6883 51.8158,40.0217 51.5,43.5C 54.1873,43.3359 56.854,43.5026 59.5,44C 63.5,46.3333 63.5,48.6667 59.5,51C 56.854,51.4974 54.1873,51.6641 51.5,51.5C 51.6641,54.1873 51.4974,56.854 51,59.5C 48.6667,63.5 46.3333,63.5 44,59.5C 43.5026,56.854 43.3359,54.1873 43.5,51.5C 40.8127,51.6641 38.146,51.4974 35.5,51C 31.5,48.6667 31.5,46.3333 35.5,44C 38.146,43.5026 40.8127,43.3359 43.5,43.5C 43.1113,39.5863 43.7779,35.9196 45.5,32.5 Z"/></g>
</svg>
