<svg width="19" height="23" viewBox="0 0 19 23" fill="none" xmlns="http://www.w3.org/2000/svg">
<path d="M0.393199 3.90838L1.45302 3.90838H3.99113L7.0592 3.90838H9.7189C10.1468 3.90838 10.5785 3.91982 11.0064 3.90838H11.0237C11.2293 3.90838 11.4256 3.68916 11.4162 3.43183C11.4068 3.1745 11.2435 2.95528 11.0237 2.95528H9.96384L7.42573 2.95528H4.35765H1.69795C1.2701 2.95528 0.838325 2.94384 0.41047 2.95528H0.393199C0.187522 2.95528 -0.00875092 3.1745 0.000675201 3.43183C0.0108805 3.68917 0.173388 3.90838 0.393199 3.90838Z" fill="#00424B"/>
<path d="M14.6763 3.90818H17.4616H17.8479C18.0536 3.90818 18.2498 3.68896 18.2404 3.43163C18.231 3.17429 18.0677 2.95508 17.8479 2.95508H15.0626H14.6763C14.4706 2.95508 14.2744 3.17429 14.2838 3.43163C14.294 3.68897 14.4565 3.90818 14.6763 3.90818Z" fill="#00424B"/>
<path d="M12.8506 5.17002C12.8059 5.17002 12.758 5.16811 12.7132 5.1624C12.6897 5.16049 12.6685 5.15763 12.6465 5.15477C12.5876 5.15001 12.7462 5.17574 12.6559 5.15668C12.568 5.13762 12.4832 5.11379 12.3969 5.08043C12.356 5.06328 12.3144 5.03754 12.2728 5.02611C12.367 5.05279 12.3003 5.0404 12.2713 5.0242C12.2556 5.01467 12.2399 5.00514 12.2242 4.99561C12.1441 4.94605 12.0671 4.88601 11.9926 4.82596C11.9517 4.79261 11.9439 4.81834 12.0004 4.83549C11.991 4.83359 11.969 4.805 11.9612 4.79737C11.9282 4.76401 11.8968 4.72875 11.8646 4.69254C11.8332 4.65632 11.8034 4.6182 11.7743 4.58007C11.7625 4.56578 11.7508 4.54958 11.7413 4.53242C11.7296 4.51527 11.6825 4.41805 11.7084 4.48286C11.7335 4.54958 11.7005 4.46857 11.6927 4.45427C11.6833 4.43712 11.673 4.42091 11.6628 4.40185C11.6393 4.35897 11.6181 4.31417 11.5961 4.26843C11.5741 4.22268 11.5553 4.17503 11.5372 4.12737C11.5333 4.11594 11.5074 4.02253 11.5255 4.09687C11.5451 4.17312 11.5113 4.04922 11.5082 4.03492C11.4831 3.94438 11.4611 3.85194 11.4438 3.75664C11.4375 3.72614 11.4344 3.69183 11.4281 3.66133C11.4187 3.59462 11.4163 3.67086 11.4297 3.68992C11.4101 3.66324 11.4179 3.526 11.4179 3.49169C11.4163 3.39161 11.4218 3.29154 11.4273 3.19147C11.4352 3.0771 11.4101 3.30107 11.4273 3.18956C11.4313 3.16859 11.4336 3.14667 11.4367 3.12475C11.4462 3.05994 11.4603 2.99895 11.4744 2.93605C11.4862 2.8903 11.498 2.84551 11.5121 2.80071C11.516 2.78641 11.5262 2.73209 11.5357 2.72637C11.5082 2.74353 11.5027 2.81215 11.5317 2.73781C11.5726 2.63774 11.6142 2.54243 11.6636 2.44998C11.6731 2.43283 11.6833 2.41376 11.6935 2.39756C11.6997 2.38803 11.7029 2.38041 11.7092 2.37088C11.7343 2.33085 11.7288 2.33752 11.6935 2.39184C11.7013 2.35563 11.7484 2.31083 11.768 2.2851C11.8293 2.20409 11.8937 2.12785 11.9627 2.05637C11.969 2.0516 11.9941 2.02015 12.002 2.01824C11.9879 2.02968 11.9769 2.04207 11.9627 2.05446C11.9769 2.04302 11.9902 2.03063 12.0036 2.01824C12.035 1.99156 12.0679 1.96583 12.1017 1.942C12.1347 1.91817 12.1684 1.89435 12.2037 1.87338C12.2273 1.85908 12.2508 1.84479 12.2744 1.83049C12.2823 1.82573 12.2901 1.82096 12.298 1.81619C12.3372 1.79523 12.3294 1.79904 12.276 1.82573C12.2854 1.80476 12.382 1.77807 12.4 1.7714C12.4408 1.75424 12.4848 1.7409 12.5272 1.72851C12.5664 1.71708 12.6057 1.70755 12.6449 1.69992C12.6779 1.6923 12.7274 1.70183 12.6332 1.69992C12.6583 1.69992 12.6881 1.6923 12.7132 1.69039C12.8059 1.68086 12.8962 1.68276 12.988 1.69039C13.0053 1.6923 13.0233 1.69515 13.043 1.69515C13.1333 1.70469 12.9739 1.68086 13.0336 1.69325C13.0822 1.70469 13.1301 1.71422 13.1764 1.72947C13.2196 1.7409 13.2612 1.75615 13.3036 1.77235C13.3272 1.78188 13.4174 1.80285 13.4277 1.82668C13.4198 1.80952 13.3554 1.78665 13.4057 1.81715C13.4292 1.83144 13.4528 1.84383 13.4763 1.85718C13.5156 1.881 13.5533 1.90673 13.5902 1.93342C13.6278 1.96011 13.6624 1.98775 13.6985 2.0192C13.7079 2.02873 13.777 2.06875 13.7221 2.03826C13.6687 2.00776 13.7315 2.04779 13.744 2.05922C13.8108 2.12594 13.8712 2.19742 13.9309 2.27652C13.9505 2.30321 14.0078 2.36039 14.0133 2.39565C13.9992 2.32703 13.978 2.33656 14.0055 2.38612C14.0172 2.40709 14.0306 2.42901 14.0431 2.45093C14.0902 2.53861 14.1334 2.63011 14.1688 2.72541C14.1829 2.76163 14.1923 2.84264 14.1703 2.72732C14.1742 2.74638 14.1845 2.76734 14.1899 2.78641C14.2056 2.83596 14.2198 2.88648 14.2308 2.9389C14.2425 2.99131 14.2543 3.04373 14.2622 3.09615C14.2661 3.11712 14.27 3.13904 14.2716 3.16096C14.2755 3.18193 14.2779 3.20385 14.2794 3.22577C14.2716 3.15905 14.2716 3.1419 14.2732 3.18002C14.281 3.28486 14.2873 3.38969 14.2826 3.49644C14.281 3.55077 14.2763 3.60604 14.2732 3.66037C14.2669 3.75567 14.2771 3.63178 14.2771 3.63178C14.2849 3.64607 14.263 3.72518 14.2614 3.74424C14.2418 3.86528 14.2104 3.9825 14.1766 4.09687C14.1593 4.15596 14.1907 4.10163 14.186 4.07018C14.1876 4.09401 14.1562 4.14833 14.1468 4.17025C14.1248 4.22267 14.1036 4.27319 14.0777 4.32274C14.0502 4.37707 14.0212 4.42758 13.9929 4.48C13.9693 4.52289 13.9968 4.50859 14.0086 4.45903C14.0023 4.48286 13.9733 4.51145 13.9599 4.53051C13.8955 4.62105 13.8265 4.70683 13.7495 4.78308C13.7354 4.79738 13.7166 4.82883 13.7008 4.83264C13.744 4.79452 13.7519 4.78499 13.7283 4.80596C13.7189 4.81549 13.7063 4.82502 13.6969 4.83264C13.6537 4.86886 13.6106 4.90126 13.565 4.93272C13.5274 4.9594 13.4881 4.98227 13.4512 5.00706C13.4371 5.01468 13.3947 5.04994 13.3805 5.04708C13.4292 5.0204 13.4418 5.01659 13.4135 5.02993C13.4017 5.03469 13.39 5.04137 13.3758 5.04708C13.2856 5.08711 13.1913 5.11856 13.0948 5.14239C13.083 5.14429 13.0241 5.16621 13.0163 5.15954C13.0336 5.15764 13.0493 5.15478 13.0673 5.15192C13.05 5.15383 13.032 5.15668 13.0124 5.15954C12.9605 5.16812 12.9056 5.17003 12.8506 5.17003C12.645 5.17193 12.4487 5.38732 12.4581 5.64655C12.4675 5.90388 12.6308 6.12593 12.8506 6.12308C13.7927 6.11355 14.617 5.39113 14.9428 4.3237C15.2552 3.29916 14.9758 2.05731 14.2755 1.3693C13.9026 1.00237 13.4685 0.787936 12.988 0.742189C12.5499 0.702161 12.093 0.839402 11.7162 1.11387C10.9037 1.70478 10.4994 2.85987 10.68 3.98068C10.8778 5.21965 11.8246 6.11078 12.8507 6.12029C13.0564 6.1222 13.2526 5.89823 13.2432 5.64377C13.2338 5.38739 13.0705 5.17296 12.8507 5.1701L12.8506 5.17002Z" fill="#00424B"/>
<path d="M0.393049 12.2109H2.82666H3.17209C3.37777 12.2109 3.57404 11.9917 3.56462 11.7344C3.55519 11.477 3.3919 11.2578 3.17209 11.2578H0.738485H0.393049C0.187371 11.2578 -0.00890112 11.477 0.000524521 11.7344C0.0107303 11.9917 0.173236 12.2109 0.393049 12.2109Z" fill="#00424B"/>
<path d="M6.82485 12.2121H7.92551H10.5492H13.7421H16.4858C16.9333 12.2121 17.3808 12.2235 17.8267 12.2121H17.844C18.0496 12.2121 18.2459 11.9929 18.2365 11.7355C18.2271 11.4782 18.0638 11.259 17.844 11.259H16.7433H14.1196H10.9267H8.18301C7.73552 11.259 7.28805 11.2476 6.84213 11.259H6.82485C6.61918 11.259 6.42291 11.4782 6.43233 11.7355C6.44254 11.9929 6.60505 12.2121 6.82485 12.2121Z" fill="#00424B"/>
<path d="M5.00004 13.4747C4.95529 13.4747 4.9074 13.4728 4.86266 13.4671C4.83911 13.4652 4.81791 13.4623 4.79593 13.4595C4.73705 13.4547 4.89563 13.4804 4.80535 13.4614C4.71742 13.4423 4.63263 13.4185 4.54627 13.3851C4.50545 13.368 4.46384 13.3422 4.42223 13.3308C4.51644 13.3575 4.44971 13.3451 4.42066 13.3289C4.40496 13.3194 4.38926 13.3098 4.37356 13.3003C4.29348 13.2507 4.21654 13.1907 4.14197 13.1307C4.10115 13.0973 4.0933 13.123 4.14982 13.1402C4.1404 13.1383 4.11842 13.1097 4.11057 13.1021C4.0776 13.0687 4.0462 13.0334 4.01401 12.9972C3.98261 12.961 3.95277 12.9229 3.92373 12.8848C3.91195 12.8705 3.90017 12.8543 3.89075 12.8371C3.87898 12.82 3.83187 12.7227 3.85778 12.7876C3.8829 12.8543 3.84993 12.7733 3.84208 12.759C3.83266 12.7418 3.82245 12.7256 3.81225 12.7065C3.7887 12.6637 3.7675 12.6189 3.74552 12.5731C3.72354 12.5274 3.7047 12.4797 3.68664 12.4321C3.68271 12.4206 3.65681 12.3272 3.67486 12.4016C3.69449 12.4778 3.66073 12.3539 3.65759 12.3396C3.63247 12.2491 3.61049 12.1566 3.59322 12.0613C3.58694 12.0308 3.5838 11.9965 3.57752 11.966C3.5681 11.8993 3.56574 11.9756 3.57909 11.9946C3.55946 11.9679 3.56731 11.8307 3.56731 11.7964C3.56574 11.6963 3.57124 11.5962 3.57673 11.4962C3.58458 11.3818 3.55946 11.6058 3.57673 11.4943C3.58066 11.4733 3.58301 11.4514 3.58615 11.4294C3.59557 11.3646 3.6097 11.3036 3.62383 11.2407C3.63561 11.195 3.64739 11.1502 3.66152 11.1054C3.66544 11.0911 3.67565 11.0368 3.68507 11.0311C3.65759 11.0482 3.6521 11.1168 3.68114 11.0425C3.72197 10.9424 3.76358 10.8471 3.81303 10.7547C3.82246 10.7375 3.83266 10.7185 3.84287 10.7023C3.84915 10.6927 3.85229 10.6851 3.85857 10.6756C3.88369 10.6355 3.8782 10.6422 3.84287 10.6965C3.85072 10.6603 3.89782 10.6155 3.91745 10.5898C3.97868 10.5088 4.04306 10.4325 4.11214 10.3611C4.11842 10.3563 4.14354 10.3248 4.15139 10.3229C4.13726 10.3344 4.12627 10.3468 4.11214 10.3592C4.12627 10.3477 4.13962 10.3353 4.15296 10.3229C4.18437 10.2962 4.21734 10.2705 4.2511 10.2467C4.28407 10.2229 4.31783 10.199 4.35315 10.1781C4.37671 10.1638 4.40026 10.1495 4.42381 10.1352C4.43166 10.1304 4.43951 10.1257 4.44736 10.1209C4.48661 10.0999 4.47876 10.1037 4.42538 10.1304C4.4348 10.1094 4.53136 10.0828 4.54942 10.0761C4.59024 10.0589 4.63421 10.0456 4.6766 10.0332C4.71585 10.0218 4.7551 10.0122 4.79436 10.0046C4.82733 9.99699 4.87679 10.0065 4.78258 10.0046C4.8077 10.0046 4.83754 9.99699 4.86266 9.99508C4.95529 9.98555 5.04558 9.98746 5.13743 9.99508C5.1547 9.99699 5.17276 9.99985 5.19239 9.99985C5.28267 10.0094 5.1233 9.98555 5.18296 9.99794C5.23164 10.0094 5.27953 10.0189 5.32585 10.0342C5.36902 10.0456 5.41063 10.0608 5.45302 10.077C5.47658 10.0866 5.56686 10.1075 5.57706 10.1314C5.56921 10.1142 5.50484 10.0913 5.55508 10.1218C5.57863 10.1361 5.60219 10.1485 5.62574 10.1619C5.66499 10.1857 5.70267 10.2114 5.73957 10.2381C5.77725 10.2648 5.8118 10.2924 5.84791 10.3239C5.85733 10.3334 5.92641 10.3734 5.87146 10.3429C5.81808 10.3125 5.88088 10.3525 5.89344 10.3639C5.96017 10.4306 6.02062 10.5021 6.08029 10.5812C6.09992 10.6079 6.15722 10.6651 6.16272 10.7003C6.14859 10.6317 6.12739 10.6413 6.15487 10.6908C6.16665 10.7118 6.17999 10.7337 6.19255 10.7556C6.23966 10.8433 6.28283 10.9348 6.31816 11.0301C6.33229 11.0663 6.34171 11.1473 6.31973 11.032C6.32366 11.0511 6.33386 11.072 6.33936 11.0911C6.35506 11.1407 6.36919 11.1912 6.38018 11.2436C6.39196 11.296 6.40373 11.3484 6.41158 11.4008C6.41551 11.4218 6.41943 11.4437 6.421 11.4657C6.42493 11.4866 6.42728 11.5085 6.42885 11.5305C6.421 11.4637 6.421 11.4466 6.42257 11.4847C6.43042 11.5895 6.43671 11.6944 6.432 11.8011C6.43042 11.8555 6.42571 11.9107 6.42257 11.9651C6.41629 12.0604 6.4265 11.9365 6.4265 11.9365C6.43435 11.9508 6.41237 12.0299 6.4108 12.0489C6.39117 12.17 6.35977 12.2872 6.32601 12.4016C6.30874 12.4606 6.34014 12.4063 6.33543 12.3749C6.337 12.3987 6.3056 12.453 6.29618 12.4749C6.2742 12.5274 6.253 12.5779 6.22709 12.6274C6.19962 12.6818 6.17057 12.7323 6.14231 12.7847C6.11875 12.8276 6.14623 12.8133 6.15801 12.7637C6.15173 12.7875 6.12268 12.8161 6.10933 12.8352C6.04496 12.9257 5.97587 13.0115 5.89893 13.0878C5.8848 13.1021 5.86596 13.1335 5.85026 13.1373C5.89344 13.0992 5.90129 13.0897 5.87774 13.1106C5.86832 13.1202 5.85575 13.1297 5.84633 13.1373C5.80316 13.1735 5.75998 13.206 5.71444 13.2374C5.67676 13.2641 5.63751 13.287 5.60061 13.3117C5.58648 13.3194 5.54408 13.3546 5.52995 13.3518C5.57863 13.3251 5.59119 13.3213 5.56293 13.3346C5.55115 13.3394 5.53937 13.3461 5.52524 13.3518C5.43496 13.3918 5.34075 13.4233 5.2442 13.4471C5.23242 13.449 5.17354 13.4709 5.16569 13.4642C5.18297 13.4623 5.19867 13.4595 5.21672 13.4566C5.19945 13.4585 5.1814 13.4614 5.16177 13.4642C5.10996 13.4719 5.055 13.4747 5.00005 13.4747C4.79437 13.4766 4.5981 13.692 4.60752 13.9512C4.61694 14.2086 4.78024 14.4306 5.00005 14.4278C5.94212 14.4182 6.76644 13.6958 7.0922 12.6284C7.40466 11.6038 7.12517 10.362 6.4249 9.67399C6.05199 9.30706 5.61786 9.09262 5.13741 9.04688C4.69935 9.00685 4.24245 9.14409 3.86562 9.41856C3.05308 10.0095 2.64878 11.1646 2.82935 12.2854C3.02719 13.5243 3.97397 14.4155 5.00009 14.425C5.20577 14.4269 5.40204 14.2029 5.39261 13.9485C5.38319 13.6911 5.2199 13.4776 5.00009 13.4748L5.00004 13.4747Z" fill="#00424B"/>
<path d="M0.394108 20.513H1.07867H2.72572H4.7182H6.4414C6.72244 20.513 7.00272 20.5225 7.28141 20.513H7.29319C7.49886 20.513 7.69513 20.2938 7.68571 20.0365C7.67629 19.7791 7.513 19.5599 7.29319 19.5599H6.60863H4.96158H2.96909H1.2459C0.964854 19.5599 0.684575 19.5504 0.405883 19.5599H0.394108C0.18843 19.5599 -0.00784159 19.7791 0.00158405 20.0365C0.0117898 20.2938 0.174295 20.513 0.394108 20.513Z" fill="#00424B"/>
<path d="M10.9468 20.513H11.6314H13.2785H15.2709H16.9941C17.2752 20.513 17.5555 20.5225 17.8341 20.513H17.8459C18.0516 20.513 18.2479 20.2938 18.2384 20.0365C18.229 19.7791 18.0657 19.5599 17.8459 19.5599H17.1614H15.5143H13.5218H11.7986C11.5176 19.5599 11.2373 19.5504 10.9586 19.5599H10.9468C10.7412 19.5599 10.5449 19.7791 10.5543 20.0365C10.5645 20.2938 10.727 20.513 10.9468 20.513Z" fill="#00424B"/>
<path d="M9.1231 21.7784C9.07835 21.7784 9.03046 21.7765 8.98571 21.7708C8.96216 21.7689 8.94096 21.766 8.91898 21.7632C8.8601 21.7584 9.01868 21.7841 8.9284 21.7651C8.84048 21.746 8.75569 21.7222 8.66933 21.6888C8.6285 21.6717 8.58689 21.6459 8.54529 21.6345C8.63949 21.6612 8.57276 21.6488 8.54372 21.6326C8.52801 21.6231 8.51231 21.6135 8.49661 21.604C8.41654 21.5545 8.3396 21.4944 8.26503 21.4344C8.22421 21.401 8.21635 21.4267 8.27288 21.4439C8.26346 21.442 8.24148 21.4134 8.23363 21.4058C8.20065 21.3724 8.16925 21.3372 8.13706 21.3009C8.10566 21.2647 8.07583 21.2266 8.04678 21.1885C8.03501 21.1742 8.02323 21.158 8.01381 21.1408C8.00203 21.1237 7.95493 21.0265 7.98084 21.0913C8.00596 21.158 7.97299 21.077 7.96514 21.0627C7.95572 21.0455 7.94551 21.0293 7.9353 21.0103C7.91175 20.9674 7.89056 20.9226 7.86857 20.8768C7.84659 20.8311 7.82775 20.7834 7.8097 20.7358C7.80577 20.7243 7.77986 20.6309 7.79792 20.7053C7.81755 20.7815 7.78379 20.6576 7.78065 20.6433C7.75553 20.5528 7.73355 20.4603 7.71627 20.365C7.70999 20.3345 7.70685 20.3002 7.70057 20.2697C7.69115 20.203 7.6888 20.2793 7.70214 20.2983C7.68252 20.2716 7.69037 20.1344 7.69037 20.1001C7.6888 20 7.69429 19.8999 7.69979 19.7999C7.70764 19.6855 7.68252 19.9095 7.69979 19.798C7.70371 19.777 7.70607 19.7551 7.70921 19.7332C7.71863 19.6683 7.73276 19.6074 7.74689 19.5444C7.75867 19.4987 7.77044 19.4539 7.78457 19.4091C7.7885 19.3948 7.7987 19.3405 7.80813 19.3348C7.78065 19.3519 7.77515 19.4205 7.8042 19.3462C7.84502 19.2461 7.88663 19.1508 7.93609 19.0584C7.94551 19.0412 7.95572 19.0222 7.96592 19.006C7.9722 18.9964 7.97534 18.9888 7.98162 18.9793C8.00675 18.9392 8.00125 18.9459 7.96592 19.0002C7.97377 18.964 8.02088 18.9192 8.0405 18.8935C8.10174 18.8125 8.16611 18.7362 8.2352 18.6648C8.24148 18.66 8.2666 18.6285 8.27445 18.6266C8.26032 18.6381 8.24933 18.6505 8.2352 18.6629C8.24933 18.6514 8.26267 18.639 8.27602 18.6266C8.30742 18.6 8.34039 18.5742 8.37415 18.5504C8.40712 18.5266 8.44088 18.5027 8.47621 18.4818C8.49976 18.4675 8.52331 18.4532 8.54686 18.4389C8.55471 18.4341 8.56256 18.4294 8.57042 18.4246C8.60967 18.4036 8.60182 18.4074 8.54843 18.4341C8.55785 18.4132 8.65441 18.3865 8.67247 18.3798C8.7133 18.3626 8.75726 18.3493 8.79965 18.3369C8.8389 18.3255 8.87816 18.3159 8.91741 18.3083C8.95038 18.3007 8.99984 18.3102 8.90563 18.3083C8.93076 18.3083 8.96059 18.3007 8.98571 18.2988C9.07835 18.2893 9.16863 18.2912 9.26048 18.2988C9.27775 18.3007 9.29581 18.3036 9.31544 18.3036C9.40572 18.3131 9.24635 18.2893 9.30602 18.3016C9.35469 18.3131 9.40258 18.3226 9.4489 18.3379C9.49208 18.3493 9.53368 18.3646 9.57608 18.3808C9.59963 18.3903 9.68991 18.4113 9.70012 18.4351C9.69227 18.4179 9.62789 18.3951 9.67813 18.4255C9.70169 18.4398 9.72524 18.4522 9.74879 18.4656C9.78804 18.4894 9.82572 18.5151 9.86262 18.5418C9.90031 18.5685 9.93485 18.5961 9.97096 18.6276C9.98038 18.6371 10.0495 18.6772 9.99451 18.6467C9.94113 18.6162 10.0039 18.6562 10.0165 18.6676C10.0832 18.7343 10.1437 18.8058 10.2033 18.8849C10.223 18.9116 10.2803 18.9688 10.2858 19.0041C10.2716 18.9354 10.2504 18.945 10.2779 18.9945C10.2897 19.0155 10.303 19.0374 10.3156 19.0593C10.3627 19.147 10.4059 19.2385 10.4412 19.3338C10.4553 19.37 10.4648 19.451 10.4428 19.3357C10.4467 19.3548 10.4569 19.3757 10.4624 19.3948C10.4781 19.4444 10.4922 19.4949 10.5032 19.5473C10.515 19.5997 10.5268 19.6521 10.5346 19.7046C10.5386 19.7255 10.5425 19.7474 10.5441 19.7694C10.548 19.7903 10.5503 19.8123 10.5519 19.8342C10.5441 19.7675 10.5441 19.7503 10.5456 19.7884C10.5535 19.8933 10.5598 19.9981 10.555 20.1048C10.5535 20.1592 10.5488 20.2144 10.5456 20.2688C10.5393 20.3641 10.5495 20.2402 10.5495 20.2402C10.5574 20.2545 10.5354 20.3336 10.5338 20.3526C10.5142 20.4737 10.4828 20.5909 10.4491 20.7053C10.4318 20.7644 10.4632 20.71 10.4585 20.6786C10.4601 20.7024 10.4286 20.7567 10.4192 20.7787C10.3972 20.8311 10.3761 20.8816 10.3501 20.9311C10.3227 20.9855 10.2936 21.036 10.2654 21.0884C10.2418 21.1313 10.2693 21.117 10.2811 21.0674C10.2748 21.0913 10.2457 21.1198 10.2324 21.1389C10.168 21.2295 10.0989 21.3152 10.022 21.3915C10.0079 21.4058 9.98901 21.4372 9.97331 21.441C10.0165 21.4029 10.0243 21.3934 10.0008 21.4144C9.99137 21.4239 9.9788 21.4334 9.96938 21.441C9.92621 21.4773 9.88303 21.5097 9.83749 21.5411C9.79981 21.5678 9.76056 21.5907 9.72366 21.6155C9.70953 21.6231 9.66714 21.6583 9.65301 21.6555C9.70168 21.6288 9.71424 21.625 9.68598 21.6383C9.6742 21.6431 9.66243 21.6498 9.64829 21.6555C9.55801 21.6955 9.46381 21.727 9.36725 21.7508C9.35548 21.7527 9.2966 21.7746 9.28875 21.7679C9.30602 21.766 9.32172 21.7632 9.33978 21.7603C9.32251 21.7622 9.30445 21.7651 9.28482 21.7679C9.23301 21.7756 9.17805 21.7784 9.1231 21.7784C8.91742 21.7803 8.72115 21.9957 8.73058 22.2549C8.74 22.5123 8.90329 22.7343 9.1231 22.7315C10.0652 22.7219 10.8895 21.9995 11.2152 20.9321C11.5277 19.9076 11.2482 18.6657 10.5479 17.9777C10.175 17.6108 9.74092 17.3963 9.26047 17.3506C8.8224 17.3106 8.36551 17.4478 7.98868 17.7223C7.17614 18.3132 6.77184 19.4683 6.95241 20.5891C7.15025 21.8281 8.09702 22.7192 9.12314 22.7287C9.32882 22.7306 9.52509 22.5066 9.51566 22.2522C9.50624 21.9948 9.34295 21.7804 9.12314 21.7785L9.1231 21.7784Z" fill="#00424B"/>
</svg>
