<svg width="72" height="72" viewBox="0 0 72 72" fill="none" xmlns="http://www.w3.org/2000/svg">
<path d="M36.8785 10.8428C36.6093 10.8423 36.3434 10.9022 36.1004 11.0181C35.8575 11.134 35.6436 11.3029 35.4745 11.5124L35.1541 11.75C28.9441 9.82758 21.8593 11.2388 16.9273 15.9908C14.862 17.9506 13.3255 20.4006 12.4607 23.1133C11.5959 25.826 11.4309 28.7132 11.9809 31.5068C11.9198 31.5607 11.8598 31.6159 11.8009 31.6724L8.99651 34.3724C8.45403 34.887 8.02201 35.5067 7.72678 36.1937C7.43155 36.8807 7.2793 37.6206 7.2793 38.3684C7.2793 39.1161 7.43155 39.856 7.72678 40.5431C8.02201 41.2301 8.45403 41.8497 8.99651 42.3644C10.4293 43.7468 12.4165 44.2652 14.2633 43.9196C14.4901 44.96 15.0193 45.95 15.8581 46.7564C16.9633 47.822 18.3997 48.3728 19.8469 48.4124C19.8865 49.8056 20.4589 51.188 21.5641 52.2536C22.6693 53.3192 24.1093 53.8736 25.5565 53.9096C25.5925 55.3028 26.1685 56.6888 27.2737 57.7544C28.3318 58.7585 29.7178 59.3453 31.1752 59.4062C32.6326 59.4671 34.0628 58.9979 35.2009 58.0856L36.7741 59.5976C39.0781 61.8188 42.8149 61.8188 45.1189 59.5976C46.2205 58.5392 46.7929 57.164 46.8433 55.7744C48.3231 55.7362 49.7353 55.147 50.8033 54.122C51.9049 53.06 52.4773 51.6848 52.5205 50.2952C53.9836 50.2439 55.3766 49.6556 56.4337 48.6428C57.3085 47.804 57.8485 46.7636 58.0573 45.6764C58.984 45.8389 59.9358 45.7815 60.8362 45.5089C61.7366 45.2362 62.5604 44.756 63.2413 44.1068C63.7844 43.5921 64.2169 42.9722 64.5124 42.2849C64.808 41.5975 64.9604 40.8572 64.9604 40.109C64.9604 39.3608 64.808 38.6204 64.5124 37.9331C64.2169 37.2458 63.7844 36.6258 63.2413 36.1112L60.6493 33.6164L61.1785 31.6364C62.249 27.5884 61.707 23.283 59.6665 19.6268C56.6569 14.2052 50.8177 10.8572 44.5033 10.8572H40.0753C39.8847 10.8477 39.6938 10.8429 39.5029 10.8428H36.8785ZM45.7093 24.2204L54.3673 32.5616L54.3781 32.5688L60.6457 38.6096C60.8493 38.8027 61.0115 39.0352 61.1223 39.293C61.2331 39.5507 61.2902 39.8284 61.2902 40.109C61.2902 40.3896 61.2331 40.6672 61.1223 40.925C61.0115 41.1828 60.8493 41.4153 60.6457 41.6084C60.2251 42.0066 59.6679 42.2286 59.0887 42.2286C58.5095 42.2286 57.9523 42.0066 57.5317 41.6084L52.7761 37.0292C52.4275 36.6947 51.9632 36.508 51.4801 36.508C50.9971 36.508 50.5327 36.6947 50.1841 37.0292L50.1337 37.0724C49.964 37.2332 49.8288 37.4269 49.7364 37.6417C49.644 37.8564 49.5964 38.0878 49.5964 38.3216C49.5964 38.5554 49.644 38.7867 49.7364 39.0015C49.8288 39.2163 49.964 39.41 50.1337 39.5708L53.8417 43.142C54.7057 43.97 54.7057 45.3164 53.8417 46.148C53.4594 46.5103 52.9628 46.7282 52.4373 46.7643C51.9118 46.8005 51.3901 46.6526 50.9617 46.346C50.6042 46.0877 50.1675 45.9628 49.7276 45.9931C49.2876 46.0233 48.8721 46.2068 48.5533 46.5116C48.2418 46.8095 48.0537 47.2136 48.0263 47.6438C47.999 48.0739 48.1344 48.4986 48.4057 48.8336C48.7289 49.2384 48.8882 49.7497 48.8522 50.2665C48.8162 50.7832 48.5875 51.2675 48.2113 51.6236C47.8235 51.9913 47.3183 52.2103 46.7848 52.2419C46.2513 52.2735 45.7238 52.1157 45.2953 51.7964C44.9396 51.5295 44.5011 51.397 44.0571 51.422C43.6132 51.447 43.1924 51.6281 42.8689 51.9332C42.5533 52.2306 42.3619 52.6364 42.3332 53.0692C42.3045 53.5019 42.4406 53.9295 42.7141 54.266C43.0449 54.6762 43.2089 55.1959 43.1735 55.7217C43.1382 56.2474 42.906 56.7406 42.5233 57.1028C42.0972 57.5072 41.5322 57.7326 40.9447 57.7326C40.3573 57.7326 39.7922 57.5072 39.3661 57.1028L37.8073 55.6016L38.3761 55.0544C38.9192 54.5397 39.3517 53.9198 39.6472 53.2325C39.9428 52.5451 40.0952 51.8048 40.0952 51.0566C40.0952 50.3084 39.9428 49.568 39.6472 48.8807C39.3517 48.1934 38.9192 47.5734 38.3761 47.0588C37.3002 46.0276 35.8772 45.4368 34.3873 45.4028C34.3436 43.945 33.7265 42.5634 32.6701 41.558C31.5928 40.5273 30.1683 39.9378 28.6777 39.9056C28.634 38.4478 28.0169 37.0662 26.9605 36.0608C26.2689 35.4025 25.4305 34.9184 24.5146 34.6486C23.5987 34.3788 22.6317 34.331 21.6937 34.5092C21.4564 33.4259 20.9011 32.4381 20.0989 31.6724C19.484 31.0856 18.7512 30.6363 17.9492 30.3545C17.1473 30.0727 16.2946 29.9648 15.4477 30.038C15.1641 27.9284 15.3849 25.7817 16.0921 23.7741C16.7993 21.7665 17.9726 19.9553 19.5157 18.4892C21.075 16.9995 22.9446 15.8732 24.9904 15.191C27.0362 14.5089 29.2076 14.2878 31.3489 14.5436L26.1109 18.3956C25.4407 18.8825 24.8762 19.5003 24.4514 20.2115C24.0266 20.9227 23.7503 21.7127 23.6393 22.5336C23.5282 23.3546 23.5847 24.1895 23.8054 24.988C24.026 25.7866 24.4062 26.5321 24.9229 27.1796C25.968 28.49 27.4781 29.347 29.139 29.5723C30.7999 29.7976 32.4837 29.3738 33.8401 28.3892L39.5137 24.224H45.7057L45.7093 24.2204ZM28.2421 21.2936L37.5733 14.4428H39.5029C39.6794 14.4418 39.8559 14.4466 40.0321 14.4572H44.5033C49.5577 14.4572 54.1693 17.1392 56.5201 21.3764C58.1113 24.242 58.5289 27.572 57.6973 30.7148L57.6865 30.7508L47.7505 21.1496C47.4138 20.8118 46.9567 20.6214 46.4797 20.6204H38.9197C38.5376 20.6211 38.1657 20.7434 37.8577 20.9696L31.7089 25.484C31.1049 25.9165 30.3585 26.1018 29.6224 26.0021C28.8863 25.9024 28.2161 25.5251 27.7489 24.9476C27.5312 24.6794 27.3707 24.3695 27.2773 24.037C27.1839 23.7044 27.1595 23.3563 27.2057 23.014C27.2519 22.6717 27.3677 22.3424 27.5459 22.0466C27.7242 21.7507 27.9611 21.4944 28.2421 21.2936ZM29.8333 52.2896L29.8693 52.2536L32.6701 49.5536L32.7025 49.5248C33.1254 49.1402 33.6781 48.9299 34.2497 48.9359C34.8212 48.9419 35.3694 49.1638 35.7841 49.5572C35.9877 49.7503 36.1499 49.9828 36.2607 50.2406C36.3715 50.4983 36.4286 50.776 36.4286 51.0566C36.4286 51.3372 36.3715 51.6148 36.2607 51.8726C36.1499 52.1304 35.9877 52.3629 35.7841 52.556L32.9797 55.256C32.5591 55.6543 32.0019 55.8762 31.4227 55.8762C30.8435 55.8762 30.2863 55.6543 29.8657 55.256C29.6648 55.0658 29.5041 54.8372 29.3932 54.5837C29.2823 54.3302 29.2234 54.057 29.22 53.7804C29.2167 53.5037 29.2689 53.2292 29.3736 52.9731C29.4784 52.717 29.6371 52.4846 29.8333 52.2896ZM30.1105 47.0264L30.0745 47.0588L27.2737 49.7588L27.2377 49.7912C26.8146 50.1742 26.2624 50.3833 25.6917 50.3766C25.1209 50.3699 24.5738 50.148 24.1597 49.7552C23.9584 49.5641 23.7976 49.3345 23.687 49.08C23.5763 48.8255 23.5181 48.5512 23.5158 48.2737C23.5134 47.9962 23.567 47.7211 23.6733 47.4647C23.7796 47.2083 23.9365 46.976 24.1345 46.7816L24.1597 46.7564L26.9605 44.0564L26.9857 44.0312C27.4081 43.6436 27.9618 43.4307 28.5351 43.4353C29.1083 43.44 29.6585 43.662 30.0745 44.0564C30.276 44.2466 30.4371 44.4755 30.5484 44.7293C30.6596 44.9831 30.7187 45.2567 30.722 45.5337C30.7254 45.8108 30.673 46.0858 30.5679 46.3422C30.4629 46.5986 30.3073 46.8313 30.1105 47.0264ZM24.3685 41.558L21.5641 44.258L21.5389 44.2832C21.1165 44.6707 20.5628 44.8837 19.9895 44.879C19.4163 44.8743 18.8661 44.6524 18.4501 44.258C18.2465 44.0649 18.0844 43.8324 17.9736 43.5746C17.8628 43.3168 17.8056 43.0392 17.8056 42.7586C17.8056 42.478 17.8628 42.2003 17.9736 41.9426C18.0844 41.6848 18.2465 41.4523 18.4501 41.2592L21.2509 38.5592C21.6717 38.1599 22.2296 37.9372 22.8097 37.9372C23.3898 37.9372 23.9478 38.1599 24.3685 38.5592C24.5704 38.7503 24.7316 38.9801 24.8426 39.235C24.9536 39.4898 25.012 39.7645 25.0143 40.0424C25.0167 40.3204 24.9629 40.596 24.8563 40.8527C24.7497 41.1094 24.5923 41.3419 24.3937 41.5364L24.3685 41.558ZM17.5069 37.1696L14.7061 39.8696C14.2858 40.2697 13.7277 40.4929 13.1473 40.4929C12.567 40.4929 12.0089 40.2697 11.5885 39.8696C11.3843 39.6765 11.2217 39.4437 11.1106 39.1856C10.9994 38.9275 10.9421 38.6494 10.9421 38.3684C10.9421 38.0873 10.9994 37.8093 11.1106 37.5512C11.2217 37.293 11.3843 37.0603 11.5885 36.8672L14.3929 34.1672C14.8135 33.7689 15.3707 33.5469 15.9499 33.5469C16.5291 33.5469 17.0863 33.7689 17.5069 34.1672C17.7111 34.3603 17.8737 34.593 17.9848 34.8512C18.096 35.1093 18.1533 35.3873 18.1533 35.6684C18.1533 35.9494 18.096 36.2275 17.9848 36.4856C17.8737 36.7437 17.7111 36.9765 17.5069 37.1696Z" fill="#9ABF14"/>
</svg>
