<svg width="150" height="50" viewBox="0 0 150 50" fill="none" xmlns="http://www.w3.org/2000/svg">
<path d="M11 13.8892H15.4437V23.7618H24.8158V13.8892H29.2652V38.1234H24.8158V28.0435H15.4437V38.1234H11V13.8892Z" fill="#45535E"/>
<path d="M43.3428 30.2301C43.3428 32.2588 41.69 33.9096 39.6618 33.9096C37.6329 33.9096 35.981 32.2588 35.981 30.2301V19.7964H31.7668V30.2301C31.7668 34.5829 35.3087 38.1236 39.6618 38.1236C44.0139 38.1236 47.5555 34.5829 47.5555 30.2301V19.7964H43.3428V30.2301Z" fill="#45535E"/>
<path d="M59.3199 19.9185C57.2295 19.9185 55.7703 20.5251 54.3612 21.9083V13.8892H50.1333V28.7509C50.1333 34.3137 54.1553 38.1234 58.674 38.1234C63.6974 38.1234 68.0988 34.2458 68.0988 29.0212C68.0988 23.8629 64.0402 19.9185 59.3199 19.9185ZM59.425 34.2122C56.5601 34.2122 54.3694 31.8196 54.3694 29.0212C54.3694 26.2224 56.5601 23.829 59.425 23.829C61.8524 23.829 64.0444 26.2224 64.0444 29.0212C64.0444 31.8196 61.8524 34.2122 59.425 34.2122Z" fill="#45535E"/>
<path d="M75.1999 20.9836C75.1999 18.8583 76.616 18.1845 78.1662 18.1845C79.4143 18.1845 81.0659 19.1284 82.1437 20.2749L84.9075 17.0387C83.5262 15.1848 80.7286 13.9033 78.4361 13.9033C73.8507 13.9033 70.5468 16.5668 70.5468 20.9836C70.5468 29.1755 80.6273 26.5788 80.6273 31.1649C80.6273 32.5792 79.2456 33.8278 77.6619 33.8278C75.1663 33.8278 74.3568 32.6141 73.211 31.3326L70.1426 34.5011C72.0991 36.895 74.5255 38.1092 77.4252 38.1092C81.7738 38.1092 85.2801 35.4122 85.2801 31.1975C85.2801 22.0955 75.1999 24.9277 75.1999 20.9836Z" fill="#45535E"/>
<path d="M96.4101 19.6812C91.8919 19.6812 87.8694 23.4886 87.8694 29.0527V43.9528H92.097V35.8955C93.5064 37.2778 94.9648 37.8854 97.056 37.8854C101.776 37.8854 105.835 33.9415 105.835 28.7831C105.835 23.5578 101.432 19.6812 96.4101 19.6812ZM97.1613 33.9753C94.2967 33.9753 92.1057 31.5795 92.1057 28.7831C92.1057 25.9843 94.2967 23.5909 97.1613 23.5909C99.5883 23.5909 101.78 25.9843 101.78 28.7831C101.78 31.5795 99.5883 33.9753 97.1613 33.9753Z" fill="#45535E"/>
<path d="M136.955 34.2121C134.462 34.2121 133.754 33.1338 133.754 31.4812V24.166H137.63V20.4581H133.754V15.5693L129.474 17.4905V32.3915C129.474 36.2015 132.102 38.1234 135.708 38.1234C136.247 38.1234 136.99 38.0886 137.395 37.9887L138.44 34.1459C137.968 34.1785 137.429 34.2121 136.955 34.2121Z" fill="#45535E"/>
<path d="M125.806 24.3818C124.996 22.9873 123.856 21.8694 122.43 21.0278C121.365 20.4078 120.261 20.0142 119.016 19.8452V15.4145C120.261 14.886 121.033 13.7163 121.033 12.3518C121.033 10.4918 119.541 8.98463 117.683 8.98463C115.823 8.98463 114.305 10.4918 114.305 12.3518C114.305 13.7163 115.033 14.886 116.278 15.4145V19.8472C115.282 19.9911 114.25 20.3015 113.307 20.7784C111.381 19.3158 105.066 14.5174 101.372 11.7148C101.459 11.3989 101.527 11.0733 101.527 10.7298C101.527 8.66975 99.8585 7 97.7976 7C95.7368 7 94.0693 8.66975 94.0693 10.7298C94.0693 12.7896 95.7386 14.4599 97.7994 14.4599C98.5023 14.4599 99.1525 14.2543 99.7136 13.9162L100.493 14.5077L111.206 22.2261C110.639 22.7461 110.112 23.3376 109.69 24.0012C108.835 25.3541 108.312 26.8426 108.312 28.4663V28.8051C108.312 29.9449 108.529 31.021 108.898 32.0318C109.223 32.9145 109.698 33.717 110.286 34.4426L106.731 38.0066C106.415 37.8904 106.084 37.8267 105.738 37.8267C104.969 37.8267 104.247 38.1274 103.702 38.6707C103.157 39.2156 102.859 39.9392 102.859 40.7094C102.859 41.4793 103.159 42.2029 103.704 42.7473C104.248 43.2919 104.972 43.5921 105.742 43.5921C106.512 43.5921 107.236 43.2919 107.781 42.7473C108.324 42.2029 108.625 41.4791 108.625 40.7094C108.625 40.4114 108.579 40.1207 108.492 39.8444L112.167 36.1691C112.671 36.5171 113.215 36.8101 113.8 37.0627C114.953 37.5616 116.227 37.8655 117.621 37.8655H117.876C119.417 37.8655 120.87 37.5036 122.237 36.7633C123.676 35.9809 124.803 34.9111 125.654 33.5452C126.51 32.1757 126.981 30.6625 126.981 28.9977V28.9146C126.981 27.277 126.602 25.766 125.806 24.3818ZM121.316 32.0916C120.319 33.2 119.172 33.8828 117.876 33.8828H117.662C116.922 33.8828 116.198 33.6782 115.489 33.306C114.69 32.8963 114.083 32.3119 113.586 31.5718C113.072 30.8455 112.793 30.0524 112.793 29.2116V28.9562C112.793 28.1295 112.952 27.3457 113.351 26.6054C113.779 25.7961 114.356 25.1669 115.124 24.6665C115.877 24.1697 116.682 23.926 117.579 23.926H117.662C118.475 23.926 119.245 24.0863 119.971 24.458C120.711 24.8542 121.316 25.3956 121.785 26.1078C122.24 26.8202 122.511 27.5886 122.598 28.4257C122.612 28.5997 122.619 28.7779 122.619 28.9482C122.619 30.0843 122.185 31.1365 121.316 32.0916Z" fill="#F8761F"/>
</svg>
