<svg width="32" height="33" viewBox="0 0 32 33" fill="none" xmlns="http://www.w3.org/2000/svg">
<g id="basil:search-outline">
<path id="Vector" fill-rule="evenodd" clip-rule="evenodd" d="M19.1804 21.0948C17.3833 22.5306 15.1046 23.2239 12.8123 23.0322C10.52 22.8404 8.38811 21.7782 6.85451 20.0637C5.32091 18.3492 4.502 16.1126 4.56599 13.8132C4.62997 11.5137 5.57198 9.32609 7.19854 7.69952C8.82511 6.07295 11.0128 5.13094 13.3122 5.06696C15.6116 5.00298 17.8482 5.82188 19.5627 7.35548C21.2772 8.88909 22.3394 11.021 22.5312 13.3133C22.7229 15.6056 22.0297 17.8843 20.5938 19.6814L27.4684 26.5548C27.5667 26.6463 27.6455 26.7567 27.7001 26.8794C27.7548 27.002 27.7842 27.1345 27.7866 27.2687C27.7889 27.403 27.7642 27.5364 27.7139 27.6609C27.6636 27.7854 27.5888 27.8985 27.4938 27.9935C27.3989 28.0884 27.2858 28.1633 27.1612 28.2136C27.0367 28.2639 26.9033 28.2886 26.7691 28.2862C26.6348 28.2838 26.5024 28.2544 26.3797 28.1998C26.2571 28.1451 26.1467 28.0663 26.0551 27.9681L19.1804 21.0948ZM8.61244 19.0121C7.63383 18.0334 6.96731 16.7865 6.69713 15.4291C6.42694 14.0717 6.56521 12.6647 7.09446 11.3858C7.62371 10.107 8.52019 9.01372 9.67059 8.24422C10.821 7.47473 12.1737 7.06353 13.5577 7.0626C14.9418 7.06166 16.295 7.47104 17.4465 8.23899C18.5979 9.00693 19.4959 10.099 20.0268 11.3771C20.5578 12.6553 20.698 14.0621 20.4296 15.4199C20.1612 16.7776 19.4964 18.0254 18.5191 19.0054L18.5124 19.0121L18.5058 19.0174C17.1926 20.3276 15.413 21.0629 13.558 21.0619C11.703 21.0609 9.92424 20.3237 8.61244 19.0121Z" fill="white"/>
</g>
</svg>
