<?xml version="1.0" encoding="utf-8"?>
<!-- Generator: Adobe Illustrator 27.0.0, SVG Export Plug-In . SVG Version: 6.00 Build 0)  -->
<svg version="1.1" id="Layer_1" xmlns="http://www.w3.org/2000/svg" xmlns:xlink="http://www.w3.org/1999/xlink" x="0px" y="0px"
	 viewBox="0 0 100 100" style="enable-background:new 0 0 100 100;" xml:space="preserve">
<style type="text/css">
	.st0{fill:#9ABF14;}
</style>
<path class="st0" d="M20,13.3c-3.7,0-6.7,3-6.7,6.7v60c0,3.7,3,6.7,6.7,6.7h60c3.7,0,6.7-3,6.7-6.7V20c0-3.7-3-6.7-6.7-6.7H20z
	 M20.7,40h8.8c4.3,0,7.2,2.8,7.2,7.1c0,4.3-3.1,7-7.5,7h-3.4V60h-5.1V40z M40.9,40H46v7.8h8V40h5.1v20H54v-8.1h-8V60h-5.1V40z
	 M64,40h8.8c4.3,0,7.2,2.8,7.2,7.1c0,4.3-3.1,7-7.5,7h-3.4V60H64V40z M25.8,43.9v6.4h2.3c2.2,0,3.4-1.1,3.4-3.2
	c0-2.1-1.3-3.2-3.4-3.2H25.8z M69.1,43.9v6.4h2.3c2.2,0,3.4-1.1,3.4-3.2c0-2.1-1.3-3.2-3.4-3.2H69.1z"/>
</svg>
