<svg xmlns="http://www.w3.org/2000/svg" xmlns:xlink="http://www.w3.org/1999/xlink" viewBox="0,0,256,256" width="100px" height="100px" fill-rule="nonzero"><g fill="#9abf14" fill-rule="nonzero" stroke="none" stroke-width="1" stroke-linecap="butt" stroke-linejoin="miter" stroke-miterlimit="10" stroke-dasharray="" stroke-dashoffset="0" font-family="none" font-weight="none" font-size="none" text-anchor="none" style="mix-blend-mode: normal"><g transform="scale(8.53333,8.53333)"><path d="M8,1c-1.105,0 -2,0.895 -2,2v9l2,-3v-6h3l0.41406,0.41406c0.375,0.375 0.88406,0.58594 1.41406,0.58594h4.34375c0.53,0 1.03906,-0.21094 1.41406,-0.58594l0.41406,-0.41406h3v6l2,3v-9c0,-1.105 -0.895,-2 -2,-2zM13.5,2h2c0.276,0 0.5,0.224 0.5,0.5c0,0.276 -0.224,0.5 -0.5,0.5h-2c-0.276,0 -0.5,-0.224 -0.5,-0.5c0,-0.276 0.224,-0.5 0.5,-0.5zM17.5,2c0.276,0 0.5,0.224 0.5,0.5c0,0.276 -0.224,0.5 -0.5,0.5c-0.276,0 -0.5,-0.224 -0.5,-0.5c0,-0.276 0.224,-0.5 0.5,-0.5zM11.03711,9.98828c-0.33022,-0.00945 -0.6438,0.14478 -0.83789,0.41211l-3,4c-0.26624,0.35541 -0.26624,0.84381 0,1.19922l3,4c0.33115,0.44226 0.95813,0.53233 1.40039,0.20117c0.44226,-0.33115 0.53233,-0.95813 0.20117,-1.40039l-2.55078,-3.40039l2.55078,-3.40039c0.23022,-0.29785 0.27368,-0.69975 0.11245,-1.03993c-0.16122,-0.34018 -0.49982,-0.56101 -0.87612,-0.5714zM18.93359,9.99023c-0.37032,0.0213 -0.69843,0.24582 -0.85241,0.58327c-0.15399,0.33746 -0.10855,0.73242 0.11804,1.0261l2.55078,3.40039l-2.55078,3.40039c-0.33115,0.44226 -0.24109,1.06924 0.20117,1.40039c0.44226,0.33115 1.06924,0.24109 1.40039,-0.20117l3,-4c0.26624,-0.35541 0.26624,-0.84381 0,-1.19922l-3,-4c-0.20035,-0.27548 -0.52714,-0.43004 -0.86719,-0.41016zM6,18v9c0,1.105 0.895,2 2,2h14c1.105,0 2,-0.895 2,-2v-9l-2,3v6h-14v-6z"></path></g></g></svg>