<svg xmlns="http://www.w3.org/2000/svg" xmlns:xlink="http://www.w3.org/1999/xlink" viewBox="0,0,256,256" width="100px" height="100px" fill-rule="nonzero"><g fill="#9abf14" fill-rule="nonzero" stroke="none" stroke-width="1" stroke-linecap="butt" stroke-linejoin="miter" stroke-miterlimit="10" stroke-dasharray="" stroke-dashoffset="0" font-family="none" font-weight="none" font-size="none" text-anchor="none" style="mix-blend-mode: normal"><g transform="scale(8.53333,8.53333)"><path d="M22.98438,2.98633c-0.55152,0.00862 -0.99193,0.46214 -0.98437,1.01367v2h-2c-0.36064,-0.0051 -0.69608,0.18438 -0.87789,0.49587c-0.18181,0.3115 -0.18181,0.69676 0,1.00825c0.18181,0.3115 0.51725,0.50097 0.87789,0.49587h2v2c-0.0051,0.36064 0.18438,0.69608 0.49587,0.87789c0.3115,0.18181 0.69676,0.18181 1.00825,0c0.3115,-0.18181 0.50097,-0.51725 0.49587,-0.87789v-2h2c0.36064,0.0051 0.69608,-0.18438 0.87789,-0.49587c0.18181,-0.3115 0.18181,-0.69676 0,-1.00825c-0.18181,-0.3115 -0.51725,-0.50097 -0.87789,-0.49587h-2v-2c0.0037,-0.2703 -0.10218,-0.53059 -0.29351,-0.72155c-0.19133,-0.19097 -0.45182,-0.29634 -0.72212,-0.29212zM2.98438,7.98633c-0.55152,0.00862 -0.99193,0.46214 -0.98437,1.01367v17c-0.0051,0.36064 0.18438,0.69608 0.49587,0.87789c0.3115,0.18181 0.69676,0.18181 1.00825,0c0.3115,-0.18181 0.50097,-0.51725 0.49587,-0.87789v-1h22v1c-0.0051,0.36064 0.18438,0.69608 0.49587,0.87789c0.3115,0.18181 0.69676,0.18181 1.00825,0c0.3115,-0.18181 0.50097,-0.51725 0.49587,-0.87789v-5c0.00363,-0.26757 -0.10012,-0.52543 -0.28805,-0.71593c-0.18793,-0.1905 -0.44436,-0.29774 -0.71195,-0.29774v-1.98633c0,-2.19733 -1.80267,-4 -4,-4h-12c-1.01474,0 -1.91688,0.51758 -2.46094,1.29883c-1.06961,-1.00968 -2.47645,-1.24587 -3.57422,-1.29102c-0.3566,-0.01466 -0.67386,-0.00232 -0.96484,0.01563v-5.02344c0.0037,-0.2703 -0.10218,-0.53059 -0.29351,-0.72155c-0.19133,-0.19097 -0.45182,-0.29634 -0.72212,-0.29212zM11,16h12c1.11667,0 2,0.88333 2,2v2h-15v-3c0,-0.56503 0.43497,-1 1,-1zM4.88281,16.00586c0.87349,0.03592 1.81813,0.27321 2.32813,0.7832c0.51,0.51 0.74729,1.45463 0.7832,2.32813c0.01894,0.46068 -0.01969,0.54076 -0.05078,0.82617c-0.28541,0.0311 -0.36549,0.06972 -0.82617,0.05078c-0.87349,-0.03592 -1.81813,-0.27321 -2.32812,-0.7832c-0.51,-0.51 -0.74729,-1.45463 -0.7832,-2.32813c-0.01894,-0.46068 0.01969,-0.54076 0.05078,-0.82617c0.28541,-0.0311 0.36549,-0.06972 0.82617,-0.05078z"></path></g></g></svg>