<svg xmlns="http://www.w3.org/2000/svg" xmlns:xlink="http://www.w3.org/1999/xlink" viewBox="0,0,256,256" width="100px" height="100px" fill-rule="nonzero"><g fill="#9abf14" fill-rule="nonzero" stroke="none" stroke-width="1" stroke-linecap="butt" stroke-linejoin="miter" stroke-miterlimit="10" stroke-dasharray="" stroke-dashoffset="0" font-family="none" font-weight="none" font-size="none" text-anchor="none" style="mix-blend-mode: normal"><g transform="scale(8,8)"><path d="M7.81641,2c-3.20752,0 -5.81641,2.69141 -5.81641,6c0,3.30859 2.60889,6 5.81641,6c0.54248,0 1.55273,-0.00049 2.00195,-0.75391c0.41504,-0.69531 0.04297,-1.3833 -0.28516,-1.99024c-0.31885,-0.59131 -0.7168,-1.32666 -0.7168,-2.25586h0.18359c2.20557,0 4,1.79443 4,4v3.24609c-2.19177,0.38403 -3.94763,1.25006 -3.99805,2.8125c-0.00745,0.22754 0.01453,0.45129 0.04883,0.67383c0.01984,-0.02008 0.04584,-0.02826 0.06445,-0.05078c0.72852,-0.87891 2.04297,-0.87891 2.76953,0c0.3418,0.41113 0.88867,0.41211 1.23047,0c0.72852,-0.87793 2.04102,-0.87793 2.76953,0c0.3418,0.41211 0.88867,0.41211 1.23047,0c0.72852,-0.87793 2.04102,-0.87793 2.76953,0c0.3418,0.41211 0.88867,0.41211 1.23047,0c0.4845,-0.58386 1.22528,-0.77087 1.88281,-0.57812c0.01282,-0.54144 -0.19641,-1.05304 -0.60937,-1.47852c-0.74811,-0.77301 -2.09882,-1.17895 -3.38867,-1.39258v-3.23242c0,-2.20557 1.79395,-4 4,-4h0.18359c0,0.9292 -0.39941,1.66455 -0.71875,2.25586c-0.32812,0.60693 -0.69824,1.29492 -0.2832,1.99024c0.44922,0.75342 1.45996,0.75391 2.00195,0.75391c3.20801,0 5.81641,-2.69141 5.81641,-6c0,-3.30859 -2.6084,-6 -5.81641,-6c-0.84766,0 -1.46875,0.26318 -1.8418,0.7832c-0.6543,0.91064 -0.25781,2.08936 0.20117,3.45312c0.08429,0.25079 0.1698,0.50989 0.25195,0.77344c-3.2132,0.10938 -5.79492,2.75085 -5.79492,5.99023v3.02539c-0.39117,-0.01923 -0.71967,-0.02539 -0.94141,-0.02539c-0.35162,0 -0.70575,0.01099 -1.05859,0.0293v-3.0293c0,-3.23938 -2.58173,-5.88086 -5.79492,-5.99023c0.08215,-0.26355 0.16766,-0.52264 0.25195,-0.77344c0.4585,-1.36377 0.85547,-2.54248 0.20117,-3.45312c-0.37354,-0.52002 -0.99463,-0.7832 -1.8418,-0.7832zM10.5,20.00977c-0.22241,0 -0.44531,0.10303 -0.61523,0.30859c-0.15533,0.18738 -0.33997,0.32611 -0.53711,0.43359c0.92285,2.15906 3.5376,3.96405 5.65234,4.91992v4.32813h2v-4.3457c2.22143,-1.04315 5.13202,-3.1134 5.83789,-5.55859c-0.31659,-0.16254 -0.69348,-0.09039 -0.95312,0.22266c-0.72852,0.87793 -2.04102,0.87793 -2.76953,0c-0.3418,-0.41211 -0.88867,-0.41211 -1.23047,0c-0.72852,0.87793 -2.04102,0.87793 -2.76953,0c-0.3418,-0.41211 -0.88867,-0.41211 -1.23047,0c-0.72852,0.87793 -2.04199,0.87793 -2.76953,0c-0.17041,-0.20605 -0.39282,-0.30859 -0.61523,-0.30859z"></path></g></g></svg>