<svg xmlns="http://www.w3.org/2000/svg" xmlns:xlink="http://www.w3.org/1999/xlink" viewBox="0,0,256,256" width="100px" height="100px" fill-rule="nonzero"><g fill="#9abf14" fill-rule="nonzero" stroke="none" stroke-width="1" stroke-linecap="butt" stroke-linejoin="miter" stroke-miterlimit="10" stroke-dasharray="" stroke-dashoffset="0" font-family="none" font-weight="none" font-size="none" text-anchor="none" style="mix-blend-mode: normal"><g transform="scale(8.53333,8.53333)"><path d="M25.01,24.104c0,-2.23 -1.25,-3.62 -1.77,-8.3c-0.01,-0.01 -0.01,-0.01 0,-0.01c1.01,-2.86 1.37,-6.7 0.77,-9.78c-0.22,-1.17 -0.57,-2.13 -1,-2.91v-0.09h-0.05h-8.95h-0.42c-0.47,2.02 -0.18,4.9 0.42,8c0.5,2.58 1.12,4.85 1.99,6.44c-0.2,3.22 -4.11,3.72 -5.44,4.24c-1.62,0.62 -2.62,1.83 -4.19,2.08c-1.62,0.3 -2.36,0.35 -2.36,1.36c0,1.22 1.14,1.88 2.24,1.88c0.84,0 1.76,-0.52 1.76,-0.52c0,0 0.77,0.52 2,0.52c3.53,0 4.55,-0.21 5.49,-0.36c0.56,-0.09 1,-0.16 1.76,-0.16c0.3,0 0.78,0.08 1.33,0.17c0.92,0.16 2.15,0.35 3.42,0.35c1.99,0 3,-1.09 3,-2.91z"></path></g></g></svg>