<svg xmlns="http://www.w3.org/2000/svg"  viewBox="0 0 24 24" width="96px" height="96px"><path d="M 5.0292969 3.0097656 C 3.8992969 3.0097656 2.9592969 3.9500781 3.0292969 5.0800781 C 3.2942969 9.3490781 5.1336562 13.188344 7.9726562 16.027344 C 10.811656 18.866344 14.650922 20.705703 18.919922 20.970703 C 20.049922 21.040703 20.990234 20.100703 20.990234 18.970703 L 20.990234 17.240234 C 20.990234 16.220234 20.230703 15.37 19.220703 15.25 L 16.699219 14.960938 C 16.089219 14.890937 15.490547 15.099297 15.060547 15.529297 L 13.210938 17.380859 C 11.791937 16.660859 10.504578 15.720422 9.3925781 14.607422 C 8.2795781 13.495422 7.3391406 12.208063 6.6191406 10.789062 L 8.4707031 8.9394531 C 8.9007031 8.5094531 9.1090625 7.9107813 9.0390625 7.3007812 L 8.75 4.7792969 C 8.63 3.7692969 7.7797656 3.0097656 6.7597656 3.0097656 L 5.0292969 3.0097656 z M 16.402344 3.2636719 C 16.305828 3.2803594 16.211109 3.326 16.130859 3.40625 L 13.326172 6.2109375 C 13.108172 6.4289375 13 6.715 13 7 C 13 7.285 13.108172 7.5710625 13.326172 7.7890625 L 16.130859 10.59375 C 16.451859 10.91475 17 10.685422 17 10.232422 L 17 8 L 21 8 A 1.0001 1.0001 0 1 0 21 6 L 17 6 L 17 3.7675781 C 17 3.4278281 16.691891 3.2136094 16.402344 3.2636719 z"/></svg>