<svg width="19" height="22" viewBox="0 0 19 22" fill="none" xmlns="http://www.w3.org/2000/svg">
<path d="M2.96855 0.914829C3.02109 0.653389 3.14858 0.465428 3.35102 0.350946C3.55346 0.236465 3.78024 0.224082 4.03137 0.313799L7.42151 1.52498C7.61682 1.59476 7.77473 1.72123 7.89523 1.90438C8.01572 2.08754 8.07619 2.28816 8.07662 2.50626L8.05837 5.72215C8.0454 5.93546 7.9862 6.1363 7.88076 6.32467C7.77532 6.51303 7.64702 6.64996 7.49587 6.73544L5.11719 8.0806C5.53711 9.41373 6.09459 10.6948 6.78963 11.9239C7.48466 13.1529 8.27313 14.2519 9.15502 15.2208L11.6262 13.862C11.778 13.7761 11.9379 13.7436 12.106 13.7644C12.2741 13.7852 12.4525 13.8452 12.6413 13.9444L15.4572 15.5576C15.6467 15.6564 15.7882 15.8081 15.8816 16.0128C15.9751 16.2174 16.0014 16.4214 15.9605 16.6247L15.2512 20.1542C15.1987 20.4156 15.0712 20.6036 14.8688 20.718C14.6663 20.8325 14.4396 20.8449 14.1884 20.7552C12.3887 20.1122 10.7182 19.0677 9.17677 17.6215C7.63536 16.1754 6.34349 14.5308 5.30116 12.6876C4.25882 10.8444 3.51523 8.88971 3.07037 6.82348C2.62552 4.75725 2.59158 2.7877 2.96855 0.914829Z" fill="#7D9B10"/>
</svg>
