<svg xmlns="http://www.w3.org/2000/svg" xmlns:xlink="http://www.w3.org/1999/xlink" viewBox="0,0,256,256" width="100px" height="100px" fill-rule="nonzero"><g fill="#9abf14" fill-rule="nonzero" stroke="none" stroke-width="1" stroke-linecap="butt" stroke-linejoin="miter" stroke-miterlimit="10" stroke-dasharray="" stroke-dashoffset="0" font-family="none" font-weight="none" font-size="none" text-anchor="none" style="mix-blend-mode: normal"><g transform="scale(8.53333,8.53333)"><path d="M9.5,3c-1.781,0 -3.23408,1.33469 -3.45508,3.05469c-0.179,-0.028 -0.35792,-0.05469 -0.54492,-0.05469c-1.933,0 -3.5,1.567 -3.5,3.5c0,0.471 0.09567,0.91812 0.26367,1.32813c-0.766,0.642 -1.26367,1.59388 -1.26367,2.67188c0,1.256 0.66616,2.3498 1.66016,2.9668c-0.412,0.574 -0.66016,1.2722 -0.66016,2.0332c0,1.933 1.567,3.5 3.5,3.5c0.275,0 0.53988,-0.03961 0.79688,-0.09961c0.037,0.085 0.08786,0.16119 0.13086,0.24219c-0.003,0.002 -0.01562,0.00781 -0.01562,0.00781c0,0 1.58789,3.84961 -0.41211,6.84961h4c0,0 0.00289,-4.41391 3.96289,-5.00391c0.013,0 0.02411,0.00391 0.03711,0.00391c1.586,0 2.9448,-0.92958 3.5918,-2.26758c0.44,0.166 0.9102,0.26758 1.4082,0.26758c1.924,0 3.52716,-1.35992 3.91016,-3.16992c0.348,0.099 0.70984,0.16992 1.08984,0.16992c2.209,0 4,-1.791 4,-4c0,-0.541 -0.10969,-1.05634 -0.30469,-1.52734c0.787,-0.541 1.30469,-1.44566 1.30469,-2.47266c0,-1.356 -0.90563,-2.48737 -2.14062,-2.85937c-0.372,-1.235 -1.50337,-2.14062 -2.85937,-2.14062c-0.091,0 -0.17858,0.01934 -0.26758,0.02734c-0.613,-1.758 -2.26642,-3.02734 -4.23242,-3.02734c-0.925,0 -1.785,0.28077 -2.5,0.75977c-0.715,-0.479 -1.575,-0.75977 -2.5,-0.75977c-1.007,0 -1.92578,0.34139 -2.67578,0.90039c-0.619,-0.554 -1.42822,-0.90039 -2.32422,-0.90039zM13.63867,6h0.72266c0.127,0 0.23405,0.09566 0.24805,0.22266l0.0293,0.25586c0.036,0.327 0.28152,0.5863 0.60352,0.6543c0.209,0.044 0.41619,0.09906 0.61719,0.16406c0.313,0.101 0.65461,0.00133 0.84961,-0.26367l0.15234,-0.20703c0.075,-0.103 0.21617,-0.13041 0.32617,-0.06641l0.625,0.35938c0.11,0.064 0.15647,0.20136 0.10547,0.31836l-0.10742,0.24023c-0.132,0.301 -0.04673,0.64719 0.19727,0.86719c0.157,0.142 0.30527,0.29122 0.44727,0.44922c0.22,0.244 0.56814,0.32731 0.86914,0.19531l0.24023,-0.10547c0.117,-0.051 0.25241,-0.00648 0.31641,0.10352l0.36133,0.62695c0.064,0.11 0.03364,0.25117 -0.06836,0.32617l-0.20508,0.15234c-0.265,0.195 -0.36662,0.53661 -0.26562,0.84961c0.065,0.201 0.12006,0.40523 0.16406,0.61523c0.068,0.322 0.3263,0.56947 0.6543,0.60547l0.25586,0.02734c0.126,0.013 0.22266,0.12005 0.22266,0.24805v0.72266c0,0.127 -0.09566,0.23405 -0.22266,0.24805c-0.075,0.008 -0.16286,0.01734 -0.25586,0.02734c-0.327,0.036 -0.5873,0.28347 -0.6543,0.60547c-0.044,0.209 -0.09906,0.41423 -0.16406,0.61523c-0.101,0.313 0.00062,0.65461 0.26563,0.84961l0.20508,0.15234c0.103,0.075 0.13236,0.21617 0.06836,0.32617l-0.36133,0.62695c-0.064,0.11 -0.19941,0.15452 -0.31641,0.10352l-0.24023,-0.10547c-0.301,-0.132 -0.64914,-0.04869 -0.86914,0.19531c-0.142,0.157 -0.28927,0.30722 -0.44727,0.44922c-0.244,0.22 -0.32927,0.56619 -0.19727,0.86719l0.10547,0.24023c0.051,0.117 0.00648,0.25436 -0.10352,0.31836l-0.62695,0.35938c-0.11,0.064 -0.25117,0.03559 -0.32617,-0.06641l-0.15039,-0.20703c-0.195,-0.265 -0.53661,-0.36567 -0.84961,-0.26367c-0.201,0.065 -0.40719,0.12006 -0.61719,0.16406c-0.322,0.068 -0.56752,0.3263 -0.60352,0.6543l-0.0293,0.25586c-0.014,0.127 -0.12005,0.22266 -0.24805,0.22266h-0.72266c-0.127,0 -0.23405,-0.09566 -0.24805,-0.22266l-0.0293,-0.25586c-0.036,-0.327 -0.28152,-0.5863 -0.60352,-0.6543c-0.209,-0.044 -0.41619,-0.09906 -0.61719,-0.16406c-0.313,-0.101 -0.65461,-0.00133 -0.84961,0.26367l-0.15039,0.20703c-0.075,0.103 -0.21617,0.13041 -0.32617,0.06641l-0.62695,-0.35937c-0.11,-0.064 -0.15452,-0.20136 -0.10352,-0.31836l0.10547,-0.24023c0.132,-0.301 0.04673,-0.64719 -0.19727,-0.86719c-0.157,-0.142 -0.30527,-0.29122 -0.44727,-0.44922c-0.22,-0.244 -0.56814,-0.32731 -0.86914,-0.19531l-0.24023,0.10547c-0.117,0.051 -0.25241,0.00648 -0.31641,-0.10352l-0.36133,-0.62695c-0.064,-0.11 -0.03364,-0.25117 0.06836,-0.32617l0.20508,-0.15234c0.265,-0.195 0.36663,-0.53661 0.26563,-0.84961c-0.065,-0.201 -0.12006,-0.40523 -0.16406,-0.61523c-0.068,-0.322 -0.3263,-0.56947 -0.6543,-0.60547l-0.25586,-0.02734c-0.127,-0.014 -0.22266,-0.12005 -0.22266,-0.24805v-0.72266c0,-0.127 0.09467,-0.23295 0.26367,-0.25195l0.21484,-0.02539c0.327,-0.036 0.5873,-0.28247 0.6543,-0.60547c0.044,-0.209 0.09906,-0.41423 0.16406,-0.61523c0.101,-0.313 -0.00062,-0.65656 -0.26562,-0.85156l-0.20508,-0.15039c-0.103,-0.076 -0.13236,-0.21617 -0.06836,-0.32617l0.36133,-0.62695c0.064,-0.11 0.19941,-0.15452 0.31641,-0.10352l0.24023,0.10547c0.301,0.132 0.64914,0.04869 0.86914,-0.19531c0.142,-0.157 0.28927,-0.30722 0.44727,-0.44922c0.244,-0.22 0.32927,-0.56619 0.19727,-0.86719l-0.10742,-0.24023c-0.051,-0.117 -0.00453,-0.25436 0.10547,-0.31836l0.625,-0.35937c0.11,-0.064 0.25117,-0.03559 0.32617,0.06641l0.15234,0.20703c0.195,0.265 0.53661,0.36467 0.84961,0.26367c0.201,-0.065 0.40719,-0.12006 0.61719,-0.16406c0.322,-0.067 0.56752,-0.3263 0.60352,-0.6543l0.0293,-0.25586c0.014,-0.125 0.12005,-0.2207 0.24805,-0.2207zM14,9c-2.209,0 -4,1.791 -4,4c0,2.209 1.791,4 4,4c2.209,0 4,-1.791 4,-4c0,-2.209 -1.791,-4 -4,-4zM14,11c1.105,0 2,0.895 2,2c0,1.104 -0.895,2 -2,2c-1.105,0 -2,-0.896 -2,-2c0,-1.105 0.895,-2 2,-2z"></path></g></g></svg>