<svg xmlns="http://www.w3.org/2000/svg" xmlns:xlink="http://www.w3.org/1999/xlink" viewBox="0,0,256,256" width="100px" height="100px" fill-rule="nonzero"><g fill="#9abf14" fill-rule="nonzero" stroke="none" stroke-width="1" stroke-linecap="butt" stroke-linejoin="miter" stroke-miterlimit="10" stroke-dasharray="" stroke-dashoffset="0" font-family="none" font-weight="none" font-size="none" text-anchor="none" style="mix-blend-mode: normal"><g transform="scale(8.53333,8.53333)"><path d="M5,4c-1.105,0 -2,0.895 -2,2v4v13c0,1.64497 1.35503,3 3,3h18c1.64497,0 3,-1.35503 3,-3v-14v-3c0,-1.105 -0.895,-2 -2,-2zM6,6c0.552,0 1,0.448 1,1c0,0.552 -0.448,1 -1,1c-0.552,0 -1,-0.448 -1,-1c0,-0.552 0.448,-1 1,-1zM10,6c0.552,0 1,0.448 1,1c0,0.552 -0.448,1 -1,1c-0.552,0 -1,-0.448 -1,-1c0,-0.552 0.448,-1 1,-1zM5,10h20v13c0,0.56503 -0.43497,1 -1,1h-18c-0.56503,0 -1,-0.43497 -1,-1zM14,11v1.11914c-1.385,0.308 -2.25391,1.24364 -2.25391,2.55664c0,1.305 0.76617,2.11736 2.32617,2.44336l1.11523,0.23828c1.05,0.226 1.47656,0.53994 1.47656,1.08594c0,0.647 -0.65884,1.09766 -1.58984,1.09766c-1.009,0 -1.70997,-0.44467 -1.79297,-1.13867h-1.73047c0.054,1.321 0.97822,2.224 2.44922,2.5v1.09766h2v-1.10156c1.532,-0.291 2.44922,-1.24969 2.44922,-2.67969c0,-1.328 -0.73994,-2.07159 -2.46094,-2.43359l-1.0332,-0.21875c-1.003,-0.213 -1.41016,-0.51692 -1.41016,-1.04492c0,-0.653 0.59228,-1.06836 1.48828,-1.06836c0.866,0 1.49512,0.45095 1.57813,1.12695h1.68555c-0.044,-1.243 -0.94687,-2.16284 -2.29687,-2.46484v-1.11523z"></path></g></g></svg>