<svg xmlns="http://www.w3.org/2000/svg" xmlns:xlink="http://www.w3.org/1999/xlink" viewBox="0,0,256,256" width="100px" height="100px" fill-rule="nonzero"><g fill="#9abf14" fill-rule="nonzero" stroke="none" stroke-width="1" stroke-linecap="butt" stroke-linejoin="miter" stroke-miterlimit="10" stroke-dasharray="" stroke-dashoffset="0" font-family="none" font-weight="none" font-size="none" text-anchor="none" style="mix-blend-mode: normal"><g transform="scale(5.12,5.12)"><path d="M22.80078,3c-13.862,0 -18.80078,9.58278 -18.80078,18.55078c0,4.176 2.31945,7.98528 4.06445,10.48828c1.921,2.754 2.93555,5.86319 2.93555,8.99219v5.96875h21v-5.13281l1.47852,0.10156c2.202,0.198 4.4297,-0.55227 6.0957,-2.07227c1.565,-1.427 2.42578,-3.32103 2.42578,-5.33203v-3.47461l2.64258,-1.4668c0.621,-0.339 1.06777,-0.8945 1.25977,-1.5625c0.191,-0.668 0.10451,-1.37897 -0.27148,-2.04297l-4.66602,-7.36328c-1.283,-9.954 -7.89206,-15.6543 -18.16406,-15.6543zM22,12c4.971,0 9,4.029 9,9c0,4.971 -4.029,9 -9,9c-4.971,0 -9,-4.029 -9,-9c0,-4.971 4.029,-9 9,-9zM22,15c-0.552,0 -1,0.448 -1,1v4h-4c-0.552,0 -1,0.448 -1,1c0,0.552 0.448,1 1,1h4v4c0,0.552 0.448,1 1,1c0.552,0 1,-0.448 1,-1v-4h4c0.552,0 1,-0.448 1,-1c0,-0.552 -0.448,-1 -1,-1h-4v-4c0,-0.552 -0.448,-1 -1,-1z"></path></g></g></svg>