<svg xmlns="http://www.w3.org/2000/svg" xmlns:xlink="http://www.w3.org/1999/xlink" viewBox="0,0,256,256" width="100px" height="100px" fill-rule="nonzero"><g fill="#9abf14" fill-rule="nonzero" stroke="none" stroke-width="1" stroke-linecap="butt" stroke-linejoin="miter" stroke-miterlimit="10" stroke-dasharray="" stroke-dashoffset="0" font-family="none" font-weight="none" font-size="none" text-anchor="none" style="mix-blend-mode: normal"><g transform="scale(8.53333,8.53333)"><path d="M9.54492,4c-3.615,0 -6.54492,2.92992 -6.54492,6.54492c0,0.487 0.05762,0.97208 0.14063,1.45508h2.02539c0.781,0 1.51727,0.30261 2.07227,0.84961l0.48242,0.47266l2.38477,-4.76953c0.181,-0.362 0.54484,-0.57983 0.96484,-0.54883c0.403,0.028 0.74895,0.29569 0.87695,0.67969l2.13867,6.41016l0.49023,-1.22852c0.454,-1.134 1.53486,-1.86523 2.75586,-1.86523h1.94531c0.346,-0.595 0.98366,-1 1.72266,-1c1.105,0 2,0.895 2,2c0,1.105 -0.895,2 -2,2c-0.738,0 -1.37566,-0.405 -1.72266,-1h-1.94531c-0.398,0 -0.75144,0.23842 -0.89844,0.60742l-1.50391,3.76367c-0.153,0.381 -0.52169,0.62891 -0.92969,0.62891h-0.0293c-0.42,-0.013 -0.78597,-0.28559 -0.91797,-0.68359l-2.23828,-6.71094l-1.91992,3.8418c-0.144,0.286 -0.41547,0.48606 -0.73047,0.53906c-0.315,0.05 -0.63628,-0.04944 -0.86328,-0.27344l-1.46289,-1.4375c-0.181,-0.177 -0.41887,-0.27539 -0.67187,-0.27539h-1.47852c1.89344,4.95185 7.22916,9.33281 10.00781,11.51563c0.01479,0.01259 0.02977,0.02496 0.04492,0.03711c0.01576,0.01237 0.04106,0.0327 0.05664,0.04492l0.00195,-0.00195c0.34597,0.26142 0.76754,0.40331 1.20117,0.4043c0.4343,-0.00056 0.85662,-0.14248 1.20313,-0.4043v0.00195c0.00673,-0.00528 0.01668,-0.01227 0.02344,-0.01758c0.00514,-0.00403 0.01242,-0.00962 0.01758,-0.01367c0.00655,-0.00582 0.01306,-0.01168 0.01953,-0.01758c3.39944,-2.66792 10.73633,-8.69649 10.73633,-15.00391c0,-3.615 -2.92992,-6.54492 -6.54492,-6.54492c-3.455,0 -5.45508,3 -5.45508,3c0,0 -2.00008,-3 -5.45508,-3z"></path></g></g></svg>