<svg xmlns="http://www.w3.org/2000/svg"  viewBox="0 0 30 30" width="120px" height="120px"><path d="M 13 3 C 6.925 3 2 7.477 2 13 C 2 15.837518 3.306518 18.39284 5.3945312 20.212891 C 5.093984 21.190901 4.4689762 22.164269 3.3242188 23.03125 C 3.3234549 23.031829 3.3230299 23.032625 3.3222656 23.033203 A 0.5 0.5 0 0 0 3.5 24 A 0.5 0.5 0 0 0 3.6054688 23.988281 C 5.5400885 23.981524 7.1912591 23.156263 8.5058594 22.121094 C 9.8792065 22.68134 11.397234 23 13 23 C 19.075 23 24 18.523 24 13 C 24 7.477 19.075 3 13 3 z M 9 10 L 17 10 C 17.552 10 18 10.448 18 11 C 18 11.552 17.552 12 17 12 L 9 12 C 8.448 12 8 11.552 8 11 C 8 10.448 8.448 10 9 10 z M 9 14 L 15 14 C 15.552 14 16 14.448 16 15 C 16 15.552 15.552 16 15 16 L 9 16 C 8.448 16 8 15.552 8 15 C 8 14.448 8.448 14 9 14 z M 25.777344 15.166016 C 24.746344 20.357016 20.094078 24.3935 14.330078 24.9375 C 15.778078 26.2105 17.784 27 20 27 C 21.056083 27 22.061339 26.815582 22.984375 26.490234 C 24.211688 27.347591 25.69711 27.983324 27.398438 27.988281 A 0.5 0.5 0 0 0 27.5 28 A 0.5 0.5 0 0 0 27.673828 27.03125 C 26.75793 26.336176 26.170272 25.57197 25.818359 24.792969 C 27.167112 23.539939 28 21.857118 28 20 C 28 18.123 27.151344 16.423016 25.777344 15.166016 z"/></svg>