<svg xmlns="http://www.w3.org/2000/svg" xmlns:xlink="http://www.w3.org/1999/xlink" viewBox="0,0,256,256" width="100px" height="100px" fill-rule="nonzero"><g fill="#9abf14" fill-rule="nonzero" stroke="none" stroke-width="1" stroke-linecap="butt" stroke-linejoin="miter" stroke-miterlimit="10" stroke-dasharray="" stroke-dashoffset="0" font-family="none" font-weight="none" font-size="none" text-anchor="none" style="mix-blend-mode: normal"><g transform="scale(8.53333,8.53333)"><path d="M15.00977,3.01367c-1.65685,0 -3,1.34315 -3,3c0,1.65685 1.34315,3 3,3c1.65685,0 3,-1.34315 3,-3c0,-1.65685 -1.34315,-3 -3,-3zM11.00977,9.01367c-0.55228,0 -1,0.44772 -1,1c0,0.55228 0.44772,1 1,1c0.55228,0 1,-0.44772 1,-1c0,-0.55228 -0.44772,-1 -1,-1zM7.00977,11.01367c-0.55,0 -1,0.45 -1,1c0,0.55 0.45,1 1,1h4.99023c0.01,0.05 0.00977,0.09063 0.00977,0.14063v0.85938c1.1,0 2,0.9 2,2c0,1.1 -0.9,2 -2,2v7.89063c0,0.57 0.4593,1.0293 1.0293,1.0293c0.55,0 1.00125,-0.41898 1.03125,-0.95898l0.43945,-6.57031c0.02,-0.26 0.24,-0.4707 0.5,-0.4707c0.26,0 0.48,0.2107 0.5,0.4707l0.43945,6.57031c0.03,0.54 0.48125,0.95898 1.03125,0.95898c0.57,0 1.0293,-0.4593 1.0293,-1.0293v-1.16016c-0.6,-0.35 -1,-0.99047 -1,-1.73047c0,-0.74 0.4,-1.38047 1,-1.73047v-8.12891c0,-0.05 -0.00023,-0.09062 0.00977,-0.14062h1.25977c0.35,-0.6 0.99047,-1 1.73047,-1c0.74,0 1.38047,0.4 1.73047,1h0.26953c0.55,0 1,-0.45 1,-1c0,-0.55 -0.45,-1 -1,-1h-10.26953c-0.17,0.3 -0.42094,0.5407 -0.71094,0.7207h-0.59961c0.06,0.06 0.11016,0.11945 0.16016,0.18945c-0.18,0.06 -0.38008,0.08984 -0.58008,0.08984c-0.74,0 -1.38047,-0.4 -1.73047,-1zM21.00977,13.01367c-0.55228,0 -1,0.44772 -1,1c0,0.55228 0.44772,1 1,1c0.55228,0 1,-0.44772 1,-1c0,-0.55228 -0.44772,-1 -1,-1zM12.00977,15.01367c-0.55228,0 -1,0.44772 -1,1c0,0.55228 0.44772,1 1,1c0.55228,0 1,-0.44772 1,-1c0,-0.55228 -0.44772,-1 -1,-1zM19.00977,22.01367c-0.55228,0 -1,0.44772 -1,1c0,0.55228 0.44772,1 1,1c0.55228,0 1,-0.44772 1,-1c0,-0.55228 -0.44772,-1 -1,-1z"></path></g></g></svg>