<?xml version="1.0" encoding="UTF-8"?>
<svg xmlns="http://www.w3.org/2000/svg" viewBox="0 0 479.78 439.63">
  <defs>
    <style>
      .cls-1, .cls-2 {
        stroke-linecap: round;
      }

      .cls-1, .cls-2, .cls-3, .cls-4, .cls-5, .cls-6, .cls-7, .cls-8, .cls-9 {
        stroke-linejoin: round;
      }

      .cls-1, .cls-2, .cls-3, .cls-5, .cls-7, .cls-8, .cls-9 {
        stroke: #263238;
      }

      .cls-1, .cls-10, .cls-7 {
        fill: #10292d;
      }

      .cls-2, .cls-3, .cls-4 {
        fill: none;
      }

      .cls-4 {
        stroke: #fff;
      }

      .cls-11, .cls-12 {
        fill: #ebf5eb;
      }

      .cls-13, .cls-5, .cls-6 {
        fill: #fff;
      }

      .cls-14 {
        fill: #bfbfbf;
      }

      .cls-15, .cls-9 {
        fill: #9abf14;
      }

      .cls-6 {
        stroke: #bfbfbf;
      }

      .cls-8 {
        fill: #c9c9c9;
      }

      .cls-12 {
        opacity: .7;
      }
    </style>
  </defs>
  <g id="Background_Simple" data-name="Background Simple">
    <g>
      <path class="cls-11" d="M445.1,213.95c-4.94,41.8-24.02,90.4-62.14,112.73-57.6,33.74-52.77,85.64-165.19,108.2-17.53,3.52-34.16,5-49.85,4.71-8.43-.16-16.59-.84-24.46-1.99-71.45-10.44-119.53-60.1-137.17-120.05-23.21-78.85,23.14-130.46,53.86-161.56C90.87,124.88,113.37,27.98,223.71,4.93,240.54,1.42,257.74-.37,274.94,.06c39.26,.96,82.08,13.85,111.71,40.76,2.22,2.02,4.39,4.12,6.5,6.28,41.18,42.27,58.68,109.86,51.95,166.85Z"/>
      <path class="cls-12" d="M445.1,213.95c-4.94,41.8-24.02,90.4-62.14,112.73-57.6,33.74-52.77,85.64-165.19,108.2-17.53,3.52-34.16,5-49.85,4.71-8.43-.16-16.59-.84-24.46-1.99-71.45-10.44-119.53-60.1-137.17-120.05-23.21-78.85,23.14-130.46,53.86-161.56C90.87,124.88,113.37,27.98,223.71,4.93,240.54,1.42,257.74-.37,274.94,.06c39.26,.96,82.08,13.85,111.71,40.76,2.22,2.02,4.39,4.12,6.5,6.28,41.18,42.27,58.68,109.86,51.95,166.85Z"/>
    </g>
  </g>
  <g id="Window">
    <g>
      <g>
        <rect class="cls-6" x="141.56" y="26.24" width="294.33" height="247.31"/>
        <rect class="cls-6" x="146.76" y="30.61" width="283.95" height="238.58"/>
        <rect class="cls-6" x="236.53" y="26.24" width="7.71" height="247.31"/>
        <rect class="cls-6" x="338.69" y="26.24" width="7.71" height="247.31"/>
      </g>
      <line class="cls-6" x1="225.12" y1="57.71" x2="169.86" y2="112.97"/>
      <line class="cls-6" x1="230.65" y1="52.17" x2="227.39" y2="55.43"/>
      <line class="cls-6" x1="191.15" y1="100.93" x2="175.1" y2="116.98"/>
      <line class="cls-6" x1="277.84" y1="177.17" x2="262.74" y2="192.27"/>
      <line class="cls-6" x1="288.66" y1="166.35" x2="280.42" y2="174.59"/>
      <line class="cls-6" x1="294.22" y1="170.67" x2="274.16" y2="190.73"/>
      <line class="cls-6" x1="397.16" y1="51.07" x2="364.27" y2="83.96"/>
      <line class="cls-6" x1="403.46" y1="44.77" x2="400.04" y2="48.18"/>
      <line class="cls-6" x1="409.69" y1="174.93" x2="390.19" y2="194.43"/>
      <line class="cls-6" x1="421.36" y1="163.26" x2="412.72" y2="171.9"/>
      <line class="cls-6" x1="398.52" y1="177.46" x2="372.6" y2="203.38"/>
    </g>
  </g>
  <g id="Poster">
    <g>
      <rect class="cls-6" x="22.9" y="34.51" width="88.08" height="226.51"/>
      <rect class="cls-14" x="43.66" y="53.68" width="46.54" height="2.07"/>
      <rect class="cls-14" x="34.35" y="48.1" width="65.16" height="2.9"/>
      <g>
        <path class="cls-14" d="M77.43,77.7s.36-5.02-1.97-8.07c-2.33-3.05-7.71-3.05-10.04-2.15s-4.66,2.51-5.2,5.2c-.54,2.69-.36,5.92-.36,5.92,0,0-1.79,.36-1.25,2.33,.54,1.97,1.61,3.05,1.61,3.05,0,0,.54,2.51,.9,3.58s2.33,3.41,2.33,3.41c0,0,.36,2.69-.9,3.58-1.25,.9-4.3,1.61-8.6,3.05-4.3,1.43-8.25,5.2-9.14,10.04-.9,4.84-.36,8.78-.36,8.78l-1.61,10.22s-1.61,3.76-1.79,8.78c-.18,5.02-1.08,15.06-1.08,15.06,0,0,1.08,.72-1.43,1.97-2.51,1.25-2.69,2.15-3.05,3.05-.36,.9-.54,2.69-1.25,3.23s-3.05,0-2.69,1.79c.36,1.79,2.87,.72,2.87,.72l1.61-.36v9.14c0,.9,.54,2.15,1.43,1.08,0,0,.9,1.25,1.43,.72l.87-.5s1.06,.44,1.56,.25c.5-.19,1.5-1.56,1.5-1.56,0,0,.25,.75,1.18-.37,.93-1.12,1.06-2.49,1.31-3.43,.25-.93,1.06-6.04,1.31-6.92,.25-.87,0-5.48,0-5.48l-.19-1.99s4.05-11.03,4.74-13.65c.69-2.62,1.43-5.36,1.68-7.6,.25-2.24,1.31-6.67,1.31-6.67l.44-.19s.06,10.53-.19,11.9c-.25,1.37-2.12,3.93-1.93,7.17,.19,3.24-.93,8.72-1.25,10.59-.31,1.87-2.68,8.22-1.68,18.63,1,10.41,3.08,16.24,4.29,20.87,1.21,4.63,.88,7.6,.33,12-.55,4.41,.33,6.39,1.87,12,1.54,5.62,4.3,11.56,4.63,13.77s-.66,2.42-1.21,3.74c-.55,1.32-3.52,4.74-3.63,6.17-.11,1.43,.88,2.53,3.63,3.3,2.75,.77,4.74,.77,6.06-.99,1.32-1.76,1.43-2.86,1.32-4.19-.11-1.32-.44-1.54,0-2.75,.44-1.21,.99-1.87,.66-3.96-.33-2.09-.11-.22-.99-4.52-.88-4.3,.11-9.91,.11-12.34s0-8.15-.55-11.01c-.55-2.86-.66-1.54-.99-5.51-.33-3.96,.22-4.41,.22-7.27s-.55-5.07-.55-5.07c0,0,2.2-11.45,2.31-11.89,.11-.44,1.76-8.04,1.76-8.04,0,0,.66,.11,.88,.66,.22,.55,3.08,19.16,3.08,19.16,0,0-1.1,2.97-.99,4.96,.11,1.98,1.32,7.6,1.32,7.6,0,0-.88,3.52-1.65,9.03-.77,5.51,.44,11.23,.33,14.65-.11,3.41-.44,5.07-.77,6.61s-.88,3.74-.33,5.4l.55,1.65s-.44,2.53-.33,4.52c.11,1.98,.99,3.3,2.31,3.52s2.2-.99,2.2-.99c0,0,1.54,.99,3.41,.44,1.87-.55,3.19-1.32,2.75-2.86-.44-1.54-.77-2.64-1.98-4.3-1.21-1.65-1.98-1.87-2.31-3.85-.33-1.98-.22-4.3,.44-6.06,.66-1.76,3.52-7.16,4.85-14.32s1.1-7.6,.77-10.13c-.33-2.53-.11-7.93,.44-10.68s4.41-12.67,4.41-20.71-1.65-17.95-2.09-19.71c-.44-1.76-.77-5.18-.77-5.18,0,0,.66-2.64,0-4.96s-1.1-3.19-1.65-5.73c-.55-2.53-.99-6.39-.99-6.72v-4.3s2.09,5.07,3.08,8.59,.99,5.62,2.09,8.92c1.1,3.3,3.41,9.47,3.85,10.79,.44,1.32-.55,3.63-.11,7.16,.44,3.52,.88,9.58,1.65,10.46s1.65-.11,1.65-.11c0,0,.33,1.76,.99,1.98,.66,.22,1.54-.44,1.54-.44,0,0,.22,1.1,1.32,.66,1.1-.44,1.32-1.21,1.32-1.21,0,0,1.65,.66,1.43-1.54-.22-2.2-.77-5.18-.77-5.84s.11-2.75,.11-2.75c0,0,1.1,.88,1.98,.99s1.76,.99,2.42,0,.11-1.32-1.1-2.09c-1.21-.77-1.32-.99-2.2-2.31s-.11-1.65-1.98-3.3-3.08-2.42-3.08-3.85,1.43-10.35,.11-16.74c-1.32-6.39-1.98-8.04-2.2-9.03-.22-.99-2.2-8.48-2.2-8.48,0,0,1.76-6.94-1.32-12.78-3.08-5.84-7.27-5.4-10.46-6.83-3.19-1.43-5.73-1.76-6.17-2.64-.44-.88-.66-2.42-.66-2.42,0,0,2.86-3.96,2.97-5.29l.11-1.32s1.76-.66,2.2-4.07c.44-3.41-1.85-2.81-1.85-2.81Z"/>
        <g>
          <path class="cls-13" d="M103.69,160.75c.4-1.2-.4-.5-.9-1.1-.5-.6-1.1-1.51-1.1-1.51,.5-.6-1.81-2.51-2.11-2.71-.3-.2-2.11-1.91-2.11-1.91-.3-1-1.51-1-1.81-2.51-.3-1.51-2.31-16.16-2.31-16.56s.2-.6,.3-1.51c.08-.7-.52-1.58-1.58-1.98,.02-.04,.06-.08,.07-.12,.4-1,.5-1.51,0-3.01-.5-1.51-.8-2.81-1-3.51-.2-.7-3.41-16.16-3.51-17.77-.1-1.61,1.1-3.11,.4-4.62-.7-1.51-2.11-1.61-2.41-1.51-.29,.1-.21-.53-1.41-.77-.04-.51-.46-.92-.99-.92-.28,0-.53,.12-.71,.3-.5-.05-1.89-.15-5.12-.15-.9,0-1.71,.07-2.44,.18-.72-.89-2.03-1.59-3.68-1.97,.12-.11,.19-.26,.19-.43v-.35c0-.33-.27-.59-.59-.59h-.99v-.59s.35,0,.35,0c.33,0,.59-.27,.59-.59s-.27-.59-.59-.59h-.38l-.03-1.62c.36-.08,.7-.2,.98-.35,1.07-.58,3.01-1.84,3.3-3.01s.39-4.27,.39-4.27c0,0,1.46-.97,1.55-3.2,.1-2.23,1.16-4.56,.19-7.96s-5.92-5.82-9.7-4.75c0,0-2.72,.39-4.37,2.33-1.65,1.94-1.87,2.36-1.75,3.98,.1,1.26,.39,3.78,.19,5.05-.19,1.26,.49,2.81,1.07,3.2s.78,.87,.78,.87c0,0-.1,3.69,.58,4.56,.68,.87,2.13,2.33,3.49,3.11,.28,.16,.58,.27,.88,.36l-.04,1.7h-.28c-.33,0-.59,.27-.59,.59s.27,.59,.59,.59h.25v.59h-.89c-.33,0-.59,.27-.59,.59v.35c0,.13,.05,.25,.12,.35-1.82,.34-3.29,1.07-4.08,2.01-.65-.08-1.35-.14-2.11-.14-3.23,0-4.62,.1-5.12,.15-.18-.19-.43-.3-.71-.3-.52,0-.94,.4-.99,.91-1.25,.23-1.18,.88-1.47,.78-.3-.1-1.71,0-2.41,1.51-.7,1.51,.5,3.01,.4,4.62-.1,1.61-3.31,17.06-3.51,17.77-.2,.7-.5,2.01-1,3.51-.5,1.51-.4,2.01,0,3.01,.02,.05,.05,.08,.07,.12-1.06,.41-1.66,1.28-1.58,1.98,.1,.9,.3,1.1,.3,1.51s-2.01,15.06-2.31,16.56c-.3,1.51-1.51,1.51-1.81,2.51,0,0-1.81,1.71-2.11,1.91-.3,.2-2.61,2.11-2.11,2.71,0,0-.6,.9-1.1,1.51-.5,.6-1.3-.1-.9,1.1,0,0-2.51-.2-2.01,.6,.5,.8,2.11,.7,2.51,.2,.01-.01,.02-.03,.03-.04,.42,.25,.94,0,1.28-.46,.5-.7,2.71-3.31,2.11-3.11,.4-.6,.9-1.41,.9-1.41,0,0,.4,1.61,0,2.51-.4,.9-1.2,2.51-.9,3.01,0,0-.3,.9-.3,1.71,0,.61-.23,3.12-.03,4.13-.08,.53-.17,1.21-.17,1.7,0,.9,.3,2.01,.9,.7,.6-1.3,.5-3.51,.5-3.51l-.11,.03c.14-.59,.21-1.21,.21-1.64,0-.9,.2-2.81,.2-2.81,0,0,0-.01-.02-.03,.15-.13,.26-.34,.32-.68,.2-1.2,.2-1.61,.5-2.61,.18-.62,.67-.93,.93-1.2-.07,.73-.08,1.83-.12,2-.05,.22-.65,1.09-.54,1.9,.03,.23,.14,.43,.29,.58-.02,.03-.05,.04-.07,.07,0,0-.49,.11-.54,.92-.05,.82-.11,1.36-.33,1.85-.22,.49-.65,1.09,0,1.41,0,0-.44,.27-.54,.87-.06,.32-.13,.89-.1,1.37-.1,.44-.36,1.62-.23,2.06,.16,.54,.16,1.52,.76,.92,.6-.6,.71-2.83,.71-2.83,0,0-.09,.02-.22,.03,.04-.16,.09-.34,.16-.57,.27-.82,.44-1.31,.38-1.58-.01-.05-.04-.12-.07-.18,.1-.11,.17-.29,.23-.58,.16-.82,.05-1.09,.33-1.52,.27-.44,.54-.71,.65-1.47l.11-.76c.38-.65,.22-1.36,.33-2.12s.33-2.45,.33-2.45c0,0-.02-.01-.04-.03,.4,.12,.79,.23,1.14,.28,0,0,0,.01,0,.02,0,0,.22,2.61,.33,3.59,.05,.43,.11,.72,.2,.89-.12,.22-.25,.52-.25,.79,0,.49-.05,1.63-.16,2.18-.04,.21-.04,.46,0,.68-.02,.01-.05,.01-.06,.03,0,0-.38,2.56-.05,2.72,.33,.16,.44,.33,.71-.38,.27-.71,.54-1.2,.6-1.58l.05-.38s-.1-.06-.24-.13c.14-.15,.12-.43,.45-1.39,.49-1.41,.33-2.34,.27-2.77l-.05-.44s-.12,0-.28,0c.07-.49,.04-1.15-.1-1.91-.22-1.12-.29-1.79-.32-2.02,.16-.08,.3-.21,.4-.39,.53-.96-.1-2.08-.33-2.68,.22-.34,.39-.86,.73-1.83,.7-2.01,2.31-6.42,2.81-11.04,.5-4.62,1-6.12,1-6.12,0,0,1-1.41,.9-2.91-.03-.5-.24-.92-.55-1.26,.23-.15,.27-.38,.45-.85,.3-.8,.5-.8,.4-2.21-.1-1.41-1.2-1.1-1.2-1.1,0,0-.2-3.71,.6-6.93,.8-3.21,1.91-6.83,2.11-8.43,.2-1.61,1.51-7.03,1.51-7.03l2.51-.5s.92,1.06,1.48,1.85c.09,.19,.21,.38,.35,.55,.01,.02,.02,.04,.03,.06-1.02,.6-1.64,1.33-1.64,2.17,0,.32,.09,.62,.25,.9-1.05,.62-1.57,1.52-1.42,2.51,.05,.33,.17,.66,.36,.97-.52,.61-.74,1.34-.62,2.11,.1,.59,.38,1.15,.8,1.66-.68,1.16-.85,2.35-.43,3.38,.12,.3,.29,.56,.49,.81-.03,.05-.07,.11-.08,.17-.03,.12-.34,1.42-.29,2.96-.2,2.29-.13,5.5,1.59,6.73,.91,.65,1.87,.98,2.83,.98,.28,0,.56-.03,.83-.08,1.38-.28,2.65-1.27,3.58-2.78,.56-.91,.96-2.27,1.43-3.84,.49-1.64,1.01-3.41,1.77-4.83,.01-.02,.03-.04,.04-.06l-.1,3.8h-.14c-.33,0-.59,.27-.59,.59v.03c0,.33,.27,.59,.59,.59h.11l-.02,.85h-.38c-.33,0-.59,.27-.59,.59v.39c0,.33,.27,.59,.59,.59h.34l-.04,1.58h-.59c-.33,0-.59,.27-.59,.59v.39c0,.33,.27,.59,.59,.59h.55l-.03,1.37h-.94c-.33,0-.59,.27-.59,.59v.39c0,.33,.27,.59,.59,.59h.9l-.03,1.07h-.87c-.33,0-.59,.27-.59,.59v.39c0,.33,.27,.59,.59,.59h.83l-.03,1.01h-1.21c-.33,0-.59,.27-.59,.59v.39c-3.23-2.23-6.86-3.02-8.89-1.34-2.04,1.68-2.57,5.13-1.68,6.55,.89,1.42,2.92,2.21,3.01,3.28,.05,.62-.05,1.39,.11,2.1-.81-.12-1.84-.12-2.19,.58-.6,1.19,0,2.64,0,2.64,0,0-1.45,.09-1.28,1.19,.17,1.11,.94,1.87,.94,1.87,0,0,1.62,14.23,2.21,19.68,.6,5.45,.51,12.01,0,12.78-.51,.77-2.64,1.87-2.04,4.43,.56,2.4,1.34,2.47,2.28,2.33-.37,.08-1.17,.37-1.17,1.42,0,1.36-.09,2.3,.17,3.24,.26,.94,4.6,26.75,4.6,26.75,0,0,.17,5.54,.68,5.96l-.51,2.56s-.08,.01-.13,.04c-.66,.22-1.07,.94-.77,1.57l-1.92,2.05s.1,.16,.26,.29c-.02,0-.04,.01-.06,.03-.03,.02-.04,.04-.06,.06-.03-.06-.06-.09-.06-.09,0,0-.18-.41-.44-.3-.26,.11-.29,.47-.31,.59-.03,.12-.2,.16-.37,.37-.18,.22-.36,.38,.01,.6,.14,.09,.53-.07,.58-.29,.05-.23,.01-.05,.14-.22,.07-.09,.18-.13,.27-.17-.01,.15,0,.29,0,.36,0,.18-.23,.28-.41,.63-.18,.36-.38,.64,.2,.84,.23,.08,.71-.25,.71-.58s0-.08,.13-.36c.13-.28,.51-.3,.53-.69,.03-.38-.2-.48-.2-.48,0,0-.06-.08-.15-.16,.03,0,.06,0,.09-.02,0,0,.99-1.16,1.61-1.97,.1,.05,.2,.11,.32,.16-.31,.59-.71,1.34-.85,1.51-.12,.15-.16,.34-.13,.49-.05,0-.11,.03-.16,.06-.38,.26-.29,.85-.29,1.05s-.26,.32-.47,.73c-.2,.41-.44,.74,.23,.96,.26,.09,.82-.29,.82-.67s0-.09,.15-.41,.58-.35,.61-.79c.03-.44-.23-.55-.23-.55,0,0-.03-.04-.07-.08,.11-.05,.22-.18,.3-.41,.15-.41,.44-1.04,.72-1.66,.09,.03,.18,.05,.28,.08-.2,.69-.45,1.5-.56,1.79-.05,.12-.06,.23-.04,.33-.33,.28-.25,.82-.25,1.01s-.26,.32-.47,.73-.44,.74,.23,.96c.26,.09,.82-.29,.82-.67s0-.09,.15-.41,.58-.35,.61-.79c.02-.37-.15-.5-.21-.54,.12-.15,.19-.42,.33-.95,.1-.41,.22-.87,.33-1.29,.2,.02,.4,.04,.6,.05-.01,.73-.03,1.73-.05,2.03,0,.17,.03,.33,.11,.48-.05,.2-.11,.4-.2,.58-.12,.23-.13,.49-.06,.73-.09,.1-.17,.22-.23,.38-.23,.67-.18,.99,.35,1.17,.53,.18,1.14,.06,1.43-.29,0,0,0-.07,0-.18,.51-.04,.74-.43,.78-.84,.06-.53,.03-.58,.12-.82s-.12-1.02-.18-1.17c0,0-.04-.05-.11-.12,.02-.1,.03-.2,.05-.31,.09-.71,.16-1.47,.02-2.02,.81-.37,1.21-.88,1.01-1.54-.12-.38-.39-.67-.73-.85,.21-.41,.19-.9,.12-1.3-.14-.76-.16-1.29-.17-1.46,.11-.18,.18-.41,.17-.75,0-.94-.26-2.13-.6-3.83-.34-1.7-.85-2.98-.85-2.98,0,0-2.22-23.85-2.04-24.88,.17-1.02,2.04-.77,1.28-2.98-.46-1.32-1-1.94-1.51-2.23,.08-.07,.16-.15,.24-.24,1.28-1.53,1.36-2.81,.43-4.77s-1.11-1.7-1.53-2.98c-.43-1.28-2.73-26.84-2.73-27.86v-1.53s1.53-.6,1.02-1.62c-.51-1.02-1.19-1.28-.85-1.96,.34-.68,1.6-1.3,1.6-1.3,0,0-1.24,.8,.18,2.74s3.54,2.39,4.87,1.95c1.33-.44,2.92-2.74,2.92-2.74l.68-.17,.68,.17s1.59,2.3,2.92,2.74c1.33,.44,3.45,0,4.87-1.95,.89-1.23,.73-2,.49-2.4,.38,.24,.82,.59,1,.95,.34,.68-.34,.94-.85,1.96-.51,1.02,1.02,1.62,1.02,1.62v1.53c0,1.02-2.3,26.58-2.73,27.86-.43,1.28-.6,1.02-1.53,2.98s-.85,3.24,.43,4.77c.08,.09,.16,.17,.24,.24-.51,.29-1.06,.91-1.51,2.23-.77,2.21,1.11,1.96,1.28,2.98,.17,1.02-2.04,24.88-2.04,24.88,0,0-.51,1.28-.85,2.98-.34,1.7-.6,2.9-.6,3.83,0,.34,.06,.58,.17,.75,0,.18-.03,.71-.17,1.46-.07,.39-.09,.89,.12,1.3-.34,.18-.62,.47-.73,.85-.2,.66,.2,1.17,1.01,1.54-.14,.56-.07,1.31,.02,2.02,.01,.11,.03,.22,.05,.31-.07,.07-.11,.12-.11,.12-.06,.15-.26,.93-.18,1.17s.06,.29,.12,.82c.05,.41,.28,.8,.78,.84,0,.11,0,.18,0,.18,.29,.35,.91,.47,1.43,.29,.53-.18,.58-.5,.35-1.17-.05-.15-.13-.28-.23-.38,.07-.24,.06-.5-.07-.73-.09-.18-.15-.38-.2-.58,.08-.14,.12-.31,.11-.48-.02-.3-.04-1.3-.05-2.03,.2,0,.4-.02,.6-.05,.1,.42,.22,.89,.33,1.29,.13,.53,.2,.8,.33,.95-.06,.03-.23,.17-.21,.54,.03,.44,.47,.47,.61,.79s.15,.03,.15,.41,.55,.76,.82,.67c.67-.22,.44-.55,.23-.96-.2-.41-.47-.53-.47-.73s.08-.74-.25-1.01c.01-.1,0-.21-.04-.33-.11-.28-.36-1.1-.56-1.79,.09-.02,.19-.05,.28-.08,.28,.62,.57,1.25,.72,1.66,.09,.23,.19,.36,.3,.41-.04,.05-.07,.08-.07,.08,0,0-.26,.12-.23,.55,.03,.44,.47,.47,.61,.79s.15,.03,.15,.41,.55,.76,.82,.67c.67-.22,.44-.55,.23-.96-.2-.41-.47-.53-.47-.73s.09-.79-.29-1.05c-.05-.04-.1-.05-.16-.06,.03-.15-.01-.34-.13-.49-.14-.17-.54-.92-.85-1.51,.12-.05,.22-.1,.32-.16,.62,.81,1.61,1.97,1.61,1.97,.03,.01,.06,.01,.09,.02-.09,.08-.15,.16-.15,.16,0,0-.23,.1-.2,.48,.03,.38,.41,.41,.53,.69s.13,.03,.13,.36,.48,.66,.71,.58c.59-.2,.38-.48,.2-.84-.18-.36-.41-.46-.41-.63,0-.08,.01-.21,0-.36,.1,.05,.2,.08,.27,.17,.13,.17,.09,0,.14,.22s.43,.38,.58,.29c.37-.22,.19-.39,.01-.6-.18-.22-.35-.25-.37-.37-.03-.12-.05-.48-.31-.59-.26-.11-.44,.3-.44,.3,0,0-.04,.03-.06,.09-.02-.02-.04-.04-.06-.06-.02-.01-.04-.02-.06-.03,.16-.13,.26-.29,.26-.29l-1.92-2.05c.31-.62-.11-1.34-.77-1.57-.05-.03-.13-.04-.13-.04l-.51-2.56c.51-.43,.68-5.96,.68-5.96,0,0,4.34-25.81,4.6-26.75,.26-.94,.17-1.87,.17-3.24,0-1.05-.8-1.34-1.17-1.42,.94,.14,1.72,.07,2.28-2.33,.6-2.56-1.53-3.66-2.04-4.43-.51-.77-.6-7.33,0-12.78,.6-5.45,2.21-19.68,2.21-19.68,0,0,.77-.77,.94-1.87,.17-1.11-1.28-1.19-1.28-1.19,0,0,.6-1.45,0-2.64-.31-.61-1.15-.68-1.89-.61,.14-.7,.05-1.45,.1-2.06,.09-1.06,2.12-1.86,3.01-3.28,.89-1.42,.35-4.87-1.68-6.55-2.03-1.67-5.63-.89-8.84,1.31v-.36c0-.33-.27-.59-.59-.59h-1.61l-.02-1.01h1.22c.33,0,.59-.27,.59-.59v-.39c0-.33-.27-.59-.59-.59h-1.25l-.02-1.07h1.27c.33,0,.59-.27,.59-.59v-.39c0-.33-.27-.59-.59-.59h-1.3l-.03-1.37h.91c.33,0,.59-.27,.59-.59v-.39c0-.33-.27-.59-.59-.59h-.94l-.03-1.58h.67c.33,0,.59-.27,.59-.59v-.39c0-.33-.27-.59-.59-.59h-.7l-.02-.85h.43c.33,0,.59-.27,.59-.59v-.03c0-.33-.27-.59-.59-.59h-.45l-.06-3.24c.63,1.32,1.09,2.87,1.52,4.33,.47,1.57,.87,2.93,1.43,3.84,.93,1.51,2.2,2.49,3.58,2.78,.28,.06,.55,.08,.83,.08,.96,0,1.92-.33,2.83-.98,1.73-1.23,1.79-4.44,1.59-6.73,.06-1.55-.26-2.85-.29-2.96,0-.02-.02-.04-.03-.06,.25-.27,.45-.58,.59-.93,.41-1.01,.26-2.18-.39-3.32,.46-.52,.75-1.1,.85-1.71,.13-.77-.1-1.5-.62-2.11,.18-.31,.31-.63,.36-.97,.15-1.03-.41-1.97-1.56-2.59,.13-.26,.21-.53,.21-.82,0-.77-.5-1.44-1.36-2,0,0,0-.02,0-.02,0-.4,1.91-2.61,1.91-2.61l2.51,.5s1.3,5.42,1.51,7.03c.2,1.61,1.3,5.22,2.11,8.43,.8,3.21,.6,6.93,.6,6.93,0,0-1.1-.3-1.2,1.1-.1,1.41,.1,1.41,.4,2.21,.18,.47,.22,.7,.45,.85-.31,.34-.52,.76-.55,1.26-.1,1.51,.9,2.91,.9,2.91,0,0,.5,1.51,1,6.12,.5,4.62,2.11,9.03,2.81,11.04,.34,.97,.52,1.49,.73,1.83-.23,.6-.86,1.72-.33,2.68,.1,.18,.24,.31,.4,.39-.02,.23-.1,.9-.32,2.02-.15,.76-.18,1.42-.1,1.91-.16-.01-.28,0-.28,0l-.05,.44c-.05,.44-.22,1.36,.27,2.77,.33,.96,.31,1.24,.45,1.39-.14,.07-.24,.13-.24,.13l.05,.38c.05,.38,.33,.87,.6,1.58s.38,.54,.71,.38c.33-.16-.05-2.72-.05-2.72-.01-.02-.04-.02-.06-.03,.05-.22,.05-.47,0-.68-.11-.54-.16-1.69-.16-2.18,0-.27-.13-.58-.25-.79,.09-.18,.15-.46,.2-.89,.11-.98,.33-3.59,.33-3.59,0-.01,0-.01,0-.02,.35-.06,.74-.16,1.14-.28-.03,.02-.04,.03-.04,.03,0,0,.22,1.69,.33,2.45,.11,.76-.05,1.47,.33,2.12l.11,.76c.11,.76,.38,1.03,.65,1.47,.27,.44,.16,.71,.33,1.52,.06,.29,.13,.48,.23,.58-.03,.06-.06,.13-.07,.18-.05,.27,.11,.76,.38,1.58,.08,.23,.12,.42,.16,.57-.13-.01-.22-.03-.22-.03,0,0,.11,2.23,.71,2.83,.6,.6,.6-.38,.76-.92,.13-.44-.13-1.62-.23-2.06,.03-.47-.04-1.05-.1-1.37-.11-.6-.54-.87-.54-.87,.65-.33,.22-.92,0-1.41s-.27-1.03-.33-1.85c-.05-.82-.54-.92-.54-.92-.02-.03-.05-.05-.07-.07,.14-.15,.25-.35,.29-.58,.11-.82-.49-1.69-.54-1.9-.04-.17-.05-1.26-.12-2,.26,.27,.74,.58,.93,1.2,.3,1,.3,1.41,.5,2.61,.06,.33,.17,.55,.32,.68,0,.02-.02,.03-.02,.03,0,0,.2,1.91,.2,2.81,0,.43,.07,1.05,.21,1.64l-.11-.03s-.1,2.21,.5,3.51c.6,1.3,.9,.2,.9-.7,0-.48-.09-1.16-.17-1.7,.2-1-.03-3.52-.03-4.12,0-.8-.3-1.71-.3-1.71,.3-.5-.5-2.11-.9-3.01s0-2.51,0-2.51c0,0,.5,.8,.9,1.41-.6-.2,1.61,2.41,2.11,3.11,.34,.47,.85,.71,1.28,.46,.01,.01,.02,.02,.03,.04,.4,.5,2.01,.6,2.51-.2s-2.01-.6-2.01-.6Zm-58.31-16.26c-.7,2.61-2.21,6.93-2.21,6.93,0,0,.2-3.31,1.1-8.43,.9-5.12,1.41-7.03,1.91-8.13l.5,1.51s-.6,5.52-1.3,8.13Zm20.83-4.82l-.02,.66c-.28-.21-.57-.43-.9-.66h.92Zm-4.08,88.09l.34,2.47c-.17-.68-1.79-9.8-1.79-9.8,0,0-2.13-12.86-2.64-15.93-.51-3.07-.17-6.05-.17-6.05,0,0,.6,1.79,.77,2.73s.68,3.58,1.7,9.63,1.79,16.95,1.79,16.95Zm3.43-73.65c-.44,.8-.97,.97-2.3,.09-1.33-.89-.97-2.57-.44-2.83,.53-.27,3.19,.62,3.19,.62,0,0,0,1.33-.44,2.12Zm-2.92-4.69s-.35-.71-.35-1.77,.53-1.95,2.12-.8c1.59,1.15,3.63,4.87,3.63,4.87l-5.4-2.3Zm10.8,4.78c-1.33,.89-1.86,.71-2.3-.09-.44-.8-.44-2.12-.44-2.12,0,0,2.66-.89,3.19-.62s.89,1.95-.44,2.83Zm5.49,50.3c-.51,3.07-2.64,15.93-2.64,15.93,0,0-1.62,9.12-1.79,9.8l.34-2.47s.77-10.9,1.79-16.95,1.53-8.69,1.7-9.63c.17-.94,.77-2.73,.77-2.73,0,0,.34,2.98-.17,6.05Zm-4.52-56.85c0,1.06-.35,1.77-.35,1.77l-5.4,2.3s2.04-3.72,3.63-4.87c1.59-1.15,2.12-.27,2.12,.8Zm-2.45-7.98c-.47,.34-.89,.65-1.26,.93l-.02-.93h1.28Zm9.37-19.3s-.04,.08-.06,.12c-.27-.53-.66-1.06-1.17-1.58,.37-.19,.71-.39,1.02-.62,.37,.75,.46,1.47,.21,2.08Zm-25.55-2.13c.28,.21,.59,.4,.93,.58-.5,.5-.89,1.01-1.17,1.52-.24-.62-.15-1.35,.24-2.1Zm19.04-10.1c-1.13,.27-2.46,.49-3.97,.6-.06-.61-.1-1.2-.14-1.73,1.05-.1,2.02-.27,2.89-.51,.27,.04,.54,.08,.8,.12,.13,.47,.28,.99,.42,1.51Zm5.6,13.25c-.52,.32-1.23,.53-2.08,.6-3.57,.29-5.41-1.75-6.5-2.97l-.02-.03c1.72,.69,3.77,1.15,5.78,.76,.47-.09,.92-.22,1.35-.36,.71,.63,1.21,1.31,1.49,2Zm-22.56-2.06c.47,.17,.98,.31,1.52,.42,.51,.1,1.03,.15,1.54,.15,1.44,0,2.86-.36,4.11-.85-1.1,1.22-2.94,3.23-6.48,2.95-.92-.07-1.67-.31-2.2-.68,.29-.69,.81-1.36,1.52-1.98Zm4.86-12.76c.15-.02,.31-.05,.47-.07,.92,.24,1.95,.42,3.06,.52-.04,.53-.09,1.12-.14,1.73-1.45-.1-2.74-.29-3.84-.54,.16-.57,.31-1.13,.46-1.64Zm10.76-1.24c-.92-.13-1.88-.22-2.85-.27,.01-.28,.04-.48,.09-.57,.03-.06,.07-.12,.11-.18,.78-.15,1.51-.37,2.13-.64,.31,.29,.58,.53,.7,.69,.06,.08,.17,.39,.31,.84-.16,.05-.32,.1-.49,.14Zm-10.38-.06c.15-.5,.27-.85,.34-.93,.1-.14,.33-.35,.6-.6,.62,.26,1.33,.46,2.1,.59,.03,.05,.06,.1,.09,.15,.05,.09,.08,.29,.09,.57-1.03,.05-2.05,.15-3.02,.28-.07-.02-.13-.04-.2-.06Zm1.85-2.53c.13-.01,.26-.02,.39-.04,.03,.1,.07,.19,.1,.29-.19-.05-.38-.11-.56-.17,.02-.03,.04-.06,.06-.08Zm6.66-.02c.15,.02,.3,.03,.44,.05-.17,.06-.34,.12-.52,.17,.03-.07,.05-.14,.08-.22Zm.16-1.14s0,0-.02,0c-.01-.12-.03-.23-.07-.34,.22-.11,.51-.23,.85-.36-.34,.15-.67,.38-.77,.7Zm1.34-.9c.17-.05,.35-.11,.53-.16-.09,.03-.19,.06-.28,.1,0,0-.1,.02-.25,.06Zm-7.88,.69c-.38-.56-1.49-.75-1.49-.75-.13-.05-.27-.1-.4-.14,.84,.21,1.49,.46,1.95,.67-.03,.07-.04,.15-.06,.22Zm5.76-1.09c-.31-.18-.68-.23-1.04-.21v-.32c.62,.04,1.21,.11,1.76,.2-.29,.12-.53,.23-.72,.33Zm-3.79-.19c-.39-.05-.8-.03-1.14,.14-.2-.1-.43-.21-.71-.32,.59-.08,1.21-.15,1.86-.18v.36Zm-1.62,15.83c.01,.39,.05,.66,.13,.78,.12,.19,.25,.38,.39,.57-1.74,.9-4.2,1.79-6.5,1.34-.21-.04-.39-.1-.58-.15,.19-.12,.38-.24,.58-.35,1.97-1.1,4.28-1.79,5.99-2.19Zm-9.51,6.63s0-.04,0-.05c.65,.34,1.44,.57,2.37,.64,.27,.02,.52,.03,.77,.03,3.38,0,5.31-1.88,6.44-3.11-.21,.27-.44,.55-.67,.85-1.01,1.3-2.16,2.77-3.05,3.49-.93,.76-2.66,1.08-4.03,.76-.55-.13-1.26-.42-1.55-1.06-.21-.46-.3-.93-.31-1.4,0-.05,.02-.11,.03-.15Zm15.65-1.64c-.48-.61-.92-1.18-1.33-1.66-.03-.05-.07-.09-.11-.14h0c.2,.18,.4,.38,.6,.6l.07,.08c1.08,1.21,3.04,3.38,6.69,3.38,.25,0,.51-.01,.77-.03,.86-.07,1.6-.27,2.22-.57,0,.04,.02,.09,.02,.13,0,.47-.1,.94-.31,1.4-.29,.64-1,.93-1.55,1.06-1.37,.32-3.1,0-4.03-.76-.89-.72-2.04-2.19-3.05-3.49Zm5.63-2.3c-2.31,.46-4.77-.44-6.51-1.34,.13-.19,.26-.38,.38-.57,.07-.11,.11-.37,.13-.72,1.68,.41,3.88,1.08,5.76,2.14,.23,.13,.44,.26,.65,.39-.14,.03-.26,.07-.41,.1Zm-2.24-9.36s0,.03,.01,.05c-.1,0-.19,0-.29,.01,.09-.02,.19-.04,.28-.06Zm-5.2-10.65v-.55c1.31,.16,2.41,.53,3.19,.99-.97-.22-2.04-.37-3.19-.44Zm-2.67-.59v.56c-1.31,.06-2.51,.22-3.58,.47,.85-.5,2.09-.89,3.58-1.03Zm-10.84,2.41s-.26-.14-.66-.3c.73-.04,1.89-.07,3.63-.08-1.66,.08-2.98,.37-2.98,.37Zm5.24,10.03c2,.07,3.82,.34,4.26,.41-.05,.5-.09,.99-.13,1.47-.39-.03-.76-.06-1.13-.09-.31-.04-.66-.08-1.04-.12-.84-.11-1.61-.25-2.31-.4,.1-.36,.22-.79,.36-1.26Zm-3.98,2.9c.78,.65,2.24,.4,2.97-.25,.64,0,1.27,.03,1.87,.08-1.46,.39-3.07,.91-4.43,1.55-.71-.27-1.27-.59-1.69-.94,.36-.19,.8-.34,1.28-.44Zm8,.29c-.02,.21-.03,.41-.04,.6-1.62,.69-3.71,1.28-5.71,.97,1.92-.72,4.16-1.26,5.75-1.57Zm-6.11,2.69c.27,.05,.55,.08,.82,.1-.46,.21-.91,.43-1.34,.67-.51,.29-.97,.59-1.38,.89-.48-.22-.89-.46-1.23-.72,.03-.04,.05-.07,.09-.11,.37-.42,.95-.81,1.64-1.18,.44,.14,.91,.26,1.4,.34Zm-1.92,9.96c.44,.1,.91,.15,1.38,.15,1.36,0,2.76-.42,3.65-1.14,.1-.08,.2-.17,.3-.27-1.25,2.83-2.38,4.72-4.9,3.73-1.54-.6-2.1-2.05-2.26-3.44,.44,.45,1.06,.79,1.82,.97Zm16.41-.99c.89,.73,2.29,1.14,3.65,1.14,.47,0,.94-.05,1.38-.15,.76-.18,1.38-.52,1.82-.97-.16,1.39-.72,2.83-2.26,3.44-2.52,.99-3.65-.89-4.9-3.73,.1,.09,.2,.19,.3,.27Zm5.1-7.23c-.43-.33-.91-.65-1.47-.96-.43-.24-.87-.46-1.32-.66,.34-.02,.69-.05,1.03-.11,.47-.09,.92-.2,1.35-.33,.68,.36,1.25,.75,1.61,1.16,.04,.05,.08,.1,.12,.15-.36,.27-.8,.53-1.33,.75Zm-7.83-3.83c-.01-.19-.02-.38-.04-.58,1.59,.32,3.8,.85,5.69,1.57-1.98,.29-4.05-.3-5.65-.98Zm3.06-1.05c.66-.05,1.37-.08,2.08-.09,.72,.64,2.15,.89,2.94,.27,.44,.1,.84,.24,1.17,.42-.43,.36-1.01,.69-1.74,.96-1.36-.65-2.97-1.17-4.44-1.56Zm-3.21-.88c-.04-.47-.09-.96-.13-1.45,.44-.07,2.35-.34,4.41-.41,.12,.45,.24,.85,.34,1.2-1.29,.3-2.83,.54-4.61,.67Zm-14.07-3.75c-.03,.34-.06,.72-.07,1.11-.06,.02-.11,.03-.17,.05-.1-.15-.16-.3-.16-.44,0-.23,.14-.47,.41-.72Zm-.57,2.53s.04-.02,.06-.03c.13,.1,.28,.21,.43,.3,.02,.34,.06,.66,.12,.94-.52,.13-1,.3-1.4,.53-.04,.02-.07,.05-.1,.07-.06-.13-.1-.26-.12-.38-.1-.69,.5-1.16,1.02-1.43Zm-1.28,4.5c-.07-.41,.04-.75,.23-1.02,.37,.33,.81,.62,1.32,.88-.46,.3-.85,.62-1.15,.96-.01,.01-.02,.03-.03,.04-.21-.29-.33-.59-.37-.86Zm4.38,15.66c-.92,.19-1.85-.05-2.76-.7-.53-.38-.84-1.1-1.01-1.98,.44,.53,1.02,.98,1.8,1.28,.62,.24,1.18,.35,1.69,.35,1.83,0,3-1.39,3.84-2.92-.23,.69-.47,1.3-.74,1.73-.76,1.23-1.76,2.03-2.82,2.25Zm20.24-.7c-.92,.65-1.85,.89-2.76,.7-1.06-.22-2.06-1.01-2.82-2.25-.26-.43-.5-1.03-.74-1.73,.84,1.53,2.01,2.92,3.84,2.92,.51,0,1.07-.11,1.69-.35,.77-.3,1.36-.75,1.8-1.28-.17,.88-.48,1.61-1.01,1.98Zm1.37-14.14c-.29-.33-.67-.65-1.12-.94,.53-.27,.99-.57,1.37-.91,.19,.28,.3,.62,.23,1.02-.05,.29-.19,.6-.42,.91-.03-.03-.05-.06-.07-.09Zm.22-3.88c-.02,.12-.06,.25-.12,.38-.04-.02-.07-.05-.1-.07-.37-.21-.8-.37-1.27-.5,.07-.35,.12-.76,.13-1.19,.06-.04,.12-.09,.17-.13,.06,.03,.12,.05,.17,.08,.52,.27,1.13,.74,1.02,1.43Zm-1.36-3.24s-.02,.09-.03,.13c0-.13-.02-.26-.03-.38,.03,.09,.05,.17,.05,.25Zm-2.38-9.23c1.74,0,2.9,.04,3.64,.07-.4,.16-.66,.3-.66,.3,0,0-1.31-.3-2.98-.37Zm14.02,44.44c-.7-2.61-1.3-8.13-1.3-8.13l.5-1.51c.5,1.1,1,3.01,1.91,8.13,.9,5.12,1.1,8.43,1.1,8.43,0,0-1.51-4.32-2.21-6.93Z"/>
          <path class="cls-13" d="M94.3,159.41c.05,.54-.05,2.23,0,3.15,.01,.21,.05,.34,.11,.43,0,.26-.04,1.59,.11,2.18,.16,.65,.33,1.96,.71,1.96,0,0,0,1.31,.16,2.01,.05,.22,.12,.39,.19,.53h-.03s-.27,.66,0,1.37,.76,1.47,1.09,.54c.33-.92,0-2.23,0-2.23l-.09,.03c.03-.32,0-.67-.02-.84-.05-.33-.38-1.41-.38-1.41h-.15c.18-.05,.31-.18,.26-.49-.11-.71-.33-.71-.38-1.47-.05-.76-.54-2.28-.54-2.28,.44-.16,.27-.49,.16-1.2-.11-.71-.16-3.92-.16-3.92l-1.09,.27s0,.82,.05,1.36Z"/>
          <path class="cls-13" d="M41.63,161.69c-.11,.71-.27,1.03,.16,1.2,0,0-.49,1.52-.54,2.28-.05,.76-.27,.76-.38,1.47-.05,.31,.08,.44,.26,.49h-.15s-.33,1.09-.38,1.41c-.03,.17-.06,.52-.02,.84l-.09-.03s-.33,1.31,0,2.23,.82,.16,1.09-.54c.27-.71,0-1.36,0-1.36h-.03c.08-.15,.14-.33,.19-.54,.16-.71,.16-2.01,.16-2.01,.38,0,.54-1.31,.71-1.96,.15-.59,.12-1.92,.11-2.18,.06-.09,.1-.22,.11-.43,.05-.92-.05-2.61,0-3.15,.05-.54,.05-1.36,.05-1.36l-1.09-.27s-.05,3.21-.16,3.92Z"/>
        </g>
      </g>
    </g>
  </g>
  <g id="Plant">
    <g>
      <path class="cls-2" d="M385.75,328.24s10.86,17.36,15.41,34.15c3.23,11.94,3.38,35.63,3.38,35.63,0,0,.22-70.29,16.39-97.51"/>
      <path class="cls-2" d="M429.66,239.66s-15.66,25.16-20.03,51.35c-4.36,26.19-5.39,91.15-5.39,91.15-.26-13.61-2.31-63.42-6.68-84.99-4.36-21.57-12.32-37.23-12.32-37.23"/>
      <g>
        <path class="cls-15" d="M388.64,267.59s13.11,.61,19.23-9.23c6.12-9.84,2.1-19.25-3.66-19.93s-8.25,6.43-10.38,3.01c-2.13-3.41,6.12-9.84-3.13-15.75-9.25-5.91-13.56,2.57-16.49-.46-2.93-3.03-.82-10.94-6.93-14.42s-8.96,.85-12.34,1c-3.38,.14-14.02-5.59-18.27-1.09-4.25,4.5,5.92,15.4,1.14,15.72-4.78,.32-6.71,9.63-2.83,15.66,3.88,6.02,16.36,8.41,13.93,11.55-2.44,3.14-14.36,2.95-9.5,9.98,4.86,7.03,21.35,7.5,23.72,8.33,2.37,.83-7.6,2.66-5.91,9.25,1.68,6.59,15.38,7.4,24.2,3.17,8.81-4.23,7.22-16.78,7.22-16.78Z"/>
        <path class="cls-2" d="M350.82,223.21s27.84,18.2,37.82,44.38"/>
        <polyline class="cls-2" points="349.45 235.95 368.11 237.78 363.56 222.3"/>
        <polyline class="cls-2" points="364.47 257.35 383.14 257.35 384.5 240.51"/>
      </g>
      <g>
        <path class="cls-15" d="M427.03,245.29s-10.64,.49-15.61-7.5c-4.97-7.99-1.7-15.62,2.97-16.18s6.7,5.22,8.43,2.45-4.97-7.99,2.54-12.79c7.51-4.8,11,2.08,13.39-.37,2.38-2.46,.66-8.88,5.62-11.71,4.96-2.82,7.27,.69,10.02,.81,2.74,.12,11.38-4.54,14.83-.88s-4.8,12.5-.93,12.76c3.88,.26,5.45,7.82,2.3,12.71-3.15,4.89-13.28,6.83-11.31,9.38,1.98,2.55,11.65,2.4,7.71,8.11-3.94,5.71-17.33,6.08-19.25,6.76-1.93,.68,6.17,2.16,4.8,7.51-1.37,5.35-12.49,6.01-19.64,2.57-7.15-3.44-5.86-13.62-5.86-13.62Z"/>
        <path class="cls-2" d="M457.73,209.26s-22.6,14.77-30.7,36.03"/>
        <polyline class="cls-2" points="458.84 219.61 443.69 221.09 447.38 208.52"/>
        <polyline class="cls-2" points="446.64 236.98 431.49 236.98 430.38 223.31"/>
      </g>
      <g>
        <path class="cls-15" d="M392.22,340.57s8.63,.4,12.66-6.08c4.03-6.48,1.38-12.67-2.41-13.13-3.79-.45-5.43,4.23-6.84,1.99-1.4-2.25,4.03-6.48-2.06-10.37-6.09-3.89-8.93,1.69-10.86-.3-1.93-1.99-.54-7.21-4.56-9.5-4.02-2.29-5.9,.56-8.13,.66-2.23,.1-9.23-3.68-12.03-.72-2.8,2.97,3.9,10.14,.75,10.35-3.14,.21-4.42,6.34-1.87,10.31,2.55,3.97,10.78,5.54,9.17,7.61-1.6,2.07-9.46,1.94-6.26,6.58,3.2,4.63,14.06,4.94,15.62,5.48,1.56,.55-5,1.75-3.89,6.09,1.11,4.34,10.13,4.87,15.94,2.09,5.8-2.79,4.76-11.05,4.76-11.05Z"/>
        <path class="cls-2" d="M367.31,311.35s18.33,11.98,24.91,29.23"/>
        <polyline class="cls-2" points="366.41 319.74 378.71 320.94 375.71 310.75"/>
        <polyline class="cls-2" points="376.31 333.83 388.6 333.83 389.5 322.74"/>
      </g>
      <g>
        <path class="cls-15" d="M417.82,306.77s-13.01-1.75-17.27-12.52c-4.26-10.78,1.38-19.31,7.16-18.96,5.78,.35,6.97,7.8,9.68,4.82,2.71-2.98-4.26-10.78,5.9-14.94,10.16-4.16,12.88,4.95,16.31,2.5s2.76-10.62,9.39-12.95,8.66,2.44,11.96,3.19c3.3,.75,14.8-2.99,18.17,2.2,3.37,5.19-8.58,14.09-3.93,15.26,4.64,1.17,4.88,10.68-.01,15.91-4.89,5.23-17.6,5.35-15.77,8.87,1.83,3.53,13.6,5.47,7.56,11.52-6.04,6.05-22.34,3.56-24.82,3.95s7,3.98,4.16,10.16c-2.83,6.18-16.46,4.53-24.37-1.21-7.91-5.74-4.11-17.8-4.11-17.8Z"/>
        <path class="cls-2" d="M462.97,269.87s-30.65,12.92-45.15,36.9"/>
        <polyline class="cls-2" points="462.03 282.66 443.34 281.11 450.59 266.69"/>
        <polyline class="cls-2" points="443.43 301.02 425.06 297.68 426.73 280.86"/>
      </g>
      <path class="cls-1" d="M383.23,365.04c-.93,2.5-1.46,23.8-1.46,26.63,0,18.73,10.33,23.08,23.08,23.08s23.08-3.34,23.08-23.08c0-2.83-.53-24.12-1.46-26.63h-43.22Z"/>
    </g>
  </g>
  <g id="Character_1" data-name="Character 1">
    <g>
      <path class="cls-5" d="M86.65,194.48s-3.3,13.8-2.55,18c.75,4.2,6.6,7.35,10.05,6,3.45-1.35,8.55-7.65,8.55-7.65l-3-12.15-13.05-4.2Z"/>
      <path class="cls-5" d="M115.71,389.79s-2.64,6.59-4.83,8.78c-2.2,2.2-8.57,6.37-9,9-.44,2.64,3.29,4.17,7.47,5.27,4.17,1.1,9.88-1.1,11.86-1.98,1.98-.88,10.32-1.58,12.52-2.46,2.2-.88,.44-15.99,.44-15.99l-18.45-2.64Z"/>
      <path class="cls-5" d="M135.91,384.57s-1.32,11.86-1.98,16.69c-.66,4.83-1.32,9.83,1.98,11.15,3.29,1.32,14.49,2.42,17.57,.66,3.07-1.76,2.64-7.41,.66-14-1.98-6.59-3.73-11.42-3.73-11.42,0,0-4.17-6.59-14.49-3.07Z"/>
      <path class="cls-9" d="M102.53,250.16s.88,60.18,2.86,77.31c1.98,17.13,10.1,56.39,10.1,56.39,0,0-2.2,1.54-1.98,3.73s1.1,5.93,1.1,5.93c0,0,6.15,2.42,9.66,2.64,3.51,.22,10.54-1.98,10.54-1.98l-2.2-139.18-30.09-4.83Z"/>
      <path class="cls-9" d="M132.62,255l1.32,129.08-.88,3.95,1.76,6.15s5.69-4.88,8.98-4c3.29,.88,9.49,4.5,9.49,4.5,0,0,2.61-8.13,3.05-11.2,.44-3.07-1.1-10.32-.44-15.15,.66-4.83,6.2-42.61,6.2-42.61l2.58-73.79-32.06,3.07Z"/>
      <g>
        <path class="cls-9" d="M126.54,140.78s-27.9,7.5-28.5,8.4-16.95,45.9-16.95,45.9l22.35,7.5-4.8,50.1s16.2,7.8,36,6.9c19.8-.9,32.4-3.75,32.4-3.75l1.95-58.65,19.57,2.07s-13.12-47.37-14.62-49.32c-1.5-1.95-25.5-8.1-25.5-8.1l-21.9-1.05Z"/>
        <line class="cls-3" x1="166.14" y1="194.33" x2="168.99" y2="165.83"/>
        <line class="cls-3" x1="103.44" y1="180.98" x2="103.44" y2="159.53"/>
      </g>
      <polyline class="cls-3" points="120.84 142.73 133.74 199.58 153.09 143.48"/>
      <rect class="cls-5" x="127.89" y="200.18" width="11.85" height="21"/>
      <g>
        <path class="cls-5" d="M125.49,129.38l.15,13.95s5.99,11.1,7.35,13.2c1.65,2.55,4.95,7.05,4.95,7.05l11.55-20.1,.3-9.6-24.3-4.5Z"/>
        <g>
          <path class="cls-5" d="M128.91,97.09s-4.25,3.16-4.74,7.89c-.49,4.74-.24,10.44-.24,10.44,0,0-1.7-2.19-3.04,.97-1.34,3.16,.73,6.56,1.82,7.16,1.09,.61,2.06,1.58,2.06,1.58,0,0,.12,9.23,4.01,13.72,3.89,4.49,9.96,5.34,16.15,3.52,4.86-1.43,6.31-7.77,7.04-13.24,.73-5.46,1.58-18.46,1.09-24.04-.49-5.59-6.32-10.37-11.41-11.05-8.14-1.09-12.75,3.04-12.75,3.04Z"/>
          <path class="cls-7" d="M140.81,127.33c-7.76-.54-12.96,2.87-15.13,4.66,.58,2.45,1.53,5.05,3.11,6.88,3.89,4.49,9.96,5.34,16.15,3.52,3.85-1.13,5.56-5.35,6.47-9.76-2.4-2.55-5.87-4.96-10.6-5.29Z"/>
          <path class="cls-3" d="M152.71,115.06s2.06-.73,2.19,1.94c.12,2.67-2.43,5.59-2.43,5.59l.24-7.53Z"/>
          <path class="cls-7" d="M141.66,94.05c-8.14-1.09-12.75,3.04-12.75,3.04,0,0-4.25,3.16-4.74,7.89-.49,4.74-.24,10.44-.24,10.44,0,0-.02-.02-.04-.05l.41,.9s1.82-2.06,2.79-3.16c.97-1.09-.36-3.89,0-6.31,.36-2.43,3.52-5.71,5.71-5.95,2.19-.24,2.06,1.94,5.59,2.79,3.52,.85,8.38-.73,9.59-2.19,1.21-1.46,3.52,1.09,3.4,6.07-.12,4.98-.61,5.34-.12,6.56,.49,1.21,1.7,2.91,1.7,2.91,0,0,.02-.15,.06-.41,.22-4.43,.3-8.81,.06-11.48-.49-5.59-6.32-10.37-11.41-11.05Z"/>
          <path class="cls-10" d="M136.2,118.95c0,.8-.49,1.46-1.09,1.46s-1.09-.65-1.09-1.46,.49-1.46,1.09-1.46,1.09,.65,1.09,1.46Z"/>
          <path class="cls-10" d="M147.85,118.95c0,.8-.49,1.46-1.09,1.46s-1.09-.65-1.09-1.46,.49-1.46,1.09-1.46,1.09,.65,1.09,1.46Z"/>
          <circle class="cls-3" cx="133.86" cy="119.22" r="5.07"/>
          <path class="cls-3" d="M152.64,119.22c0,2.8-2.27,5.07-5.07,5.07s-5.07-2.27-5.07-5.07,2.27-5.07,5.07-5.07,5.07,2.27,5.07,5.07Z"/>
          <polyline class="cls-5" points="141.54 116.76 141.66 129.15 135.83 126.23"/>
          <path class="cls-3" d="M138.92,119.22s2.13-1.79,3.59,0"/>
          <line class="cls-3" x1="128.79" y1="119.22" x2="124.3" y2="116.28"/>
          <path class="cls-4" d="M134.5,129.75s1.82,3.04,6.8,2.19"/>
        </g>
      </g>
      <path class="cls-5" d="M126.24,185.48l14.03-6.66c.47-.22,1.03-.07,1.32,.36h0c.36,.54,.14,1.28-.46,1.54l-14.59,6.25-.3-1.5Z"/>
      <g>
        <path class="cls-5" d="M145.27,197.29s-9.94-13.23-10.58-13.74c-.64-.51-10.26,.51-10.26,.51l-2.24,6.45,4.17,8.65,5.29-1.87s3.37,4.58,8.81,6.28c5.45,1.7,25.48,9.5,33.33,9.67,7.85,.17,11.54-1.87,13.14-5.6,1.6-3.73,.8-7.47-5.45-10.52-6.25-3.05-19.23,0-25.64,0s-10.58,.17-10.58,.17Z"/>
        <line class="cls-3" x1="131.65" y1="197.29" x2="138.54" y2="196.27"/>
        <path class="cls-3" d="M125.56,196.78s6.89-4.75,7.53-4.75,4.33,.17,4.33,.17"/>
        <polyline class="cls-3" points="123.96 194.07 129.08 188.3 133.57 187.28"/>
        <polyline class="cls-3" points="122.51 191.69 126.52 185.75 131.97 184.57"/>
      </g>
      <polygon class="cls-7" points="88.15 180.98 105.4 214.53 137.34 216.08 119.63 181.75 88.15 180.98"/>
      <g>
        <path class="cls-5" d="M94.3,201.38s.45,2.85,2.25,3c1.8,.15,8.7-1.05,9.15-2.4,.45-1.35-.75-1.95-1.65-1.65-.9,.3-8.85-.3-9.75,1.05Z"/>
        <path class="cls-5" d="M96.55,204.38s.3,1.65,1.5,2.7c1.2,1.05,7.2-.3,9.15-1.2,1.95-.9,1.8-2.1,1.2-2.4s-4.05,0-4.05,0c0,0-6.45,.75-7.8,.9Z"/>
        <path class="cls-5" d="M99.39,207.53s.6,2.1,1.95,2.7c1.35,.6,5.1-1.05,6.9-1.95,1.8-.9-1.05-2.4-1.05-2.4,0,0-6.45,2.1-7.8,1.65Z"/>
        <path class="cls-5" d="M102.69,210.83s-.9,1.05,1.35,1.2,4.2-3.75,4.2-3.75l-5.55,2.55Z"/>
      </g>
    </g>
  </g>
  <g id="Character_2" data-name="Character 2">
    <g>
      <g>
        <g>
          <g>
            <path class="cls-5" d="M289.74,111.16s-.16,7.93,.65,9.71c.81,1.78,3.56,3.88,3.08,6.31-.49,2.43-1.78,5.66-1.13,5.83,.65,.16,4.05-.81,4.05-.81,0,0,7.77,10.04,8.9,9.55s7.77-6.96,7.77-6.96l5.5,13.76,13.11-16.35-10.2-11.98s-2.43-5.66-5.18-9.06c-2.75-3.4-11.82-7.12-18.45-5.66-6.64,1.46-8.09,5.66-8.09,5.66Z"/>
            <path class="cls-3" d="M300.74,133.01s2.43-1.62,3.24-4.53"/>
            <path class="cls-3" d="M293.62,121.52s.49-2.75,3.56-2.75"/>
            <path class="cls-10" d="M297.8,123.63c.4,.8,.31,1.66-.21,1.92-.52,.26-1.27-.17-1.67-.97-.4-.8-.31-1.66,.21-1.92,.52-.26,1.27,.17,1.67,.97Z"/>
            <path class="cls-3" d="M316.12,121.19s.32,1.13-.49,2.1c-.81,.97-2.75,1.29-2.75,1.29l.32,3.56"/>
          </g>
          <path class="cls-7" d="M310.95,92.35s-3.13-3.51,1.57-7.01c4.7-3.51,14.68,4.21,14.68,4.21l-2.54,.35s8.22,2.45,7.44,8.94c-.78,6.49-7.24,3.86-11.94,1.4-4.7-2.45-9.2-7.89-9.2-7.89Z"/>
          <path class="cls-7" d="M289.9,112.94s-4.05-3.72-3.72-8.09c.32-4.37,6.15-11.98,16.99-13.27,10.84-1.29,23.15,7.28,24.76,16.19s-4.37,14.89-4.37,14.89l-7.45-1.46s-.16-6.15-2.43-8.09-4.69,2.1-4.69,2.1c0,0-5.66,.81-8.25-.81-2.59-1.62,.65-4.69-2.75-4.37-3.4,.32-8.09,2.91-8.09,2.91Z"/>
        </g>
        <g>
          <path class="cls-5" d="M327.58,292.71s4.49,16.16,5.98,19.75c1.5,3.59,28.04,71.28,28.04,71.28,0,0-9.87,11.07-14.96,13.17-5.09,2.09-7.48,3.29-6.28,4.79,1.2,1.5,10.17,1.8,17.06,1.8s9.28-2.99,17.06-5.09c0,0,4.19-1.8,5.39-2.99s-8.08-16.76-8.08-16.76c0,0-7.4-38.96-8.29-48.54-.9-9.58-5.09-19.75-6.58-22.74-1.5-2.99-2.99-6.58-3.29-7.48-.3-.9-6.28-46.98-6.28-46.98l-19.75,39.8Z"/>
          <path class="cls-5" d="M379.86,395.41c.65-.65-1.81-5.57-4.18-9.91-4.92,4.56-13.47,5.12-13.47,5.12,0,0,0-2.39-.9-3.59-.4-.53-.97-1-1.49-1.36-3.08,3.27-9.43,9.69-13.18,11.23-5.09,2.09-7.48,3.29-6.28,4.79,1.2,1.5,10.17,1.8,17.06,1.8s9.28-2.99,17.06-5.09c0,0,4.19-1.8,5.39-2.99Z"/>
          <path class="cls-7" d="M327.58,292.71s4.49,16.16,5.98,19.75c1,2.39,12.53,35.85,20.8,54.74,3.28-.91,9.83-2.71,14.31-5.27-.84-10.51-4.72-26.78-5.19-31.82-.9-9.58-5.09-19.75-6.58-22.74-1.5-2.99-2.99-6.58-3.29-7.48-.3-.9-6.28-46.98-6.28-46.98l-19.75,39.8Z"/>
        </g>
        <g>
          <path class="cls-5" d="M315.57,243.15s-10.43,57.34-10.43,66.92-4.79,73.61-4.79,73.61c0,0-9.87,5.39-14.36,7.18-4.49,1.8-11.67,2.69-11.67,4.49s13.17,4.79,17.35,5.09c4.19,.3,17.06,2.69,18.55,2.39,1.5-.3,2.99-.6,2.99-7.18s.6-10.77,.6-10.77c0,0,1.5-9.87,12.27-48.77,4.91-17.74,1.8-28.73,1.8-30.82s19.75-48.17,20.95-51.17c1.2-2.99,4.79-9.28,3.29-17.06-1.5-7.78-3.89-7.78-3.89-7.78h-31.12l-1.54,13.87Z"/>
          <path class="cls-7" d="M326.08,336.1c4.91-17.74,1.8-28.72,1.8-30.82s19.75-48.17,20.95-51.17c1.2-2.99,4.79-9.28,3.29-17.06-1.5-7.78-3.89-7.78-3.89-7.78h-31.12l-1.54,13.87s-10.43,57.34-10.43,66.92c0,6.11-1.95,34.44-3.36,54.11l16.09,2.84c1.83-7.32,4.46-17.35,8.21-30.92Z"/>
          <path class="cls-3" d="M274.32,395.35c0,1.8,13.17,4.79,17.35,5.09s17.06,2.69,18.55,2.39c1.5-.3,2.99-.6,2.99-7.18,0-1.67,.04-3.19,.1-4.52-4.63,.65-11.47-.57-11.47-.57,0,0,.6-2.39,.6-5.09s-2.09-1.8-2.09-1.8c0,0-9.87,5.39-14.36,7.18-4.49,1.8-11.67,2.69-11.67,4.49Z"/>
        </g>
        <g>
          <path class="cls-7" d="M310.46,225.28l-13.9,20.54s-7.59-.36-9.35,.08c-1.75,.44-7.73,9.01-7.73,9.01,0,0,.19-.34,1.03,1.68,.6,1.44,9.08,1.03,9.08,1.03,1.57-1.07-.47-2.65,.84-3.46,2.59-1.6,5.34-1.4,5.34-1.4l19.51-13.88-4.83-13.6Z"/>
          <path class="cls-8" d="M331,129.89s-23.41,30.84-25.21,35.34,2.03,60.33,1.8,63.03,.45,19.13,.45,19.13h25.89s.68-5.18,.9-5.85c.23-.68,2.25,5.4,2.25,5.4,0,0,1.8,1.13,4.95,.45,3.15-.68,15.31-1.35,15.31-1.35l-8.1-47.72s.9-39.85-3.6-51.55c-4.5-11.71-14.63-16.88-14.63-16.88Z"/>
          <line class="cls-3" x1="310.64" y1="209.97" x2="310.71" y2="214.69"/>
          <line class="cls-3" x1="310.25" y1="186" x2="310.59" y2="207.25"/>
          <line class="cls-3" x1="314.64" y1="187.85" x2="316.26" y2="201.96"/>
        </g>
      </g>
      <g>
        <rect class="cls-7" x="51.62" y="403.49" width="382" height="11.25"/>
        <rect class="cls-5" x="96.56" y="252.89" width="6.13" height="161.69"/>
        <rect class="cls-5" x="242.28" y="252.89" width="6.13" height="161.69"/>
        <rect class="cls-5" x="387.99" y="252.89" width="6.13" height="161.69"/>
        <rect class="cls-5" x="55.7" y="249.46" width="382" height="5.13"/>
      </g>
      <g>
        <g>
          <path class="cls-5" d="M326.05,186.16l.22,11.44s-17.33,42.81-18.9,43.94c-1.58,1.13-8.78,3.6-10.81,4.28-2.03,.68-3.55,10.49-3.55,11.07s2.17,3.9,2.31,4.34,2.17,.14,2.17,.14c0,0,.87,.87,2.46,.29,0,0,1.16,.58,2.17,0l1.01-.58s1.74,.58,2.17-.43c.43-1.01,1.3-6.07,1.3-6.07,0,0,5.21-2.75,6.65-5.21,1.45-2.46,2.31-6.22,2.31-6.22,0,0,27.04-42.65,27.18-44.68,.14-2.02,.72-10.99,.72-10.99l-17.43-1.32Z"/>
          <polyline class="cls-3" points="297.49 261.37 295.9 255.87 297.49 249.8"/>
          <polyline class="cls-3" points="299.95 261.66 299.09 256.02 300.39 250.81"/>
          <polyline class="cls-3" points="303.13 261.08 302.27 255.73 303.57 251.25"/>
        </g>
        <polyline class="cls-8" points="324.02 157.8 323.8 188.64 345.86 189.32 340.91 153.52"/>
      </g>
    </g>
  </g>
  <g id="Floor">
    <line class="cls-3" x1="2.35" y1="414.74" x2="479.78" y2="414.74"/>
  </g>
</svg>