<?xml version="1.0" encoding="UTF-8"?>
<svg xmlns="http://www.w3.org/2000/svg" viewBox="0 0 453.67 452.96">
  <defs>
    <style>
      .cls-1 {
        fill: #9abf14;
      }

      .cls-1, .cls-2, .cls-3, .cls-4, .cls-5, .cls-6, .cls-7, .cls-8, .cls-9, .cls-10, .cls-11 {
        stroke-linecap: round;
        stroke-linejoin: round;
      }

      .cls-1, .cls-2, .cls-3, .cls-4, .cls-5, .cls-6, .cls-8, .cls-12, .cls-13, .cls-10 {
        stroke: #263238;
      }

      .cls-2 {
        fill: #10292d;
      }

      .cls-3, .cls-14 {
        fill: #263238;
      }

      .cls-4 {
        fill: #cbd1db;
      }

      .cls-5, .cls-15, .cls-11 {
        fill: #fff;
      }

      .cls-6 {
        fill: #00424b;
      }

      .cls-7 {
        stroke: #c2c2c2;
      }

      .cls-7, .cls-8, .cls-12, .cls-9, .cls-16, .cls-13, .cls-17 {
        fill: none;
      }

      .cls-12, .cls-16, .cls-13, .cls-17 {
        stroke-miterlimit: 10;
      }

      .cls-12, .cls-10 {
        stroke-width: 3px;
      }

      .cls-9, .cls-11 {
        stroke: #748f0f;
        stroke-width: 6px;
      }

      .cls-18, .cls-19 {
        fill: #ebf5eb;
      }

      .cls-20, .cls-10 {
        fill: #92e3a9;
      }

      .cls-21 {
        fill: #748f0f;
      }

      .cls-16 {
        stroke: #fff;
      }

      .cls-17 {
        stroke: #9abf14;
      }

      .cls-22 {
        opacity: .13;
      }

      .cls-23, .cls-19 {
        opacity: .7;
      }
    </style>
  </defs>
  <g id="Background_Simple" data-name="Background Simple">
    <g>
      <path class="cls-18" d="M416.15,115.11c-2.82-1.87-5.61-3.78-8.39-5.73C377.92,88.41,238.28-6.99,179.42,1.76,113.32,11.58-26.92,228.64,8.81,292.95c35.73,64.31,214.37,175.96,261.71,158.1,47.34-17.86,174.18-214.37,182.22-262.61,6.86-41.18-26.65-66.74-36.59-73.33Z"/>
      <path class="cls-19" d="M416.15,115.11c-2.82-1.87-5.61-3.78-8.39-5.73C377.92,88.41,238.28-6.99,179.42,1.76,113.32,11.58-26.92,228.64,8.81,292.95c35.73,64.31,214.37,175.96,261.71,158.1,47.34-17.86,174.18-214.37,182.22-262.61,6.86-41.18-26.65-66.74-36.59-73.33Z"/>
    </g>
  </g>
  <g id="Clock">
    <g>
      <circle class="cls-8" cx="85.06" cy="110.43" r="47.53"/>
      <circle class="cls-8" cx="85.06" cy="110.43" r="42.04" transform="translate(-44.43 58.83) rotate(-30.67)"/>
      <path class="cls-3" d="M89.07,110.43c0-2.22-1.8-4.02-4.02-4.02s-4.02,1.8-4.02,4.02,1.8,4.02,4.02,4.02,4.02-1.8,4.02-4.02Z"/>
      <polyline class="cls-8" points="99.69 117.58 85.06 110.43 60.66 137.1"/>
    </g>
  </g>
  <g id="Plant">
    <g>
      <path class="cls-14" d="M56.57,350.45c.05,1.12,.13,2.25,.21,3.38,.17,2.26,.31,4.51,.51,6.76,.26,2.79,.63,5.58,1.02,8.36l.89,.12c-.02-.55-.03-1.1-.05-1.66-.06-2.24-.26-4.48-.23-6.7,.01-2.22-.05-4.45-.07-6.68l-.06-3.34,.06-3.32,.03-6.65,.18-6.63,.07-3.32c.04-1.1,.13-2.2,.19-3.3l.41-6.59c.78-8.74,1.99-17.38,3.76-25.85,1.77-8.46,3.95-16.82,7.2-24.66h0c.02-.06,0-.13-.06-.17-.06-.03-.13-.02-.15,.04-3.55,7.71-6.05,15.98-8.14,24.37-2.01,8.43-3.47,17.07-4.49,25.81l-.64,6.59c-.1,1.1-.22,2.2-.3,3.3l-.18,3.33c-.1,2.22-.23,4.44-.3,6.67l.06,6.72,.07,3.37Z"/>
      <path class="cls-14" d="M63.82,369.72c.45-4.5,.78-9.01,1.09-13.52,.41-5.75,.47-11.57,.85-17.33,.35-5.75,1.08-11.42,2.08-17.01,.98-5.6,2.2-11.14,3.81-16.52,.02-.06-.01-.13-.07-.16-.06-.03-.13,0-.15,.05-1.92,5.26-3.44,10.71-4.74,16.24-1.24,5.55-2.2,11.22-2.8,16.98-.59,5.74-1.24,11.48-1.32,17.32-.07,4.58-.02,9.18,.3,13.81l.96,.13Z"/>
      <path class="cls-14" d="M68.48,370.37l.84-9.58c.59-5.53,.94-11.12,2.15-16.43,.15-.66,.35-1.3,.52-1.95,.18-.65,.34-1.31,.6-1.92l.69-1.87,.89-1.73c1.31-2.27,2.9-4.39,4.62-6.38,3.44-3.97,7.5-7.46,12.11-10.11h0c.05-.03,.06-.1,.03-.16-.03-.06-.11-.09-.16-.06-4.83,2.39-9.13,5.64-12.9,9.46-1.85,1.95-3.57,4.01-5.04,6.31l-1.04,1.81-.81,1.92c-.29,.63-.5,1.3-.71,1.96-.21,.66-.44,1.32-.63,1.99-1.45,5.39-2.41,10.95-2.67,16.64-.13,3.27-.13,6.56,.02,9.87l1.49,.21Z"/>
      <path class="cls-14" d="M71.02,370.72l1.14,.16c.11-.65,.21-1.3,.3-1.94,.24-1.46,.47-2.91,.65-4.37,.22-1.45,.41-2.9,.53-4.37,.21-1.44,.32-2.93,.64-4.34,.52-2.87,1.37-5.62,2.52-8.21,1.14-2.56,2.63-5.07,4.92-6.67h.02s.06-.11,.02-.16c-.03-.06-.11-.08-.16-.06-2.63,1.33-4.39,3.76-5.87,6.24-1.41,2.55-2.52,5.3-3.29,8.18-.23,.71-.41,1.43-.57,2.16l-.53,2.18c-.27,1.48-.48,2.98-.57,4.5-.02,1.54-.06,3.07,.04,4.62,.06,.69,.13,1.39,.21,2.09Z"/>
      <path class="cls-14" d="M49.63,331.14c.92,7.6,1.64,15.19,2.57,22.78l1.74,14.44,1.35,.19c-.03-1.05-.06-2.09-.08-3.14-.07-3.79-.39-7.6-.68-11.41-.63-7.62-1.88-15.25-3.05-22.86-1.18-7.62-2.48-15.23-3.84-22.83-1.41-7.6-2.89-15.2-4.48-22.79-.01-.06-.07-.11-.14-.11-.06,0-.11,.06-.09,.12,1.29,7.6,2.45,15.21,3.56,22.81,1.13,7.6,2.19,15.21,3.14,22.81Z"/>
      <path class="cls-14" d="M35.92,308.76c.65,1.43,1.35,2.84,1.91,4.3l.88,2.17,.78,2.2c2.09,5.86,3.76,11.83,5.02,17.83,.69,2.99,1.14,6.01,1.7,9.01l.7,4.51c.26,1.5,.57,3,.78,4.51,.47,3.01,1.01,6.02,1.53,9.04,.28,1.83,.59,3.66,.93,5.5l.89,.12c-.03-1.86-.08-3.72-.18-5.59-.18-3.03-.53-6.07-.84-9.11-.4-3.04-.95-6.08-1.52-9.12l-1.06-4.54c-.35-1.51-.67-3.03-1.1-4.53-1.5-6.04-3.42-12.04-5.76-17.92l-.9-2.2-1-2.17c-.64-1.45-1.41-2.86-2.14-4.28-1.57-2.78-3.21-5.57-5.44-7.96-.05-.05-.12-.06-.16-.02-.05,.04-.05,.11,0,.17h.01c2.06,2.43,3.56,5.27,4.97,8.07Z"/>
      <path class="cls-14" d="M42,353.12c1.18,4.13,2.02,8.29,3.08,12.42,.15,.55,.28,1.1,.42,1.65l2.23,.31c-.12-.72-.23-1.44-.36-2.16-.74-4.25-2.2-8.41-3.58-12.55-1.4-4.14-3.01-8.24-4.77-12.27-1.81-4.02-3.75-7.99-6-11.83-.03-.05-.11-.08-.16-.06-.06,.03-.07,.09-.04,.16,1.96,3.93,3.62,7.98,5.12,12.05,1.53,4.06,2.91,8.16,4.06,12.29Z"/>
      <path class="cls-14" d="M28.78,347.25c2.26,1.32,4.16,3.24,5.77,5.29,1.63,2.05,2.94,4.32,4.02,6.65,1.14,2.32,1.73,4.79,2.73,7.16,.03,.09,.07,.18,.1,.27l2.36,.33c-.07-.35-.14-.69-.23-1.04-.71-2.57-1.93-5.05-3.32-7.41-1.36-2.37-2.94-4.65-4.83-6.67-.97-.98-1.97-1.93-3.07-2.74-1.08-.83-2.23-1.56-3.48-2.06-.05-.02-.11,0-.14,.05-.03,.06,0,.13,.06,.16h.01Z"/>
    </g>
    <path class="cls-21" d="M44,296.41s-12.34-4.56-15.19-18.24c-2.85-13.68,6.33-6.72-1.9-28.74-8.23-22.02-6.33-26.51-3.48-32.12,2.85-5.62,4.43-3.5,6.96,4.76,2.53,8.26,11.71,21.87,15.19,45.46,3.48,23.58-1.58,28.89-1.58,28.89Z"/>
    <path class="cls-21" d="M68.36,277.32s-8.23-3.99-8.54-19.54c-.32-15.55,6.01-11.51,6.96-30.68,.95-19.17,2.21-32.6,5.7-32.43,3.48,.17,12.66,11.25,15.82,33.2,3.16,21.96-4.11,35.18-10.44,40.64-6.33,5.45-9.49,8.81-9.49,8.81Z"/>
    <path class="cls-21" d="M39.57,314.46s-1.9-11.65-5.7-17.56c-3.8-5.91-12.02-11.79-17.4-22.98-5.38-11.19-11.39-17.08-11.07-2.17,.32,14.92,6.96,23.43,15.19,29.64,8.23,6.2,18.99,13.07,18.99,13.07Z"/>
    <path class="cls-21" d="M36.09,333.6s-7.59-15.61-18.67-27.9c-11.07-12.29-19.93-18.9-16.77-13.08,3.16,5.82,6.96,6.03,12.34,16.27,5.38,10.24,3.8,16.98,11.39,23.41,7.59,6.43,11.71,1.31,11.71,1.31Z"/>
    <path class="cls-20" d="M35.14,352.13c-.32-.99-.63-8-11.39-15.19-10.76-7.19-20.88-6.38-19.62-3.35,1.27,3.02,7.91,8.69,14.56,12.46,6.64,3.77,16.45,6.08,16.45,6.08Z"/>
    <path class="cls-21" d="M67.73,319s-4.75-6.67-2.22-18.98c2.53-12.31,8.23-8.35,14.56-14.12,6.33-5.77,5.06-6.89,11.39-12.98,6.33-6.08,12.02-9.09,14.56-5.89,2.53,3.2-1.27,11.53-5.06,16.07-3.8,4.54-9.81,6.23-12.66,12.17-2.85,5.93-1.58,16.23-8.86,19.97-7.28,3.74-11.71,3.76-11.71,3.76Z"/>
    <path class="cls-21" d="M83.55,324.67s11.39-11.39,19.62-19.75c8.23-8.35,11.39-15.19,11.71-8.82,.32,6.37,2.85,11.79-3.8,19.09-6.64,7.31-27.53,9.47-27.53,9.47Z"/>
    <path class="cls-21" d="M77.54,344.72s-.32-5.11,17.72-14.31c18.04-9.21,25.63-10.37,23.73-5.88-1.9,4.48-9.81,8.13-18.35,15.49-8.54,7.36-23.1,4.71-23.1,4.71Z"/>
    <path class="cls-8" d="M44.75,295.16s-4.23-23.29-8.66-40.04c-4.43-16.75-7.28-26.96-7.28-26.96"/>
    <path class="cls-8" d="M67.63,277.46s7.69-23.54,10.22-38.06c2.53-14.52-.32-25.99-1.58-32.81"/>
    <path class="cls-8" d="M38.57,313.85s-4.7-9.04-11.66-18.23c-6.96-9.19-12.34-14.37-15.5-22.72"/>
    <path class="cls-8" d="M67.73,319s2.53-14.84,8.54-21.91c6.01-7.08,18.04-17.75,22.78-25"/>
    <path class="cls-8" d="M34.4,351.68s-10.65-8.41-18.24-13.26"/>
  </g>
  <g id="Device_3" data-name="Device 3">
    <g>
      <path class="cls-5" d="M419.41,21.48V331.34c0,8.5-6.89,15.4-15.4,15.4h-133.89c-8.5,0-15.4-6.89-15.4-15.4V21.48c0-8.5,6.89-15.39,15.39-15.39h57.47l.05,.18c1.43,5.15,4.73,8.51,8.39,8.51h2.1c3.66,0,6.95-3.35,8.39-8.51l.06-.18h57.45c8.5,0,15.4,6.89,15.4,15.4Z"/>
      <path class="cls-1" d="M419.41,29.95v-8.47c0-8.5-6.89-15.4-15.4-15.4h-57.45l-.06,.18c-1.43,5.15-4.73,8.51-8.39,8.51h-2.1c-3.66,0-6.95-3.35-8.39-8.51l-.05-.18h-57.47c-8.5,0-15.39,6.89-15.39,15.39v8.47h164.68Z"/>
      <g>
        <path class="cls-2" d="M429.88,95.49v-30.95h-2.8V24.92c0-13.49-10.93-24.42-24.42-24.42h-131.18c-13.49,0-24.42,10.93-24.42,24.42V339.76c0,13.49,10.93,24.42,24.42,24.42h131.18c13.49,0,24.42-10.93,24.42-24.42V121.87h2.8v-18.29h-2.8v-8.09h2.8Zm-10.47,236.58c0,8.1-6.57,14.66-14.66,14.66h-135.36c-8.1,0-14.66-6.57-14.66-14.66V30.5c0-13.49,10.93-24.42,24.42-24.42h48.44l.05,.18c1.43,5.15,4.73,8.51,8.39,8.51h2.1c3.66,0,6.95-3.35,8.39-8.51l.06-.18h48.43c13.49,0,24.42,10.93,24.42,24.42V332.08Z"/>
        <path class="cls-6" d="M400.7,3.86h-127.27c-13.01,0-23.55,10.55-23.55,23.55V337.27c0,13.01,10.55,23.55,23.55,23.55h127.27c13.01,0,23.55-10.55,23.55-23.55V27.42c0-13.01-10.55-23.55-23.55-23.55Zm18.71,328.59c0,7.89-6.39,14.28-14.28,14.28h-136.12c-7.89,0-14.28-6.39-14.28-14.28V29.63c0-13.01,10.54-23.55,23.55-23.55h49.31l.05,.18c1.43,5.15,4.73,8.51,8.39,8.51h2.1c3.66,0,6.95-3.35,8.39-8.51l.06-.18h49.29c13.01,0,23.56,10.55,23.56,23.56V332.46Z"/>
        <path class="cls-15" d="M338.86,7.25c0-1.27-1.03-2.29-2.29-2.29s-2.29,1.03-2.29,2.29,1.03,2.29,2.29,2.29,2.29-1.03,2.29-2.29Z"/>
        <g>
          <g>
            <path class="cls-14" d="M269.36,16.04c0,2.32-2.61,3.16-2.62,4.93v.12h2.53v.78h-3.37v-.66c0-2.48,2.61-2.97,2.61-5.13,0-.79-.26-1.21-.9-1.21s-.9,.45-.9,1.13v.68h-.8v-.63c0-1.18,.54-1.96,1.73-1.96s1.74,.77,1.74,1.95Z"/>
            <path class="cls-14" d="M273.57,16.03v.2c0,.79-.32,1.35-.93,1.58,.65,.24,.93,.82,.93,1.59v.59c0,1.18-.55,1.95-1.74,1.95s-1.73-.77-1.73-1.95v-.53h.8v.58c0,.69,.29,1.11,.9,1.11s.9-.41,.9-1.19v-.59c0-.76-.32-1.12-.97-1.14h-.46v-.77h.51c.57-.02,.92-.38,.92-1.05v-.35c0-.79-.28-1.2-.9-1.2s-.9,.43-.9,1.12v.4h-.8v-.35c0-1.18,.55-1.93,1.73-1.93s1.74,.76,1.74,1.93Z"/>
            <path class="cls-14" d="M275.23,16.61v1.07h-.82v-1.07h.82Zm0,4.19v1.07h-.82v-1.07h.82Z"/>
            <path class="cls-14" d="M276.97,17.3c.24-.42,.63-.64,1.14-.64,.99,0,1.43,.73,1.43,1.82v1.51c0,1.18-.56,1.95-1.74,1.95s-1.73-.77-1.73-1.95v-.52h.8v.57c0,.69,.29,1.11,.9,1.11s.9-.42,.9-1.11v-1.49c0-.69-.29-1.11-.9-1.11-.47,0-.79,.26-.87,.82v.18h-.8l.21-4.28h3.03v.77h-2.26l-.12,2.36Z"/>
            <path class="cls-14" d="M283.82,16.02v.14h-.8v-.2c0-.69-.29-1.1-.91-1.1s-.93,.42-.93,1.24v1.73c.21-.53,.63-.82,1.24-.82,.99,0,1.43,.71,1.43,1.82v1.17c0,1.18-.58,1.95-1.76,1.95s-1.77-.77-1.77-1.95v-3.92c0-1.22,.55-1.98,1.77-1.98s1.74,.75,1.74,1.92Zm-2.65,2.88v1.15c0,.69,.29,1.11,.91,1.11s.91-.42,.91-1.11v-1.15c0-.69-.3-1.11-.91-1.11s-.91,.42-.91,1.11Z"/>
          </g>
          <g>
            <rect class="cls-14" x="365.66" y="16.36" width="2.17" height="5.43"/>
            <rect class="cls-14" x="368.55" y="15.27" width="2.17" height="6.52"/>
            <rect class="cls-14" x="371.45" y="14.49" width="2.17" height="7.29"/>
            <rect class="cls-14" x="374.35" y="13.15" width="2.17" height="8.64"/>
            <g>
              <path class="cls-14" d="M403.41,21.64h-13.04v-7.97h13.04v7.97Zm-12.31-.72h11.59v-6.52h-11.59v6.52Z"/>
              <rect class="cls-14" x="392.18" y="15.18" width="6.88" height="4.94"/>
              <rect class="cls-14" x="402.96" y="16.72" width="1.64" height="1.88"/>
            </g>
            <path class="cls-14" d="M385.59,19.91c-.08,0-.17-.02-.25-.07-2.65-1.58-4.41-.11-4.48-.05-.2,.18-.51,.15-.69-.05-.18-.2-.16-.51,.04-.68,.09-.08,2.34-2,5.62-.05,.23,.14,.31,.44,.17,.67-.09,.15-.25,.24-.42,.24Z"/>
            <path class="cls-14" d="M386.57,18.27c-.08,0-.17-.02-.25-.07-3.84-2.28-6.41-.07-6.44-.05-.2,.18-.51,.16-.69-.04-.18-.2-.16-.51,.04-.69,.03-.03,3.14-2.69,7.58-.05,.23,.14,.31,.44,.17,.67-.09,.15-.25,.24-.42,.24Z"/>
            <path class="cls-14" d="M387.46,16.37c-.08,0-.17-.02-.25-.07-4.86-2.89-8.09-.17-8.22-.05-.2,.18-.51,.15-.69-.05-.18-.2-.16-.51,.04-.68,.04-.03,3.88-3.32,9.36-.05,.23,.14,.31,.44,.17,.67-.09,.15-.25,.24-.42,.24Z"/>
            <path class="cls-14" d="M384.13,20.72c0,.67-.55,1.22-1.22,1.22s-1.22-.55-1.22-1.22,.55-1.22,1.22-1.22,1.22,.55,1.22,1.22Z"/>
          </g>
        </g>
      </g>
    </g>
    <path class="cls-23" d="M277.73,49.2c-4.2,0-7.61,3.41-7.61,7.61s3.41,7.61,7.61,7.61,7.61-3.41,7.61-7.61-3.41-7.61-7.61-7.61Zm0,11.65c-2.23,0-4.03-1.81-4.03-4.03s1.81-4.03,4.03-4.03,4.03,1.81,4.03,4.03-1.81,4.03-4.03,4.03Z"/>
    <g>
      <circle class="cls-22" cx="277.73" cy="56.81" r="13.28"/>
      <g>
        <path class="cls-14" d="M297.08,62.27v-10.65h4.12v1.07h-2.63v3.55h2.04v1.05h-2.04v4.98h-1.49Z"/>
        <path class="cls-14" d="M304.94,62.39c-.72,0-1.29-.14-1.72-.42-.43-.28-.74-.68-.92-1.2-.18-.52-.28-1.13-.28-1.83v-4.04c0-.7,.09-1.3,.28-1.81s.5-.89,.92-1.16c.42-.27,1-.4,1.72-.4s1.29,.14,1.71,.41c.42,.27,.72,.66,.91,1.16,.19,.5,.28,1.1,.28,1.8v4.05c0,.69-.09,1.3-.28,1.81-.19,.52-.49,.92-.91,1.2-.42,.29-.99,.43-1.71,.43Zm0-1.17c.39,0,.69-.08,.89-.24,.2-.16,.34-.39,.41-.68,.07-.29,.11-.64,.11-1.03v-4.67c0-.39-.04-.73-.11-1.02-.07-.28-.21-.5-.41-.66-.2-.15-.5-.23-.89-.23s-.69,.08-.9,.23c-.21,.15-.34,.37-.41,.66-.07,.29-.11,.62-.11,1.02v4.67c0,.39,.04,.74,.11,1.03,.07,.29,.21,.52,.41,.68,.21,.16,.51,.24,.9,.24Z"/>
        <path class="cls-14" d="M311.97,62.39c-.75,0-1.34-.16-1.75-.47-.42-.32-.71-.74-.87-1.28-.16-.53-.24-1.13-.24-1.79v-3.76c0-.72,.08-1.35,.24-1.88s.45-.95,.87-1.24c.42-.29,1-.44,1.75-.44,.67,0,1.19,.12,1.58,.37,.39,.25,.67,.6,.84,1.05,.17,.46,.26,1,.26,1.64v.84h-1.41v-.75c0-.39-.02-.74-.06-1.05-.04-.3-.15-.54-.32-.7-.18-.17-.47-.25-.88-.25s-.73,.09-.92,.27c-.19,.18-.32,.43-.37,.76-.06,.33-.09,.71-.09,1.15v4.22c0,.54,.04,.96,.13,1.27,.09,.31,.23,.53,.43,.66,.2,.13,.47,.2,.82,.2,.4,0,.69-.09,.87-.27,.18-.18,.29-.43,.33-.74,.04-.32,.07-.68,.07-1.1v-.79h1.41v.79c0,.65-.08,1.22-.24,1.72-.16,.5-.43,.88-.82,1.16-.39,.28-.93,.41-1.63,.41Z"/>
        <path class="cls-14" d="M318.82,62.39c-.77,0-1.36-.15-1.77-.46-.41-.31-.69-.74-.84-1.3-.15-.56-.22-1.21-.22-1.95v-7.06h1.42v7.13c0,.46,.03,.87,.09,1.25,.06,.38,.2,.68,.4,.89,.21,.22,.51,.33,.93,.33s.73-.11,.93-.33c.2-.22,.33-.52,.39-.89,.06-.38,.09-.79,.09-1.25v-7.13h1.41v7.06c0,.75-.07,1.4-.22,1.95-.15,.56-.43,.99-.83,1.3-.41,.31-1,.46-1.77,.46Z"/>
        <path class="cls-14" d="M325.73,62.39c-.61,0-1.12-.13-1.53-.39-.41-.26-.72-.63-.93-1.09-.21-.46-.33-1-.37-1.62l1.31-.35c.03,.38,.09,.74,.18,1.09,.09,.35,.24,.64,.45,.86,.21,.22,.5,.34,.88,.34s.68-.11,.87-.32c.2-.21,.3-.52,.3-.93,0-.48-.11-.87-.33-1.16-.22-.29-.5-.59-.83-.89l-1.79-1.58c-.35-.31-.61-.64-.78-1.01-.17-.36-.25-.81-.25-1.35,0-.78,.22-1.38,.67-1.81,.45-.43,1.06-.64,1.83-.64,.42,0,.79,.05,1.11,.16,.32,.11,.59,.28,.8,.51,.21,.23,.39,.52,.51,.86,.13,.35,.21,.75,.26,1.22l-1.26,.34c-.03-.35-.08-.67-.16-.97-.08-.29-.22-.53-.41-.71-.2-.18-.48-.27-.85-.27s-.66,.1-.86,.3c-.21,.2-.31,.49-.31,.87,0,.32,.05,.59,.16,.8,.11,.21,.29,.43,.53,.64l1.8,1.58c.4,.35,.76,.77,1.07,1.26,.31,.49,.46,1.06,.46,1.73,0,.53-.11,.98-.33,1.36-.22,.38-.52,.67-.9,.87-.38,.2-.82,.3-1.32,.3Z"/>
        <path class="cls-14" d="M332.42,62.27l.2-10.65h1.46l1.88,8.64,1.89-8.64h1.45l.2,10.65h-1.2l-.12-7.73-1.8,7.73h-.84l-1.79-7.73-.12,7.73h-1.21Z"/>
        <path class="cls-14" d="M343.84,62.39c-.72,0-1.29-.14-1.72-.42-.43-.28-.74-.68-.92-1.2-.18-.52-.28-1.13-.28-1.83v-4.04c0-.7,.09-1.3,.28-1.81,.19-.5,.5-.89,.92-1.16,.42-.27,1-.4,1.72-.4s1.29,.14,1.71,.41c.42,.27,.72,.66,.91,1.16,.19,.5,.28,1.1,.28,1.8v4.05c0,.69-.09,1.3-.28,1.81-.19,.52-.49,.92-.91,1.2-.42,.29-.99,.43-1.71,.43Zm0-1.17c.39,0,.69-.08,.89-.24,.2-.16,.34-.39,.41-.68,.07-.29,.11-.64,.11-1.03v-4.67c0-.39-.04-.73-.11-1.02-.07-.28-.21-.5-.41-.66-.2-.15-.5-.23-.89-.23s-.69,.08-.9,.23c-.21,.15-.34,.37-.41,.66-.07,.29-.11,.62-.11,1.02v4.67c0,.39,.04,.74,.11,1.03,.07,.29,.21,.52,.41,.68,.21,.16,.51,.24,.9,.24Z"/>
        <path class="cls-14" d="M348.21,62.27v-10.65h2.31c.79,0,1.41,.12,1.87,.36,.46,.24,.79,.6,.99,1.08,.2,.48,.3,1.08,.3,1.8v3.92c0,.75-.1,1.39-.3,1.91-.2,.52-.52,.91-.96,1.18-.44,.27-1.04,.4-1.78,.4h-2.43Zm1.49-1.06h.84c.54,0,.93-.11,1.16-.32,.23-.21,.37-.52,.41-.92,.05-.4,.07-.89,.07-1.46v-3.46c0-.55-.04-1-.1-1.34-.07-.34-.22-.59-.46-.75-.24-.16-.61-.24-1.12-.24h-.8v8.48Z"/>
        <path class="cls-14" d="M355.14,62.27v-10.65h4.13v1.1h-2.64v3.52h2.14v1.05h-2.14v3.91h2.67v1.06h-4.16Z"/>
      </g>
    </g>
    <g>
      <path class="cls-14" d="M284.4,117.34c-.42,0-.77-.09-1.05-.27-.28-.18-.49-.43-.63-.75-.14-.32-.23-.69-.25-1.11l.9-.24c.02,.26,.06,.51,.12,.75,.06,.24,.17,.44,.31,.59,.14,.15,.35,.23,.6,.23s.46-.07,.6-.22c.13-.15,.2-.36,.2-.63,0-.33-.08-.6-.22-.8-.15-.2-.34-.4-.57-.61l-1.22-1.08c-.24-.21-.42-.44-.53-.69-.11-.25-.17-.56-.17-.92,0-.53,.15-.95,.46-1.24,.31-.29,.72-.44,1.25-.44,.29,0,.54,.04,.76,.11,.22,.08,.4,.19,.55,.35,.15,.16,.26,.35,.35,.59,.09,.24,.15,.51,.18,.83l-.86,.23c-.02-.24-.05-.46-.11-.66-.05-.2-.15-.36-.28-.49-.13-.12-.33-.18-.58-.18s-.45,.07-.59,.2c-.14,.14-.21,.34-.21,.6,0,.22,.04,.41,.11,.55,.08,.14,.2,.29,.36,.44l1.23,1.08c.28,.24,.52,.53,.73,.86,.21,.33,.32,.73,.32,1.18,0,.36-.08,.67-.23,.93-.15,.26-.36,.46-.62,.6-.26,.14-.56,.21-.9,.21Z"/>
      <path class="cls-14" d="M286.94,117.26v-7.29h2.83v.76h-1.81v2.41h1.47v.72h-1.47v2.67h1.83v.73h-2.84Z"/>
      <path class="cls-14" d="M290.61,117.26v-7.29h1.02v6.56h1.86v.73h-2.88Z"/>
      <path class="cls-14" d="M294.18,117.26v-7.29h2.83v.76h-1.81v2.41h1.47v.72h-1.47v2.67h1.83v.73h-2.84Z"/>
      <path class="cls-14" d="M299.67,117.34c-.52,0-.92-.11-1.2-.32-.29-.22-.48-.51-.59-.87-.11-.37-.17-.77-.17-1.22v-2.57c0-.49,.06-.92,.17-1.29,.11-.37,.31-.65,.59-.85,.29-.2,.69-.3,1.2-.3,.46,0,.82,.08,1.08,.25s.46,.41,.58,.72,.18,.69,.18,1.12v.58h-.96v-.51c0-.27-.01-.51-.04-.72-.03-.21-.1-.37-.22-.48-.12-.11-.32-.17-.6-.17s-.5,.06-.63,.18c-.13,.12-.22,.3-.26,.52-.04,.23-.06,.49-.06,.79v2.89c0,.37,.03,.66,.09,.87,.06,.21,.16,.36,.3,.45,.14,.09,.32,.13,.56,.13,.28,0,.47-.06,.59-.18,.12-.12,.2-.29,.22-.51,.03-.22,.04-.47,.04-.76v-.54h.96v.54c0,.44-.05,.84-.16,1.17-.11,.34-.29,.6-.56,.79-.26,.19-.64,.28-1.12,.28Z"/>
      <path class="cls-14" d="M303.28,117.26v-6.53h-1.23v-.76h3.45v.76h-1.2v6.53h-1.02Z"/>
      <path class="cls-14" d="M308.25,117.26v-7.29h1.58c.54,0,.97,.08,1.28,.25,.31,.16,.54,.41,.67,.74,.13,.33,.2,.74,.2,1.23v2.68c0,.52-.07,.95-.2,1.3s-.35,.62-.66,.81c-.3,.18-.71,.27-1.22,.27h-1.66Zm1.02-.73h.58c.37,0,.64-.07,.79-.22,.16-.14,.25-.35,.28-.63,.03-.28,.05-.61,.05-1v-2.37c0-.38-.02-.68-.07-.92-.05-.23-.15-.41-.31-.51-.16-.11-.42-.16-.77-.16h-.55v5.81Z"/>
      <path class="cls-14" d="M313.05,117.26v-7.29h1v7.29h-1Z"/>
      <path class="cls-14" d="M316.95,117.34c-.42,0-.77-.09-1.05-.27-.28-.18-.49-.43-.63-.75-.14-.32-.23-.69-.25-1.11l.9-.24c.02,.26,.06,.51,.12,.75,.06,.24,.17,.44,.31,.59,.14,.15,.35,.23,.6,.23s.46-.07,.6-.22c.13-.15,.2-.36,.2-.63,0-.33-.08-.6-.22-.8-.15-.2-.34-.4-.57-.61l-1.22-1.08c-.24-.21-.42-.44-.53-.69-.11-.25-.17-.56-.17-.92,0-.53,.15-.95,.46-1.24,.31-.29,.72-.44,1.25-.44,.29,0,.54,.04,.76,.11,.22,.08,.4,.19,.55,.35,.15,.16,.26,.35,.35,.59,.09,.24,.15,.51,.18,.83l-.86,.23c-.02-.24-.05-.46-.11-.66-.05-.2-.15-.36-.28-.49-.13-.12-.33-.18-.58-.18s-.45,.07-.59,.2c-.14,.14-.21,.34-.21,.6,0,.22,.04,.41,.11,.55,.08,.14,.2,.29,.36,.44l1.23,1.08c.28,.24,.52,.53,.73,.86s.32,.73,.32,1.18c0,.36-.08,.67-.23,.93-.15,.26-.36,.46-.62,.6-.26,.14-.56,.21-.9,.21Z"/>
      <path class="cls-14" d="M320.29,117.26v-6.53h-1.23v-.76h3.45v.76h-1.2v6.53h-1.02Z"/>
      <path class="cls-14" d="M323.2,117.26v-7.29h1.47c.49,0,.89,.06,1.21,.19,.32,.13,.55,.34,.71,.62,.15,.29,.23,.66,.23,1.12,0,.28-.03,.54-.09,.77-.06,.23-.16,.43-.29,.59-.13,.16-.31,.27-.52,.35l1.03,3.65h-.98l-.95-3.42h-.79v3.42h-1.02Zm1.02-4.15h.39c.29,0,.52-.04,.7-.11,.18-.07,.31-.2,.4-.37,.08-.17,.13-.42,.13-.73,0-.43-.08-.73-.23-.92-.16-.19-.46-.28-.93-.28h-.45v2.41Z"/>
      <path class="cls-14" d="M327.48,117.26l1.55-7.29h.98l1.56,7.29h-.96l-.33-1.84h-1.49l-.35,1.84h-.95Zm1.44-2.56h1.21l-.61-3.29-.6,3.29Z"/>
      <path class="cls-14" d="M334.09,117.34c-.52,0-.92-.11-1.2-.32-.29-.22-.48-.51-.59-.87-.11-.37-.17-.77-.17-1.22v-2.57c0-.49,.06-.92,.17-1.29,.11-.37,.31-.65,.59-.85,.29-.2,.69-.3,1.2-.3,.46,0,.82,.08,1.08,.25s.46,.41,.58,.72,.18,.69,.18,1.12v.58h-.96v-.51c0-.27-.01-.51-.04-.72-.03-.21-.1-.37-.22-.48-.12-.11-.32-.17-.6-.17s-.5,.06-.63,.18c-.13,.12-.22,.3-.26,.52-.04,.23-.06,.49-.06,.79v2.89c0,.37,.03,.66,.09,.87,.06,.21,.16,.36,.3,.45,.14,.09,.32,.13,.56,.13,.28,0,.47-.06,.59-.18,.12-.12,.2-.29,.22-.51,.03-.22,.04-.47,.04-.76v-.54h.96v.54c0,.44-.05,.84-.16,1.17-.11,.34-.29,.6-.56,.79-.26,.19-.64,.28-1.12,.28Z"/>
      <path class="cls-14" d="M337.7,117.26v-6.53h-1.23v-.76h3.45v.76h-1.2v6.53h-1.02Z"/>
      <path class="cls-14" d="M340.67,117.26v-7.29h1v7.29h-1Z"/>
      <path class="cls-14" d="M342.85,117.26v-7.29h.69l2.07,4.84v-4.84h.85v7.29h-.65l-2.1-4.98v4.98h-.86Z"/>
      <path class="cls-14" d="M349.34,117.35c-.46,0-.82-.1-1.09-.29-.27-.19-.47-.48-.59-.85-.12-.37-.18-.82-.18-1.34v-2.44c0-.53,.06-.99,.17-1.36,.11-.38,.31-.66,.59-.86,.29-.2,.68-.3,1.19-.3,.46,0,.82,.08,1.1,.23,.28,.15,.48,.39,.61,.7,.13,.31,.19,.71,.19,1.19v.27h-.95v-.23c0-.32-.02-.58-.06-.78-.04-.2-.13-.35-.26-.45-.13-.1-.33-.15-.61-.15-.3,0-.52,.07-.65,.21-.14,.14-.22,.33-.25,.56-.03,.24-.05,.51-.05,.81v2.7c0,.35,.03,.64,.08,.87,.05,.23,.15,.41,.29,.52,.14,.11,.35,.17,.61,.17s.47-.06,.61-.19c.14-.13,.24-.31,.3-.56,.05-.25,.08-.55,.08-.92v-.5h-.93v-.72h1.84v3.61h-.64l-.1-.84c-.1,.27-.25,.49-.45,.67-.2,.17-.49,.26-.85,.26Z"/>
      <path class="cls-14" d="M354.08,117.26l1.55-7.29h.98l1.56,7.29h-.96l-.33-1.84h-1.49l-.35,1.84h-.95Zm1.44-2.56h1.21l-.61-3.29-.6,3.29Z"/>
      <path class="cls-14" d="M358.91,117.26v-7.29h1.81c.44,0,.79,.08,1.05,.24,.26,.16,.45,.39,.57,.69,.12,.3,.18,.66,.18,1.09,0,.38-.07,.72-.2,1-.13,.28-.33,.5-.6,.65-.26,.15-.59,.23-.99,.23h-.8v3.39h-1.02Zm1.02-4.12h.47c.29,0,.53-.03,.69-.1,.17-.07,.29-.18,.36-.35,.07-.17,.11-.4,.11-.7,0-.35-.03-.61-.08-.8-.05-.19-.16-.31-.32-.39-.16-.07-.41-.11-.76-.11h-.48v2.44Z"/>
      <path class="cls-14" d="M363.23,117.26v-7.29h1.81c.44,0,.79,.08,1.05,.24,.26,.16,.45,.39,.57,.69,.12,.3,.18,.66,.18,1.09,0,.38-.07,.72-.2,1-.13,.28-.33,.5-.6,.65-.26,.15-.59,.23-.99,.23h-.8v3.39h-1.02Zm1.02-4.12h.47c.29,0,.53-.03,.69-.1,.17-.07,.29-.18,.36-.35,.07-.17,.11-.4,.11-.7,0-.35-.03-.61-.08-.8-.05-.19-.16-.31-.32-.39-.16-.07-.41-.11-.76-.11h-.48v2.44Z"/>
      <path class="cls-14" d="M369.26,117.34c-.42,0-.77-.09-1.05-.27-.28-.18-.49-.43-.63-.75-.14-.32-.23-.69-.25-1.11l.9-.24c.02,.26,.06,.51,.12,.75,.06,.24,.17,.44,.31,.59,.14,.15,.35,.23,.6,.23s.46-.07,.6-.22c.13-.15,.2-.36,.2-.63,0-.33-.08-.6-.22-.8-.15-.2-.34-.4-.57-.61l-1.22-1.08c-.24-.21-.42-.44-.53-.69-.11-.25-.17-.56-.17-.92,0-.53,.15-.95,.46-1.24,.31-.29,.72-.44,1.25-.44,.29,0,.54,.04,.76,.11,.22,.08,.4,.19,.55,.35,.15,.16,.26,.35,.35,.59,.09,.24,.15,.51,.18,.83l-.86,.23c-.02-.24-.05-.46-.11-.66-.05-.2-.15-.36-.28-.49-.13-.12-.33-.18-.58-.18s-.45,.07-.59,.2c-.14,.14-.21,.34-.21,.6,0,.22,.04,.41,.11,.55,.08,.14,.2,.29,.36,.44l1.23,1.08c.28,.24,.52,.53,.73,.86s.32,.73,.32,1.18c0,.36-.08,.67-.23,.93-.15,.26-.36,.46-.62,.6-.26,.14-.56,.21-.9,.21Z"/>
    </g>
    <line class="cls-7" x1="257.58" y1="95.74" x2="416.04" y2="95.74"/>
    <g>
      <g>
        <path class="cls-14" d="M279.13,171.69h-13.34c-1.63,0-2.95,1.32-2.95,2.95v9.67c0,1.63,1.32,2.95,2.95,2.95h3.77l.86,1.49,2.04,3.53,2.04-3.53,.86-1.49h3.77c1.63,0,2.95-1.32,2.95-2.95v-9.67c0-1.63-1.32-2.95-2.95-2.95Z"/>
        <line class="cls-16" x1="267.52" y1="178.1" x2="277.57" y2="178.1"/>
        <line class="cls-16" x1="267.52" y1="181.35" x2="277.57" y2="181.35"/>
      </g>
      <line class="cls-13" x1="289.42" y1="179.26" x2="343.05" y2="179.26"/>
      <rect class="cls-13" x="399.15" y="174.14" width="7.43" height="7.43"/>
    </g>
    <g>
      <g>
        <rect class="cls-14" x="262.85" y="137.87" width="19.23" height="15.57" rx="2.95" ry="2.95"/>
        <polygon class="cls-15" points="276.73 145.44 273.2 147.48 269.67 149.52 269.67 145.44 269.67 141.36 273.2 143.4 276.73 145.44"/>
      </g>
      <line class="cls-13" x1="289.42" y1="145.26" x2="343.05" y2="145.26"/>
      <g>
        <rect class="cls-17" x="399.15" y="141.13" width="7.43" height="7.43"/>
        <polyline class="cls-17" points="400.94 144.18 402.41 146.2 405.17 143.63"/>
      </g>
    </g>
    <g>
      <line class="cls-13" x1="289.42" y1="219.64" x2="343.05" y2="219.64"/>
      <g>
        <g>
          <circle class="cls-14" cx="271.76" cy="218.31" r="9.27" transform="translate(-42.75 67.98) rotate(-13.23)"/>
          <path class="cls-15" d="M275.72,212.31c0-.18-.09-.36-.23-.47-.15-.11-.34-.15-.52-.09l-6.16,1.82c-.25,.07-.42,.3-.42,.56v7.05c-.2-.08-.42-.13-.65-.13-1,0-1.81,.81-1.81,1.81s.81,1.81,1.81,1.81c.95,0,1.72-.73,1.8-1.65h.03v-5.38l4.99-1.48v3.11c-.2-.08-.41-.12-.64-.12-1,0-1.81,.81-1.81,1.81s.81,1.81,1.81,1.81,1.81-.81,1.81-1.81c0,0,0-.02,0-.03v-8.64Zm-1.17,2.64l-4.99,1.48v-1.86l4.99-1.48v1.86Z"/>
        </g>
        <g>
          <rect class="cls-17" x="399.15" y="214.72" width="7.43" height="7.43"/>
          <polyline class="cls-17" points="400.94 217.77 402.41 219.79 405.17 217.22"/>
        </g>
      </g>
    </g>
    <g>
      <g>
        <path class="cls-14" d="M272.47,254.03l9.18-5.97c-.47-.73-1.29-1.22-2.23-1.22h-13.91c-.85,0-1.61,.41-2.09,1.04l9.05,6.15Z"/>
        <path class="cls-14" d="M272.46,255.24l-9.5-6.45c-.07,.23-.11,.47-.11,.73v10.25c0,1.47,1.19,2.66,2.66,2.66h13.91c1.47,0,2.66-1.19,2.66-2.66v-10.25c0-.17-.02-.34-.05-.5l-9.57,6.22Z"/>
      </g>
      <line class="cls-13" x1="289.42" y1="256.02" x2="343.05" y2="256.02"/>
      <g>
        <rect class="cls-17" x="399.15" y="251.23" width="7.43" height="7.43"/>
        <polyline class="cls-17" points="400.94 254.28 402.41 256.3 405.17 253.73"/>
      </g>
    </g>
    <g>
      <line class="cls-13" x1="289.42" y1="290.57" x2="343.05" y2="290.57"/>
      <rect class="cls-13" x="399.15" y="286.32" width="7.43" height="7.43"/>
      <path class="cls-14" d="M272.21,282.19c-3.63,0-6.58,2.95-6.58,6.58s6.58,10.96,6.58,10.96c0,0,6.58-7.33,6.58-10.96s-2.95-6.58-6.58-6.58Zm0,9.51c-1.58,0-2.86-1.28-2.86-2.86s1.28-2.86,2.86-2.86,2.86,1.28,2.86,2.86-1.28,2.86-2.86,2.86Z"/>
    </g>
  </g>
  <g id="Device_2" data-name="Device 2">
    <g>
      <path class="cls-3" d="M232.94,397.16l-43.58,7.95c-.96,.2-1.18,2.61-.35,3.13l12.79,7.88c1.68,1.03,3.69,1.36,5.61,.91l42.39-9.9c1.33-.31,1.55-3.26,.32-3.88l-13.55-5.63c-1.12-.56-2.4-.73-3.63-.47Z"/>
      <path class="cls-5" d="M232.94,396.02l-43.58,9.09c-.96,.2-1.18,1.47-.35,1.99l12.79,7.88c1.68,1.03,3.69,1.36,5.61,.91l42.39-9.9c1.33-.31,1.55-2.12,.32-2.73l-13.55-6.77c-1.12-.56-2.4-.73-3.63-.47Z"/>
      <path class="cls-5" d="M230.89,397.57l-36.83,7.68c-.81,.17-1,1.24-.29,1.68l10.8,6.66c1.42,.87,3.12,1.15,4.74,.77l35.82-8.36c1.13-.26,1.31-1.79,.27-2.31l-11.45-5.72c-.95-.47-2.03-.61-3.07-.4Z"/>
    </g>
  </g>
  <g id="Lines">
    <g>
      <circle class="cls-10" cx="253.36" cy="405.61" r="5.48"/>
      <polyline class="cls-12" points="258.84 405.61 335.99 405.61 335.99 365.39"/>
    </g>
  </g>
  <g id="Table">
    <line class="cls-8" x1="308.26" y1="398.76" x2="10.98" y2="363.32"/>
  </g>
  <g id="Device_1" data-name="Device 1">
    <polygon class="cls-5" points="98.09 398.87 154.79 386.47 82.43 373.77 25.64 385.67 98.09 398.87"/>
    <polygon class="cls-5" points="113.04 393.51 145.33 386.45 83.57 375.61 55.18 381.56 113.04 393.51"/>
    <path class="cls-4" d="M98.08,398.88l-72.37-13.2s-.07-.01-.07-.01L2.44,322.21l69.65,6.96,9.69,25.98,16.3,43.73Z"/>
    <path class="cls-2" d="M98.08,398.88l-72.37-13.2c1.53,.22,27.79,3.69,34.22-11.49,4.19-9.91,14.18-15.95,21.85-19.04l16.3,43.73Z"/>
  </g>
  <g id="Icon">
    <circle class="cls-11" cx="406.17" cy="352.38" r="44.5"/>
    <path class="cls-14" d="M425.38,364.52c-2.71,0-4.01-.97-4.59-2.16v-16.45c0-5.62-3.51-10.42-8.46-12.33,.06-.29,.1-.58,.1-.89,0-2.31-1.87-4.18-4.18-4.18h-1.08c-2.31,0-4.18,1.87-4.18,4.18,0,.27,.03,.53,.08,.79-5.08,1.84-8.71,6.71-8.71,12.43v16.45c-.57,1.19-1.87,2.16-4.59,2.16v4.58h13.5c0,.09-.01,.18-.01,.27,0,2.38,1.93,4.32,4.32,4.32s4.32-1.93,4.32-4.32c0-.09,0-.18-.01-.27h13.5v-4.58Z"/>
    <line class="cls-9" x1="369.67" y1="375.01" x2="441.82" y2="325.7"/>
  </g>
  <g id="Character">
    <g>
      <path class="cls-3" d="M145.11,192.17s-10.83,10.66-10.83,20.3,4.91,27.4,6.26,31.29,2.54,12.52-.34,19.11c-2.88,6.6-5.92,15.22,4.23,24.02,10.15,8.8,18.44,9.64,28.42,3.89,9.98-5.75,17.42-20.81,23.17-32.98s17.11-21.54,17.11-21.54c0,0,3.52-2.65,1.16-15.84-2.37-13.19-6.26-25.54-18.1-33.66-11.84-8.12-29.43-9.81-38.74-5.58-9.3,4.23-12.35,10.99-12.35,10.99Z"/>
      <g>
        <path class="cls-5" d="M145.01,211.86s0,13.66,1.27,15.3c1.28,1.64,3.83,5.28,4.37,7.47,.55,2.19-.55,12.75,.55,13.11s6.19,.55,6.19,.55c0,0,9.47,10.2,11.29,10.93,1.82,.73,7.47-3.1,7.47-3.1,0,0,.55,1.09,10.02-2.73s14.75-11.48,14.75-11.48l-8.01-14.03s.18-2.37,.18-5.28-2-6.01-2-6.01l-7.47-1.64s.91,2.73-.73,3.28c-1.64,.55-5.46,1.28-13.48-.73-8.01-2-14.75-6.92-17.12-7.65s-3.64-.73-3.64-.73l7.1-13.84s-.36-2.37-2.55,.73c-2.19,3.1-6.92,14.21-6.92,14.21l-1.27,1.64Z"/>
        <path class="cls-8" d="M165.23,247.74s5.1-.36,5.65-5.28"/>
        <path class="cls-3" d="M176.16,256.12l8.38-8.74-2.73,7.65s-3.83,.91-5.65,1.09Z"/>
        <polygon class="cls-3" points="192.92 227.89 189.28 231.89 194.56 231.53 192.92 227.89"/>
        <path class="cls-14" d="M160.13,230.44c.68,1.06,.78,2.2,.23,2.56-.55,.35-1.55-.22-2.22-1.28-.68-1.06-.78-2.2-.23-2.56,.55-.35,1.55,.22,2.22,1.28Z"/>
        <g>
          <path class="cls-8" d="M151.02,231.17s4.19-5.46,13.3-6.01c0,0,3.28,4.74,3.1,7.83-.18,3.1-4.74,6.01-7.1,6.56-2.37,.55-7.83-3.28-9.29-8.38Z"/>
          <line class="cls-8" x1="164.32" y1="225.15" x2="183.63" y2="214.95"/>
          <path class="cls-8" d="M151.02,231.17s-6.38,3.28-6.56,4.74c-.18,1.46,1.64,6.38,5.83,6.56"/>
        </g>
        <path class="cls-8" d="M153.21,227.7s1.27-3.46,6.19-3.46"/>
      </g>
      <g>
        <path class="cls-1" d="M174.4,272.91s-7.44,3.02-12.55,16.27c-5.11,13.25-15.57,91.79-15.57,91.79l129.43,13.94s-14.17-95.27-25.33-115.26c-11.15-19.98-28.12-19.29-28.12-19.29,0,0-20.22,12.78-47.87,12.55Z"/>
        <g>
          <path class="cls-8" d="M192.44,350.23c.8,1.43,1.51,2.6,2.06,3.34"/>
          <path class="cls-8" d="M184.17,333.55s3.75,8.15,6.96,14.26"/>
          <line class="cls-8" x1="180.3" y1="332.9" x2="185.14" y2="342.59"/>
        </g>
        <path class="cls-8" d="M165.34,383.05s-10.92-34.16-8.6-51.12,7.67-35.09,7.67-35.09"/>
      </g>
      <g>
        <path class="cls-1" d="M176.16,256.12s-1.46,1.82,.18,3.83c1.64,2,1.64,4.01,1.82,5.46,.18,1.46-6.56,7.1-4.19,9.29,2.37,2.19,9.84,5.46,26.59,.55s23.86-11.84,24.23-14.39-2.19-5.1-3.83-6.19c-1.64-1.09-2.91-4.37-4.74-9.84-1.82-5.46,0-9.11-3.1-8.56-3.1,.55-8.93,1.82-12.2,5.65,0,0-8.01,10.38-24.77,14.21Z"/>
        <g>
          <path class="cls-8" d="M181.81,255.03s-1.85,2.66-.33,5.04,2.81,4.76,2.81,5.84-4.11,7.79-3.25,8.87"/>
          <path class="cls-8" d="M187.75,253.8s-.65,2.81,.43,4.11,2.6,6.71,2.16,8c-.43,1.3-2.16,6.92-.43,7.79"/>
          <path class="cls-8" d="M193.8,251.2s1.3,4.54,3.46,8.65"/>
          <path class="cls-8" d="M198.35,262.67s.87-1.51-.22,3.03c-1.08,4.54-2.44,5.16,0,7.36"/>
          <path class="cls-8" d="M210.68,239.73s1.08,1.73,1.08,4.33,.65,6.92,1.3,7.14"/>
          <path class="cls-8" d="M214.79,253.58s1.51,1.73,3.03,2.81"/>
        </g>
      </g>
      <g>
        <path class="cls-5" d="M100.13,352.88s-2.81,3.89-3.24,6.06c-.43,2.16,.43,9.3,1.51,8.65,1.08-.65,.65-4.33,1.3-5.62,.65-1.3,.65-2.6,.65-2.6,0,0,3.89,7.14,5.41,8.65,1.51,1.51,9.09,8,12.33,7.57s11.47-7.14,11.03-11.25c-.43-4.11-8-14.28-14.06-15.58l-3.68,2.16-7.79,1.73s-1.08-.87-3.46,.22Z"/>
        <path class="cls-5" d="M106.4,350.5s-5.41,0-6.27,2.38c-.87,2.38-.87,9.52,2.38,12.11s2.81-2.16,2.81-4.33,.65-8.65,1.08-10.17Z"/>
        <path class="cls-5" d="M112.24,349.2s-4.33-1.51-5.84,1.3c-1.51,2.81-.87,11.25,.22,12.76s3.25,1.08,3.25-1.95,.87-7.36,.87-7.36l1.51-4.76Z"/>
        <path class="cls-5" d="M117.87,350.28s-4.11-2.38-5.62-1.08c-1.51,1.3-2.16,12.55,.22,14.49,2.38,1.95,3.24-1.95,3.46-3.03,.22-1.08,1.51-8.22,1.51-8.22"/>
      </g>
      <g>
        <path class="cls-5" d="M129.2,358.27s-4.43,1.72-10.33,2.46c-5.9,.74-12.45,.64-12.25,2.53s1.18,2.88,8.32,2.63c7.13-.25,14.76-.25,17.71-2.95,2.95-2.71-.74-5.66-3.44-4.67Z"/>
        <path class="cls-5" d="M227.55,361.75s-28.56,6.06-41.32,7.79-27.04-.43-27.04-.43c0,0-19.04-9.09-22.28-10.6-3.25-1.51-6.06-2.81-6.92-1.73-.87,1.08-14.49,8.87-16.66,10.82-2.16,1.95-8.22,10.82-9.09,12.55-.87,1.73-.22,2.38,1.08,1.95,1.3-.43,3.46-1.95,5.19-3.46,1.73-1.51,6.49-6.71,6.49-6.71l4.33-2.81s-5.19,6.06-6.27,8.22-5.84,7.79-5.41,8.44c.43,.65,3.03,.43,5.19-1.08,2.16-1.51,5.62-5.62,6.06-6.49,.43-.87,6.27-5.41,6.27-5.41,0,0-3.25,6.27-4.54,8.22-1.3,1.95-3.03,4.54-1.95,4.76,1.08,.22,4.11-1.3,5.62-2.81s4.11-6.06,4.11-6.06l3.89-3.68s-1.73,5.19-3.46,7.14c-1.73,1.95-4.76,4.54-3.03,4.98,1.73,.43,5.19-1.3,6.49-2.81,1.3-1.51,4.33-5.62,4.33-5.62,0,0,4.9,4.02,7.64,4.07,2.74,.04,10.53,.04,10.53,.04,0,0,26.58,6.85,49.29,8.58,22.72,1.73,43.3-.8,44.17-2.09,.87-1.3,2.16-26.39,2.16-26.39l-24.88,.65Z"/>
        <line class="cls-5" x1="127.17" y1="372.78" x2="132.8" y2="367.16"/>
        <line class="cls-5" x1="121.33" y1="369.1" x2="127.6" y2="362.61"/>
      </g>
      <g>
        <path class="cls-3" d="M252.94,368.64l-1.86-8.37s5.34-2.09,7.2-.23c1.86,1.86,.93,5.11-5.34,8.6Z"/>
        <path class="cls-1" d="M230.4,287.31l-16.73,75.29s45.78-.23,44.85,.93c-.93,1.16-6.97,4.41-5.58,5.11,1.39,.7,19.05-2.56,23.93-3.72,4.88-1.16,9.06-3.49,9.06-3.49,0,0-12.08-43.92-23.24-62.97-11.15-19.05-15.8-25.79-20.91-28.12"/>
        <line class="cls-5" x1="258.52" y1="363.53" x2="250.38" y2="297.07"/>
      </g>
      <path class="cls-3" d="M168.79,273.54s-3.55,11.33-4.4,18.95,2.2,17.93-1.86,28.25c-4.06,10.32-10.32,12.52-16.58,11.16-6.26-1.35-8.29-7.78-7.1-11.16,1.18-3.38,4.06-5.07,4.4-4.06s-2.03,1.69-.17,4.4c1.86,2.71,5.41-.34,4.23-5.07-1.18-4.74-7.78-1.69-15.05-6.77-7.27-5.07-8.97-13.53-4.57-24.87,4.4-11.33,13.19-19.62,14.38-24.87,1.18-5.24,0-9.47,0-9.47"/>
    </g>
  </g>
</svg>