<?xml version="1.0" encoding="UTF-8"?>
<svg id="Layer_1" data-name="Layer 1" xmlns="http://www.w3.org/2000/svg" viewBox="0 0 4300 2919.21">
  <defs>
    <style>
      .cls-1 {
        fill: #ebf5eb;
      }

      .cls-2 {
        fill: #f5f5f5;
      }

      .cls-3 {
        fill: #fff;
      }

      .cls-4 {
        fill: #e1e5e2;
      }

      .cls-5 {
        fill: #10292d;
      }

      .cls-6 {
        fill: #231f20;
      }

      .cls-7 {
        fill: #9abf14;
      }

      .cls-8 {
        fill: #3c4150;
      }

      .cls-9 {
        fill: #748f0f;
      }
    </style>
  </defs>
  <path class="cls-2" d="M2792.65,2842.5c0,18.84-201,34.1-449.18,34.1s-448.98-15.26-448.98-34.1,201-34.02,448.98-34.02,449.18,15.26,449.18,34.02Z"/>
  <path class="cls-1" d="M27.87,2546.02l4257.17-1.24c-173.05-368.78-308.87-498.87-424.38-652.99-324.96-433.59-572.72,181.29-867.81,51.94-137.11-60.16-549.58-375.81-808.65-103.98-109.57,115.01-191.43-122.27-429.45,33.16-268.55,175.35-470.8,256.84-757.91,80.84-88.27-54.19-165.97-124.6-257.82-172.83-91.76-48.42-206.82-72.17-296.92-26.17-53.33,27.28-90.93,75.43-126.96,121.99-95.67,124.13-191.52,248.27-287.27,669.29Z"/>
  <g>
    <g>
      <g>
        <path class="cls-2" d="M1653.14,2388.43c0,26.14-21.16,47.3-47.31,47.3H950.89l-62.67-94.61h717.61c26.15,0,47.31,21.16,47.31,47.3Z"/>
        <path class="cls-3" d="M779.59,2383.56c-3.04,27.38,18.85,52.29,47.21,52.29h304.87c27.84,0,50.03-24.07,47.21-52.29-2.63-24.64-25.2-42.51-49.84-42.51h-240.74l99.87-386.7c6.4-25.2-9.03-50.97-34.23-57.55-25.39-6.4-51.16,9.03-57.55,34.23-28.12,108.76,66.48-257.15-116.99,452.53h.19Z"/>
        <polygon class="cls-3" points="1458.82 1983.89 1365.8 2341.06 888.2 2341.06 981.41 1983.89 1458.82 1983.89"/>
        <g>
          <path class="cls-9" d="M373.78,2007.69h-90.58c-49.45,0-90.49-38.09-94.25-87.45L93.66,653.32c-4.2-54.91,39.26-101.67,94.25-101.67h90.58c-54.99,0-98.45,46.77-94.25,101.67l95.29,1266.92c3.76,49.36,44.8,87.45,94.25,87.45Z"/>
          <path class="cls-7" d="M373.78,2007.69h-56.96c-49.45,0-90.49-38.09-94.25-87.45L127.29,653.32c-4.2-54.91,39.26-101.67,94.25-101.67h56.96c-54.99,0-98.45,46.77-94.25,101.67l95.29,1266.92c3.76,49.36,44.8,87.45,94.25,87.45Z"/>
          <path class="cls-3" d="M2173.31,2007.68H373.82c-49.45,0-90.49-38.09-94.25-87.45,1.31,17.39-17.81-237.03-95.32-1266.91-4.2-54.91,39.25-101.67,94.25-101.67h1799.5c49.45,0,90.49,38.1,94.25,87.45l5.54,74.13,87.45,1160.32,2.41,32.46c4.11,54.91-39.35,101.67-94.34,101.67Z"/>
          <path class="cls-2" d="M185.27,667.04h1989.06l-2.09-27.94c-3.76-49.36-44.8-87.45-94.25-87.45H278.5c-54.99,0-98.45,46.77-94.25,101.67l1.02,13.72Z"/>
          <path class="cls-1" d="M2173.32,2007.64H373.82c-49.44,0-90.47-38.03-94.27-87.46l-3.45-46.61h1989.1l2.48,32.46c4.07,54.92-39.35,101.61-94.36,101.61Z"/>
        </g>
      </g>
      <path class="cls-3" d="M1309.78,1940.12c1.36,16.17-10.75,29.63-27.02,29.82-16.27,.29-30.5-12.59-31.86-28.76-1.26-16.37,10.75-29.73,27.02-29.92,16.27-.29,30.6,12.59,31.86,28.86Z"/>
    </g>
    <path class="cls-3" d="M339.38,608.88c1.13,14.01-9.28,25.59-23.36,25.79-14.01,.26-26.32-10.86-27.45-24.87-1.13-14.07,9.28-25.59,23.29-25.79,14.08-.26,26.39,10.86,27.52,24.87Z"/>
    <path class="cls-3" d="M453.04,608.88c1.13,14.01-9.28,25.59-23.36,25.79-14.01,.26-26.32-10.86-27.45-24.87-1.13-14.07,9.28-25.59,23.29-25.79,14.08-.26,26.39,10.86,27.52,24.87Z"/>
    <path class="cls-3" d="M566.71,608.88c1.13,14.01-9.28,25.59-23.36,25.79-14.01,.26-26.32-10.86-27.45-24.87-1.13-14.07,9.28-25.59,23.29-25.79,14.08-.26,26.39,10.86,27.52,24.87Z"/>
    <path class="cls-3" d="M2083.38,609.3c1.39,13.13-8.08,23.73-21.14,23.73h-591.24c-31.36,0-35.93-47.38-5.01-47.38h591.24c13.06,0,24.77,10.59,26.16,23.65Z"/>
  </g>
  <g>
    <g>
      <path class="cls-7" d="M1597.95,1873.57l-28.52-229.53c-101.71-83.31-185.78-98.64-274.83,0h-313.85l8.25,229.53h608.95Z"/>
      <path class="cls-9" d="M1141.65,1873.57c3.11-17.86,6.11-35.73,8.43-53.65,7.55-59.3,6.17-123.63-21.02-175.87h-148.3l8.25,229.53h152.65Z"/>
      <path class="cls-9" d="M1597.95,1873.57l-28.52-229.53c-13.22-10.83-26.56-20.9-39.91-29.71-24.8,27.07-38.02,65.46-41.29,102.73-4.8,52.96,6.28,104.73,19.61,156.51h90.11Z"/>
    </g>
    <path class="cls-3" d="M1339.79,666.53c-61.81-30.74-133.37-37.25-216.18-15.79l-.64,1072.41c85.77-32.9,245.51-100.7,479.12-56.91-119.19-243.27-287.37-611.29-232.48-783.34l-29.81-216.37Z"/>
    <path class="cls-3" d="M1174.81,1723.16c-21.8,18.98-58.54,28.41-97.85,29.51-68.09,1.96-144.51-21.06-168.64-64.54-31.72-56.82-54.5-802.41,21.43-953.78,12.86-25.72,69.44-48.25,118.18-63.44,40.54-12.61,75.68-20.21,75.68-20.21,0,0,113.4,368.63,114.88,522.2,1.34,147.69,48.37,453.98-63.69,550.25Z"/>
    <path class="cls-1" d="M1091.29,1379.88c12.98-33.92,7.35-79.24-24.49-96.75-35.03-19.35-85.85,2.57-115.24-24.74-20.33-18.86-18.25-52.17-6.98-77.52,11.27-25.35,29.88-47.03,39.8-72.99,10.32-27.29,8.93-58.19-1.75-85.33h-98.5c-14.7,271.9,2.69,627.05,24.2,665.58,24.13,43.48,100.55,66.5,168.64,64.54,15.19-21.06,22.41-48.62,14.45-73.23-14.09-43.6-68.09-63.93-83.89-107.04-12.49-34.05,3.06-72.13,23.76-102.01,20.58-29.88,46.91-56.58,60.01-90.51Z"/>
    <path class="cls-3" d="M1167.77,416.14c0-81.27,34.76-150.38,113.52-170.35,79.73-20.25,137.83-85.04,140.62,58.93,.7,38.54-22.36,140.41-25.27,202.9-5.54,118.62-97.61,93.7-97.61,93.7l-.81,134.18-119.09-93.33-11.36-226.02Z"/>
    <path class="cls-3" d="M1179.09,462.73c-19.72,0-35.72-19.94-35.72-44.51s16-44.6,35.72-44.6,35.79,19.94,35.79,44.6"/>
    <path class="cls-3" d="M1236.99,580.43s31.25,15.92,61.23,20.62"/>
    <path class="cls-3" d="M1632.32,1280.22l-90.89-411.75c-9.73-44.08-35.43-83.01-72.15-109.27l-129.51-92.64s-60.57,1051.66,95.69,1062.83c46.64,3.35,166.35-5.19,166.63-51.97,.98-137.27-89.5-627.69-89.5-627.69,0,0,64.84,197.36,119.73,230.5Z"/>
    <path class="cls-3" d="M2103.97,914.63l-153.08,635.36c-3.67,15.06-17.15,25.72-32.7,25.72h-449.21c-21.8,0-37.84-20.33-32.7-41.52,183.63-762.61,148.4-616.31,152.96-635.24,3.67-15.19,17.27-25.84,32.82-25.84h449.09c8.57,0,16.16,3.06,22.04,8.2,9.06,7.84,13.84,20.45,10.78,33.31Z"/>
    <path class="cls-1" d="M2103.97,914.63l-153.08,635.36c-3.67,15.06-17.15,25.72-32.7,25.72h-449.21c-21.8,0-37.84-20.33-32.7-41.52l15.06-62.34c48.13-19.47,100.79-27.56,152.59-23.27,27.19,2.2,54.13,7.72,81.44,6.98,27.19-.73,55.84-8.82,73.97-29.15,45.07-50.83,0-137.29,32.94-196.68,39.19-70.66,156.64-55.48,203.42-121.25,21.68-30.37,22.17-70.42,24-107.65,1.96-37.35,8.08-78.26,36.49-102.51,10.66-9.06,23.39-14.57,36.99-17.02,9.06,7.84,13.84,20.45,10.78,33.31Z"/>
    <g>
      <g>
        <path class="cls-3" d="M1402.96,1215.04c-2.21,15.31,7.99-55.35-21.55,149.29-232.08,2.82-469.91-19.11-501.99-36.86-19.6-10.78-14.33-107.28-4.65-218.98,5.76-65.64,12.98-136.55,17.64-198.39l210.77,165.82v88.79l299.8,50.34Z"/>
        <path class="cls-1" d="M1389.25,1310.2l-7.84,54.13c-232.08,2.82-469.91-19.11-501.99-36.86-19.6-10.78-14.33-107.28-4.65-218.98,49.92,42.12,25.17,92.31,53.64,126.51,19.23,23.02,53.76,24.74,83.4,20.7,29.64-3.92,60.87-11.51,88.79-.73,30.37,11.76,49.6,42.5,78.99,56.46,64.77,30.67,144.37-30.83,209.66-1.22Z"/>
      </g>
      <path class="cls-3" d="M1593.77,1258.76s64.54,27.8,5.26,42.74c0,0,47.39,33.31-9.67,36.86,49.57,42-103.25,57.11-182.84,15.06-.87,.31-29.94,10.81-28.17,10.17-14.77-7.98-35.74-88.28-10.41-125.41,41.78-13.88,53.07-19.75,75.07-24.62,23.64-29.02,56.82-50.33,85.73-63.19l-11.63,55.85c18.37,.73,35.51,4.9,61.48,8.94,111.81,17.76,15.19,43.6,15.19,43.6Z"/>
      <path class="cls-1" d="M1598.91,1355.02c-3.06,28.9-125.16,33.92-192.4-1.6-.87,.31-29.94,10.81-28.17,10.17-14.77-7.98-35.74-88.28-10.41-125.41,1.47-.49,2.82-.98,4.29-1.47,23.03,20.19,13.81,40.39,22.41,56.7,5.39,10.04,17.76,16.05,29.02,13.84,7.96-1.59,15.18-6.74,23.27-7.47,12.61-1.1,23.76,8.45,31.47,18.62,7.72,10.04,14.33,21.68,25.35,27.92,28.81,16.61,67.29-12.59,95.16,8.7Z"/>
    </g>
    <line class="cls-3" x1="1503.75" y1="982.23" x2="1512.59" y2="1049.72"/>
    <path class="cls-7" d="M1994.49,848.62l-7.72,23.27-11.14,33.68c-1.1,3.55-4.53,6-8.33,6h-231.59c-6,0-10.16-5.88-8.33-11.51l3.55-10.78,15.31-46.17c1.23-3.67,4.53-6.12,8.33-6.12h231.59c6,0,10.29,5.88,8.33,11.64Z"/>
    <path class="cls-7" d="M1986.77,871.89l-11.14,33.68c-1.1,3.55-4.53,6-8.33,6h-231.59c-6,0-10.16-5.88-8.33-11.51l3.55-10.78c2.08-.12,4.04-.12,6,0,13.35,.86,25.96,6.12,39.07,8.94,13.1,2.82,28.04,2.57,38.33-6,5.14-4.16,8.7-10.29,14.57-13.47,6.37-3.43,14.21-2.82,20.94-.49,6.86,2.21,13.1,5.88,19.84,8.57,20.45,8.2,45.07,5.76,63.44-6.49,5.51-3.67,10.53-8.08,16.53-10.78,10.41-4.65,22.78-3.43,33.43,.73,1.23,.49,2.45,1.1,3.67,1.59Z"/>
  </g>
  <g>
    <path class="cls-7" d="M1419.1,987.21c-5.64,17.8-25.62,30.52-44.82,28.54-19.06-1.97-29.97-17.88-24.33-35.68,5.6-17.67,25.58-30.39,44.64-28.42,19.2,1.98,30.11,17.89,24.51,35.57Z"/>
    <path class="cls-3" d="M1415.07,976.62c-2.75,8.67-12.48,14.87-21.83,13.9-9.29-.96-14.6-8.71-11.85-17.38,2.73-8.61,12.46-14.81,21.75-13.85,9.35,.97,14.67,8.72,11.94,17.32Z"/>
  </g>
  <g>
    <g>
      <ellipse class="cls-3" cx="515.58" cy="869.14" rx="140.57" ry="152.03" transform="translate(-468.28 638.38) rotate(-46.12)"/>
      <path class="cls-9" d="M629.72,869.14c4.94,63.02-42.18,114.14-105.2,114.14s-118.15-51.12-123.09-114.14c-4.94-63.09,42.11-114.14,105.2-114.14s118.14,51.06,123.09,114.14Z"/>
      <path class="cls-3" d="M578.58,904.43c-3.12,5.97-10.09,7.39-15.79,4.33l-33.39-18.52,2.84,36.27c.52,6.61-4.37,11.91-10.87,11.91s-12.33-5.31-12.84-11.91l-2.89-36.92-31.01,18.84c-5.81,3.27-13.02,1.01-16.59-4.44-3.58-5.61-2.44-12.67,3.07-16.13l30.5-18.41-32.83-18.19c-5.89-3.25-8.4-10.5-5.6-16.13s9.91-7.58,15.9-4.33l33.39,18.52-2.94-37.57c-.52-6.61,4.37-11.91,10.98-11.91s12.22,5.31,12.74,11.91l2.88,36.81,29.98-18.08c5.38-3.25,12.78-1.3,16.47,4.33,3.69,5.63,2.31,12.89-3.07,16.13l-30.49,18.52,33.95,18.73c5.89,3.36,8.4,10.51,5.6,16.24Z"/>
    </g>
    <g>
      <g>
        <ellipse class="cls-3" cx="545.96" cy="1256.79" rx="140.57" ry="152.03" transform="translate(-738.39 779.25) rotate(-46.12)"/>
        <path class="cls-7" d="M660.1,1256.79c4.94,63.02-42.18,114.14-105.2,114.14s-118.15-51.12-123.09-114.14c-4.94-63.09,42.11-114.14,105.2-114.14s118.14,51.06,123.09,114.14Z"/>
      </g>
      <g>
        <path class="cls-3" d="M599.57,1239.84l-66.26,71.89c-9.68,10.5-26.67,10.5-37.99,0-11.33-10.5-12.66-27.49-2.98-37.99l66.26-71.89c9.68-10.5,26.67-10.5,37.99,0,11.44,10.61,12.55,27.6,2.98,37.99Z"/>
        <path class="cls-3" d="M566.44,1275.79l-33.13,35.95c-9.68,10.5-26.67,10.5-37.99,0-11.33-10.5-12.66-27.49-2.98-37.99l33.13-35.95,40.97,37.99Z"/>
      </g>
    </g>
  </g>
  <g>
    <g>
      <polygon class="cls-3" points="2289.33 667.04 2248.07 2.92 3336.09 2.92 3377.35 667.04 2289.33 667.04"/>
      <polygon class="cls-7" points="2332.51 621 2318.73 399.32 3314.68 399.32 3328.45 621 2332.51 621"/>
    </g>
    <path class="cls-3" d="M2998.73,577.42h-.02c-1.07,0-2.05-.6-2.56-1.54l-59.12-110.36-36.36,53.33c-.55,.8-1.44,1.27-2.41,1.27h-93.99c-1.28,0-2.42-.84-2.79-2.06l-19.01-62.04-31.6,108.7c-.33,1.12-1.29,1.94-2.44,2.08-1.14,.13-2.29-.41-2.87-1.42l-30.58-52.21h-48.72c-1.03,0-1.98-.54-2.5-1.42l-17.1-28.51-62.16,92.89c-.58,.86-1.56,1.38-2.61,1.29-1.04-.06-1.96-.68-2.43-1.6l-55.53-110.67-42.3,49.65c-.55,.65-1.37,1.03-2.22,1.03h-81.4c-1.61,0-2.92-1.31-2.92-2.92s1.31-2.92,2.92-2.92h80.05l44.28-51.97c.64-.74,1.6-1.1,2.57-1.01,.97,.12,1.82,.72,2.26,1.59l55.26,110.12,61.94-92.56c.56-.83,1.42-1.41,2.5-1.29,1,.03,1.91,.56,2.43,1.42l18.61,31.04h48.74c1.03,0,2,.55,2.52,1.45l28,47.81,32.44-111.58c.36-1.24,1.49-2.09,2.78-2.1,1.42,.28,2.43,.83,2.82,2.06l21.24,69.32h90.3l38.2-56.03c.57-.84,1.54-1.23,2.57-1.27,1.02,.06,1.94,.64,2.42,1.54l58.86,109.87,54-97.98c.47-.85,1.33-1.41,2.3-1.5,.99-.11,1.91,.31,2.52,1.07l26.42,32.59h20.68c1.21,0,2.29,.75,2.73,1.87l12.76,33.29,43.07-79.23c.51-.94,1.49-1.52,2.55-1.53h.02c1.06,0,2.04,.57,2.55,1.5l27.53,49.51h53.52c1.61,0,2.92,1.31,2.92,2.92s-1.3,2.92-2.92,2.92h-55.23c-1.06,0-2.04-.57-2.55-1.5l-25.78-46.37-43.56,80.13c-.55,1-1.67,1.56-2.76,1.52-1.13-.07-2.13-.8-2.53-1.86l-14.31-37.33h-20.07c-.88,0-1.71-.4-2.26-1.08l-24.56-30.3-54.51,98.88c-.51,.93-1.49,1.51-2.56,1.51Z"/>
    <path class="cls-7" d="M2441.52,252.95c5.39,2.85,11.86,2.85,16.94,0,118.03-66.17,100.77-174.8,49.75-189.04-36.71-10.25-67.34,22.2-67.34,22.2,0,0-34.17-32.44-69.76-22.2-49.46,14.24-54.85,122.86,70.4,189.04Z"/>
  </g>
  <g>
    <g>
      <ellipse class="cls-2" cx="3482.14" cy="2834.65" rx="682.11" ry="84.56"/>
      <g>
        <g>
          <g>
            <g>
              <rect class="cls-3" x="3841.38" y="2114.09" width="80.91" height="609.46"/>
              <path class="cls-3" d="M3423.87,2008.95l453.17-572.38s130.41-155.99,354.56-87.65c15.14,4.62,24.4,19.97,21.78,35.58l-118.88,709.49c-2.56,15.29-15.8,26.5-31.31,26.5h-679.32v-111.53Z"/>
              <g>
                <path class="cls-4" d="M3719.92,2742.82v56.44h323.84v-56.44c0-10.65-8.63-19.27-19.27-19.27h-285.29c-10.65,0-19.27,8.63-19.27,19.27Z"/>
                <g>
                  <path class="cls-7" d="M3040.67,1891.35c6.23,166.02,61.36,678.97,79,819.41,1.11,8.73,2.06,15.97,2.83,21.64,.46,3.37,3.33,5.8,6.74,5.8h90.39c24.28,0,44.67-18.27,47.32-42.4l25.3-412.35c11.49-86.21,12.95-180.83,43.87-262.18l115.51-241.54c-.84-.11-56.72-9.24-122.79-14.89-55.93-4.86-120.93-7.37-171.44-.73-111.54,14.81-118.34,84.1-116.72,127.25Z"/>
                  <path class="cls-9" d="M3119.67,2710.76c1.11,8.73,2.06,15.97,2.83,21.64,.46,3.37,3.33,5.8,6.74,5.8h90.39c24.28,0,44.67-18.27,47.32-42.4l25.3-412.35c11.49-86.21,12.95-180.83,43.87-262.18l115.51-241.54c-.84-.11-56.72-9.24-122.79-14.89-14.43,10.1-36.73,29.38-43.31,46.06-3.56,8.9-4.05,18.54-5.26,28.01-3.97,30.35-15.78,59.57-34.08,84.1-13.68,18.37-31.08,34.4-40.31,55.37-18.94,43.14,1.62,93.65-7.12,139.96-5.67,30.11-23.55,57.07-27.52,87.5-7.37,56.26,34.08,109.28,31.49,166.02-1.86,40.39-25.9,76.57-32.94,116.48-11.04,62.45,21.44,136.73-19.43,190.55-8.58,11.25-20.4,21.37-30.68,31.89Z"/>
                  <path class="cls-7" d="M3395.86,2650.54c5.1,31.49,9.31,56.01,11.9,70.99,1.7,9.63,10.12,16.68,19.91,16.68h90.51c25.49,0,46.57-19.84,48.11-45.28l21.08-677.88,218.96-1.46c250.04-1.46,261.54-294.89,261.54-294.89-572.91,28.73-418.3,20.98-445.52,22.34,0,0-265.91,18.29-286.39,114.38-35.7,167.8,29.06,606.93,59.9,795.13Z"/>
                  <path class="cls-9" d="M3395.86,2650.54c5.1,31.49,9.31,56.01,11.9,70.99,1.7,9.63,10.12,16.68,19.91,16.68h90.51c25.49,0,46.57-19.84,48.11-45.28l21.08-677.88,218.96-1.46c250.04-1.46,261.54-294.89,261.54-294.89l-49.86,2.51c1.78,37.71-34.68,99.79-92.84,116.88-43.14,12.71-94.54,4.29-129.27,32.86-15.78,12.95-25.74,32.05-41.93,44.52-40.07,31.08-98.43,10.52-148.13,20.64-54.07,11.01-94.62,59.25-110.98,111.95-32.68,105.17,14.46,202.04-3.64,281.85-7.69,33.51-26.39,64.59-28.01,98.91-1.38,31.25,11.66,61.92,9.47,93.17-3.4,50.43-43.87,88.07-76.82,128.54Z"/>
                  <path class="cls-3" d="M3440.93,1775.22c111.74,19.38,256.82,24.2,332.01,29.56,270.28,18.89,294.91-86.09,294.91-86.09,14.23-116.94,53.77-458.23,29.37-573.59-6.95-32.66-24.01-58.86-48.13-79.82-19.74-17.3-44.23-31.07-71.77-42.16-74.33-29.73-170.97-38.87-256.51-41.19-90.6-2.26-156.93,42.35-187.42,110.52-19.25,43.66-26.97,197.05-54.23,461.12l-6.46,66.29-31.76,155.36Z"/>
                </g>
              </g>
            </g>
            <g>
              <polygon class="cls-3" points="3523.65 2738.2 3525.34 2817.64 3436.52 2827.13 3434.63 2738.2 3523.65 2738.2"/>
              <path class="cls-3" d="M3444.41,2787.53h0c-.05-7.79-6.4-14.06-14.19-14.01h-.04c-5.94,.04-11.22,3.79-13.2,9.39l-10.24,28.9-93.22,31.73c-12.52,4.26-20.91,16.06-20.83,29.29h0c.01,2.11,1.73,3.8,3.84,3.79l260.01-1.65c2.11-.01,3.8-1.73,3.79-3.84l-.23-35.29s-1.18-44.41-37.43-52.74c0,0-17.59,37.3-53.22,33.99-22.22-2.06-25.05-29.56-25.05-29.56Z"/>
            </g>
            <g>
              <polygon class="cls-3" points="3225.27 2738.2 3226.95 2817.64 3138.13 2827.13 3136.24 2738.2 3225.27 2738.2"/>
              <path class="cls-3" d="M3146.03,2787.53h0c-.05-7.79-6.4-14.06-14.19-14.01h-.04c-5.94,.04-11.22,3.79-13.2,9.39l-10.24,28.9-93.22,31.73c-12.52,4.26-20.91,16.06-20.83,29.29h0c.01,2.11,1.73,3.8,3.84,3.79l260.01-1.65c2.11-.01,3.8-1.73,3.79-3.84l-.23-35.29s-1.18-44.41-37.43-52.74c0,0-17.59,37.3-53.22,33.99-22.22-2.06-25.05-29.56-25.05-29.56Z"/>
            </g>
          </g>
          <path class="cls-3" d="M3616.19,1004.17l-172.87,83.44-273.73-179.53-83.61,96.75s202.01,245.98,311.11,267.13c29.83,5.78,113.13-38.08,113.13-38.08"/>
          <g>
            <path class="cls-3" d="M2988.1,909.93c19.86,15.14,63.35,47.25,86.3,55.54,13.8,13.12,28.03,27.73,40.02,42.43,12.61-3.15,52.23-49.98,57.37-80.81-11.48-17.03-31.4-49.7-33.46-70.39-2.99-29.89-4.72-95.94-24.11-91.02-19.28,5.01-35,45.13-30.08,74.63,0,0-57.01-45.92-67.14-87.09,0,0-5.84-25.23-21.03-12.47-4.65,3.91-.06,49.43,8.14,61.48-4.92-6.17-25.17-30.86-28.83-38.38-4.53-8.77-22.95-5.69-14.46,25.46l-.1-.1c-1.35-.58-11.19-5.59-16.68,0-6.75,7.04,3.76,28.16,4.72,29.99-.97-.67-7.71-5.98-15.43,1.45-16.25,16,35.66,74.53,54.77,89.29Z"/>
            <path class="cls-3" d="M3084.19,840.32s4.05,29.66,15.68,43.71"/>
            <path class="cls-3" d="M2960.74,789.24s15.19,21.77,33.36,37.19"/>
            <path class="cls-3" d="M2948.84,819.33s20.5,23.28,34.89,34.43"/>
          </g>
          <line class="cls-3" x1="3509.2" y1="1244.39" x2="3513.81" y2="1197.57"/>
        </g>
        <path class="cls-3" d="M3730.43,940.79l-2.9,41.26,7.9,282.17,143.18-267.88,17.99-155.98c24.38,1.8,35.27-13.89,37.27-42.76,2.07-30.06-7.17-56.49-36.87-53.66-16.19-67.15-66.55-117.6-129.59-122-80.83-5.69-131.89-39.97-135.99,167.16-1.8,91.13,11.39,140.89,99.02,151.68Z"/>
      </g>
    </g>
    <g>
      <g>
        <g>
          <g>
            <g>
              <path class="cls-3" d="M3206.18,1399.6l43.99,358.37,267.22,27.78c11.5,.85,20.91-9.03,19.51-20.48l-41.4-336.16-289.32-29.51Z"/>
              <path class="cls-3" d="M3004.85,1274.27l45.09,366.49c.72,5.88,4.24,11.05,9.45,13.87l190.82,103.29-44.07-358.3-201.3-125.36Z"/>
            </g>
            <path class="cls-7" d="M3004.85,1274.27l201.28,125.3,289.37,29.54-14.74-21.13c-82.93-25.63-185.64-38.42-266.28-26.83-63.4-55.34-114.76-100.09-188.24-114.36l-21.38,7.48Z"/>
          </g>
          <path class="cls-3" d="M3678.36,1667.77s-99.9,2.15-123.2,21.32c-30.37,24.98-98.83,10.39-79.48-18.43,0,0-36.86-14.43-5.36-30.02,0,0-37.26-15.26-9.7-28.26,0,0-25.29-24.39,.3-34.74,25.6-10.35,52.49-3.55,52.49-3.55l-4.41-36.02s78.76,18.05,138.94,49.14c21.68,22.52,38.63,53.74,30.42,80.55Z"/>
        </g>
        <path class="cls-3" d="M3981.86,1615.53l-323.46,81.75c12.65-53.87-7.9-99.93-51.35-140.59l367.17-132.13"/>
        <line class="cls-3" x1="3475.68" y1="1670.66" x2="3526.71" y2="1665.91"/>
        <line class="cls-3" x1="3470.32" y1="1640.65" x2="3518.81" y2="1638.21"/>
        <line class="cls-3" x1="3460.63" y1="1612.39" x2="3508.03" y2="1612.43"/>
      </g>
      <path class="cls-2" d="M3648.57,1610.51c18.76-9.18,42.04-1.78,63.5-1.24,30.24,.85,60.48-13.75,78.61-37.9,9.14-11.93,10.75-13.64,25.89-12.39,43.69,3.35,88.48-17.06,114.6-52.27,3.54-4.88,7.24-10.31,13.05-12.06,5.23-1.64,10.78,.27,16.17,1.12,30.31,4.7,56.24-24.51,64.19-54.17,7.99-29.66,4.86-61.43,12.57-91.12,6.91-26.84,33.04-42.6,59.19-39.41l7.47,.91c-.01,121.08-21.92,267.19-121.93,303.53l-323.52,81.72c7.34-31.35,3.46-60.08-9.78-86.74Z"/>
    </g>
  </g>
  <g>
    <path class="cls-6" d="M773.88,1493.44H354.5c-1.61,0-2.92-1.31-2.92-2.92s1.31-2.92,2.92-2.92h419.39c1.61,0,2.92,1.31,2.92,2.92s-1.31,2.92-2.92,2.92Z"/>
    <path class="cls-6" d="M781.18,1589.86H361.79c-1.61,0-2.92-1.31-2.92-2.92s1.31-2.92,2.92-2.92h419.39c1.61,0,2.92,1.31,2.92,2.92s-1.31,2.92-2.92,2.92Z"/>
    <path class="cls-6" d="M788.47,1686.28H369.09c-1.61,0-2.92-1.31-2.92-2.92s1.31-2.92,2.92-2.92h419.39c1.61,0,2.92,1.31,2.92,2.92s-1.31,2.92-2.92,2.92Z"/>
    <path class="cls-6" d="M667.75,1782.7H376.38c-1.61,0-2.92-1.31-2.92-2.92s1.31-2.92,2.92-2.92h291.37c1.61,0,2.92,1.31,2.92,2.92s-1.31,2.92-2.92,2.92Z"/>
  </g>
  <g>
    <g>
      <path class="cls-7" d="M456.23,2398.05s-39.69,.49-64.48,60.24-63.52,105.96-129.88,68.99c0,0-40.24-26.55-3.71-75.43,33.63-45,111.22-90.65,198.08-53.8Z"/>
      <path class="cls-7" d="M300.49,2126.12c-35.33-34.63-101.55-9.05-86.05,48.68,15.51,57.75,23.76,61.38,14.52,101.31-9.24,39.93-22.58,130.79,17.07,139.59,56.51,12.53,91.67-89.76,91.67-89.76,0,0,18.97-57.42-4.79-139.59-8.72-30.16-20.72-48.76-32.42-60.23Z"/>
      <path class="cls-7" d="M11.23,2333.62s46.84-24.23,93.67,37.15c46.84,61.37,83.89,50.86,95.42,40,11.53-10.86,19.07-60.74,0-94.22-19.07-33.48-63.85-37.24-111.51-30.37-47.66,6.87-71.01,30.99-77.58,47.45Z"/>
    </g>
    <path class="cls-3" d="M79.82,2615.84l44.14,198.63c2.44,11,12.2,18.83,23.47,18.83h148.66c11.27,0,21.02-7.83,23.47-18.83l44.14-198.63H79.82Z"/>
    <rect class="cls-3" x="62.52" y="2564.01" width="318.47" height="59.65" rx="7.53" ry="7.53"/>
    <path class="cls-1" d="M62.52,2608.18v7.95c0,4.16,3.37,7.53,7.53,7.53H373.46c4.16,0,7.53-3.37,7.53-7.53v-7.95H62.52Z"/>
  </g>
  <g>
    <path class="cls-3" d="M4297.09,35.51V324.06c0,9.7-7.86,17.57-17.57,17.57h-296.16l-112.65,92.18c-6.39,5.23-15.99,.68-15.99-7.58v-84.61h-61.21c-9.7,0-17.56-7.87-17.56-17.57V35.51c0-9.7,7.86-17.57,17.56-17.57h486.02c9.7,0,17.57,7.86,17.57,17.57Z"/>
    <path class="cls-7" d="M4257.32,73.76v208.69c0,7.29-5.9,13.19-13.19,13.19h-415.3c-7.29,0-13.19-5.9-13.19-13.19V73.76c0-7.17,5.9-13.07,13.19-13.07h415.3c7.29,0,13.19,5.9,13.19,13.07Z"/>
    <g>
      <path class="cls-3" d="M3913.21,214.67c-24.05,0-43.62-19.57-43.62-43.62s19.57-43.62,43.62-43.62,43.61,19.57,43.61,43.62-19.56,43.62-43.61,43.62Zm0-81.4c-20.84,0-37.79,16.95-37.79,37.78s16.95,37.78,37.79,37.78,37.78-16.95,37.78-37.78-16.95-37.78-37.78-37.78Z"/>
      <path class="cls-3" d="M4036.51,214.67c-24.05,0-43.62-19.57-43.62-43.62s19.57-43.62,43.62-43.62,43.61,19.57,43.61,43.62-19.56,43.62-43.61,43.62Zm0-81.4c-20.84,0-37.79,16.95-37.79,37.78s16.95,37.78,37.79,37.78,37.78-16.95,37.78-37.78-16.95-37.78-37.78-37.78Z"/>
      <path class="cls-3" d="M4159.81,214.67c-24.05,0-43.61-19.57-43.61-43.62s19.56-43.62,43.61-43.62,43.62,19.57,43.62,43.62-19.57,43.62-43.62,43.62Zm0-81.4c-20.83,0-37.78,16.95-37.78,37.78s16.95,37.78,37.78,37.78,37.79-16.95,37.79-37.78-16.95-37.78-37.79-37.78Z"/>
    </g>
  </g>
  <g>
    <g>
      <path class="cls-7" d="M2761.25,2414.02v371.6c0,30.01-24.29,54.18-54.18,54.18h-699.86c-29.89,0-54.18-24.17-54.18-54.18v-371.6h808.21Z"/>
      <path class="cls-3" d="M2759.14,2414.02h-804c-18.52,0-33.51-14.98-33.51-33.51s15.06-33.51,33.51-33.51h804c43.96,0,44.31,67.02,0,67.02Z"/>
      <path class="cls-7" d="M1983.98,2347h746.33c0-33.83-27.43-61.26-61.26-61.26h-623.8c-33.83,0-61.26,27.43-61.26,61.26Z"/>
    </g>
    <g>
      <ellipse class="cls-3" cx="2357.14" cy="2626.91" rx="137.44" ry="136.09" transform="translate(-1166.59 2426.62) rotate(-44.84)"/>
      <path class="cls-7" d="M2418.77,2663.23c-3.62,5.93-10.82,7.74-16.65,4.46l-32.69-19.06-.37,37.33c-.07,6.8-5.58,12.26-12.27,12.26s-12.2-5.46-12.14-12.26l.38-38-33.62,19.39c-6.27,3.36-13.49,1.04-16.67-4.57-3.19-5.81-1.32-13.06,4.62-16.6l33.06-18.95-32.13-18.72c-5.76-3.34-7.69-10.81-4.29-16.6,3.4-5.8,10.89-7.8,16.76-4.46l32.69,19.06,.38-38.67c.07-6.8,5.58-12.26,12.38-12.26s12.09,5.46,12.03,12.26l-.38,37.89,32.5-18.61c5.83-3.34,13.27-1.34,16.56,4.46,3.29,5.8,1.21,13.26-4.62,16.6l-33.06,19.06,33.24,19.28c5.76,3.46,7.69,10.81,4.29,16.72Z"/>
    </g>
  </g>
  <path class="cls-8" d="M2270.58,1905.43s0,.09,.01,.14c0,0,0,0,0,0,0-.05,0-.1-.01-.15Z"/>
  <path class="cls-8" d="M976.53,2014.31s0,0,0,.01c0,.04-.02,.07-.03,.1,0-.04,.02-.08,.03-.11Z"/>
  <path class="cls-8" d="M186.03,1920.45c3.84,50.53,46.53,90.14,97.14,90.14H872.77c-99.57,385.88-96.7,372.04-96.14,373.72-2.04,17.36,7.45,38.44,26.68,48.61h-239.89c-1.58,0-2.92,1.33-2.92,2.92s1.33,2.92,2.92,2.92H1869.86c1.67,0,2.92-1.33,2.92-2.92s-1.25-2.92-2.92-2.92h-240.73c16.01-8.42,26.93-25.27,26.93-44.53,0-27.68-22.51-50.2-50.2-50.2h-236.31l85.3-327.61h718.43c55.98,0,101.5-47.34,97.31-104.81,0-.04,0-.07,0-.11,0,.02,0,.04,0,.06,0-.04,0-.09-.01-.15h0s0,0,0,0c0-.09-.02-.22-.03-.38,0-.09,0-.11,0-.08-103.98-1378.98-94.56-1254.77-95.42-1266.26-3.84-50.53-46.53-90.14-97.14-90.14h-684.99c8.69-28.23,4.1-37.52,11.76-92.64,43.78-8.59,77.3-52.61,77.3-105.48,0-15.01-2.67-29.27-7.59-42.19,54.91-76.06-37.56-160.18-169.02-160.18-80.55,0-149.26,31.94-174.52,76.3-98.04,16.15-122.65,135.17-36.11,182.19-2.92,12.59-4.5,25.93-4.5,39.77,0,40.27,13.34,76.63,34.6,102.23H187.94c-55.23,0-101.64,46.87-97.22,104.81l95.31,1266.92Zm640.8,512.47c-26.44,0-47.09-23.08-44.36-49.03,.08-.17,.08-.33,0-.5,.66-2.55,96.16-372.23,96.31-372.81h91.89c-.22,.84-85.56,330.85-85.3,329.86-.52,1.55,.95,3.5,2.83,3.5,259.36,0,241.9-.05,243.06,.08,23.01,1,42.44,18.18,44.69,39.77,2.73,26.13-17.45,48.15-42.69,49.03-.83,.14,14.5,.14-306.43,.08Zm779.05-88.89c24.43,0,44.36,19.93,44.36,44.36s-19.93,44.44-44.36,44.44h-450.6c17.91-9.39,28.57-28.98,26.52-49.61-1.83-17.01-12.92-31.6-28.18-39.19h452.27Zm-242.31-5.92h-471.53c62.36-238.99,80.05-306.76,84.31-323.07,.01-.04,.02-.08,.03-.12-.01,.05-.02,.07-.03,.11,0-.04,.02-.08,.03-.12,0,0,0,0,0,.01,.02-.08,.04-.16,.06-.24,0,.03-.02,.07-.03,.1,.04-.13,.08-.3,.12-.47,.06-.22,.12-.44,.17-.65,0,.03-.02,.06-.02,.09,.03-.12,.06-.24,.1-.37,.25-.94,.43-1.64,.55-2.1-.02,.06-.03,.13-.05,.2,.05-.2,.11-.41,.16-.62,.03-.11,.05-.21,.07-.27h471.36l-85.3,327.53Zm901.2-431.84c3.97,53.2-38.09,98.48-91.47,98.48H373.8c-48.74,0-88.64-39.3-91.3-84.8l-3.25-43.44h1983.27l2.25,29.77ZM1176.62,643.69c.62,.83-7.58-5.79,119.82,94.14,2.1,1.4,4.67,.17,4.67-2.34,0-7.22-.17,28.19,.5-81.3,13.84,4.4,27.43,10.14,35.1,14.09,0,3.52-15.53,264.87-10.84,530.82l-84.3-14.09c-.08-4.17-.17-8.17-.17-12.09-.33-33.69-6.09-77.96-14.84-126.49,1.59,0,1-.1,12.59-3.42,3.32-.92,4.77-4.44,3.84-7.25l-.5-1.5,21.76-6.34c19.95-5.93,29.39-28.25,20.35-47.03-17.01-35.19-40.61-63.04-66.29-80.63,.5-2.92-.83-6-3.59-7.76-8.17-5.09-16.34-9.01-24.6-11.92-22.4-89.75-52.81-195.57-62.79-227.72,16.84-4.25,33.27-7.34,49.28-9.17Zm-45.19,2.17c14.17-12.34,30.43-18.68,43.86-22.6l.67,14.59c-14.59,1.75-29.35,4.42-44.53,8.01Zm280.4,75.88s0,0,0,0c.66,.47,.27,.2,.45,.34,32.19,56.37,31.35,134.16-2.34,231.64-15.69-10.16-40.46-4.85-54.12,10.67-10.4,11.5-14.02,27.88-5.67,40.69,11.22,17.05,36.81,17.74,54.95,5,16.24-11.4,24.04-32.05,13.84-47.69-1.17-1.84-2.58-3.5-4.17-5,32.94-94.14,35.6-170.69,8.01-227.89l44.86,32.1c36.19,25.85,61.37,64.04,70.96,107.48l26.27,118.82-28.6,118.57c-12.09-31.27-19.93-54.87-20.76-57.37l-.08-.25-8.76-66.96c-.25-1.67-1.67-2.75-3.25-2.58-1.58,.25-2.75,1.67-2.5,3.34l8.84,67.12v.33c0,.17,.08,.33,.08,.42,.58,3.42,7.42,40.44,17.01,95.31l-.67,2.5c-20.43,9.17-57.12,29.1-84.72,62.62-14.32,3.33-23.69,6.87-29.35,8.75-1.52-3.04-3.67-5.82-6.84-7.09-3.61-.9,6.71,.98-73.04-12.42-2.49-140.9-.11-319.26,10.17-528.15,88.06,63.02,60.92,43.6,69.44,49.69Zm-18.91,271.66c10.8,1.2,21.48-5.75,24.76-15.51v.17c0,9.05-5.17,20-16.06,27.43-15.2,10.38-36.92,10.78-46.56-3.67-7.5-11.17-2.85-26.01,6.92-35.44,11.27-11.02,27.53-14.52,39.94-10.09-10.17-.33-20.35,6.42-23.35,16.01-3.29,10.79,3.56,20.1,14.34,21.1Zm.58-5.75c-7.29-.83-11.54-6.45-9.34-13.59,3.91-12.33,21.68-15.65,27.18-7.17v.08c5.73,8.59-5.12,21.86-17.84,20.68Zm331.11-88.47c-2.44,7.49,3.08,15.34,11.09,15.34h231.64c5,0,9.51-3.25,11.09-8.01l10.09-30.52h82.63c19.5,0,34.71,18.25,29.93,38.02l-153.01,635.3c-3.34,13.84-15.68,23.51-29.93,23.51h-449.18c-19.96,0-34.56-18.75-29.85-37.94,1.03-4.29,33.87-140.56,37.86-157.09,29.37,4.33,64.44,5.43,93.81-1.25,13.92-3.25,24.1-8.17,28.52-14.68,3.25-4.67,4.84-11.92-3.42-21.18,29.74-3.48,31.87-19.26,9.51-37.94,13.92-4.34,21.01-9.92,21.6-17.01,.81-11.01-15.35-21.17-25.1-26.35,4.93-1.76,17.01-5.33,26.18-12.09,12.1-9.02,8.9-17.86-5.34-24.18h-.08c-16.38-7.44-86.29-18.71-101.98-19.68,14.35-68.93,.72-10.26,71.46-303.85,3.34-13.93,15.68-23.6,29.93-23.6h110.23l-7.67,23.18Zm24.43-55.2c.75-2.42,3-4,5.5-4h231.64c4.08,0,6.77,3.94,5.59,7.67-.28,.86-20.1,60.85-18.84,57.03-.83,2.33-3.09,4-5.59,4h-231.64c-3.86,0-6.81-3.76-5.5-7.67,.28-.86,20.1-60.85,18.84-57.03Zm-498.46,522.31c26.93,.67,54.28,1.08,81.55,1.17,4.95,82.26,15.76,207.52,41.36,285.84-65.62,6.84-121.49,21.26-166.93,36.11,49.59-81.92,47.92-227.87,44.03-323.11Zm-77.71,354.63c-58.62,50.91-225.2,32.15-261.99-34.19-10.76-19.43-21.43-127.99-26.35-270.66,16.59-3.25,256.09-50.12,271.83-53.2,28.6,1.42,58.2,2.5,88.38,3.34,4.6,105.03,7.53,286.65-71.88,354.71Zm3.84,4.42c9.34-8.01,17.59-17.43,24.85-28.1,46.61-15.59,104.81-31.19,173.85-38.19,15.26,44.44,34.85,71.46,59.87,73.21,37.54,2.76,103.37-2.06,139.83-19.26l19.6,157.68H991.84l-4.5-126.41c56.87,16.61,146.16,18.53,189.36-18.93Zm258.99,1.17c-76.82-5.61-93.07-281.29-97.47-359.05,6.95-.04,6.58,.09,42.11-.25,.38,.19,1.71,.02,2.08-.17,2.5-.5,4.92-2.08,7.25-4.42l16.59-6c17.26,8.92,38.27,15.34,59.95,19.34,1.08,2.67,2.17,5.25,3.25,7.92l-36.02,149.59c-5.58,23.01,11.83,45.19,35.52,45.19h123.41c3.2,29.83,6.84,68.62,6.84,98.73-.52,44.12-118.8,52.31-163.51,49.11Zm81.3-517.39h.58c16.93,.83,89.63,11.86,106.73,21.26,6.63,3.86,6.69,6.89,2.33,10.67-6.59,6.18-24.98,12.68-33.27,14.76-25.44-2.19-55.26-4.77-54.12-4.67-1.5-.17-3,1.09-3.17,2.67-.08,1.58,1.08,3,2.67,3.17,.85,.07,54.97,4.66,54.12,4.59,.83,.45,29.15,13.13,28.27,23.68-.42,5-8.51,9.76-22.85,13.42-.17,0-.33,.08-.42,.17-.33-.25-.75-.33-1.16-.41,0,0,0,0,0,0-1.62-.13,7.39,.63-54.7-4.67-1.5-.17-3,1-3.17,2.67-.08,1.58,1.08,3,2.67,3.09,.85,.07,55.55,4.83,54.7,4.75,.55-.05,.42,.06,1.33-.17h.08c7.59,5.42,18.59,16.09,16.76,22.51-.83,2.75-5.09,7.5-24.68,8.84-.85-.1-36.71-4.19-48.95-5.59-3.9-.59-4.49,5.35-.67,5.75,45.16,5.15,26.99,3.14,48.03,5.59,7.59,6.67,9.67,12.59,6.42,17.34-3.59,5.25-12.42,9.5-24.68,12.34-17.78,4.85-57.71,7.3-97.39,.42-49.77-8.3-62.97-21.93-66.96-20.6-.84,.3-20.3,7.36-19.1,6.92-.87,.31-8.29,2.98-7.42,2.67l-.17,.08c-13.87-11.7-31.65-85.76-9.01-119.74,15.78-5.08,39.46-13.82,41.52-14.51h.08c25.07-9.12,32.44-9.06,33.85-10.76,19.01-23.26,47.61-44.94,79.13-59.78,.08,0,.17-.08,.25-.08l-10.42,50.11c-.36,1.82,1.03,3.34,2.75,3.5Zm13.26-77.46c-3.17-17.93-6-33.52-8.25-46.19,3.42,9.17,7.34,19.76,11.84,31.19l-3.59,15.01Zm-180.77-461.69h14.26c13.92,9.42,28.02,22.1,40.02,38.77l-54.28-38.77Zm-8.17-5.84s-.08,0-.08-.08c-1.9-1.27-20.06-9.84-39.52-15.93v-5c7.92,1.58,29.43,7.09,52.95,21.01h-13.34Zm-118.82,360.63c-7.92-41.02-17.76-84.3-28.02-126.33,4.25,1.92,8.5,4.25,12.76,6.92,2.6,1.65,5.94,1.39,8.01-.08,24.76,16.93,47.61,44.03,64.12,78.21,7.61,15.75-.56,34.1-16.76,38.86l-21.85,6.34-.92-2.92c-.92-3.08-4.17-4.84-7.25-4l-10.09,3Zm-38.94-146.25c-14.01-4-27.93-4.84-41.27-2.33-11.58-26.64-17.52-44.3-23.93-66.37-1.17-4.09-4.84-6.84-8.92-6.84-13.21-48.06-20.09-107.44,11.26-145.92,.33-.5,.83-1.08,1.33-1.58,.9,2.82,2.31,7.91,4.42,14.51,0,2.16,27,87.95,57.12,208.54Zm-79.55-73.71c-2.67,2.08-4,5.67-3,9.34,.64,2.27,.12,.45,0,.06,.24,.84,3.13,11.08,19.5,69.15-19.01,9.51-34.27,26.35-44.78,49.53-1.33,2.92-.58,6.34,1.67,8.51-11.26,28.27-14.76,64.04-8.42,102.23,3.36,21.03,24.97,33.99,43.94,28.18,.84-.24,14.18-4.08,13.34-3.84l8.59-2.5,.5,1.67c.75,2.5,3.17,4.17,5.67,4.17,1.29,0,1.9-.39,12.09-3.25,6.04-1.83,8.93-8.04,7.17-13.76-1.83-5.84-8-9.17-13.76-7.5-8.94,2.98-12.16,2.34-14.01,5.84-.67,1.33-.83,3-.33,4.5l.92,2.75-6.84,2c-.84,.24-15.86,4.61-14.93,4.34-16.73,4.86-33.89-6.75-36.61-23.51-6.09-37.11-2.83-71.71,7.84-98.97,2.84,.08,5.59-1.5,6.84-4.25,20.28-44.48,58.9-59.1,98.48-43.78,10.67,43.94,21.01,89.39,29.27,132.24-.58,.58-1.08,1.33-1.5,2.08-1.42,2.67-1.67,5.67-.83,8.59h.08c.92,2.92,2.92,5.25,5.5,6.5,8.92,49.03,14.84,93.81,15.18,127.83,0,3.58,.08,7.34,.17,11.09-.85-.14-59.09-9.92-129.66-21.76v-24.93c0-1.58-1.33-2.92-2.92-2.92-1.67,0-2.92,1.33-2.92,2.92v23.93l-82.13-15.01c-1.58-.33-3.09,.75-3.34,2.33-.33,1.58,.75,3.09,2.34,3.42,168.08,29.91-67.68-10.22,372.39,63.79-45.06,20.2-42.75,88.54-24.26,133.41,2.4,5.83,5.49,10.77,6.75,12.34-164.67,1.2-452.55-13.38-491.21-36.6-27.03-13.53,.81-257.83,3.75-290.92,6.95-74.22,15.81-234.24,47.86-298.34,19.08-38.15,140.57-69.88,181.94-79.88-30.77,39.74-23.69,100.57-10.34,149Zm-176.86-71.71c-33.08,65.86-41.39,225.83-48.36,300.43-16.09,172.19-24.26,278.92-2.25,295.51,.74,49.85,7.7,321.83,29.27,360.55,12.51,22.6,39.27,41.11,75.55,52.78l4.67,128.33H278.75c-.53-7.03-90.1-1198.04-90.3-1200.72h852.76c-47.78,15.26-101.23,37.44-114.07,63.12Zm1334.96,1137.6h-661.56l-19.93-160.51c13.16-7.02,24.29-17.8,24.43-32.77,0-31.21-3.49-67.43-6.84-98.73h319.94c17.01,0,31.6-11.51,35.6-28.02l153.01-635.3c5.59-23.05-11.99-45.19-35.6-45.19h-80.71l6.84-20.68c2.48-7.62-3.1-15.34-11.09-15.34h-231.64c-5,0-9.51,3.17-11.09,8l-9.26,28.02h-112.15c-17.01,0-31.6,11.59-35.6,28.02l-18.51,76.88-23.68-107.23c-9.84-44.86-35.94-84.3-73.29-110.98l-54.37-38.86c0-.08-.08-.25-.17-.33-12.01-20.6-27.27-36.1-42.69-47.69h797.89l90.47,1200.72Zm-184.11-1316.12c47.61,0,87.72,37.27,91.3,84.8l1.83,24.76h-805.73c-28.1-18.76-55.28-25.35-63.62-26.93l.17-32.27c9.92,1.92,38.02,5.09,61.95-12.26,12.09-8.84,21.18-21.6,27.18-38.11h686.91Zm-931.56-139.75c2.75-44.63,52.05-52.89,63.7-10.26,1.17,4.25,1.83,8.92,1.83,13.68,0,1.58,1.33,2.92,2.92,2.92s2.92-1.33,2.92-2.92c0-5.92-.92-11.59-2.58-16.84,12.34-8.25,22.68-18.84,30.27-31.02,52.47,11.29,117.01,7.72,168.77-15.76-.12,.84-15.45,101.62-15.59,102.48-6.23,46.62-.93,103.76-38.19,130.83-32.91,23.97-85.68,8.15-122.16-10.09-.25-.17-.5-.25-.83-.25h-.08c-1.08-.17-2.17,.25-2.75,1.17-.08,.08-.17,.17-.25,.33-.75,1.5-.17,3.25,1.25,4,1.33,.58,30.93,15.59,60.45,20.51-.01,1.8-.79,133.95-.75,125.91-17.38-13.61-119.95-93.93-113.4-88.8,.05,.91-8.79-174.74-8.84-175.69,1.92,.5,4,.67,6,.67,1.58,0,2.92-1.33,2.92-2.92,0-1.67-1.33-2.92-2.92-2.92-21.23,0-34.57-24.32-32.69-45.03Zm-16.26,139.75c12.34,13.09,27.02,22.76,43.03,27.77l1.75,35.02c-16.59,4.75-37.69,12.92-54.37,31.02-20.86,4.81-38.99,9.44-60.45,15.76H188.03l-.83-11.01c-4.12-52.82,37.5-98.56,91.3-98.56h851.68Zm-942.23,0h57.37c-42.83,15.59-67.17,56.75-63.95,98.98,82.36,1094.69-100.59-1337.98,95.31,1266.92,3.15,39.94,31.21,73.32,64.12,84.3h-57.62c-47.61,0-87.72-37.19-91.3-84.72L96.55,653.11c-4.02-53.78,38.32-98.56,91.39-98.56Z"/>
  <path class="cls-8" d="M1282.18,1972.9h.58c18.65-.36,31.44-15.62,29.93-33.02-1.42-17.68-17.01-31.77-34.77-31.52-18.11,.18-31.3,15.01-29.93,33.1,1.5,17.43,16.76,31.44,34.19,31.44Zm-4.17-58.7h.5c14.34,0,27.17,11.34,28.35,26.18,1.22,14.62-9.63,26.51-24.18,26.68-14.76,.25-27.6-11.51-28.85-26.1-1.18-14.52,9.49-26.59,24.18-26.77Z"/>
  <path class="cls-8" d="M315.52,637.6h.58c16.34-.18,27.8-14.41,26.18-28.93-1.25-15.51-15.09-27.93-30.43-27.6-16.03,.35-27.39,13.26-26.18,28.93,1.25,15.34,14.59,27.6,29.85,27.6Zm-3.59-50.7h.42c12.14,0,23.08,9.67,24.1,22.18,1.04,12.52-8.15,22.51-20.51,22.68-12.51,.33-23.43-9.76-24.43-22.18-1.05-12.59,8.25-22.51,20.43-22.68Z"/>
  <path class="cls-8" d="M429.17,637.6h.58c16.06-.18,27.69-13.88,26.18-28.93-1.25-15.34-14.59-27.6-29.93-27.6h-.5c-16,.35-27.38,13.3-26.18,28.93,1.25,15.34,14.59,27.6,29.85,27.6Zm-3.59-50.7h.42c11.96,0,23.08,9.63,24.1,22.18,1.04,12.52-8.15,22.51-20.51,22.68-12.59,.42-23.43-9.76-24.43-22.18-1.05-12.59,8.25-22.51,20.43-22.68Z"/>
  <path class="cls-8" d="M542.82,637.6h.58c16.19-.18,27.68-13.97,26.18-28.93-1.25-15.51-15.09-28.18-30.44-27.6-16,.35-27.38,13.31-26.18,28.93,1.25,15.34,14.59,27.6,29.85,27.6Zm-3.59-50.7h.42c12.47,0,23.2,10.09,24.18,22.18,.87,12.6-8.26,22.51-20.51,22.68-12.84,.33-23.51-9.76-24.51-22.18-1.02-12.21,7.92-22.5,20.43-22.68Z"/>
  <path class="cls-8" d="M1471.04,635.93h591.19c14.68,0,25.48-11.73,24.1-26.93-1.58-14.51-14.59-26.26-29.1-26.26h-591.27c-14.62,0-25.57,11.97-24.01,26.85,1.5,14.51,14.59,26.35,29.1,26.35Zm-5.09-47.36h591.27c11.59,0,22.01,9.42,23.26,21.01,1.22,11.71-7.22,20.51-18.26,20.51h-591.19c-11.67,0-22.1-9.42-23.26-21.1-1.18-11.31,6.75-20.43,18.18-20.43Z"/>
  <path class="cls-8" d="M1176.12,429.48c1.5-.5,2.33-2.17,1.83-3.67-1.31-3.62-1.78-7.92,.17-11.26v-.08c2.05-3.58,7.71-6,8.84-6,1.58-.33,2.58-1.92,2.25-3.5-.33-1.58-1.83-2.59-3.42-2.25-11.71,2.93-17.62,11.82-13.42,24.93,.44,1.32,1.78,2.33,3.75,1.83Z"/>
  <path class="cls-8" d="M1333.96,481.09c15.6-.7,18.64-2.36,22.1-5.34,5-4.34,5.25-10.17,5.09-15.34-.49-15.14-2.71-34.14-6.25-51.61-.33-1.58-1.92-2.58-3.5-2.25-1.58,.33-2.59,1.84-2.25,3.42,3.88,18.43,5.9,39.29,6.17,50.7,.17,4.25,0,8.01-3.09,10.67-3.25,2.75-9.26,4.09-18.09,3.92-1.67-.08-3,1.25-3,2.84s1.25,2.92,2.84,3Z"/>
  <path class="cls-8" d="M1316.78,523.28c-.92-1.25-2.75-1.58-4-.67-1.33,1-1.67,2.75-.75,4.09,.33,.42,6.75,9.25,18.18,10.92,8.65,1.72,18.08-2.55,25.18-8.09,1.33-.92,1.58-2.75,.58-4.09-1-1.25-2.84-1.5-4.09-.5-7.25,5.59-14.26,7.92-20.76,6.92-8.92-1.25-14.26-8.51-14.34-8.59Z"/>
  <path class="cls-8" d="M1302.69,434.65c0,6.38,5.26,11.76,11.67,11.76s11.84-5.25,11.84-11.76-5.34-11.67-11.84-11.67-11.67,5.38-11.67,11.67Z"/>
  <path class="cls-8" d="M1385.49,418.89c-6.5,0-11.76,5.25-11.76,11.76s5.25,11.67,11.76,11.67,11.76-5.17,11.76-11.67-5.25-11.76-11.76-11.76Z"/>
  <path class="cls-8" d="M1373.82,405.38c13.68-13.76,23.01-5.34,23.51-4.92,1.17,1.09,3,1,4.09-.08,1.08-1.17,1.08-3.08-.08-4.17-.17-.17-13.76-12.84-31.69,5.09-1.17,1.17-1.17,3,0,4.09,1.22,1.22,2.95,1.22,4.17,0Z"/>
  <path class="cls-8" d="M1293.02,414.3c4.49-6.42,10.87-11.65,18.51-10.26,3.29,.61,3.78,1.58,4.17,1.58,1.25,.58,2.84,.25,3.67-1,.92-1.33,.58-3.17-.75-4.09-.08,0-2.67-1.67-6.67-2.34-.84,.26-12.02-3.7-23.68,12.76-1,1.33-.67,3.17,.67,4.09,1.3,.87,3.14,.6,4.09-.75Z"/>
  <path class="cls-8" d="M527.06,1018.24c82.37,0,144.12-66.87,137.58-149.34-6.42-82.05-78.38-148.84-160.51-148.84s-144.11,65.74-137.67,149.34c6.42,82.05,78.46,148.84,160.6,148.84Zm-22.93-292.34c79.13,0,148.51,64.37,154.76,143.5,6.16,78.5-52.27,143-131.83,143s-148.59-64.37-154.76-143.5c-6.19-79.14,52.7-143,131.83-143Z"/>
  <path class="cls-8" d="M457.35,853.81l28.43,15.76-26.27,15.84c-6.82,4.26-8.46,13.18-3.92,20.18,4.79,7.27,13.82,9.16,20.51,5.34l26.93-16.34,2.58,32.19c.58,8.17,7.5,14.59,15.76,14.59s14.44-6.7,13.76-15.09l-2.42-30.85,28.68,15.93c6.98,3.74,15.7,1.98,19.76-5.59v-.08c3.5-7.09,.5-15.84-6.75-20.01l-29.6-16.34,26.18-15.84c6.46-3.91,8.77-12.85,4-20.26-4.5-6.92-13.67-9.26-20.43-5.25l-25.93,15.68-2.5-32.1c-.67-8.09-7.67-14.59-15.68-14.59-8.53,0-14.52,6.91-13.84,15.01l2.5,32.19-28.68-15.93c-7.31-3.98-16.39-1.51-19.85,5.59-3.5,7.09-.5,16.01,6.75,20.01Zm-1.58-17.34c1.87-3.9,7.04-5.7,11.92-3.09l33.35,18.51c2.05,1.12,4.52-.42,4.34-2.84l-2.92-37.52c-.49-4.73,2.94-8.76,8.01-8.76s9.42,4.09,9.84,9.17l2.92,36.85c.17,2,2.32,3.4,4.42,2.25l29.93-18.09c4.09-2.42,9.67-.92,12.59,3.42,2.87,4.39,1.62,9.75-2.17,12.09l-30.52,18.51c-1.95,1.17-1.82,3.92,.17,5l33.85,18.76c4.59,2.59,6.59,8,4.5,12.34-2.41,4.45-7.44,5.36-11.84,3.09l-33.35-18.51c-1.87-1.02-4.52,.42-4.34,2.83l2.84,36.27c.37,5.18-3.46,8.75-7.92,8.75-5.09,0-9.59-4.17-9.92-9.26l-2.92-36.94c-.17-2.07-2.53-3.38-4.42-2.25l-30.93,18.84c-4.43,2.48-10.19,.53-12.67-3.5-2.79-4.37-1.93-9.47,2.08-12.09l30.52-18.34c2.03-1.43,1.73-4.1-.08-5.09l-32.85-18.18c-4.59-2.5-6.5-8-4.42-12.26Z"/>
  <path class="cls-8" d="M534.48,1107.71c-82.8,0-144.1,67.06-137.58,149.34,6.42,82.05,78.38,148.84,160.51,148.84s144.05-66.71,137.67-149.34c-6.42-82.05-78.46-148.84-160.6-148.84Zm22.93,292.34c-79.13,0-148.51-64.37-154.76-143.5-6.19-79.14,52.7-143,131.83-143s148.59,64.37,154.76,143.5c6.29,80.21-53.95,143-131.83,143Z"/>
  <path class="cls-8" d="M556.5,1199.85l-33.02,35.85q-.08,0-.17,.08l-33.1,35.94c-11.4,12.34-8.51,31.97,3.09,42.11h.08c12.41,11.55,31.22,11.63,42.11-.17l33.1-35.94,33.1-35.94c11.06-11.94,9.12-30.75-3.09-42.11-13.17-12.12-31.86-10.95-42.11,.17Zm-25.35,109.9c-8.53,9.46-23.87,9.01-33.85-.17-10.09-9.34-11.34-24.6-2.83-33.85l31.19-33.77,36.69,34.02-31.19,33.77Zm66.29-71.88l-31.19,33.77-36.61-34.02,31.1-33.77c8.46-9.18,23.68-9.62,34.05,.36,9.01,8.67,12.02,23.21,2.64,33.66Z"/>
  <path class="cls-8" d="M2245.95,.92c-.55,.59-.84,1.38-.79,2.18l41.26,664.12c.09,1.54,1.37,2.74,2.91,2.74h1088.02c1.67,0,3.02-1.41,2.92-3.1L3339,2.74c-.1-1.54-1.38-2.74-2.92-2.74h-1088.02c-.81,0-1.58,.33-2.13,.92Zm1087.4,4.92l40.9,658.28h-1082.17L2251.18,5.84h1082.16Z"/>
  <path class="cls-8" d="M2316.61,397.32c-.55,.59-.84,1.38-.79,2.18l13.77,221.68c.09,1.54,1.37,2.74,2.91,2.74h995.94c1.67,0,3.02-1.41,2.92-3.1l-13.77-221.68c-.1-1.54-1.38-2.74-2.92-2.74h-995.94c-.81,0-1.58,.33-2.13,.92Zm995.32,4.92l13.41,215.84h-990.09l-13.41-215.84h990.09Z"/>
  <path class="cls-8" d="M2312.9,152.83h28.95c11.81,34.13,41.41,72.64,98.3,102.7,6.29,3.32,13.84,3.26,19.73-.04,50.83-28.5,77.23-65.54,86.46-99.76h21.17c1.61,0,2.92-1.31,2.92-2.92s-1.3-2.92-2.92-2.92h-19.77c9.25-42.98-8.52-80.35-38.75-88.79-32.91-9.21-60.62,13.85-68.22,21.01-8.18-7.01-38.41-30.24-70.47-21-32.31,9.3-40.92,49.26-30.26,85.89h-27.16c-1.61,0-2.92,1.31-2.92,2.92s1.31,2.92,2.92,2.92Zm144.14,97.57c-4.22,2.36-9.64,2.35-14.15-.04-54.41-28.75-83.06-65.15-94.84-97.54h64.64c1.36,0,2.54-.94,2.84-2.26l5.43-23.33,24.47,60.03c1.07,2.6,4.8,2.33,5.52-.34l13.68-50.53,11.9,18.03c.54,.82,1.46,1.31,2.43,1.31h61.28c-9.14,32.26-34.44,67.34-83.2,94.67Zm-85.11-183.69c23.37-6.73,51.09,6.56,66.95,21.51,1.25,1.19,3.09,.98,4.13-.11,.29-.31,29.86-31,64.43-21.39,27.12,7.57,43.46,42.57,34.28,83.17h-61.19l-14.61-22.11c-1.36-2.07-4.59-1.6-5.25,.85l-13.11,48.43-24.67-60.53c-1.06-2.58-4.89-2.36-5.55,.44l-6.98,30.02h-64.26c-10.25-33.44-3.58-71.81,25.82-80.28Z"/>
  <path class="cls-8" d="M2886.92,87.11h402.26c1.61,0,2.92-1.31,2.92-2.92s-1.3-2.92-2.92-2.92h-402.26c-1.61,0-2.92,1.31-2.92,2.92s1.3,2.92,2.92,2.92Z"/>
  <path class="cls-8" d="M2607.4,87.11h216.19c1.61,0,2.92-1.31,2.92-2.92s-1.3-2.92-2.92-2.92h-216.19c-1.61,0-2.92,1.31-2.92,2.92s1.3,2.92,2.92,2.92Z"/>
  <path class="cls-8" d="M3053.85,157.39c0,1.61,1.3,2.92,2.92,2.92h236.97c1.61,0,2.92-1.31,2.92-2.92s-1.3-2.92-2.92-2.92h-236.97c-1.61,0-2.92,1.31-2.92,2.92Z"/>
  <path class="cls-8" d="M3000.37,154.47h-388.42c-1.61,0-2.92,1.31-2.92,2.92s1.3,2.92,2.92,2.92h388.42c1.61,0,2.92-1.31,2.92-2.92s-1.3-2.92-2.92-2.92Z"/>
  <path class="cls-8" d="M3226.44,230.6c0,1.61,1.3,2.92,2.92,2.92h68.91c1.61,0,2.92-1.31,2.92-2.92s-1.3-2.92-2.92-2.92h-68.91c-1.61,0-2.92,1.31-2.92,2.92Z"/>
  <path class="cls-8" d="M3178.16,230.6c0-1.61-1.3-2.92-2.92-2.92h-325.45c-1.61,0-2.92,1.31-2.92,2.92s1.3,2.92,2.92,2.92h325.45c1.61,0,2.92-1.31,2.92-2.92Z"/>
  <path class="cls-8" d="M2826.51,230.6c0-1.61-1.3-2.92-2.92-2.92h-200.87c-1.61,0-2.92,1.31-2.92,2.92s1.3,2.92,2.92,2.92h200.87c1.61,0,2.92-1.31,2.92-2.92Z"/>
  <path class="cls-8" d="M3021.53,303.81c0,1.61,1.3,2.92,2.92,2.92h278.38c1.61,0,2.92-1.31,2.92-2.92s-1.3-2.92-2.92-2.92h-278.38c-1.61,0-2.92,1.31-2.92,2.92Z"/>
  <path class="cls-8" d="M2684.92,306.73h286.58c1.61,0,2.92-1.31,2.92-2.92s-1.3-2.92-2.92-2.92h-286.58c-1.61,0-2.92,1.31-2.92,2.92s1.3,2.92,2.92,2.92Z"/>
  <path class="cls-8" d="M2312.8,306.73h278.73c1.61,0,2.92-1.31,2.92-2.92s-1.3-2.92-2.92-2.92h-278.73c-1.61,0-2.92,1.31-2.92,2.92s1.31,2.92,2.92,2.92Z"/>
  <path class="cls-8" d="M3922.92,522.78c-9.59-4.84-19.43-5.5-29.27-1.92-24.01,8.75-40.77,40.27-45.69,50.53-24.11-16.3-53.42-32.39-83.22-44.86-87.05-35.77-149.67-25.68-181.02,29.1-38.52,67.21,38.11,184.11,46.11,195.95-.58,11.59-1.08,24.1-1.33,37.44-1.83,93.05,13.01,142.75,98.81,154.34l-2.42,35.77c-35.12-2.2-74.07,4.47-109.98,22.43l-171.35,82.72c-300.75-196.71-273.33-181.72-283.75-182.19-19.75-33.68-18.45-44.19-19.93-61.2-2.92-36.94-6.25-68.29-17.51-76.38-16.84-11.58-44.38,28.42-41.94,68.79-14.43-12.59-52.61-48.53-60.62-80.72-.33-1.5-3.67-14.92-12.34-17.84-4.25-1.42-8.76-.08-13.34,3.75-5,4.17-2.83,30.02,1.5,48.53-7.17-9.17-15.59-20.1-17.76-24.52-2.5-4.92-8.26-7.09-13.34-5.09-3,1.17-11.92,6.5-7.84,27.18-12.94-3.76-24.08,3.72-13.59,29.27-4.09-.42-8.17,1.17-11.84,4.67-18.39,18.25,32.89,76.62,55.12,93.72,22.6,17.26,63.79,47.28,86.47,55.78,3.34,3.17,6.5,6.25,9.59,9.42-3.59,12.34-3.34,21.93,.67,28.35,8.34,16.74,211.84,249.29,313.44,268.99,25.08,5.22,87.25-24.31,110.23-35.86-7.69,79.4-9.4,97.15-17.09,176.6-6.18-8.47-6.37-9.91-8.09-10.34-88.55-27.43-190.36-37.77-266.16-27.18-63.96-55.78-114.65-99.73-188.61-114.15-1.19-.2-.37-.13-22.93,7.59-1.05,.34-2.05,1.37-1.71,3.19l44.9,366.45c.83,6.84,4.92,12.84,10.92,16.09l184.86,100.06c-118.27-2.01-209.56,16.06-205.12,134.16,6.17,162.92,63.02,698.88,81.88,841.34,.67,4.84,4.75,8.34,9.59,8.34h4.25l.58,29.68c-8.77-.98-15.75,4.15-18.18,11.17l-9.76,27.52-91.89,31.27c-13.76,4.67-22.93,17.59-22.85,32.1,.08,3.67,3.09,6.67,6.75,6.67,28.78-.25,259.23-1.67,260.07-1.67,3.67,0,6.67-3,6.67-6.75-.12-24.21-.25-35.62-.25-35.35,0-4.93-2.22-16.15-4.67-22.26-4.5-12.42-13.42-26.43-30.85-32.1l-.83-41.11c21.85-3.67,39.11-21.43,41.61-44.28l25.27-412.16c8.07-60.77,11.27-124.97,22.85-184.94l6.75-28.6c9,195.81,46.86,458.56,80.13,651.72,2,11.09,11.59,19.1,22.85,19.1h4.09l.58,29.68c-8.47-1.06-15.63,4.07-18.18,11.17l-9.76,27.52-91.89,31.27c-13.67,4.67-22.85,17.59-22.76,32.1,0,3.67,3,6.67,6.75,6.67,276.55-2.35,261.34-.04,264.74-3.67,3.2-3.2,1.37-21.83,1.83-38.02-.1-23.25-12.3-48.87-35.6-56.45l-.83-41.02c23.01-3.84,41.02-23.26,42.53-47.36l17.76-569.59h251.48v597.19h-99.23c-12.26,0-22.18,10.01-22.18,22.26v56.37c0,1.67,1.25,2.92,2.84,2.92h323.86c1.67,0,2.92-1.25,2.92-2.92v-56.37c0-12.26-9.92-22.26-22.18-22.26h-99.23v-597.19h177.94c17.01,0,31.35-12.17,34.19-28.93l118.9-709.51c2.84-17.09-7.42-33.85-23.85-38.86-45.94-14.01-88.05-18.59-125.91-16.93,.74-50.56,4.69-131.87-6.42-184.69-6.75-31.6-23.26-58.95-49.11-81.38-44.5-39.16-111.09-58.72-169.18-69.21l17.34-150.51c25.1,.44,35.15-17.49,37.27-42.61,51.28-70.29,69.12-119.82,52.7-147.25-13.34-22.35-44.78-22.51-56.37-21.76,5-18.59,22.35-92.8-9.84-108.98Zm-847.51,439.93c-21.85-7.84-62.95-37.94-85.55-55.12-19.43-14.96-67.86-71.56-54.53-84.88,3.67-3.5,7.42-4,11.34-1.42,.83,.92,20.85,23.6,35.27,34.77,2.74,2.28,6.76-2.05,3.59-4.59-13.01-10.09-31.52-30.69-34.19-33.6,0-.17-.08-.17-.08-.17-4.42-8.42-9.01-22.43-5.17-26.43,2.33-2.33,6.59-2.33,12.59,.25h.08c2.67,3.67,16.68,22.93,33.44,37.11,3.03,2.6,6.66-2.09,3.75-4.42-16.26-13.84-30.35-33.19-32.52-36.19q0-.08-.08-.17c-6.41-24.99,5.91-29.14,9.34-22.76,3.69,7.75,23.41,31.88,29.1,38.94,2.37,2.96,6.81-.33,4.75-3.42-8.17-11.92-11.34-53.45-8.67-57.62,2.92-2.5,5.59-3.42,7.75-2.67,4.75,1.58,7.84,10.51,8.51,13.59,9.67,39.36,59.87,81.88,67.37,87.89,.83,5.59,5.25,30.94,16.09,44.11,2.46,2.81,7.07-.79,4.5-3.75-10.92-13.26-15.01-41.94-15.01-42.27l-.08-.08c.08-.08,0-.17,0-.25-4.59-28.1,10.59-66.54,27.93-71.04,15.78-4.65,18.46,69.99,20.51,88.47,2.01,20.76,22.06,54.61,33.27,70.63-1.92,19.51-30.47,65.24-53.53,76.63-8.64-10.3-36.09-39.68-39.77-41.52Zm417.5,469.03c21.65,174.81,7.49,60.26,17.09,138.67-19.77-3.49-59.43-.96-63.2,17.93-1.75,9,5.09,18.59,9.09,23.26-15.08,8.87-8.26,20.78,8.09,29.27-16.27,10.57-9.6,23.09,7.5,31.19-3.84,7.75-2.42,15.43,4.17,21.35,11.71,10.61,33.9,12.66,50.78,10.34,7.99,65.43,7.54,61.21,7.57,61.66,.82,11.23-7.66,18.1-16.33,17.47-.79-.08-74.84-7.76-79.63-8.25-68.34-9.66-184.36-19.29-185.19-19.35l-43.36-352.38c78.64,8,130.49,13.28,283.42,28.85Zm19.51,110.15c44.54,11.06,88,26.5,112.07,37.44h.08c20.64,25.23,34.6,53.69,34.6,86.3-24.26,1.37-87.13,5.84-105.9,21.18-26.67,22.17-90.44,11.2-75.88-13.42,.84-.07,49.63-4.47,50.53-4.92,2.65-1.02,1.98-4.89-.67-5.42-.59-.2-51.98,4.64-51.36,4.59-5.07-2.25-15.03-7.87-15.43-13.42-.08-2.17,1.33-4.17,3.42-6,2.88-2.5,7.13-4.67,7.34-4.67l.17-.08c.84-.04,50.69-2.49,47.53-2.34,4.05-.2,3.49-6.03-.25-5.84-25.21,1.27-49.35,2.48-48.11,2.42-5.08-2.37-16.96-8.9-17.18-14.51-.08-3.25,4.09-6,7.84-7.84,.86,0,47.63,0,46.78,0,3.87,0,3.86-5.84,0-5.84-2.86,0-38.29,0-37.27,0h-8.84c-3.67-3.84-10.76-12.92-9.34-20.09,2.28-11.41,28.44-14.59,40.02-14.59,12.56,0,19.26,2.08,20.1,2.08,1.58,.43,3.43-.6,3.67-2.75v-.42l-3.92-31.85Zm19.68,160.85c9.34-2.08,18.09-5.75,24.93-11.42,12.51-10.26,48.95-15.51,78.71-18.18l.08,.08c2.83,5.05,15.55,29.64,24.68,26.52,10.51-2.65-55.35,13.99,322.03-81.38h.08c.08,0,.08-.08,.17-.08h.08c60.04-21.76,92.31-82.38,108.65-152.84-8.46,105.41-19.51,194.11-26.52,252.57,0,.17-.42,1.5-1.42,3.84-8,18.34-56.03,96.39-290.42,80.05-64.2-4.56-146.24-7.28-241.81-17.34,8.13-6.08,8.95-13.64,8.39-20.01-.09-.98-7.76-62.74-7.64-61.79Zm-505.64-432.93c72.38,14.34,122.57,58.12,186.11,113.57,.58,.5,1.5,.75,2.34,.67,74.88-10.76,175.94-.67,263.99,26.43l9.84,14.01-.08,1-281.58-28.77-195.53-121.74,14.93-5.17Zm34.35,382.23c-4.42-2.33-7.34-6.67-8-11.59l-44.36-360.47,194.95,121.41,43.19,351.29-185.78-100.64Zm-63.62,1220.81c-.08-12.01,7.5-22.68,18.84-26.52l6.5-2.17-6.59,29.43c-16.22-.29-18.76,.86-18.76-.75Zm256.24-60.62c-18.45,2.19-30.39,21.6-23.85,39.27l-175.02,1.17c-3.88,0-3.83,5.84,0,5.84,126.32-.82,75.92-.49,204.37-1.33-.27,12.23,.9,14.84-.83,14.84l-236.14,1.5,7-31.6c84.25-29.11,81.14-26.63,82.13-29.1l10.26-28.93c2.8-7.81,12.88-10.02,18.68-3.92,3.37,3.52,2.91,7,3.09,7.84,1.08,10.34,8.26,30.35,27.68,32.19,18.33,1.93,39.63-7.14,55.03-33.52,9.5,1.46,24.48,13.32,27.6,25.76Zm-114.23-71.12c3.68,0,84.71,0,83.22,0l.83,39.27c-.67,.25-1.25,.75-1.58,1.5-.17,.33-17.09,35.35-50.36,32.27-19.01-1.75-22.1-24.68-22.35-26.77-.08-6.42-3.75-12.01-9.09-14.76l-.67-31.52Zm172.6-641.3c-11.78,62.51-14.55,124.93-22.51,183.44l-25.27,412.25c-2.5,22.68-21.6,39.77-44.44,39.77h-90.39c-1.92,0-3.59-1.33-3.84-3.25-13.19-99.66-36.34-319.94-46.61-422.09-16.76-166.6-32.1-336.2-35.19-418.67-4.1-109.08,76.72-128.24,185.44-128.24,72.1,0,91.28,6.45,192.87,15.68-32.6,12.67-60.87,29.1-76.71,50.28-3.84,1.17-8.92,3.75-14.26,9.26-21.43,22.18-42.11,85.55-19.09,261.57Zm-16.18,773.04c-.08-12.01,7.5-22.68,18.84-26.52l6.42-2.17-6.59,29.43c-15.67-.28-18.68,.86-18.68-.75Zm256.15-60.62c-18.65,2.49-30.35,21.7-23.85,39.27l-175.02,1.17c-1.58,0-2.92,1.33-2.92,2.92,.08,1.58,1.33,2.92,2.92,2.92,8.07,0,53.43-.35,204.46-1.33l.08,13.92c0,.08-.92,.92-.92,.92l-236.14,1.5,7-31.6c84.25-29.11,81.14-26.63,82.13-29.1l10.17-28.93c2.82-7.87,13.01-9.97,18.76-3.92,1.83,1.92,3,4.59,3,7.59v.25c1.08,10.34,8.25,30.35,27.77,32.19,18.54,1.95,39.72-7.44,54.95-33.52,6.12-1.14,25.01,13.45,27.6,25.76Zm-114.15-71.12c3.58,0,85.58,0,83.13,0l.83,39.27c-.67,.25-1.25,.83-1.58,1.5-.17,.33-17.09,35.35-50.28,32.27-19.01-1.75-22.18-24.68-22.43-26.77-.08-6.42-3.67-11.92-9.01-14.76l-.67-31.52Zm146.84-726.18c-22.47,721.95-20.42,656.17-21.1,677.82-1.42,23.85-21.26,42.53-45.19,42.53h-90.47c-8.42,0-15.59-6-17.09-14.26-30.96-185.77-111.19-680.5-71.79-865.02,8.23-38.96,59.06-62.69,96.56-75.8q.08,0,.17-.08c234.17,25.04,217.75,19.07,337.2,27.6,89.96,6.31,242.65,3.16,290.76-73.04-7,61.12-46.69,274.75-257.15,276l-218.96,1.42c-1.58,0-2.92,1.25-2.92,2.84Zm440.01,711.51c9.01,0,16.34,7.34,16.34,16.43v53.45h-318.02v-53.45c0-9.09,7.34-16.43,16.43-16.43h285.25Zm-180.19-5.84v-597.19h75.13v597.19h-75.13Zm262.16-1385.58c37.36-1.67,78.96,2.83,124.32,16.68,13.59,4.17,22.1,18.09,19.76,32.35l-118.9,709.42c-2.33,13.93-14.34,24.1-28.43,24.1h-516.06l3.09-99.64,216.13-1.42c167.63-1.02,254.74-143.62,264.41-297.43,7.23-61.59,17.24-136.49,27.18-260.66,.62-7.94,8.18-109.4,8.51-123.41Zm-59.29-267.58c24.85,21.68,40.77,47.95,47.19,78.3,13.19,62.07,6.04,194.03,1.75,257.49-10.51,92.64-40.77,182.36-114.99,209.46-.08,0-.17,.08-.25,.08-22.73,5.74-295.73,74.67-318.61,80.46,9.15-43.93-5.04-85.99-34.1-118.74h-.08c-3.25-4.46-12.48-13.68-15.59-16.68-3.4,1.22,70.55-25.38,240.89-86.64v-.08l121.82-43.78c1.5-.58,2.33-2.25,1.75-3.75-.5-1.5-2.17-2.34-3.75-1.75-2.36,.85-28.55,10.28-123.41,44.44l-243.73,87.72c-1.04,.42-2,1.36-2,3.5,.08,2.42,.17,4.84,.33,7.17-42.69-16.51-83.63-26.77-92.81-29.02-.21-1.69,0,.06-.23-1.84,0,0,0,0,0,0-14.52-117.83-12.8-105.35-13.78-106.82l-2.83-4.17c4.16-42.92,17.74-182.16,21.93-225.47-.2-3.26-5.35-3.89-5.75-.08-.09,.85-3.62,35.92-3.5,34.77-10.92,5.59-83.3,42.19-109.82,37.02-93.47-18.09-258.99-206.71-299.93-254.9,33.86,3.08,80.15-68.78,78.21-98.48l265.82,174.35c.83,.58,1.92,.67,2.84,.17l135.58-65.37,.08-.08c28.53-11.45,70.35-44.41,144.5-39.77,5.92,211.85,6.76,264.69,7.95,277.79,.53,5.81,4.24,4.93,5.31,2.79,63.52-118.82-98.18,183.57,142.25-266.07,57.42,10.31,122.96,29.58,166.93,67.96Zm-150.34-229.97c-1.58-.08-2.92,1-3.17,2.58,0,.01,0,.02,0,.03,.66-5.71-10.11,88.11-17.84,155.4-6.42,12.01-35.93,67.21-56.2,105.14-37.36,13.01-65.54,9.01-86.13-12.42-.06-1.97,.17,5.93-3-105.98,.06-.85,2.84-41.02,2.67-38.52h62.12c3.87,0,3.86-5.84,0-5.84h-64.45c-84.3-10.34-98.31-56.2-96.47-148.67,.57-33.43,2.57-102.13,19.18-131,21.01,37.86,81.05,50.28,183.03,37.86-7.42,8.09-11.76,17.68-12.84,28.6-3.59,35.6,27.85,73.21,29.18,74.79,1.85,2.04,5.17,.8,5.17-1.92,.08-2.92,.25-8.09,.58-9.67,4.75-18.84,13.43-29.93,24.93-32.1,14.76-2.75,32.35,9.34,41.36,22.1,4.92,7,5.75,17.68,5.84,20.85-1.88,24.04-9.98,40.5-33.94,38.77Z"/>
  <path class="cls-8" d="M3511.23,1532.72c-.18-1.42-.29-2.36,0,0h0Z"/>
  <path class="cls-8" d="M3685.78,798.11c-2.75,6-.33,13.26,5.67,16.84,5.48,3.29,13.2,2.81,18.01-.92,2.93-2.15-.33-7.03-3.59-4.59-3.02,2.3-7.83,2.52-11.42,.5-3.42-2.08-4.92-6.17-3.42-9.42,1.91-4.14,7.34-5.99,12.01-8.5,9.59-5.5,14.26-16.43,11.01-26.02-1.2-3.61-6.7-1.87-5.5,1.92,2.33,6.92-1.25,14.93-8.42,19.01-4.39,2.39-11.56,4.78-14.34,11.17Z"/>
  <path class="cls-8" d="M3718.05,846.89c-9.52,10.45-26.46,11.76-36.02-3.84-.94-1.6-2.57-1.73-3.81-1.09-1.37,.71-2.26,2.38-1.19,4.09,11.97,19.33,33.24,17.76,45.28,4.84,1.08-1.17,1-3.08-.17-4.17-1.17-1.08-3-1-4.09,.17Z"/>
  <path class="cls-8" d="M3777.5,761.17c-10.26-6.34-21.93-10.67-33.6-12.59-4.02-.58-4.73,5.16-1,5.75,11.01,1.75,21.93,5.84,31.52,11.84,3.59,1.8,6.15-2.89,3.09-5Z"/>
  <path class="cls-8" d="M3690.7,741.91c3.19,1.91,6.24-3.38,2.67-5.17-10.59-5.59-22.43-9.26-34.27-10.59-4.12-.22-4.29,5.45-.67,5.84,11.09,1.17,22.26,4.67,32.27,9.92Z"/>
  <path class="cls-8" d="M3749.49,783.19c-5.84-1.25-11.92,4-13.59,11.67-1.67,7.67,1.67,15.09,7.59,16.34,5.75,1.25,11.92-4,13.59-11.67,1.67-7.67-1.67-15.01-7.59-16.34Z"/>
  <path class="cls-8" d="M3670.44,756.59c-5.42-1.25-11.26,3.67-12.84,10.92-1.5,7.26,1.58,14.17,7.17,15.43,5.5,1.17,11.26-3.75,12.84-11.01,1.58-7.34-1.67-14.17-7.17-15.34Z"/>
  <path class="cls-8" d="M3896.91,777.52c-1.5-.42-3.17,.5-3.59,2.08-.42,1.58,.58,3.17,2.08,3.59,.08,0,10.42,2.83,13.26,10.59,1.83,5.09,0,11.34-5.25,18.76-1,1.33-.67,3.17,.67,4.09,1.31,.87,3.13,.57,4.09-.67,6.5-9.01,8.51-17.18,6-24.18-3.84-10.59-16.68-14.09-17.26-14.26Z"/>
  <path class="cls-5" d="M52.53,2415.5c24.97-3.66,33.65-21.51,50.78-42.02,20.89,27.08,54.3,56.79,86.55,46.53,3.3,17.26,3.9,29.51,3.25,141.08H70.04c-5.75,0-10.42,4.67-10.42,10.42v44.61c0,5.75,4.67,10.42,10.42,10.42h9.17s0,.03,0,.04c0,0,0,0,0-.01,0,.01,0,.02,0,.03,112.48,509.13-79.41-357.68,41.85,188.47,2.84,12.51,13.59,21.18,26.35,21.18h148.67c12.76,0,23.51-8.67,26.35-21.18,122.84-553.28-75.05,340.62,41.85-188.47,0-.01,0-.02,0-.03,0,0,0,0,0,.01,0-.01,0-.03,0-.04h9.17c5.75,0,10.42-4.67,10.42-10.42v-44.61c0-5.75-4.67-10.42-10.42-10.42h-117.07c.5-11.09,2.33-21.35,5-30.77,63.61,35.15,105.2-3.79,133.08-70.88,.83-2,1.67-3.92,2.5-5.75,11.51-2.67,38.52,5.84,47.78,11.59,19.95,12.25,42.3,9.45,53.45-12.84,3-6,3.34-12.34,1.17-18.84-7.34-21.35-40.44-37.52-41.86-38.19h-.17q-.08-.08-.17-.08c-83.72-35.44-163.01,3.5-201.37,54.78-23.74,31.8-18.68,59.81,.92,76.8-3.25,10.51-5.42,21.85-6.09,34.19h-32.94c1.42-46.78,15.93-98.39,31.1-141.92,43.57,6.23,78.28-52.23,91.64-92.31,.83-2.42,19.01-59.2-4.75-141.33-7.75-26.85-18.93-47.53-33.19-61.45-37.01-36.44-107.35-9.39-90.89,51.45,15.1,56.8,23.63,60.5,14.51,99.89-9.47,40.69-22.72,130.11,16.93,142.5-15.18,43.86-29.77,95.81-31.1,143.17h-13.01c.67-116.04-.16-126.6-3.59-143.42,3.59-1.83,5.84-3.75,6.92-4.75,12.42-11.67,20.26-63.2,.58-97.81-17.18-30.02-54.62-40.44-114.48-31.85-47.03,6.84-72.38,30.77-79.8,49.2l-.08,.08c0,.08-.08,.25-.08,.33-24.65,53.71,9.3,87.99,44.11,82.63Zm207.96,38.11c39.78-53.12,113.07-82.2,185.19-56.53-10.34,3.44-17.8,7.51-26.75,15.55-13.78,12-22.9,27.75-29.86,44.57-26.53,63.87-64.53,101.47-125.57,67.71,0,0-.08-.08-.25-.25,20.85-62.95,81.55-90.39,85.13-91.89,3.58-1.59,1.15-6.89-2.33-5.34-.92,.33-64.21,28.85-87.22,93.47-15.97-15.97-19.45-38.99,1.67-67.29Zm-28.68-176.86c9.4-40.8,.81-45.46-14.51-102.73-15.09-55.49,48.57-77.79,81.13-45.78,40.36,39.37,52.57,140.62,36.52,196.78-.33,1-33.19,94.56-84.13,88.47,7.09-20.01,14.26-38.11,20.1-53.03,41.78-106.31,.33-194.03-.08-194.95l-5.25,2.58c.42,.83,40.77,86.39-.08,190.28-6,15.18-13.26,33.6-20.43,53.95-35.27-10.15-21.51-99.81-13.26-135.58Zm89.89,514.72H121.82l-36.61-164.93H358.29l-36.61,164.93Zm51.78-224.55c2.5,0,4.59,2.08,4.59,4.59v44.61c0,2.59-2.08,4.59-4.59,4.59H70.04c-2.5,0-4.59-2-4.59-4.59v-44.61c0-2.5,2.08-4.59,4.59-4.59H373.47ZM17.09,2328.44c15.99-23.98,44.26-35.32,72.13-39.36,57.28-8.25,92.81,1.17,108.56,28.93,18.18,31.85,11.51,80.3,.5,90.64-.75,.67-2.08,1.83-4.25,3.09-16.01-68.46-69.62-97.98-70.29-98.31-3.28-1.73-6.24,3.33-2.75,5.17,.58,.33,52.53,28.93,67.62,95.56-4,1.42-9.17,2.33-15.59,1.83-34.62-2.77-63.08-44.41-69.63-51.78-21.9-26.78-53.62-45.28-86.3-35.77Z"/>
  <path class="cls-8" d="M4300,35.51c0-11.29-9.19-20.48-20.48-20.48h-486.02c-11.29,0-20.48,9.19-20.48,20.48V324.06c0,11.3,9.19,20.49,20.48,20.49h58.29v81.69c0,10.7,12.42,16.64,20.76,9.84l111.84-91.53h295.12c11.29,0,20.48-9.19,20.48-20.49V35.51Zm-5.83,288.55c0,8.08-6.57,14.65-14.65,14.65h-296.16c-.68,0-1.33,.23-1.85,.66l-112.65,92.19c-4.53,3.71-11.23,.44-11.23-5.32v-84.6c0-1.61-1.3-2.92-2.92-2.92h-61.21c-8.08,0-14.65-6.57-14.65-14.65V35.51c0-8.08,6.57-14.64,14.65-14.64h486.02c8.08,0,14.65,6.57,14.65,14.64V324.06Z"/>
  <path class="cls-8" d="M2007.21,2842.72h699.85c31.49,0,57.1-25.61,57.1-57.1v-369.19c17.7-2.47,31.41-17.55,31.41-35.92,0-20.15-16.26-36.43-36.42-36.43h-26.07c-1.54-34.03-29.62-61.26-64.03-61.26h-182.61l-10.46-51.6c-.28-1.36-1.47-2.34-2.86-2.34h-231.91c-1.39,0-2.58,.98-2.86,2.34l-10.51,51.6h-182.61c-34.4,0-62.49,27.23-64.03,61.26h-26.07c-20.08,0-36.43,16.34-36.43,36.43,0,17.76,12.75,33.37,31.41,35.94v369.17c0,31.48,25.61,57.1,57.09,57.1Zm751.12-57.1c0,28.26-23,51.26-51.27,51.26h-699.85c-28.26,0-51.26-23-51.26-51.26v-368.68h802.38v368.68Zm-514.73-550.9h227.13l9.76,48.1h-246.69l9.8-48.1Zm-198.36,53.94h623.81c31.19,0,56.75,24.6,58.27,55.42h-740.35c1.52-30.82,27.08-55.42,58.27-55.42Zm-120.69,91.86c0-16.87,13.72-30.59,30.59-30.59h804.01c16.91,0,30.59,13.66,30.59,30.59s-13.73,30.59-30.59,30.59h-804.01c-16.86,0-30.59-13.6-30.59-30.59Z"/>
  <path class="cls-8" d="M2355.79,2766.6c77.01,0,140.28-62.65,141.04-139.66,.78-77.21-61.09-139.71-138.33-139.71s-140.27,62.65-141.04,139.65c-.77,77.21,61.08,139.72,138.33,139.72Zm2.71-273.53c73.98,0,133.22,59.82,132.5,133.82-.73,73.82-61.39,133.88-135.21,133.88s-133.22-59.83-132.49-133.82c.73-73.82,61.38-133.87,135.2-133.87Z"/>
  <path class="cls-8" d="M2292.21,2664.22c4.01,7.09,12.99,9.79,20.67,5.66l29.2-16.84-.33,32.89c-.08,8.44,6.64,15.21,15.06,15.21s15.1-6.8,15.19-15.15l.32-32.31,28.39,16.55c7.06,3.96,16.08,1.88,20.57-5.49,.01-.02,.02-.04,.04-.06,4.2-7.29,1.86-16.37-5.35-20.7l-28.87-16.75,28.68-16.53c7.23-4.14,9.8-13.37,5.71-20.58-4.12-7.27-13.39-9.66-20.55-5.55l-28.08,16.08,.33-32.8c.08-8.41-6.62-15.21-14.95-15.21s-15.21,6.8-15.3,15.15l-.33,33.65-28.37-16.54c-7.22-4.11-16.52-1.64-20.72,5.51-4.24,7.22-1.8,16.46,5.34,20.61l27.77,16.18-28.72,16.46c-7.3,4.35-9.64,13.33-5.67,20.55Zm8.61-15.51l33.06-18.94c1.94-1.11,1.97-3.92,.02-5.05l-32.14-18.72c-4.36-2.54-5.83-8.19-3.24-12.61,2.59-4.41,8.33-5.94,12.77-3.41l32.69,19.05c1.96,1.14,4.36-.28,4.39-2.49l.38-38.67c.05-5.17,4.3-9.37,9.46-9.37s9.16,4.1,9.11,9.31l-.38,37.88c-.02,2.25,2.41,3.68,4.37,2.56l32.51-18.61c4.48-2.56,10.1-.99,12.57,3.36,2.5,4.42,.92,10.08-3.54,12.64l-33.06,19.06c-1.94,1.12-1.95,3.93,0,5.05l33.21,19.26c4.41,2.64,5.85,8.23,3.28,12.72-2.82,4.58-8.22,5.91-12.67,3.43l-32.69-19.06c-1.95-1.14-4.36,.27-4.39,2.49l-.37,37.33c-.05,5.17-4.24,9.37-9.35,9.37s-9.27-4.13-9.22-9.31l.38-38c.02-2.26-2.42-3.68-4.38-2.56l-33.55,19.35c-4.84,2.59-10.34,.82-12.73-3.41-2.51-4.55-.9-10.03,3.51-12.66Z"/>
</svg>