<svg width="521" height="723" viewBox="0 0 521 723" fill="none" xmlns="http://www.w3.org/2000/svg">
<path d="M474 45H149.022C91.0201 45 44 92.0202 44 150.022V150.022C44 208.025 91.0202 255.045 149.022 255.045H368.978C426.98 255.045 474 302.065 474 360.067V360.067C474 418.07 426.98 465.09 368.978 465.09H147.455C90.3184 465.09 44 511.408 44 568.545V568.545C44 625.682 90.3184 672 147.455 672H474" stroke="#10292D"/>
<g filter="url(#filter0_d_3537_62692)">
<circle cx="471" cy="45" r="38" fill="white"/>
</g>
<path d="M465.71 34.25V30.298H473.614V58H469.244V34.25H465.71Z" fill="#748F0F"/>
<g filter="url(#filter1_d_3537_62692)">
<circle cx="46" cy="138" r="38" fill="white"/>
</g>
<path d="M38.674 145.11C41.106 143.007 43.0187 141.285 44.412 139.942C45.8307 138.574 47.0087 137.155 47.946 135.686C48.8833 134.217 49.352 132.747 49.352 131.278C49.352 129.758 48.9847 128.567 48.25 127.706C47.5407 126.845 46.4133 126.414 44.868 126.414C43.3733 126.414 42.208 126.895 41.372 127.858C40.5613 128.795 40.1307 130.062 40.08 131.658H35.9C35.976 128.77 36.8373 126.566 38.484 125.046C40.156 123.501 42.2713 122.728 44.83 122.728C47.5913 122.728 49.7447 123.488 51.29 125.008C52.8607 126.528 53.646 128.555 53.646 131.088C53.646 132.912 53.1773 134.673 52.24 136.37C51.328 138.042 50.226 139.549 48.934 140.892C47.6673 142.209 46.046 143.742 44.07 145.49L42.36 147.01H54.406V150.62H35.938V147.466L38.674 145.11Z" fill="#748F0F"/>
<g filter="url(#filter2_d_3537_62692)">
<circle cx="471" cy="359" r="38" fill="white"/>
</g>
<path d="M462.204 351.138C462.356 348.782 463.255 346.945 464.902 345.628C466.574 344.311 468.702 343.652 471.286 343.652C473.059 343.652 474.592 343.969 475.884 344.602C477.176 345.235 478.151 346.097 478.81 347.186C479.469 348.275 479.798 349.504 479.798 350.872C479.798 352.443 479.38 353.785 478.544 354.9C477.708 356.015 476.707 356.762 475.542 357.142V357.294C477.037 357.75 478.202 358.586 479.038 359.802C479.874 360.993 480.292 362.525 480.292 364.4C480.292 365.895 479.95 367.225 479.266 368.39C478.582 369.555 477.569 370.48 476.226 371.164C474.883 371.823 473.275 372.152 471.4 372.152C468.664 372.152 466.409 371.455 464.636 370.062C462.888 368.643 461.951 366.617 461.824 363.982H466.004C466.105 365.325 466.625 366.427 467.562 367.288C468.499 368.124 469.766 368.542 471.362 368.542C472.907 368.542 474.098 368.124 474.934 367.288C475.77 366.427 476.188 365.325 476.188 363.982C476.188 362.209 475.618 360.955 474.478 360.22C473.363 359.46 471.641 359.08 469.31 359.08H468.322V355.508H469.348C471.4 355.483 472.958 355.141 474.022 354.482C475.111 353.823 475.656 352.785 475.656 351.366C475.656 350.15 475.263 349.187 474.478 348.478C473.693 347.743 472.578 347.376 471.134 347.376C469.715 347.376 468.613 347.743 467.828 348.478C467.043 349.187 466.574 350.074 466.422 351.138H462.204Z" fill="#748F0F"/>
<g filter="url(#filter3_d_3537_62692)">
<circle cx="46" cy="582" r="38" fill="white"/>
</g>
<path d="M33.748 589.224V585.956L46.516 567.64H51.76V585.462H55.294V589.224H51.76V595H47.504V589.224H33.748ZM47.694 572.048L38.726 585.462H47.694V572.048Z" fill="#748F0F"/>
<g filter="url(#filter4_d_3537_62692)">
<circle cx="471" cy="672" r="38" fill="white"/>
</g>
<path d="M478.14 661.022H465.41V668.584C465.942 667.875 466.727 667.279 467.766 666.798C468.83 666.317 469.957 666.076 471.148 666.076C473.276 666.076 474.999 666.532 476.316 667.444C477.659 668.356 478.609 669.509 479.166 670.902C479.749 672.295 480.04 673.765 480.04 675.31C480.04 677.185 479.673 678.857 478.938 680.326C478.229 681.77 477.152 682.91 475.708 683.746C474.289 684.582 472.541 685 470.464 685C467.703 685 465.486 684.316 463.814 682.948C462.142 681.58 461.141 679.769 460.812 677.514H465.03C465.309 678.705 465.929 679.655 466.892 680.364C467.855 681.048 469.058 681.39 470.502 681.39C472.301 681.39 473.643 680.845 474.53 679.756C475.442 678.667 475.898 677.223 475.898 675.424C475.898 673.6 475.442 672.207 474.53 671.244C473.618 670.256 472.275 669.762 470.502 669.762C469.261 669.762 468.209 670.079 467.348 670.712C466.512 671.32 465.904 672.156 465.524 673.22H461.42V657.222H478.14V661.022Z" fill="#748F0F"/>
<defs>
<filter id="filter0_d_3537_62692" x="425" y="0" width="96" height="96" filterUnits="userSpaceOnUse" color-interpolation-filters="sRGB">
<feFlood flood-opacity="0" result="BackgroundImageFix"/>
<feColorMatrix in="SourceAlpha" type="matrix" values="0 0 0 0 0 0 0 0 0 0 0 0 0 0 0 0 0 0 127 0" result="hardAlpha"/>
<feOffset dx="2" dy="3"/>
<feGaussianBlur stdDeviation="5"/>
<feComposite in2="hardAlpha" operator="out"/>
<feColorMatrix type="matrix" values="0 0 0 0 0 0 0 0 0 0 0 0 0 0 0 0 0 0 0.1 0"/>
<feBlend mode="normal" in2="BackgroundImageFix" result="effect1_dropShadow_3537_62692"/>
<feBlend mode="normal" in="SourceGraphic" in2="effect1_dropShadow_3537_62692" result="shape"/>
</filter>
<filter id="filter1_d_3537_62692" x="0" y="93" width="96" height="96" filterUnits="userSpaceOnUse" color-interpolation-filters="sRGB">
<feFlood flood-opacity="0" result="BackgroundImageFix"/>
<feColorMatrix in="SourceAlpha" type="matrix" values="0 0 0 0 0 0 0 0 0 0 0 0 0 0 0 0 0 0 127 0" result="hardAlpha"/>
<feOffset dx="2" dy="3"/>
<feGaussianBlur stdDeviation="5"/>
<feComposite in2="hardAlpha" operator="out"/>
<feColorMatrix type="matrix" values="0 0 0 0 0 0 0 0 0 0 0 0 0 0 0 0 0 0 0.1 0"/>
<feBlend mode="normal" in2="BackgroundImageFix" result="effect1_dropShadow_3537_62692"/>
<feBlend mode="normal" in="SourceGraphic" in2="effect1_dropShadow_3537_62692" result="shape"/>
</filter>
<filter id="filter2_d_3537_62692" x="425" y="314" width="96" height="96" filterUnits="userSpaceOnUse" color-interpolation-filters="sRGB">
<feFlood flood-opacity="0" result="BackgroundImageFix"/>
<feColorMatrix in="SourceAlpha" type="matrix" values="0 0 0 0 0 0 0 0 0 0 0 0 0 0 0 0 0 0 127 0" result="hardAlpha"/>
<feOffset dx="2" dy="3"/>
<feGaussianBlur stdDeviation="5"/>
<feComposite in2="hardAlpha" operator="out"/>
<feColorMatrix type="matrix" values="0 0 0 0 0 0 0 0 0 0 0 0 0 0 0 0 0 0 0.1 0"/>
<feBlend mode="normal" in2="BackgroundImageFix" result="effect1_dropShadow_3537_62692"/>
<feBlend mode="normal" in="SourceGraphic" in2="effect1_dropShadow_3537_62692" result="shape"/>
</filter>
<filter id="filter3_d_3537_62692" x="0" y="537" width="96" height="96" filterUnits="userSpaceOnUse" color-interpolation-filters="sRGB">
<feFlood flood-opacity="0" result="BackgroundImageFix"/>
<feColorMatrix in="SourceAlpha" type="matrix" values="0 0 0 0 0 0 0 0 0 0 0 0 0 0 0 0 0 0 127 0" result="hardAlpha"/>
<feOffset dx="2" dy="3"/>
<feGaussianBlur stdDeviation="5"/>
<feComposite in2="hardAlpha" operator="out"/>
<feColorMatrix type="matrix" values="0 0 0 0 0 0 0 0 0 0 0 0 0 0 0 0 0 0 0.1 0"/>
<feBlend mode="normal" in2="BackgroundImageFix" result="effect1_dropShadow_3537_62692"/>
<feBlend mode="normal" in="SourceGraphic" in2="effect1_dropShadow_3537_62692" result="shape"/>
</filter>
<filter id="filter4_d_3537_62692" x="425" y="627" width="96" height="96" filterUnits="userSpaceOnUse" color-interpolation-filters="sRGB">
<feFlood flood-opacity="0" result="BackgroundImageFix"/>
<feColorMatrix in="SourceAlpha" type="matrix" values="0 0 0 0 0 0 0 0 0 0 0 0 0 0 0 0 0 0 127 0" result="hardAlpha"/>
<feOffset dx="2" dy="3"/>
<feGaussianBlur stdDeviation="5"/>
<feComposite in2="hardAlpha" operator="out"/>
<feColorMatrix type="matrix" values="0 0 0 0 0 0 0 0 0 0 0 0 0 0 0 0 0 0 0.1 0"/>
<feBlend mode="normal" in2="BackgroundImageFix" result="effect1_dropShadow_3537_62692"/>
<feBlend mode="normal" in="SourceGraphic" in2="effect1_dropShadow_3537_62692" result="shape"/>
</filter>
</defs>
</svg>
