<?xml version="1.0" encoding="UTF-8"?>
<!DOCTYPE svg PUBLIC "-//W3C//DTD SVG 1.1//EN" "http://www.w3.org/Graphics/SVG/1.1/DTD/svg11.dtd">
<svg xmlns="http://www.w3.org/2000/svg" version="1.1" width="64px" height="64px" style="shape-rendering:geometricPrecision; text-rendering:geometricPrecision; image-rendering:optimizeQuality; fill-rule:evenodd; clip-rule:evenodd" xmlns:xlink="http://www.w3.org/1999/xlink">
<g><path style="opacity:0.933" fill="#9abe13" d="M 21.5,5.5 C 20.6618,5.84171 20.3284,6.50838 20.5,7.5C 19.6618,7.84171 19.3284,8.50838 19.5,9.5C 14.4682,11.3699 9.13483,12.0366 3.5,11.5C 3.5,8.83333 3.5,6.16667 3.5,3.5C 9.92619,2.88 15.9262,3.54666 21.5,5.5 Z M 6.5,6.5 C 8.33702,6.63945 8.67036,7.30612 7.5,8.5C 6.70245,8.04311 6.36912,7.37644 6.5,6.5 Z M 12.5,6.5 C 14.337,6.63945 14.6704,7.30612 13.5,8.5C 12.7025,8.04311 12.3691,7.37644 12.5,6.5 Z"/></g>
<g><path style="opacity:0.667" fill="#9abe13" d="M 25.5,5.5 C 24.6618,5.84171 24.3284,6.50838 24.5,7.5C 23.6618,7.84171 23.3284,8.50838 23.5,9.5C 22.8444,10.2778 22.0111,10.9444 21,11.5C 19.9701,11.1639 19.4701,10.4972 19.5,9.5C 20.3382,9.15829 20.6716,8.49162 20.5,7.5C 21.3382,7.15829 21.6716,6.49162 21.5,5.5C 22.1556,4.72225 22.9889,4.05558 24,3.5C 25.0299,3.83611 25.5299,4.50278 25.5,5.5 Z"/></g>
<g><path style="opacity:0.982" fill="#99be13" d="M 23.5,9.5 C 24.3382,9.15829 24.6716,8.49162 24.5,7.5C 25.3382,7.15829 25.6716,6.49162 25.5,5.5C 36.5798,3.55601 47.9131,2.88934 59.5,3.5C 59.5,6.16667 59.5,8.83333 59.5,11.5C 47.1201,12.1458 35.1201,11.4791 23.5,9.5 Z"/></g>
<g><path style="opacity:0.978" fill="#99be13" d="M 3.5,13.5 C 22.1667,13.5 40.8333,13.5 59.5,13.5C 59.5,28.8333 59.5,44.1667 59.5,59.5C 40.8333,59.5 22.1667,59.5 3.5,59.5C 3.5,44.1667 3.5,28.8333 3.5,13.5 Z M 15.5,17.5 C 21.4592,17.8122 26.7925,19.8122 31.5,23.5C 35.9474,20.1093 40.9474,18.1093 46.5,17.5C 47.498,26.1411 47.8314,34.8078 47.5,43.5C 41.6363,42.7432 36.3029,44.0765 31.5,47.5C 26.6971,44.0765 21.3637,42.7432 15.5,43.5C 15.5,34.8333 15.5,26.1667 15.5,17.5 Z M 23.5,47.5 C 20.1501,47.665 16.8168,47.4983 13.5,47C 13,46.5 12.5,46 12,45.5C 11.0348,37.0023 11.3681,28.6689 13,20.5C 13.4997,28.8267 13.6664,37.16 13.5,45.5C 17.0781,45.5488 20.4115,46.2154 23.5,47.5 Z M 39.5,47.5 C 42.5885,46.2154 45.9219,45.5488 49.5,45.5C 49.3336,37.16 49.5003,28.8267 50,20.5C 51.6319,28.6689 51.9652,37.0023 51,45.5C 50.5,46 50,46.5 49.5,47C 46.1832,47.4983 42.8499,47.665 39.5,47.5 Z"/></g>
<g><path style="opacity:0.763" fill="#99bd12" d="M 22.5,27.5 C 23.5,27.5 24.5,27.5 25.5,27.5C 25.6495,28.552 25.4828,29.552 25,30.5C 20.3333,32.5 20.3333,34.5 25,36.5C 25.4828,37.448 25.6495,38.448 25.5,39.5C 22.6851,38.8736 20.1851,37.5402 18,35.5C 17.3333,34.1667 17.3333,32.8333 18,31.5C 19.9923,30.6719 21.4923,29.3386 22.5,27.5 Z"/></g>
<g><path style="opacity:0.76" fill="#9bbc11" d="M 32.5,27.5 C 33.5,27.5 34.5,27.5 35.5,27.5C 34.6784,32.9448 32.0117,36.9448 27.5,39.5C 28.6261,35.251 30.2928,31.251 32.5,27.5 Z"/></g>
<g><path style="opacity:0.763" fill="#99bd12" d="M 37.5,27.5 C 48.1667,31.5 48.1667,35.5 37.5,39.5C 37.3505,38.448 37.5172,37.448 38,36.5C 42.6667,34.5 42.6667,32.5 38,30.5C 37.5172,29.552 37.3505,28.552 37.5,27.5 Z"/></g>
</svg>
