<svg width="27" height="27" viewBox="0 0 27 27" fill="none" xmlns="http://www.w3.org/2000/svg">
<path d="M14 8.5C14.663 8.5 15.2989 8.76339 15.7678 9.23223C16.2366 9.70107 16.5 10.337 16.5 11C16.5 11.3283 16.4353 11.6534 16.3097 11.9567C16.1841 12.26 15.9999 12.5356 15.7678 12.7678C15.5356 12.9999 15.26 13.1841 14.9567 13.3097C14.6534 13.4353 14.3283 13.5 14 13.5C13.337 13.5 12.7011 13.2366 12.2322 12.7678C11.7634 12.2989 11.5 11.663 11.5 11C11.5 10.337 11.7634 9.70107 12.2322 9.23223C12.7011 8.76339 13.337 8.5 14 8.5ZM14 4C15.8565 4 17.637 4.7375 18.9497 6.05025C20.2625 7.36301 21 9.14348 21 11C21 16.25 14 24 14 24C14 24 7 16.25 7 11C7 9.14348 7.7375 7.36301 9.05025 6.05025C10.363 4.7375 12.1435 4 14 4ZM14 6C12.6739 6 11.4021 6.52678 10.4645 7.46447C9.52678 8.40215 9 9.67392 9 11C9 12 9 14 14 20.71C19 14 19 12 19 11C19 9.67392 18.4732 8.40215 17.5355 7.46447C16.5979 6.52678 15.3261 6 14 6Z" fill="white"/>
</svg>
