<?xml version="1.0" encoding="UTF-8"?>
<svg id="Layer_1" data-name="Layer 1" xmlns="http://www.w3.org/2000/svg" viewBox="0 0 612.84 204.97">
  <defs>
    <style>
      .cls-1 {
        fill: #10292d;
      }

      .cls-2 {
        fill: #9abf14;
      }
    </style>
  </defs>
  <g>
    <path class="cls-1" d="M34.03,120.56l5.67-8.05c3.46,3.65,8.83,6.71,15.6,6.71,5.74,0,8.54-2.68,8.54-5.51,0-8.79-28.26-2.76-28.26-21.46,0-8.27,7.07-15.13,18.62-15.13,7.8,0,14.28,2.38,19.13,6.93l-5.81,7.75c-3.97-3.73-9.27-5.44-14.28-5.44-4.49,0-6.99,2.01-6.99,4.99,0,7.9,28.19,2.61,28.19,21.16,0,9.09-6.4,15.94-19.65,15.94-9.42,0-16.19-3.2-20.75-7.9Z"/>
    <path class="cls-1" d="M80.1,109.54c0-10.21,7.06-18.85,18.77-18.85s18.84,8.64,18.84,18.85-7.06,18.93-18.84,18.93-18.77-8.64-18.77-18.93Zm27.89,0c0-5.59-3.31-10.43-9.13-10.43s-9.05,4.84-9.05,10.43,3.24,10.51,9.05,10.51,9.13-4.84,9.13-10.51Z"/>
    <path class="cls-1" d="M127.78,127.57v-27.72h-5.89v-8.27h5.89v-1.94c0-7.67,4.86-12.52,11.99-12.52,3.39,0,6.99,.89,9.27,3.35l-3.53,5.59c-.96-.97-2.21-1.49-3.9-1.49-2.57,0-4.41,1.71-4.41,5.07v1.94h7.21v8.27h-7.21v27.72h-9.42Z"/>
    <path class="cls-1" d="M152.73,118.63v-18.78h-5.89v-8.27h5.89v-9.83h9.42v9.83h7.21v8.27h-7.21v16.24c0,2.24,1.18,3.95,3.24,3.95,1.4,0,2.72-.52,3.24-1.04l1.99,7.15c-1.4,1.27-3.9,2.31-7.8,2.31-6.55,0-10.08-3.43-10.08-9.84Z"/>
    <path class="cls-1" d="M256.71,127.57v-3.73c-2.43,2.91-6.62,4.62-11.26,4.62-5.67,0-12.36-3.87-12.36-11.92s6.7-11.62,12.36-11.62c4.71,0,8.9,1.56,11.26,4.4v-4.84c0-3.65-3.09-6.04-7.8-6.04-3.83,0-7.36,1.42-10.38,4.25l-3.53-6.33c4.34-3.87,9.94-5.66,15.53-5.66,8.09,0,15.53,3.28,15.53,13.64v23.25h-9.35Zm0-8.64v-4.47c-1.55-2.09-4.49-3.13-7.51-3.13-3.68,0-6.7,1.94-6.7,5.44s3.02,5.29,6.7,5.29c3.02,0,5.96-1.04,7.51-3.13Z"/>
    <path class="cls-1" d="M276.43,127.57v-35.99h9.35v4.92c2.5-3.2,6.92-5.81,11.33-5.81v9.24c-.66-.15-1.55-.22-2.58-.22-3.09,0-7.21,1.79-8.76,4.1v23.77h-9.35Z"/>
    <path class="cls-1" d="M301.74,109.54c0-10.43,7.58-18.85,18.4-18.85s17.81,8.05,17.81,19.82v2.09h-26.42c.59,4.55,4.2,8.34,10.23,8.34,3.02,0,7.21-1.34,9.49-3.58l4.12,6.11c-3.53,3.28-9.13,4.99-14.65,4.99-10.82,0-18.99-7.38-18.99-18.93Zm18.4-11.33c-5.81,0-8.32,4.4-8.76,7.97h17.52c-.22-3.43-2.58-7.97-8.76-7.97Z"/>
    <path class="cls-1" d="M361.84,127.57v-49.7h34.74v9.31h-24.29v10.51h23.77v9.31h-23.77v20.56h-10.45Z"/>
    <path class="cls-1" d="M404.39,127.57v-33.33h8.65v33.33h-8.65Z"/>
    <path class="cls-1" d="M446.99,127.57v-21.76c0-4.99-2.58-6.71-6.55-6.71-3.68,0-6.55,2.09-8.1,4.25v24.22h-9.35v-35.99h9.35v4.69c2.28-2.76,6.62-5.59,12.44-5.59,7.8,0,11.55,4.47,11.55,11.47v25.41h-9.35Z"/>
    <path class="cls-1" d="M491.14,127.57v-4.62c-2.8,3.58-6.7,5.51-10.96,5.51-8.98,0-15.75-6.85-15.75-18.85s6.7-18.93,15.75-18.93c4.2,0,8.17,1.86,10.96,5.51v-18.33h9.42v49.7h-9.42Zm0-11.62v-12.74c-1.54-2.38-4.93-4.1-8.1-4.1-5.3,0-8.98,4.25-8.98,10.51s3.68,10.43,8.98,10.43c3.17,0,6.55-1.71,8.1-4.1Z"/>
    <path class="cls-1" d="M508.66,109.54c0-10.43,7.58-18.85,18.4-18.85s17.81,8.05,17.81,19.82v2.09h-26.42c.59,4.55,4.2,8.34,10.23,8.34,3.02,0,7.21-1.34,9.49-3.58l4.12,6.11c-3.53,3.28-9.12,4.99-14.64,4.99-10.82,0-18.99-7.38-18.99-18.93Zm18.4-11.33c-5.81,0-8.31,4.4-8.76,7.97h17.51c-.22-3.43-2.57-7.97-8.76-7.97Z"/>
    <path class="cls-1" d="M552.73,127.57v-35.99h9.35v4.92c2.5-3.2,6.92-5.81,11.33-5.81v9.24c-.66-.15-1.55-.22-2.58-.22-3.09,0-7.21,1.79-8.76,4.1v23.77h-9.35Z"/>
  </g>
  <g>
    <path class="cls-2" d="M176.61,92.04s-1.56,1.17,.65,4.36c.04,.06,.08,.12,.11,.18l15.62,30.04c.29,.56,.88,.92,1.52,.88,.41-.03,.89-.19,1.36-.63,.07-.07,.13-.14,.19-.22l5.02-6.58c.18-.25,.35-.5,.52-.77,.26-.43,.72-1.03-.35-2.38-.75-.95-18.81-21.03-22.14-24.65-.45-.49-1.13-.74-1.78-.6-.27,.06-.53,.17-.72,.37Z"/>
    <path class="cls-2" d="M189.23,97.32s-1.21,1.63,1.94,4.15c.06,.04,.11,.09,.16,.14l24.42,25.35c.46,.47,1.15,.66,1.77,.43,.4-.15,.83-.45,1.17-1.03,.05-.09,.09-.18,.13-.28l3.07-8.04c.11-.3,.21-.6,.29-.92,.13-.5,.42-1.24-1.05-2.27-1.03-.72-24.95-15.42-29.34-18.06-.6-.36-1.34-.4-1.95-.07-.25,.13-.48,.32-.61,.58Z"/>
    <path class="cls-2" d="M215.46,104.76l7.57,4.97c.43,.28,.97,.37,1.45,.2,.4-.15,.81-.48,1.05-1.2,.55-1.66,4.84-12.25,5.21-13.18,.02-.05,.04-.1,.06-.16,.09-.31,.32-1.31-.25-1.87-.31-.3-.68-.57-1.08-.6-.46-.04-.97,.08-1.43,.39l-12.73,9.96s-.89,.66,.14,1.49Z"/>
  </g>
  <circle class="cls-2" cx="408.72" cy="85.33" r="5.26"/>
</svg>