<svg width="27" height="27" viewBox="0 0 27 27" fill="none" xmlns="http://www.w3.org/2000/svg">
<path d="M13.696 2.69778C12.1929 2.69778 10.7722 2.98668 9.43401 3.56448C8.09583 4.14228 6.92703 4.93053 5.9276 5.92921C4.92892 6.9279 4.14067 8.09634 3.56287 9.43452C2.98507 10.7727 2.69653 12.1934 2.69727 13.6965C2.69727 15.218 2.98617 16.6435 3.56397 17.9729C4.14177 19.3022 4.93002 20.4659 5.9287 21.4639C6.92739 22.4633 8.09546 23.2515 9.43291 23.8286C10.7704 24.4057 12.1914 24.6946 13.696 24.6953C15.2175 24.6953 16.643 24.4064 17.9724 23.8286C19.3017 23.2508 20.4654 22.4626 21.4634 21.4639C22.4628 20.4652 23.251 19.3012 23.8281 17.9718C24.4052 16.6424 24.6941 15.2173 24.6948 13.6965V12.1017C24.6948 11.0202 24.3238 10.0988 23.5817 9.33773C22.8397 8.57662 21.9275 8.19643 20.8452 8.19716C20.1853 8.19716 19.5712 8.34381 19.0029 8.63711C18.4347 8.93041 17.9672 9.31537 17.6006 9.79198C17.1057 9.29704 16.5235 8.90731 15.854 8.62281C15.1845 8.33831 14.4652 8.19643 13.696 8.19716C12.1745 8.19716 10.8774 8.73353 9.80467 9.80628C8.73192 10.879 8.19592 12.1758 8.19665 13.6965C8.19665 15.218 8.73302 16.5152 9.80577 17.5879C10.8785 18.6607 12.1753 19.1967 13.696 19.1959C15.2175 19.1959 16.5147 18.6596 17.5874 17.5868C18.6601 16.5141 19.1962 15.2173 19.1954 13.6965V12.1017C19.1954 11.5701 19.3604 11.1533 19.6904 10.8512C20.0203 10.5491 20.4053 10.3976 20.8452 10.3969C21.2852 10.3969 21.6701 10.5483 22.0001 10.8512C22.3301 11.154 22.495 11.5709 22.495 12.1017V13.6965C22.495 16.0979 21.6287 18.165 19.896 19.8977C18.1634 21.6303 16.0967 22.4963 13.696 22.4956C11.2946 22.4956 9.2276 21.6292 7.49493 19.8966C5.76226 18.1639 4.89629 16.0972 4.89702 13.6965C4.89702 11.2951 5.76336 9.22811 7.49603 7.49544C9.2287 5.76277 11.2954 4.8968 13.696 4.89753H19.1954V2.69778H13.696ZM13.696 10.3969C14.6126 10.3969 15.3917 10.7177 16.0333 11.3593C16.6749 12.0009 16.9957 12.78 16.9957 13.6965C16.9957 14.6131 16.6749 15.3922 16.0333 16.0338C15.3917 16.6754 14.6126 16.9962 13.696 16.9962C12.7795 16.9962 12.0004 16.6754 11.3588 16.0338C10.7172 15.3922 10.3964 14.6131 10.3964 13.6965C10.3964 12.78 10.7172 12.0009 11.3588 11.3593C12.0004 10.7177 12.7795 10.3969 13.696 10.3969Z" fill="white"/>
</svg>
