<svg width="42" height="42" viewBox="0 0 42 42" fill="none" xmlns="http://www.w3.org/2000/svg">
<path d="M37.6641 0.331055C38.7691 0.331055 39.8289 0.770041 40.6103 1.55144C41.3917 2.33284 41.8307 3.39265 41.8307 4.49772V29.4977C41.8307 30.6028 41.3917 31.6626 40.6103 32.444C39.8289 33.2254 38.7691 33.6644 37.6641 33.6644H8.4974L0.164062 41.9977V4.49772C0.164062 3.39265 0.603049 2.33284 1.38445 1.55144C2.16585 0.770041 3.22566 0.331055 4.33073 0.331055H37.6641ZM4.33073 4.49772V31.9352L6.76823 29.4977H37.6641V4.49772H4.33073ZM8.4974 10.7477H33.4974V14.9144H8.4974V10.7477ZM8.4974 19.0811H27.2474V23.2477H8.4974V19.0811Z" fill="#9ABF14"/>
</svg>
