<svg width="150" height="50" viewBox="0 0 150 50" fill="none" xmlns="http://www.w3.org/2000/svg">
<path d="M34.3145 39.5224C34.2947 39.5224 34.2748 39.5224 34.2352 39.5224C32.6488 39.4629 32.2522 38.1145 31.459 35.4176C31.0029 33.8907 30.4476 31.7689 29.7734 29.1513C29.4958 28.0408 29.2182 26.9304 28.9604 25.8397C28.6828 27.2476 28.425 28.6357 28.2267 29.7264C28.0482 30.6584 27.8896 31.5111 27.7508 32.225C27.3938 34.089 25.3315 34.2476 24.5581 34.3071C23.5071 34.3865 22.0397 34.3865 19.8386 34.3666C18.9859 34.3666 19.9179 34.3666 18.8669 34.3666L17.2012 30.6981C18.272 30.6981 19.0057 30.6782 19.8584 30.6782C21.6828 30.6782 23.3287 30.6981 24.2408 30.6386C24.34 30.1627 24.4193 29.5678 24.5383 29.0323C24.9745 26.6726 25.5298 23.7377 26.0255 21.4573C26.3032 20.1683 26.5213 19.2165 26.7196 18.5224C26.9774 17.5904 27.4136 16.0437 29 16.0238C29.8131 16.0238 30.6459 16.5592 30.9632 17.7292C31.4193 19.3949 32.8272 25.7802 34.1162 30.7179C34.9887 27.0493 36.0595 22.4884 36.9122 18.8794C37.7848 15.2108 38.459 12.3156 38.6969 11.3638C39.1729 9.42043 40.2238 9.02383 41.0369 9.04366C42.8612 9.08332 43.357 11.106 43.7734 12.8709C44.1502 14.4176 44.5666 16.5791 45.0425 19.0777C45.2012 19.9502 45.3797 20.8822 45.578 21.834C46.1332 24.6896 46.4306 26.5139 46.6091 27.7037C46.6289 27.8624 46.6686 28.021 46.6884 28.1796H54.6403L53.5496 31.9474H45.5978C43.4363 31.9474 43.1785 30.3411 42.8612 28.2986C42.6828 27.1287 42.4051 25.3638 41.8499 22.5677C41.6516 21.6159 41.4731 20.6839 41.3145 19.7915C41.1955 19.2165 41.0964 18.6216 40.9774 18.0267C40.8386 18.5819 40.7196 19.157 40.5808 19.7321C38.3598 29.1712 36.4958 37.0635 36.2182 38.055C35.9406 38.9474 35.187 39.5224 34.3145 39.5224Z" fill="white"/>
<path d="M130.411 19.2363V17.9672H133.98V22.2307H130.728C130.133 22.2307 129.677 22.191 129.36 22.0919C129.043 21.9927 128.745 21.8341 128.468 21.6159C128.091 21.3185 127.833 20.9417 127.635 20.4658C127.456 19.9899 127.357 19.4346 127.357 18.7802C127.357 17.5111 127.635 16.5791 128.19 15.9644C128.745 15.3695 129.598 15.0522 130.748 15.0522H134V16.2817H130.748C130.153 16.2817 129.717 16.48 129.459 16.8567C129.181 17.2335 129.043 17.8482 129.043 18.7009C129.043 19.4941 129.181 20.0494 129.439 20.4063C129.717 20.7632 130.133 20.9417 130.728 20.9417H132.434V19.2562H130.411V19.2363ZM120.02 15.0324H121.924L124.859 20.1882L124.779 15.0324H126.326V22.2108H124.581L121.487 16.7774L121.547 22.2108H120V15.0324H120.02ZM118.513 22.2307H116.926V15.0324H118.513V22.2307ZM115.479 16.3213L111.434 20.9417H115.479V22.2108H109.411V20.9417L113.516 16.3213H109.411V15.0324H115.479V16.3213ZM108.102 22.2307H106.516V15.0324H108.102V22.2307ZM98.7225 15.0324H100.626L103.561 20.1882L103.482 15.0324H105.028V22.2108H103.283L100.19 16.7774L100.249 22.2108H98.7027V15.0324H98.7225ZM91.2268 15.0324H94.935C95.8075 15.0324 96.4421 15.2108 96.8387 15.5479C97.2353 15.9049 97.4336 16.4403 97.4336 17.1938C97.4336 17.7491 97.3146 18.1853 97.0568 18.5423C96.799 18.8992 96.4421 19.1174 95.986 19.2165L97.7707 22.2108H96.0653L94.4789 19.395H92.6942V22.2108H91.1871V15.0324H91.2268ZM94.578 16.3213H92.7338V18.1259H94.578C95.0738 18.1259 95.4307 18.0664 95.629 17.9276C95.8273 17.7887 95.9265 17.5508 95.9265 17.2335C95.9265 16.8964 95.8273 16.6783 95.6489 16.5395C95.4506 16.3808 95.0936 16.3213 94.578 16.3213ZM87.4194 16.2817C86.8642 16.2817 86.4675 16.4205 86.1899 16.6981C85.9123 16.9757 85.7537 17.3921 85.7338 17.9474H89.918V19.1967H85.7338C85.7338 19.8114 85.8727 20.2675 86.1304 20.5451C86.3882 20.8227 86.8245 20.9615 87.4392 20.9615H89.918V22.2108H87.3599C86.8047 22.2108 86.3486 22.1712 86.0313 22.072C85.714 21.9729 85.3967 21.8142 85.1191 21.5763C84.7423 21.2788 84.4845 20.9021 84.2862 20.4261C84.1078 19.9502 84.0086 19.395 84.0086 18.7406C84.0086 17.4715 84.2862 16.5395 84.8415 15.9247C85.3967 15.3298 86.2494 15.0125 87.3996 15.0125H89.8981V16.2618H87.4194V16.2817ZM76.7508 15.0324H80.0426C81.1928 15.0324 82.0454 15.3298 82.6007 15.9446C83.1559 16.5395 83.4336 17.4913 83.4336 18.7604C83.4336 19.4148 83.3344 19.97 83.1559 20.446C82.9775 20.9219 82.6998 21.2987 82.3231 21.5961C82.0455 21.8341 81.7282 21.9927 81.4109 22.0919C81.0936 22.191 80.6375 22.2307 80.0823 22.2307H76.7508V15.0324ZM80.003 16.2817H78.2579V20.9615H80.003C80.6772 20.9615 81.1333 20.8029 81.3911 20.4658C81.6488 20.1287 81.7678 19.514 81.7678 18.6216C81.7678 17.7293 81.6488 17.1344 81.3911 16.7972C81.1333 16.4601 80.6772 16.2817 80.003 16.2817ZM72.1304 16.123C71.476 16.123 71.0001 16.3213 70.6828 16.7378C70.3656 17.1344 70.2069 17.7491 70.2069 18.5621C70.2069 19.4545 70.3656 20.089 70.663 20.5055C70.9803 20.9219 71.4562 21.1202 72.1304 21.1202C72.7848 21.1202 73.2806 20.9219 73.5979 20.5055C73.9151 20.089 74.0738 19.4743 74.0738 18.6216C74.0738 17.7689 73.9151 17.1344 73.5979 16.7378C73.2806 16.3412 72.8047 16.123 72.1304 16.123ZM68.561 18.5621C68.561 17.3326 68.8585 16.4006 69.4534 15.8057C70.0483 15.2108 70.9406 14.8936 72.1503 14.8936C73.3599 14.8936 74.2721 15.191 74.8471 15.8057C75.442 16.4205 75.7197 17.3525 75.7197 18.6216C75.7197 19.8907 75.4222 20.8426 74.8471 21.4375C74.2721 22.0522 73.3599 22.3497 72.1503 22.3497C70.9208 22.3497 70.0086 22.0324 69.4335 21.4176C68.8386 20.8426 68.561 19.8709 68.561 18.5621ZM59.4392 15.0324H61.6602L63.4845 20.5451L65.3089 15.0324H67.51V22.2108H66.0624L66.1814 16.6188L64.3372 22.2108H62.731L60.8273 16.5593L60.9859 22.2108H59.4392V15.0324Z" fill="#5B2B82"/>
<path d="M106.952 25.9786C106.417 25.9786 106 26.1174 105.723 26.395C105.445 26.6726 105.286 27.0891 105.266 27.6443H109.451V28.8936H105.266C105.266 29.5282 105.405 29.9644 105.663 30.2421C105.921 30.5197 106.357 30.6585 106.972 30.6585H109.451V31.9078H106.892C106.337 31.9078 105.881 31.8681 105.564 31.769C105.247 31.6698 104.929 31.5112 104.652 31.2732C104.275 30.9758 104.017 30.599 103.819 30.1231C103.64 29.6472 103.541 29.0919 103.541 28.4375C103.541 27.1684 103.819 26.2364 104.374 25.6217C104.929 25.0268 105.782 24.7095 106.932 24.7095H109.431V25.9588H106.952V25.9786ZM96.2041 24.7293H98.1078L101.043 29.8851L100.963 24.7293H102.51V31.9078H100.765L97.6715 26.4744L97.731 31.9078H96.2041V24.7293ZM94.7168 31.9078H93.1304V24.7293H94.7168V31.9078ZM89.5412 25.9588C88.9265 25.9588 88.4704 26.1571 88.1928 26.5537C87.9151 26.9503 87.7763 27.6047 87.7763 28.5168C87.7763 29.31 87.9151 29.8653 88.1729 30.1826C88.4307 30.4998 88.8868 30.6585 89.5412 30.6585H92.02V31.9078H89.4619C88.9066 31.9078 88.4506 31.8681 88.1333 31.769C87.816 31.6698 87.4987 31.5112 87.2211 31.2732C86.8443 30.9758 86.5667 30.599 86.3882 30.1231C86.2098 29.6472 86.1106 29.0919 86.1106 28.4375C86.1106 27.1684 86.3882 26.2364 86.9435 25.6217C87.4987 25.0268 88.3514 24.7095 89.5015 24.7095H92.02V25.9389H89.5412V25.9588ZM85.0794 31.9078H83.493V24.7293H85.0794V31.9078ZM75.7792 24.7293H79.0709C80.2211 24.7293 81.0738 25.0268 81.629 25.6415C82.1843 26.2562 82.4619 27.1882 82.4619 28.4574C82.4619 29.1117 82.3627 29.667 82.1843 30.1429C82.0058 30.6188 81.7282 30.9956 81.3514 31.293C81.0738 31.5112 80.7565 31.6896 80.4392 31.7888C80.1219 31.8879 79.6658 31.9276 79.1106 31.9276H75.7792V24.7293ZM79.0313 25.9786H77.2862V30.6585H79.0313C79.7055 30.6585 80.1616 30.48 80.4194 30.1627C80.6772 29.8256 80.7962 29.2109 80.7962 28.3185C80.7962 27.4262 80.6772 26.8313 80.4194 26.4942C80.1616 26.1372 79.7055 25.9786 79.0313 25.9786ZM71.9718 25.9786C71.4364 25.9786 71.02 26.1174 70.7423 26.395C70.4647 26.6726 70.3061 27.0891 70.2862 27.6443H74.4704V28.8936H70.2862C70.2862 29.5282 70.425 29.9644 70.6828 30.2421C70.9406 30.5197 71.3769 30.6585 71.9916 30.6585H74.4704V31.9078H71.9123C71.3571 31.9078 70.901 31.8681 70.5837 31.769C70.2664 31.6698 69.969 31.5112 69.6715 31.2732C69.2947 30.9758 69.0369 30.599 68.8386 30.1231C68.6602 29.6472 68.561 29.0919 68.561 28.4375C68.561 27.1684 68.8386 26.2364 69.3939 25.6217C69.9491 25.0268 70.8018 24.7095 71.952 24.7095H74.4505V25.9588H71.9718V25.9786ZM59.4392 24.7293H61.6602L63.4845 30.2421L65.3089 24.7293H67.51V31.9078H66.0624L66.1814 26.3157L64.3372 31.9078H62.731L60.8273 26.2562L60.9859 31.9078H59.4392V24.7293Z" fill="#5B2B82"/>
<path d="M45.5781 31.9671C43.4166 31.9671 43.1588 30.3608 42.8415 28.3183C42.663 27.1484 42.3854 25.3835 41.8302 22.5875C41.6517 21.6356 41.4534 20.7036 41.2948 19.8113C41.1758 19.2362 41.0766 18.6413 40.9577 18.0464C40.8188 18.6016 40.6999 19.1767 40.5611 19.7518C38.3401 29.1909 36.4761 37.0832 36.1984 38.0747C35.9605 38.9274 35.1871 39.5223 34.3146 39.5223C34.2948 39.5223 34.2749 39.5223 34.2353 39.5223C32.6489 39.4628 32.2523 38.1144 31.4591 35.4175C31.003 33.8906 30.4477 31.7688 29.7735 29.1512C29.4959 28.0407 29.2183 26.9302 28.9605 25.8396C28.6829 27.2475 28.4251 28.6356 28.2268 29.7263C28.0483 30.6385 27.8897 31.511 27.7508 32.2249C27.3939 34.0889 25.3316 34.2475 24.5582 34.307C23.5072 34.3863 22.0398 34.3863 19.8387 34.3665C18.986 34.3665 19.918 34.3665 18.867 34.3665L17.7367 31.8878C17.697 31.9869 17.7169 32.1455 17.816 32.4033C18.3118 33.5535 18.9067 34.6441 19.5809 35.6753C20.2749 36.7065 21.0681 37.6583 21.9208 38.511C22.7933 39.3835 23.7452 40.1767 24.7565 40.8509C25.7877 41.545 26.8783 42.1399 28.0285 42.6158C29.1786 43.1116 30.3882 43.4883 31.6375 43.7461C32.8868 44.0039 34.1758 44.1427 35.5044 44.1427C36.833 44.1427 38.122 44.0039 39.3713 43.7461C40.6205 43.4883 41.8302 43.1116 42.9803 42.6158C44.1305 42.1201 45.2211 41.5252 46.2523 40.8509C47.2834 40.1569 48.2353 39.3637 49.088 38.511C49.9605 37.6385 50.7537 36.6866 51.4279 35.6753C52.122 34.6441 52.7169 33.5535 53.1928 32.4033C53.2523 32.2645 53.3118 32.1059 53.3713 31.9671H45.5781Z" fill="#5B2B82"/>
<path d="M19.8583 30.6778C21.6826 30.6778 23.3285 30.6976 24.2407 30.6381C24.3399 30.1622 24.4192 29.5673 24.5183 29.0319C24.9546 26.6721 25.5098 23.7373 26.0056 21.4568C26.2832 20.1877 26.5013 19.216 26.6996 18.522C26.9574 17.5899 27.3937 16.0432 28.9801 16.0234C29.7931 16.0234 30.6458 16.5588 30.9433 17.7288C31.3994 19.3945 32.8073 25.7798 34.0962 30.7174C34.9688 27.0489 36.0396 22.488 36.8923 18.8789C37.7648 15.2103 38.439 12.3152 38.677 11.3633C39.1529 9.41997 40.2039 9.0432 41.0169 9.0432C42.8413 9.08286 43.337 11.1055 43.7535 12.8704C44.1302 14.4171 44.5467 16.5786 45.0226 19.0772C45.1812 19.9497 45.3597 20.8817 45.558 21.8336C46.1132 24.6891 46.4107 26.5135 46.5892 27.7033C46.609 27.8619 46.6487 28.0205 46.6685 28.1792H54.6203C54.8186 27.0885 54.9178 25.9582 54.9178 24.8081C54.9178 14.199 46.3115 5.59277 35.6826 5.59277C25.0537 5.59277 16.4475 14.199 16.4475 24.8081C16.4475 26.8506 16.7648 28.8336 17.3597 30.6778C18.3314 30.6976 19.0452 30.6778 19.8583 30.6778Z" fill="#FFC627"/>
<path d="M35.6629 45.4513C24.2606 45.4513 15 36.1907 15 24.7884C15 13.3861 24.2606 4.12549 35.6629 4.12549C47.0652 4.12549 56.3258 13.3861 56.3258 24.7884C56.3258 36.1907 47.0453 45.4513 35.6629 45.4513ZM35.6629 5.71189C25.1331 5.71189 16.5864 14.2785 16.5864 24.7884C16.5864 35.2983 25.153 43.8649 35.6629 43.8649C46.1926 43.8649 54.7394 35.2983 54.7394 24.7884C54.7394 14.2785 46.1728 5.71189 35.6629 5.71189Z" fill="#CBCBCB"/>
</svg>
