<svg width="150" height="50" viewBox="0 0 150 50" fill="none" xmlns="http://www.w3.org/2000/svg">
<path d="M12.7056 31.7736C11.7267 31.7757 10.8225 31.251 10.3386 30.4001C9.86176 29.5544 9.89036 28.5147 10.413 27.6965L15.2874 20.0421C15.7953 19.2045 16.7145 18.7051 17.6936 18.7346C18.6719 18.7581 19.5618 19.3066 20.0223 20.1701C20.4767 21.0293 20.4199 22.0631 19.8757 22.8696L15.0044 30.524C14.5023 31.3064 13.6352 31.7777 12.7056 31.7736Z" fill="#F62B54"/>
<path d="M21.0664 31.7738C20.0833 31.7738 19.1786 31.2481 18.7036 30.4034C18.2277 29.56 18.2563 28.5228 18.7779 27.707L23.643 20.0701C24.1436 19.2205 25.0655 18.7093 26.0513 18.7348C27.0427 18.7565 27.9411 19.311 28.3955 20.1785C28.8468 21.046 28.7807 22.0859 28.22 22.8904L23.3559 30.5273C22.8554 31.3062 21.9923 31.7762 21.0664 31.7738Z" fill="#FFCC00"/>
<path d="M29.2402 31.8379C30.6261 31.8379 31.7497 30.738 31.7497 29.3811C31.7497 28.0243 30.6261 26.9243 29.2402 26.9243C27.8542 26.9243 26.7307 28.0243 26.7307 29.3811C26.7307 30.738 27.8542 31.8379 29.2402 31.8379Z" fill="#00CA72"/>
<path d="M138.259 27.0665C139.017 27.0665 139.47 27.6056 139.47 28.4886V31.5144H140.5V28.4194C140.5 26.9178 139.793 26.0472 138.462 26.0472C137.942 26.0472 137.116 26.1897 136.623 27.1471C136.39 26.5718 135.86 26.1711 135.242 26.104C135.052 26.0691 134.858 26.0577 134.664 26.07C134.241 26.104 133.487 26.3674 133.205 26.9643V26.1619H132.174V31.5144H133.205V28.6259C133.205 27.5023 133.94 27.0665 134.677 27.0665C135.366 27.0665 135.82 27.5942 135.82 28.4772V31.5144H136.844V28.6259C136.844 27.7316 137.381 27.0562 138.259 27.0665ZM128.391 30.6201C128.862 30.6304 129.317 30.4424 129.646 30.1016C129.977 29.7608 130.152 29.2972 130.135 28.8211C130.135 27.7429 129.342 27.0665 128.391 27.0665C127.44 27.0665 126.648 27.7429 126.648 28.8211C126.63 29.2961 126.805 29.7588 127.134 30.0985C127.462 30.4393 127.914 30.6283 128.383 30.6201H128.391ZM128.391 31.6239C126.886 31.6239 125.629 30.5116 125.629 28.8149C125.629 27.1182 126.886 26.041 128.391 26.041C129.897 26.041 131.164 27.1182 131.164 28.8149C131.164 30.5116 129.89 31.629 128.384 31.629L128.391 31.6239ZM120.326 28.8149L120.316 28.8211C120.316 27.1243 121.606 26.0472 123.122 26.041C123.892 26.0261 124.632 26.3384 125.159 26.9002L124.378 27.5653C124.043 27.2364 123.591 27.055 123.122 27.0614C122.171 27.0614 121.345 27.7378 121.345 28.8149C121.345 29.5429 121.778 30.1987 122.442 30.4775C123.106 30.7564 123.87 30.6015 124.378 30.0872L125.17 30.7522C124.642 31.3199 123.897 31.6367 123.122 31.6239C121.617 31.6239 120.326 30.5116 120.326 28.8149ZM117.029 30.4868C117.026 30.2979 117.099 30.1157 117.231 29.9805C117.364 29.8454 117.544 29.7682 117.733 29.766C117.922 29.7682 118.102 29.8454 118.234 29.9805C118.366 30.1157 118.439 30.2979 118.437 30.4868C118.418 30.863 118.11 31.1594 117.733 31.1633C117.356 31.1594 117.048 30.863 117.029 30.4868Z" fill="#333333"/>
<path d="M119.846 19.3573H116.179L113.608 25.9842L111.051 19.3573H107.384L111.842 29.829L109.07 36.7523H112.71L119.846 19.3573ZM97.5435 25.1818C97.5435 26.8548 99.0058 27.9557 100.442 27.9557C101.854 27.9557 103.241 26.9312 103.241 25.1808C103.241 23.4303 101.854 22.4049 100.442 22.4049C99.0058 22.4049 97.5435 23.5068 97.5435 25.1808V25.1818ZM103.241 31.029V29.704C102.497 30.8297 100.762 31.2552 99.8723 31.2552C96.9249 31.2552 93.9765 28.9316 93.9765 25.1808C93.9765 21.431 96.9239 19.1074 99.8723 19.1074C100.615 19.1074 102.35 19.3553 103.241 20.6565V19.3615H106.659V31.0311L103.241 31.03V31.029ZM93.0037 31.029H89.5855V29.5791C89.0144 30.6531 87.6295 31.2789 86.192 31.2789C83.2188 31.2789 80.5926 28.9047 80.5926 25.2283C80.5926 21.4827 83.2188 19.1054 86.192 19.1054C87.6274 19.1054 89.0164 19.7043 89.5855 20.7794V13H93.0037V31.029ZM89.5111 25.155C89.5111 23.4056 88.2481 22.3801 86.8364 22.3801C85.3741 22.3801 84.1596 23.4799 84.1596 25.155C84.1596 26.8837 85.3741 27.9784 86.8354 27.9784C88.2739 27.9804 89.5111 26.83 89.5111 25.155ZM72.141 24.8534C72.141 23.0792 73.058 22.4792 74.2714 22.4792C75.4353 22.4792 76.278 23.2537 76.278 24.8028V31.0269H79.721V24.0541C79.721 20.7308 78.0852 19.1054 75.4838 19.1054C74.1217 19.1054 72.7596 19.8799 72.1399 21.0551V19.3573H68.699V31.0269H72.141V24.8534ZM61.7075 31.2273C58.438 31.2273 55.7106 28.8283 55.7106 25.1539C55.7106 21.4775 58.4349 19.1023 61.7075 19.1023C64.9802 19.1023 67.7282 21.4775 67.7282 25.1539C67.7282 28.8304 64.9771 31.2283 61.7075 31.2283V31.2273ZM61.7075 27.8297C63.143 27.8297 64.3337 26.7784 64.3337 25.155C64.3337 23.5801 63.144 22.505 61.7075 22.505C61.0085 22.4941 60.3357 22.7708 59.8466 23.2703C59.3548 23.7723 59.0876 24.4524 59.1061 25.155C59.1072 26.7804 60.2958 27.8297 61.7075 27.8297ZM49.5381 22.4803C50.5533 22.4803 51.4455 23.2806 51.4455 24.8038V31.029H54.8638V24.4011C54.8638 20.8775 53.1505 19.1033 50.4045 19.1033C49.5887 19.1033 48.052 19.3511 46.9367 21.177C46.2923 19.8272 45.0541 19.1271 43.2241 19.1271C41.9265 19.1205 40.7449 19.8732 40.2024 21.052V19.3584H36.7573V31.028H40.1993V24.8534C40.1993 23.0792 41.166 22.4792 42.2059 22.4792C43.1973 22.4792 44.0875 23.2537 44.1133 24.7285V31.028H47.5563V24.8534C47.5563 23.1567 48.4486 22.4813 49.5381 22.4813V22.4803Z" fill="#333333"/>
</svg>
