<svg width="485" height="197" viewBox="0 0 485 197" fill="none" xmlns="http://www.w3.org/2000/svg">
<g clip-path="url(#clip0_1683_8885)">
<mask id="mask0_1683_8885" style="mask-type:luminance" maskUnits="userSpaceOnUse" x="-8" y="-152" width="501" height="501">
<path d="M492.48 -151.64H-7.51953V348.36H492.48V-151.64Z" fill="white"/>
</mask>
<g mask="url(#mask0_1683_8885)">
<path d="M324.13 65.7L331.38 72.93C326.71 76.25 323.24 77.45 318.72 77.45C316.967 77.4978 315.222 77.1917 313.59 76.55C316.56 80.1542 318.164 84.6901 318.12 89.36C318.153 93.4639 317.146 97.5094 315.195 101.12C313.244 104.73 310.411 107.789 306.96 110.01C303.19 112.43 298.37 113.33 292.96 113.33C282.86 116.95 279.39 119.51 279.39 122.07C279.39 124.34 281.66 125.69 285.39 125.69H297.48C306.22 125.69 311.05 126.74 315.57 129.9C318.214 131.588 320.371 133.938 321.826 136.716C323.282 139.495 323.987 142.605 323.87 145.74C323.87 162.03 312.27 169.41 294.01 169.41C270.49 169.41 261.45 160.96 261.45 150.26C261.465 147.525 261.973 144.815 262.95 142.26L275.32 141.21C274.04 143.252 273.313 145.592 273.21 148C273.21 151.92 274.87 155.08 277.59 156.74C281.2 158.85 286.78 160.21 292.83 160.21C304.43 160.21 311.08 156.43 311.08 147.09C311.08 143.02 309.72 139.86 307.01 138.09C304.14 136.09 299.62 135.38 292.23 135.38C289.23 135.38 283.03 135.52 280.62 135.52C271.72 135.52 266.45 131.45 266.45 124.66C266.45 118.66 269.77 115.02 280.02 111.84C269.92 108.68 263.13 100.07 263.13 90.12C263.13 75.04 274.44 64.78 290.88 64.78C302.34 64.78 304.59 69 313.8 69C317.518 69.0816 321.158 67.9281 324.15 65.72M290.52 74.72C281.16 74.72 276.35 79.55 276.35 89.95C276.35 99.59 281.35 104.57 290.83 104.57C299.83 104.57 304.39 99.57 304.39 89.49C304.39 79.41 300.48 74.74 290.48 74.74" fill="#41273B"/>
<path d="M384.28 126.16L388.8 133.7C381.814 139.853 372.789 143.186 363.48 143.05C342.66 143.05 330.15 127.98 330.15 103.1C330.15 90.4301 332.86 82.2801 339.15 74.7401C341.853 71.3995 345.288 68.7257 349.19 66.9257C353.091 65.1258 357.355 64.2479 361.65 64.3601C369.79 64.3601 376.87 67.2301 382.01 72.5001C388.5 79.1301 390.31 86.2101 390.6 104.16V105.81H343.71V107.63C343.71 114.71 344.61 120.14 347.18 124.06C351.39 130.55 358.33 133.26 365.87 133.26C372.703 133.434 379.325 130.887 384.28 126.18M343.72 96.9301H378.1C377.95 88.7901 376.9 83.8101 374.63 80.1801C372.07 76.1101 366.79 73.5501 361.06 73.5501C350.35 73.5501 344.32 81.4001 343.72 96.9301Z" fill="#41273B"/>
<path d="M395.021 67.0703L406.76 64.5002C408.446 68.2019 409.371 72.2044 409.48 76.2702C417.32 68.4202 425.161 64.6602 433.151 64.6602C441.141 64.6602 448.531 69.0302 451.551 75.6602C452.755 78.4232 453.371 81.4063 453.361 84.4202V141.42H441.48V90.5802C441.48 82.5802 440.881 80.6303 438.771 78.0703C437.111 76.0703 433.94 74.9002 430.47 74.9002C424.47 74.9002 415.09 79.7303 409.66 85.4603V141.36H398.16V83.4603C398.16 72.7403 395.021 67.0302 395.021 67.0302" fill="#41273B"/>
<path d="M347.73 181.01V170.71C347.805 170.032 347.631 169.35 347.24 168.79C347.048 168.615 346.822 168.48 346.576 168.394C346.331 168.308 346.07 168.273 345.81 168.29C345.163 168.31 344.53 168.482 343.96 168.79C343.293 169.143 342.686 169.599 342.16 170.14V181.01H338.84V163.01C338.84 162.32 338.84 161.71 338.76 161.15C338.721 160.665 338.644 160.184 338.53 159.71L341.85 158.99C341.953 159.506 342.03 160.027 342.08 160.55C342.08 161.15 342.16 161.82 342.16 162.55V165.78C342.16 166.19 342.16 166.57 342.16 166.89C342.16 167.21 342.16 167.41 342.16 167.49C343.398 166.254 345.062 165.539 346.81 165.49C347.619 165.471 348.419 165.664 349.13 166.05C349.7 166.344 350.169 166.8 350.48 167.36C350.676 167.736 350.811 168.142 350.88 168.56C350.963 169.143 350.999 169.732 350.99 170.32V181.02L347.73 181.01Z" fill="#41273B"/>
<path d="M359.02 174.36V174.6C359.024 175.124 359.077 175.646 359.18 176.16C359.28 176.66 359.484 177.134 359.78 177.55C360.084 177.965 360.477 178.306 360.93 178.55C361.502 178.816 362.129 178.943 362.76 178.92C364.16 178.909 365.505 178.374 366.53 177.42L367.83 179.42C366.313 180.728 364.372 181.439 362.37 181.42C361.372 181.433 360.382 181.243 359.46 180.86C358.623 180.495 357.876 179.952 357.27 179.27C356.644 178.536 356.174 177.682 355.89 176.76C355.541 175.699 355.372 174.587 355.39 173.47C355.362 172.316 355.518 171.165 355.85 170.06C356.144 169.124 356.635 168.261 357.29 167.53C357.855 166.865 358.563 166.336 359.36 165.98C360.173 165.641 361.048 165.474 361.93 165.49C362.67 165.491 363.405 165.605 364.11 165.83C364.855 166.091 365.536 166.507 366.11 167.05C366.809 167.715 367.319 168.554 367.59 169.48C367.971 170.833 368.14 172.236 368.09 173.64V174.33H359.09L359.02 174.36ZM364.67 171.93C364.733 170.913 364.474 169.902 363.93 169.04C363.71 168.716 363.41 168.454 363.06 168.279C362.71 168.104 362.321 168.022 361.93 168.04C361.518 168.017 361.107 168.096 360.734 168.27C360.36 168.445 360.036 168.709 359.79 169.04C359.244 169.901 358.985 170.913 359.05 171.93H364.67Z" fill="#41273B"/>
<path d="M383.64 181.64C383.176 181.462 382.754 181.189 382.4 180.84C382.032 180.496 381.748 180.072 381.57 179.6C381.049 180.227 380.388 180.724 379.64 181.05C378.93 181.325 378.173 181.461 377.41 181.45C376.719 181.512 376.022 181.429 375.365 181.207C374.707 180.985 374.103 180.628 373.59 180.16C372.77 179.273 372.335 178.097 372.38 176.89C372.333 176.122 372.485 175.355 372.822 174.663C373.158 173.971 373.667 173.378 374.3 172.94C375.988 171.955 377.931 171.496 379.88 171.62H380.88V170.81C380.924 170.123 380.797 169.436 380.51 168.81C380.25 168.36 379.68 168.13 378.79 168.13C378.295 168.134 377.803 168.211 377.33 168.36C376.866 168.496 376.412 168.663 375.97 168.86C375.597 169.032 375.236 169.229 374.89 169.45L374.26 169.86L372.8 167.5C373.802 166.847 374.88 166.319 376.01 165.93C377.049 165.589 378.137 165.42 379.23 165.43C381.63 165.43 383.16 166.27 383.84 167.96C383.905 168.132 383.955 168.31 383.99 168.49C384.036 168.728 384.063 168.968 384.07 169.21C384.07 169.49 384.07 169.82 384.07 170.21V171.65L384.02 176C384.02 176.52 384.02 176.95 384.02 177.31C384.027 177.622 384.088 177.93 384.2 178.22C384.3 178.468 384.434 178.701 384.6 178.91C384.809 179.141 385.048 179.343 385.31 179.51L383.64 181.64ZM380.81 173.89H380.56C380.444 173.881 380.327 173.881 380.21 173.89C379.522 173.881 378.835 173.944 378.16 174.08C377.686 174.166 377.234 174.347 376.83 174.61C376.515 174.836 376.271 175.148 376.13 175.51C375.979 175.909 375.905 176.333 375.91 176.76C375.876 177.38 376.076 177.99 376.47 178.47C376.668 178.681 376.909 178.846 377.176 178.955C377.444 179.064 377.732 179.113 378.02 179.1C378.552 179.095 379.071 178.943 379.52 178.66C380.001 178.363 380.416 177.972 380.74 177.51L380.81 173.89Z" fill="#41273B"/>
<path d="M395.231 180.99C394.594 181.24 393.914 181.362 393.231 181.35C392.547 181.395 391.867 181.22 391.291 180.85C390.861 180.554 390.517 180.151 390.291 179.68C390.073 179.241 389.951 178.76 389.931 178.27C389.931 177.77 389.931 177.37 389.931 177.05V164.14C389.931 163.62 389.931 163.14 389.931 162.75C389.931 162.36 389.931 161.96 389.871 161.63C389.811 161.3 389.811 160.96 389.771 160.63C389.731 160.3 389.691 160.01 389.641 159.69L393.031 158.94C393.168 159.49 393.241 160.054 393.251 160.62C393.251 161.28 393.251 162.11 393.251 163.1V175.95C393.251 176.47 393.251 176.89 393.251 177.19C393.253 177.441 393.27 177.691 393.301 177.94C393.324 178.093 393.361 178.244 393.411 178.39C393.447 178.488 393.494 178.582 393.551 178.67C393.666 178.824 393.833 178.931 394.021 178.97C394.228 179.026 394.448 179.005 394.641 178.91L395.231 180.99Z" fill="#41273B"/>
<path d="M407.55 180.75C406.611 181.186 405.586 181.408 404.55 181.4C403.918 181.411 403.289 181.313 402.69 181.11C402.225 180.933 401.809 180.644 401.48 180.27C401.17 179.909 400.938 179.486 400.8 179.03C400.655 178.54 400.58 178.031 400.58 177.52V168.14H398.9V165.86H400.58C400.58 165.22 400.58 164.58 400.58 163.94C400.587 163.305 400.631 162.67 400.71 162.04L404.1 161.29C404.02 161.91 403.95 162.64 403.9 163.47C403.85 164.3 403.82 165.1 403.82 165.86H407.48L406.61 168.14H403.82V176.65C403.757 177.315 403.893 177.983 404.21 178.57C404.399 178.763 404.631 178.909 404.886 178.997C405.141 179.086 405.413 179.114 405.68 179.08C406.164 179.066 406.641 178.968 407.09 178.79L407.55 180.75Z" fill="#41273B"/>
<path d="M421.28 181.01V170.71C421.356 170.03 421.178 169.347 420.78 168.79C420.588 168.615 420.362 168.48 420.116 168.394C419.871 168.308 419.61 168.273 419.35 168.29C418.703 168.31 418.07 168.482 417.5 168.79C416.833 169.143 416.226 169.599 415.7 170.14V181.01H412.38V163.01C412.38 162.32 412.38 161.71 412.3 161.15C412.261 160.665 412.184 160.184 412.07 159.71L415.39 158.99C415.503 159.504 415.58 160.026 415.62 160.55C415.67 161.15 415.7 161.82 415.7 162.55V165.78C415.7 166.19 415.7 166.57 415.7 166.89C415.7 167.21 415.7 167.41 415.7 167.49C416.933 166.253 418.594 165.537 420.34 165.49C421.149 165.471 421.949 165.664 422.66 166.05C423.233 166.343 423.707 166.799 424.02 167.36C424.216 167.736 424.351 168.142 424.42 168.56C424.488 169.158 424.508 169.76 424.48 170.36V181.06L421.28 181.01Z" fill="#41273B"/>
<path d="M440.32 179.36C439.694 180.004 438.95 180.523 438.13 180.89C437.281 181.228 436.373 181.391 435.46 181.37C434.562 181.43 433.662 181.279 432.832 180.93C432.003 180.581 431.266 180.044 430.68 179.36C429.481 177.695 428.892 175.668 429.01 173.62C428.982 172.398 429.179 171.181 429.59 170.03C429.921 169.096 430.426 168.234 431.08 167.49C431.668 166.825 432.405 166.308 433.23 165.98C434.011 165.649 434.851 165.479 435.7 165.48C436.451 165.468 437.199 165.586 437.91 165.83C438.659 166.126 439.34 166.572 439.91 167.14L438.25 169.36C437.578 168.66 436.668 168.239 435.7 168.18C435.191 168.162 434.688 168.299 434.259 168.574C433.83 168.85 433.495 169.249 433.3 169.72C433.049 170.268 432.887 170.852 432.82 171.45C432.707 172.272 432.657 173.101 432.67 173.93C432.67 175.93 433 177.32 433.67 178.07C433.921 178.351 434.23 178.574 434.575 178.724C434.92 178.874 435.294 178.948 435.67 178.94C436.253 178.908 436.824 178.758 437.348 178.5C437.872 178.243 438.338 177.882 438.72 177.44L440.32 179.36Z" fill="#41273B"/>
<path d="M455.301 181.64C454.835 181.464 454.413 181.191 454.061 180.84C453.692 180.496 453.408 180.072 453.231 179.6C452.709 180.227 452.048 180.724 451.301 181.05C450.59 181.325 449.833 181.461 449.071 181.45C448.379 181.512 447.682 181.429 447.025 181.207C446.367 180.985 445.763 180.629 445.251 180.16C444.43 179.273 443.995 178.097 444.041 176.89C443.994 176.122 444.146 175.355 444.482 174.663C444.818 173.971 445.328 173.378 445.961 172.94C447.648 171.954 449.591 171.495 451.541 171.62H452.541V170.81C452.585 170.123 452.457 169.436 452.171 168.81C451.911 168.36 451.341 168.13 450.451 168.13C449.955 168.133 449.463 168.211 448.991 168.36C448.527 168.496 448.072 168.663 447.631 168.86C447.257 169.032 446.897 169.229 446.551 169.45L445.921 169.86L444.481 167.51C445.486 166.858 446.568 166.331 447.701 165.94C448.739 165.599 449.827 165.43 450.921 165.44C453.321 165.44 454.851 166.28 455.531 167.97C455.595 168.142 455.645 168.32 455.681 168.5C455.722 168.738 455.748 168.979 455.761 169.22C455.761 169.5 455.761 169.83 455.761 170.22V171.66V176.01C455.761 176.53 455.761 176.96 455.761 177.32C455.77 177.632 455.834 177.94 455.951 178.23C456.046 178.48 456.181 178.713 456.351 178.92C456.559 179.151 456.798 179.353 457.061 179.52L455.301 181.64ZM452.481 173.89H452.231C452.114 173.881 451.997 173.881 451.881 173.89C451.209 173.885 450.539 173.948 449.881 174.08C449.409 174.165 448.96 174.345 448.561 174.61C448.241 174.834 447.994 175.147 447.851 175.51C447.708 175.911 447.637 176.334 447.641 176.76C447.602 177.381 447.802 177.993 448.201 178.47C448.397 178.68 448.636 178.844 448.902 178.953C449.168 179.062 449.454 179.112 449.741 179.1C450.272 179.095 450.791 178.943 451.241 178.66C451.722 178.361 452.14 177.97 452.471 177.51L452.481 173.89Z" fill="#41273B"/>
<path d="M468.751 168.73L468.291 168.58C468.134 168.541 467.972 168.524 467.811 168.53C467.146 168.522 466.5 168.753 465.991 169.18C465.496 169.589 465.145 170.147 464.991 170.77V181.01H461.681V170.36C461.686 169.554 461.635 168.749 461.531 167.95C461.432 167.347 461.288 166.752 461.101 166.17L464.171 165.51C464.551 166.253 464.747 167.076 464.741 167.91C465.229 167.187 465.85 166.563 466.571 166.07C467.168 165.689 467.862 165.484 468.571 165.48C468.977 165.474 469.379 165.555 469.751 165.72L468.751 168.73Z" fill="#41273B"/>
<path d="M475.91 174.36V174.6C475.914 175.124 475.968 175.646 476.07 176.16C476.171 176.66 476.375 177.134 476.67 177.55C476.975 177.965 477.368 178.306 477.82 178.55C478.393 178.816 479.02 178.943 479.65 178.92C481.05 178.909 482.395 178.374 483.42 177.42L484.72 179.42C483.204 180.728 481.263 181.439 479.26 181.42C478.262 181.433 477.272 181.243 476.35 180.86C475.514 180.495 474.767 179.952 474.16 179.27C473.534 178.536 473.065 177.682 472.78 176.76C472.431 175.699 472.262 174.587 472.28 173.47C472.253 172.316 472.408 171.165 472.74 170.06C473.035 169.124 473.526 168.261 474.18 167.53C474.744 166.863 475.452 166.333 476.25 165.98C477.064 165.641 477.939 165.474 478.82 165.49C479.56 165.491 480.296 165.605 481 165.83C481.746 166.091 482.427 166.507 483 167.05C483.699 167.715 484.21 168.554 484.48 169.48C484.861 170.833 485.03 172.236 484.98 173.64V174.33H475.93L475.91 174.36ZM481.54 171.93C481.602 170.914 481.347 169.905 480.81 169.04C480.59 168.717 480.29 168.456 479.94 168.281C479.59 168.106 479.201 168.023 478.81 168.04C478.398 168.018 477.985 168.097 477.61 168.271C477.236 168.446 476.909 168.71 476.66 169.04C476.123 169.904 475.868 170.914 475.93 171.93H481.54Z" fill="#41273B"/>
</g>
<mask id="mask1_1683_8885" style="mask-type:luminance" maskUnits="userSpaceOnUse" x="0" y="-1" width="254" height="198">
<path d="M188.72 68.8699H202.48L180.13 102.36L208.95 143.97H194.62L174.26 111.97L153.9 143.97H140.03L168.03 102.36L144.8 68.88H159.28L174.21 93.88L188.72 68.8699ZM17 86.06C17 75.36 13.84 69.63 13.84 69.63L25.59 67.06C27.2704 70.7629 28.1919 74.765 28.3 78.83C36.15 70.98 43.98 67.22 51.97 67.22C59.96 67.22 67.35 71.6 70.37 78.22C71.5741 80.9794 72.1905 83.9593 72.18 86.97V143.97H60.28V93.14C60.28 85.14 59.68 83.19 57.57 80.63C55.92 78.63 52.74 77.47 49.27 77.47C43.27 77.47 33.89 82.3 28.46 88.02V143.96H17V86.06ZM79.13 105.67C79.13 93.01 81.84 84.86 88.13 77.32C90.8264 73.9779 94.2553 71.3009 98.1516 69.4958C102.048 67.6907 106.307 66.8059 110.6 66.91C118.74 66.91 125.82 69.78 130.96 75.05C137.44 81.68 139.26 88.77 139.55 106.71V108.36H92.72V110.17C92.72 117.26 93.62 122.69 96.18 126.61C100.4 133.1 107.34 135.8 114.88 135.8C121.704 135.96 128.315 133.415 133.27 128.72L137.8 136.26C130.816 142.418 121.79 145.758 112.48 145.63C91.67 145.63 79.15 130.56 79.15 105.63M68.15 -0.0400391L0 68.7899V196.72H185.78L235.48 146.36H234.93C231.541 146.426 228.182 145.704 225.12 144.25C219.84 141.69 217.88 136.86 217.88 129.32V77.7599H203.96L209.66 68.86H217.84C217.84 61.62 219.04 49.86 219.04 49.86L231.41 47.1499C230.517 54.3576 230.013 61.6081 229.9 68.8699H248.75V77.77H229.48V126.18C229.48 134.48 231.75 137.33 239.13 137.33C241.246 137.413 243.357 137.073 245.34 136.33L253.9 127.65V-4.57764e-05L68.15 -0.0400391Z" fill="white"/>
</mask>
<g mask="url(#mask1_1683_8885)">
<path d="M253.86 0H0V196.71H253.86V0Z" fill="url(#paint0_linear_1683_8885)"/>
</g>
<mask id="mask2_1683_8885" style="mask-type:luminance" maskUnits="userSpaceOnUse" x="92" y="76" width="36" height="24">
<path d="M92.7197 99.4801H127.1C126.95 91.3401 125.88 86.3701 123.63 82.7401C121.07 78.6701 115.79 76.1101 110.06 76.1101C99.3597 76.1101 93.3197 83.9501 92.7197 99.4801Z" fill="white"/>
</mask>
<g mask="url(#mask2_1683_8885)">
<path d="M127.09 76.1001H92.71V99.4701H127.09V76.1001Z" fill="url(#paint1_linear_1683_8885)"/>
</g>
<mask id="mask3_1683_8885" style="mask-type:luminance" maskUnits="userSpaceOnUse" x="-8" y="-152" width="501" height="501">
<path d="M492.48 -151.64H-7.51953V348.36H492.48V-151.64Z" fill="white"/>
</mask>
<g mask="url(#mask3_1683_8885)">
<path d="M52.0004 67.2101C44.0004 67.2101 36.1604 70.98 28.3304 78.81C28.2196 74.7486 27.2982 70.7503 25.6204 67.05L13.8604 69.62C13.8604 69.62 17.0304 75.33 17.0304 86.05V143.95H28.4804V88.0201C33.9104 82.3001 43.2604 77.47 49.2904 77.47C52.7604 77.47 55.9204 78.6701 57.5904 80.6301C59.7004 83.1901 60.3004 85.15 60.3004 93.14V143.96H72.2204V86.9601C72.2325 83.946 71.6161 80.9625 70.4104 78.2C67.4104 71.57 60.1404 67.2 52.0004 67.2" fill="white"/>
<path d="M110.66 66.9101C106.364 66.8109 102.103 67.7018 98.2064 69.514C94.3099 71.3261 90.8828 74.0108 88.1904 77.3601C81.8604 84.9001 79.1904 93.0401 79.1904 105.71C79.1904 130.59 91.7004 145.71 112.52 145.71C121.831 145.844 130.859 142.511 137.85 136.36L133.33 128.82C128.375 133.522 121.76 136.071 114.93 135.91C107.39 135.91 100.45 133.2 96.2404 126.71C93.6804 122.79 92.7704 117.36 92.7704 110.27V108.36H139.67V106.71C139.36 88.7101 137.56 81.7101 131.07 75.0401C125.92 69.7501 118.84 66.8901 110.7 66.8901M92.7604 99.4601C93.3604 83.9301 99.3904 76.0901 110.1 76.0901C115.82 76.0901 121.1 78.6501 123.67 82.7201C125.94 86.3301 126.99 91.3101 127.14 99.4601H92.7604Z" fill="white"/>
<path d="M202.47 68.8701H188.75L174.27 93.9001L159.34 68.8701H144.87L168.08 102.35L140.04 143.96H153.91L174.27 111.99L194.62 143.96H208.95L180.16 102.35L202.47 68.8701Z" fill="white"/>
<path d="M229.48 126.16V77.7601H248.79V68.8601H229.9C230.013 61.5983 230.517 54.3478 231.41 47.1401L219.04 49.8501C219.04 49.8501 217.84 61.6201 217.84 68.8501H209.66L203.96 77.7501H217.84V129.36C217.84 136.9 219.84 141.73 225.08 144.29C228.142 145.744 231.501 146.467 234.89 146.4H235.48L245.35 136.4C243.367 137.143 241.256 137.483 239.14 137.4C231.75 137.4 229.48 134.55 229.48 126.25" fill="white"/>
<path d="M474.64 131.36C474.282 130.493 473.747 129.71 473.07 129.06C472.401 128.412 471.618 127.894 470.76 127.53C469.874 127.157 468.921 126.966 467.96 126.97C466.038 126.963 464.191 127.714 462.82 129.06C462.164 129.725 461.635 130.505 461.26 131.36C460.874 132.274 460.68 133.258 460.69 134.25C460.679 135.217 460.861 136.176 461.227 137.071C461.593 137.966 462.135 138.778 462.82 139.46C463.489 140.108 464.272 140.627 465.13 140.99C466.026 141.364 466.989 141.555 467.96 141.55C469.165 141.539 470.348 141.231 471.405 140.653C472.462 140.076 473.361 139.246 474.021 138.239C474.682 137.232 475.084 136.077 475.192 134.877C475.3 133.677 475.11 132.469 474.64 131.36ZM473.78 136.83C473.457 137.597 472.996 138.299 472.42 138.9C471.847 139.483 471.168 139.952 470.42 140.28C469.648 140.62 468.813 140.794 467.97 140.79C467.114 140.795 466.265 140.621 465.48 140.28C464.726 139.961 464.046 139.492 463.48 138.9C462.911 138.296 462.454 137.595 462.13 136.83C461.795 136.011 461.625 135.135 461.63 134.25C461.62 133.368 461.79 132.494 462.13 131.68C462.454 130.915 462.911 130.215 463.48 129.61C464.048 129.019 464.728 128.546 465.48 128.22C466.268 127.887 467.115 127.717 467.97 127.72C468.812 127.718 469.646 127.888 470.42 128.22C471.169 128.552 471.848 129.024 472.42 129.61C472.996 130.211 473.457 130.913 473.78 131.68C474.116 132.495 474.286 133.369 474.28 134.25C474.285 135.135 474.115 136.011 473.78 136.83Z" fill="#41273B"/>
<path d="M469.66 136.26L469.29 135.7C469.181 135.542 469.081 135.379 468.99 135.21C468.89 135.09 468.79 134.96 468.68 134.84C468.552 134.706 468.407 134.589 468.25 134.49C468.513 134.502 468.776 134.459 469.022 134.365C469.269 134.27 469.492 134.126 469.68 133.94C469.855 133.757 469.991 133.54 470.08 133.303C470.169 133.066 470.21 132.813 470.2 132.56C470.215 132.248 470.146 131.937 470 131.66C469.886 131.447 469.737 131.255 469.56 131.09C469.365 130.929 469.146 130.801 468.91 130.71C468.551 130.614 468.181 130.571 467.81 130.58H466.17V137.73H466.88V134.49H467.16C467.302 134.487 467.443 134.517 467.57 134.58C467.698 134.654 467.816 134.745 467.92 134.85C468.156 135.106 468.367 135.384 468.55 135.68L469.17 136.68C469.31 136.93 469.41 137.13 469.49 137.29C469.57 137.45 469.66 137.59 469.72 137.71H470.58L469.66 136.26ZM467.72 134.01H466.87V131.17H467.64C467.877 131.174 468.114 131.19 468.35 131.22C468.513 131.255 468.669 131.32 468.81 131.41C468.998 131.516 469.156 131.667 469.27 131.85C469.433 132.136 469.498 132.467 469.457 132.793C469.415 133.12 469.269 133.424 469.04 133.66C468.655 133.928 468.187 134.052 467.72 134.01Z" fill="#41273B"/>
</g>
</g>
<defs>
<linearGradient id="paint0_linear_1683_8885" x1="0" y1="99.01" x2="253.86" y2="99.01" gradientUnits="userSpaceOnUse">
<stop stop-color="#DC6B2F"/>
<stop offset="0.39" stop-color="#C55434"/>
<stop offset="1" stop-color="#A4343A"/>
</linearGradient>
<linearGradient id="paint1_linear_1683_8885" x1="5.13997" y1="86.4601" x2="253.86" y2="86.4601" gradientUnits="userSpaceOnUse">
<stop stop-color="#DC6B2F"/>
<stop offset="0.39" stop-color="#C55434"/>
<stop offset="1" stop-color="#A4343A"/>
</linearGradient>
<clipPath id="clip0_1683_8885">
<rect width="484.96" height="196.71" fill="white"/>
</clipPath>
</defs>
</svg>
