<svg width="33" height="33" viewBox="0 0 33 33" fill="none" xmlns="http://www.w3.org/2000/svg">
<g clip-path="url(#clip0_2667_66106)">
<path d="M16.4517 22.7569C13.855 20.4214 12.0613 17.299 11.3264 13.8797L14.29 12.1687C14.6537 11.9587 14.8632 11.5593 14.8353 11.1533C14.7611 9.85812 14.893 8.51569 15.246 7.19831C15.4026 6.61399 15.0526 6.00781 14.4683 5.85125L10.7605 4.85775C10.1762 4.70118 9.57002 5.05116 9.41345 5.63548C6.74041 15.6114 12.6589 25.8626 22.6349 28.5356C23.2192 28.6922 23.8254 28.3422 23.9819 27.7579L24.9783 24.0395C25.1348 23.4552 24.7849 22.849 24.2005 22.6924C22.8725 22.3366 21.6546 21.7825 20.57 21.0706C20.2295 20.8541 19.7924 20.8281 19.4152 21.0458L16.4517 22.7569Z" fill="white"/>
</g>
<defs>
<clipPath id="clip0_2667_66106">
<rect width="26.397" height="26.397" fill="white" transform="matrix(0.258819 -0.965926 -0.965926 -0.258819 26.0293 32.8613)"/>
</clipPath>
</defs>
</svg>
