<svg width="24" height="24" viewBox="0 0 24 24" fill="none" xmlns="http://www.w3.org/2000/svg">
<path d="M12.8771 5.04977C16.0571 5.44977 18.5471 7.93977 18.9471 11.1198C19.0071 11.6298 19.4371 11.9998 19.9371 11.9998C19.9771 11.9998 20.0171 11.9998 20.0571 11.9898C20.6071 11.9198 20.9971 11.4198 20.9271 10.8698C20.6814 8.88398 19.7795 7.03713 18.3646 5.62225C16.9498 4.20737 15.1029 3.30551 13.1171 3.05977C12.5671 2.99977 12.0671 3.38977 12.0071 3.93977C11.9371 4.48977 12.3271 4.98977 12.8771 5.04977ZM13.2571 7.15977C12.7271 7.01977 12.1771 7.33977 12.0371 7.87977C11.8971 8.41977 12.2171 8.95977 12.7571 9.09977C13.2745 9.23408 13.7467 9.50421 14.1247 9.88221C14.5027 10.2602 14.7728 10.7323 14.9071 11.2498C14.9737 11.5068 15.1396 11.727 15.3683 11.862C15.597 11.9969 15.8699 12.0357 16.1271 11.9698C16.6571 11.8298 16.9771 11.2798 16.8471 10.7498C16.622 9.8862 16.1707 9.09829 15.5396 8.46725C14.9086 7.83621 14.1207 7.38487 13.2571 7.15977ZM19.2271 15.2598L16.6871 14.9698C16.3884 14.9347 16.0857 14.9678 15.8017 15.0665C15.5176 15.1652 15.2596 15.327 15.0471 15.5398L13.2071 17.3798C10.3683 15.936 8.06089 13.6286 6.61711 10.7898L8.46711 8.93977C8.89711 8.50977 9.10711 7.90977 9.03711 7.29977L8.74711 4.77977C8.69042 4.29194 8.4563 3.842 8.08935 3.51561C7.72239 3.18923 7.24822 3.00918 6.75711 3.00977H5.02711C3.89711 3.00977 2.95711 3.94977 3.02711 5.07977C3.55711 13.6198 10.3871 20.4398 18.9171 20.9698C20.0471 21.0398 20.9871 20.0998 20.9871 18.9698V17.2398C20.9971 16.2298 20.2371 15.3798 19.2271 15.2598Z" fill="#9ABF14"/>
</svg>
