<svg width="39" height="40" viewBox="0 0 39 40" fill="none" xmlns="http://www.w3.org/2000/svg">
<path d="M22.9192 18.0309C23.5075 19.2975 23.8525 19.4453 24.9074 18.9597C27.6664 17.6721 23.5887 11.5504 20.566 12.437C19.6126 12.7114 17.949 13.598 19.9777 14.6323C21.1746 15.2234 22.1483 16.3633 22.9192 18.0309Z" fill="#9ABF14"/>
<path d="M20.8881 27.5096C16.2831 25.1454 15.4108 26.7919 15.4108 27.7419C15.4108 28.5651 14.7211 28.9029 12.9764 26.6653C9.91319 22.739 9.56844 21.7468 11.1711 21.388C14.2749 20.6914 14.3965 18.306 11.597 13.1131C9.52779 9.27125 7.19485 7.66696 4.80106 8.42689C2.85356 9.03906 0.642347 12.4165 0.135187 15.5618C-0.412546 18.9815 0.84525 20.9025 1.39298 22.2746C3.34048 27.0664 10.0755 35.7423 13.1185 37.3466C19.8941 40.9351 27.2986 39.8797 26.8726 35.3623C26.5886 32.2803 24.8237 29.5361 20.8881 27.5096ZM20.3201 36.6922C11.6781 36.5444 2.46812 23.71 2.46812 16.7861C2.46812 12.9232 5.12576 8.06803 6.14008 9.98897C6.16036 10.0101 10.7044 17.8838 11.0492 19.277C11.1507 19.6992 11.0493 19.8048 10.177 20.1003C7.53972 21.008 7.19497 22.4223 8.77731 25.7998C11.3943 31.4149 16.8714 33.3569 17.2366 28.8395C17.4394 26.4542 18.9001 27.0664 22.3488 31.7737C25.2903 35.8267 24.418 36.7555 20.3201 36.6922Z" fill="#9ABF14"/>
<path d="M19.4909 7.05471C17.5231 8.06796 17.6041 8.55347 19.7748 8.95454C24.8869 9.88335 29.1877 15.224 29.1877 20.6491C29.1877 23.0766 31.0744 24.0054 32.3119 19.8047C34.016 13.9996 24.461 4.47939 19.4909 7.05471Z" fill="#9ABF14"/>
<path d="M20.7655 0.932898C18.392 1.81949 18.5949 2.81162 21.2119 3.0016C29.8539 3.63488 36.7918 13.4507 35.1081 22.6543C34.7226 24.8074 36.528 25.7574 38.232 21.9999C42.269 13.1129 29.4887 -2.27571 20.7655 0.932898Z" fill="#9ABF14"/>
</svg>
