<svg width="271" height="356" viewBox="0 0 271 356" fill="none" xmlns="http://www.w3.org/2000/svg">
<g filter="url(#filter0_d_1947_32718)">
<g clip-path="url(#clip0_1947_32718)">
<rect x="27" y="12" width="231" height="316" rx="8" fill="white"/>
<path d="M49.602 278.098C49.602 278.91 49.322 279.587 48.762 280.128C48.2113 280.66 47.3667 280.926 46.228 280.926H44.352V285H43.078V275.242H46.228C47.3293 275.242 48.1647 275.508 48.734 276.04C49.3127 276.572 49.602 277.258 49.602 278.098ZM46.228 279.876C46.9373 279.876 47.46 279.722 47.796 279.414C48.132 279.106 48.3 278.667 48.3 278.098C48.3 276.894 47.6093 276.292 46.228 276.292H44.352V279.876H46.228ZM54.5314 285.126C53.8128 285.126 53.1594 284.963 52.5714 284.636C51.9928 284.309 51.5354 283.847 51.1994 283.25C50.8728 282.643 50.7094 281.943 50.7094 281.15C50.7094 280.366 50.8774 279.675 51.2134 279.078C51.5588 278.471 52.0254 278.009 52.6134 277.692C53.2014 277.365 53.8594 277.202 54.5874 277.202C55.3154 277.202 55.9734 277.365 56.5614 277.692C57.1494 278.009 57.6114 278.467 57.9474 279.064C58.2928 279.661 58.4654 280.357 58.4654 281.15C58.4654 281.943 58.2881 282.643 57.9334 283.25C57.5881 283.847 57.1168 284.309 56.5194 284.636C55.9221 284.963 55.2594 285.126 54.5314 285.126ZM54.5314 284.006C54.9888 284.006 55.4181 283.899 55.8194 283.684C56.2208 283.469 56.5428 283.147 56.7854 282.718C57.0374 282.289 57.1634 281.766 57.1634 281.15C57.1634 280.534 57.0421 280.011 56.7994 279.582C56.5568 279.153 56.2394 278.835 55.8474 278.63C55.4554 278.415 55.0308 278.308 54.5734 278.308C54.1068 278.308 53.6774 278.415 53.2854 278.63C52.9028 278.835 52.5948 279.153 52.3614 279.582C52.1281 280.011 52.0114 280.534 52.0114 281.15C52.0114 281.775 52.1234 282.303 52.3474 282.732C52.5808 283.161 52.8888 283.483 53.2714 283.698C53.6541 283.903 54.0741 284.006 54.5314 284.006ZM61.4145 278.574C61.6385 278.135 61.9558 277.795 62.3665 277.552C62.7865 277.309 63.2952 277.188 63.8925 277.188V278.504H63.5565C62.1285 278.504 61.4145 279.279 61.4145 280.828V285H60.1405V277.328H61.4145V278.574ZM66.9172 278.378V282.9C66.9172 283.273 66.9965 283.539 67.1552 283.698C67.3138 283.847 67.5892 283.922 67.9812 283.922H68.9192V285H67.7712C67.0618 285 66.5298 284.837 66.1752 284.51C65.8205 284.183 65.6432 283.647 65.6432 282.9V278.378H64.6492V277.328H65.6432V275.396H66.9172V277.328H68.9192V278.378H66.9172ZM73.5848 278.378H71.9748V285H70.7008V278.378H69.7068V277.328H70.7008V276.782C70.7008 275.923 70.9201 275.298 71.3588 274.906C71.8068 274.505 72.5208 274.304 73.5008 274.304V275.368C72.9408 275.368 72.5441 275.48 72.3108 275.704C72.0868 275.919 71.9748 276.278 71.9748 276.782V277.328H73.5848V278.378ZM78.4162 285.126C77.6975 285.126 77.0442 284.963 76.4562 284.636C75.8775 284.309 75.4202 283.847 75.0842 283.25C74.7575 282.643 74.5942 281.943 74.5942 281.15C74.5942 280.366 74.7622 279.675 75.0982 279.078C75.4435 278.471 75.9102 278.009 76.4982 277.692C77.0862 277.365 77.7442 277.202 78.4722 277.202C79.2002 277.202 79.8582 277.365 80.4462 277.692C81.0342 278.009 81.4962 278.467 81.8322 279.064C82.1775 279.661 82.3502 280.357 82.3502 281.15C82.3502 281.943 82.1729 282.643 81.8182 283.25C81.4729 283.847 81.0015 284.309 80.4042 284.636C79.8069 284.963 79.1442 285.126 78.4162 285.126ZM78.4162 284.006C78.8735 284.006 79.3029 283.899 79.7042 283.684C80.1055 283.469 80.4275 283.147 80.6702 282.718C80.9222 282.289 81.0482 281.766 81.0482 281.15C81.0482 280.534 80.9269 280.011 80.6842 279.582C80.4415 279.153 80.1242 278.835 79.7322 278.63C79.3402 278.415 78.9155 278.308 78.4582 278.308C77.9915 278.308 77.5622 278.415 77.1702 278.63C76.7875 278.835 76.4795 279.153 76.2462 279.582C76.0129 280.011 75.8962 280.534 75.8962 281.15C75.8962 281.775 76.0082 282.303 76.2322 282.732C76.4655 283.161 76.7735 283.483 77.1562 283.698C77.5389 283.903 77.9589 284.006 78.4162 284.006ZM85.2993 274.64V285H84.0253V274.64H85.2993ZM88.1286 276.082C87.8859 276.082 87.6806 275.998 87.5126 275.83C87.3446 275.662 87.2606 275.457 87.2606 275.214C87.2606 274.971 87.3446 274.766 87.5126 274.598C87.6806 274.43 87.8859 274.346 88.1286 274.346C88.3619 274.346 88.5579 274.43 88.7166 274.598C88.8846 274.766 88.9686 274.971 88.9686 275.214C88.9686 275.457 88.8846 275.662 88.7166 275.83C88.5579 275.998 88.3619 276.082 88.1286 276.082ZM88.7446 277.328V285H87.4706V277.328H88.7446ZM94.2619 285.126C93.5432 285.126 92.8899 284.963 92.3019 284.636C91.7232 284.309 91.2659 283.847 90.9299 283.25C90.6032 282.643 90.4399 281.943 90.4399 281.15C90.4399 280.366 90.6079 279.675 90.9439 279.078C91.2892 278.471 91.7559 278.009 92.3439 277.692C92.9319 277.365 93.5899 277.202 94.3179 277.202C95.0459 277.202 95.7039 277.365 96.2919 277.692C96.8799 278.009 97.3419 278.467 97.6779 279.064C98.0232 279.661 98.1959 280.357 98.1959 281.15C98.1959 281.943 98.0186 282.643 97.6639 283.25C97.3186 283.847 96.8472 284.309 96.2499 284.636C95.6526 284.963 94.9899 285.126 94.2619 285.126ZM94.2619 284.006C94.7192 284.006 95.1486 283.899 95.5499 283.684C95.9512 283.469 96.2732 283.147 96.5159 282.718C96.7679 282.289 96.8939 281.766 96.8939 281.15C96.8939 280.534 96.7726 280.011 96.5299 279.582C96.2872 279.153 95.9699 278.835 95.5779 278.63C95.1859 278.415 94.7612 278.308 94.3039 278.308C93.8372 278.308 93.4079 278.415 93.0159 278.63C92.6332 278.835 92.3252 279.153 92.0919 279.582C91.8586 280.011 91.7419 280.534 91.7419 281.15C91.7419 281.775 91.8539 282.303 92.0779 282.732C92.3112 283.161 92.6192 283.483 93.0019 283.698C93.3846 283.903 93.8046 284.006 94.2619 284.006Z" fill="#10292D"/>
<path d="M48.04 249.1C49.52 249.1 50.8133 249.387 51.92 249.96C53.04 250.52 53.9 251.333 54.5 252.4C55.1133 253.453 55.42 254.687 55.42 256.1C55.42 257.513 55.1133 258.74 54.5 259.78C53.9 260.82 53.04 261.62 51.92 262.18C50.8133 262.727 49.52 263 48.04 263H43.5V249.1H48.04ZM48.04 261.14C49.6667 261.14 50.9133 260.7 51.78 259.82C52.6467 258.94 53.08 257.7 53.08 256.1C53.08 254.487 52.6467 253.227 51.78 252.32C50.9133 251.413 49.6667 250.96 48.04 250.96H45.78V261.14H48.04ZM67.7797 257.22C67.7797 257.633 67.753 258.007 67.6997 258.34H59.2797C59.3464 259.22 59.673 259.927 60.2597 260.46C60.8464 260.993 61.5664 261.26 62.4197 261.26C63.6464 261.26 64.513 260.747 65.0197 259.72H67.4797C67.1464 260.733 66.5397 261.567 65.6597 262.22C64.793 262.86 63.713 263.18 62.4197 263.18C61.3664 263.18 60.4197 262.947 59.5797 262.48C58.753 262 58.0997 261.333 57.6197 260.48C57.153 259.613 56.9197 258.613 56.9197 257.48C56.9197 256.347 57.1464 255.353 57.5997 254.5C58.0664 253.633 58.713 252.967 59.5397 252.5C60.3797 252.033 61.3397 251.8 62.4197 251.8C63.4597 251.8 64.3864 252.027 65.1997 252.48C66.013 252.933 66.6464 253.573 67.0997 254.4C67.553 255.213 67.7797 256.153 67.7797 257.22ZM65.3997 256.5C65.3864 255.66 65.0864 254.987 64.4997 254.48C63.913 253.973 63.1864 253.72 62.3197 253.72C61.533 253.72 60.8597 253.973 60.2997 254.48C59.7397 254.973 59.4064 255.647 59.2997 256.5H65.3997ZM74.2834 260.96L77.4034 251.98H79.8234L75.6234 263H72.9034L68.7234 251.98H71.1634L74.2834 260.96Z" fill="#9ABF14"/>
<g style="mix-blend-mode:darken">
<rect x="2" y="-13" width="264" height="264" rx="24" transform="rotate(-30 2 -13)" fill="#748F0F"/>
</g>
<g style="mix-blend-mode:soft-light">
<line x1="105.094" y1="165.561" x2="333.724" y2="33.5611" stroke="white"/>
</g>
<g style="mix-blend-mode:soft-light">
<line x1="35.0938" y1="44.3175" x2="263.724" y2="-87.6825" stroke="white"/>
</g>
<g style="mix-blend-mode:soft-light">
<line x1="113.094" y1="179.418" x2="341.724" y2="47.4176" stroke="white"/>
</g>
<g style="mix-blend-mode:soft-light">
<line x1="43.0938" y1="58.1739" x2="271.724" y2="-73.8261" stroke="white"/>
</g>
<g style="mix-blend-mode:soft-light">
<line x1="17.0938" y1="13.1407" x2="245.724" y2="-118.859" stroke="white"/>
</g>
<g style="mix-blend-mode:soft-light">
<line x1="117.094" y1="186.346" x2="345.724" y2="54.3458" stroke="white"/>
</g>
<g style="mix-blend-mode:soft-light">
<line x1="47.0938" y1="65.1021" x2="275.724" y2="-66.8979" stroke="white"/>
</g>
<g style="mix-blend-mode:soft-light">
<line x1="21.0938" y1="20.0689" x2="249.724" y2="-111.931" stroke="white"/>
</g>
<g style="mix-blend-mode:soft-light">
<line x1="119.094" y1="189.81" x2="347.724" y2="57.8097" stroke="white"/>
</g>
<g style="mix-blend-mode:soft-light">
<line x1="49.0938" y1="68.566" x2="277.724" y2="-63.434" stroke="white"/>
</g>
<g style="mix-blend-mode:soft-light">
<line x1="23.0938" y1="23.5328" x2="251.724" y2="-108.467" stroke="white"/>
</g>
<g style="mix-blend-mode:multiply">
<rect x="144.453" y="171.176" width="253.28" height="253.28" rx="24" transform="rotate(-30 144.453 171.176)" fill="#9ABF14"/>
</g>
<rect x="27" y="249" width="9" height="42" fill="#10292D"/>
<path d="M207.3 31.98V36.18C207.3 36.6 207.403 36.9233 207.61 37.15C207.817 37.3767 208.12 37.49 208.52 37.49C208.92 37.49 209.227 37.3767 209.44 37.15C209.653 36.9233 209.76 36.6 209.76 36.18V31.98H211.47V36.17C211.47 36.7967 211.337 37.3267 211.07 37.76C210.803 38.1933 210.443 38.52 209.99 38.74C209.543 38.96 209.043 39.07 208.49 39.07C207.937 39.07 207.44 38.9633 207 38.75C206.567 38.53 206.223 38.2033 205.97 37.77C205.717 37.33 205.59 36.7967 205.59 36.17V31.98H207.3ZM214.381 34.21C214.547 33.95 214.777 33.74 215.071 33.58C215.364 33.42 215.707 33.34 216.101 33.34C216.561 33.34 216.977 33.4567 217.351 33.69C217.724 33.9233 218.017 34.2567 218.231 34.69C218.451 35.1233 218.561 35.6267 218.561 36.2C218.561 36.7733 218.451 37.28 218.231 37.72C218.017 38.1533 217.724 38.49 217.351 38.73C216.977 38.9633 216.561 39.08 216.101 39.08C215.714 39.08 215.371 39 215.071 38.84C214.777 38.68 214.547 38.4733 214.381 38.22V41.66H212.671V33.42H214.381V34.21ZM216.821 36.2C216.821 35.7733 216.701 35.44 216.461 35.2C216.227 34.9533 215.937 34.83 215.591 34.83C215.251 34.83 214.961 34.9533 214.721 35.2C214.487 35.4467 214.371 35.7833 214.371 36.21C214.371 36.6367 214.487 36.9733 214.721 37.22C214.961 37.4667 215.251 37.59 215.591 37.59C215.931 37.59 216.221 37.4667 216.461 37.22C216.701 36.9667 216.821 36.6267 216.821 36.2ZM219.118 36.2C219.118 35.6267 219.225 35.1233 219.438 34.69C219.658 34.2567 219.955 33.9233 220.328 33.69C220.701 33.4567 221.118 33.34 221.578 33.34C221.945 33.34 222.278 33.4167 222.578 33.57C222.885 33.7233 223.125 33.93 223.298 34.19V31.6H225.008V39H223.298V38.2C223.138 38.4667 222.908 38.68 222.608 38.84C222.315 39 221.971 39.08 221.578 39.08C221.118 39.08 220.701 38.9633 220.328 38.73C219.955 38.49 219.658 38.1533 219.438 37.72C219.225 37.28 219.118 36.7733 219.118 36.2ZM223.298 36.21C223.298 35.7833 223.178 35.4467 222.938 35.2C222.705 34.9533 222.418 34.83 222.078 34.83C221.738 34.83 221.448 34.9533 221.208 35.2C220.975 35.44 220.858 35.7733 220.858 36.2C220.858 36.6267 220.975 36.9667 221.208 37.22C221.448 37.4667 221.738 37.59 222.078 37.59C222.418 37.59 222.705 37.4667 222.938 37.22C223.178 36.9733 223.298 36.6367 223.298 36.21ZM225.905 36.2C225.905 35.6267 226.012 35.1233 226.225 34.69C226.445 34.2567 226.742 33.9233 227.115 33.69C227.488 33.4567 227.905 33.34 228.365 33.34C228.758 33.34 229.102 33.42 229.395 33.58C229.695 33.74 229.925 33.95 230.085 34.21V33.42H231.795V39H230.085V38.21C229.918 38.47 229.685 38.68 229.385 38.84C229.092 39 228.748 39.08 228.355 39.08C227.902 39.08 227.488 38.9633 227.115 38.73C226.742 38.49 226.445 38.1533 226.225 37.72C226.012 37.28 225.905 36.7733 225.905 36.2ZM230.085 36.21C230.085 35.7833 229.965 35.4467 229.725 35.2C229.492 34.9533 229.205 34.83 228.865 34.83C228.525 34.83 228.235 34.9533 227.995 35.2C227.762 35.44 227.645 35.7733 227.645 36.2C227.645 36.6267 227.762 36.9667 227.995 37.22C228.235 37.4667 228.525 37.59 228.865 37.59C229.205 37.59 229.492 37.4667 229.725 37.22C229.965 36.9733 230.085 36.6367 230.085 36.21ZM236.142 37.55V39H235.272C234.652 39 234.169 38.85 233.822 38.55C233.475 38.2433 233.302 37.7467 233.302 37.06V34.84H232.622V33.42H233.302V32.06H235.012V33.42H236.132V34.84H235.012V37.08C235.012 37.2467 235.052 37.3667 235.132 37.44C235.212 37.5133 235.345 37.55 235.532 37.55H236.142ZM242.355 36.12C242.355 36.28 242.345 36.4467 242.325 36.62H238.455C238.481 36.9667 238.591 37.2333 238.785 37.42C238.985 37.6 239.228 37.69 239.515 37.69C239.941 37.69 240.238 37.51 240.405 37.15H242.225C242.131 37.5167 241.961 37.8467 241.715 38.14C241.475 38.4333 241.171 38.6633 240.805 38.83C240.438 38.9967 240.028 39.08 239.575 39.08C239.028 39.08 238.541 38.9633 238.115 38.73C237.688 38.4967 237.355 38.1633 237.115 37.73C236.875 37.2967 236.755 36.79 236.755 36.21C236.755 35.63 236.871 35.1233 237.105 34.69C237.345 34.2567 237.678 33.9233 238.105 33.69C238.531 33.4567 239.021 33.34 239.575 33.34C240.115 33.34 240.595 33.4533 241.015 33.68C241.435 33.9067 241.761 34.23 241.995 34.65C242.235 35.07 242.355 35.56 242.355 36.12ZM240.605 35.67C240.605 35.3767 240.505 35.1433 240.305 34.97C240.105 34.7967 239.855 34.71 239.555 34.71C239.268 34.71 239.025 34.7933 238.825 34.96C238.631 35.1267 238.511 35.3633 238.465 35.67H240.605ZM242.917 36.2C242.917 35.6267 243.023 35.1233 243.237 34.69C243.457 34.2567 243.753 33.9233 244.127 33.69C244.5 33.4567 244.917 33.34 245.377 33.34C245.743 33.34 246.077 33.4167 246.377 33.57C246.683 33.7233 246.923 33.93 247.097 34.19V31.6H248.807V39H247.097V38.2C246.937 38.4667 246.707 38.68 246.407 38.84C246.113 39 245.77 39.08 245.377 39.08C244.917 39.08 244.5 38.9633 244.127 38.73C243.753 38.49 243.457 38.1533 243.237 37.72C243.023 37.28 242.917 36.7733 242.917 36.2ZM247.097 36.21C247.097 35.7833 246.977 35.4467 246.737 35.2C246.503 34.9533 246.217 34.83 245.877 34.83C245.537 34.83 245.247 34.9533 245.007 35.2C244.773 35.44 244.657 35.7733 244.657 36.2C244.657 36.6267 244.773 36.9667 245.007 37.22C245.247 37.4667 245.537 37.59 245.877 37.59C246.217 37.59 246.503 37.4667 246.737 37.22C246.977 36.9733 247.097 36.6367 247.097 36.21Z" fill="white"/>
</g>
</g>
<defs>
<filter id="filter0_d_1947_32718" x="0" y="0" width="271" height="356" filterUnits="userSpaceOnUse" color-interpolation-filters="sRGB">
<feFlood flood-opacity="0" result="BackgroundImageFix"/>
<feColorMatrix in="SourceAlpha" type="matrix" values="0 0 0 0 0 0 0 0 0 0 0 0 0 0 0 0 0 0 127 0" result="hardAlpha"/>
<feOffset dx="-7" dy="8"/>
<feGaussianBlur stdDeviation="10"/>
<feComposite in2="hardAlpha" operator="out"/>
<feColorMatrix type="matrix" values="0 0 0 0 0 0 0 0 0 0 0 0 0 0 0 0 0 0 0.15 0"/>
<feBlend mode="normal" in2="BackgroundImageFix" result="effect1_dropShadow_1947_32718"/>
<feBlend mode="normal" in="SourceGraphic" in2="effect1_dropShadow_1947_32718" result="shape"/>
</filter>
<clipPath id="clip0_1947_32718">
<rect x="27" y="12" width="231" height="316" rx="8" fill="white"/>
</clipPath>
</defs>
</svg>
