<svg width="271" height="356" viewBox="0 0 271 356" fill="none" xmlns="http://www.w3.org/2000/svg">
<g filter="url(#filter0_d_1947_32875)">
<g clip-path="url(#clip0_1947_32875)">
<rect x="27" y="12" width="231" height="316" rx="8" fill="white"/>
<g style="mix-blend-mode:multiply">
<circle cx="143" cy="424" r="148" fill="#EBF5EB"/>
</g>
<g style="mix-blend-mode:multiply">
<circle cx="143" cy="277" r="148" fill="#EBF5EB"/>
</g>
<g style="mix-blend-mode:multiply">
<circle cx="143" cy="309" r="148" fill="#EBF5EB"/>
</g>
<g style="mix-blend-mode:multiply">
<circle cx="143" cy="345" r="148" fill="#EBF5EB"/>
</g>
<g style="mix-blend-mode:multiply">
<circle cx="143" cy="383" r="148" fill="#EBF5EB"/>
</g>
<path d="M207.3 31.98V36.18C207.3 36.6 207.403 36.9233 207.61 37.15C207.817 37.3767 208.12 37.49 208.52 37.49C208.92 37.49 209.227 37.3767 209.44 37.15C209.653 36.9233 209.76 36.6 209.76 36.18V31.98H211.47V36.17C211.47 36.7967 211.337 37.3267 211.07 37.76C210.803 38.1933 210.443 38.52 209.99 38.74C209.543 38.96 209.043 39.07 208.49 39.07C207.937 39.07 207.44 38.9633 207 38.75C206.567 38.53 206.223 38.2033 205.97 37.77C205.717 37.33 205.59 36.7967 205.59 36.17V31.98H207.3ZM214.381 34.21C214.547 33.95 214.777 33.74 215.071 33.58C215.364 33.42 215.707 33.34 216.101 33.34C216.561 33.34 216.977 33.4567 217.351 33.69C217.724 33.9233 218.017 34.2567 218.231 34.69C218.451 35.1233 218.561 35.6267 218.561 36.2C218.561 36.7733 218.451 37.28 218.231 37.72C218.017 38.1533 217.724 38.49 217.351 38.73C216.977 38.9633 216.561 39.08 216.101 39.08C215.714 39.08 215.371 39 215.071 38.84C214.777 38.68 214.547 38.4733 214.381 38.22V41.66H212.671V33.42H214.381V34.21ZM216.821 36.2C216.821 35.7733 216.701 35.44 216.461 35.2C216.227 34.9533 215.937 34.83 215.591 34.83C215.251 34.83 214.961 34.9533 214.721 35.2C214.487 35.4467 214.371 35.7833 214.371 36.21C214.371 36.6367 214.487 36.9733 214.721 37.22C214.961 37.4667 215.251 37.59 215.591 37.59C215.931 37.59 216.221 37.4667 216.461 37.22C216.701 36.9667 216.821 36.6267 216.821 36.2ZM219.118 36.2C219.118 35.6267 219.225 35.1233 219.438 34.69C219.658 34.2567 219.955 33.9233 220.328 33.69C220.701 33.4567 221.118 33.34 221.578 33.34C221.945 33.34 222.278 33.4167 222.578 33.57C222.885 33.7233 223.125 33.93 223.298 34.19V31.6H225.008V39H223.298V38.2C223.138 38.4667 222.908 38.68 222.608 38.84C222.315 39 221.971 39.08 221.578 39.08C221.118 39.08 220.701 38.9633 220.328 38.73C219.955 38.49 219.658 38.1533 219.438 37.72C219.225 37.28 219.118 36.7733 219.118 36.2ZM223.298 36.21C223.298 35.7833 223.178 35.4467 222.938 35.2C222.705 34.9533 222.418 34.83 222.078 34.83C221.738 34.83 221.448 34.9533 221.208 35.2C220.975 35.44 220.858 35.7733 220.858 36.2C220.858 36.6267 220.975 36.9667 221.208 37.22C221.448 37.4667 221.738 37.59 222.078 37.59C222.418 37.59 222.705 37.4667 222.938 37.22C223.178 36.9733 223.298 36.6367 223.298 36.21ZM225.905 36.2C225.905 35.6267 226.012 35.1233 226.225 34.69C226.445 34.2567 226.742 33.9233 227.115 33.69C227.488 33.4567 227.905 33.34 228.365 33.34C228.758 33.34 229.102 33.42 229.395 33.58C229.695 33.74 229.925 33.95 230.085 34.21V33.42H231.795V39H230.085V38.21C229.918 38.47 229.685 38.68 229.385 38.84C229.092 39 228.748 39.08 228.355 39.08C227.902 39.08 227.488 38.9633 227.115 38.73C226.742 38.49 226.445 38.1533 226.225 37.72C226.012 37.28 225.905 36.7733 225.905 36.2ZM230.085 36.21C230.085 35.7833 229.965 35.4467 229.725 35.2C229.492 34.9533 229.205 34.83 228.865 34.83C228.525 34.83 228.235 34.9533 227.995 35.2C227.762 35.44 227.645 35.7733 227.645 36.2C227.645 36.6267 227.762 36.9667 227.995 37.22C228.235 37.4667 228.525 37.59 228.865 37.59C229.205 37.59 229.492 37.4667 229.725 37.22C229.965 36.9733 230.085 36.6367 230.085 36.21ZM236.142 37.55V39H235.272C234.652 39 234.169 38.85 233.822 38.55C233.475 38.2433 233.302 37.7467 233.302 37.06V34.84H232.622V33.42H233.302V32.06H235.012V33.42H236.132V34.84H235.012V37.08C235.012 37.2467 235.052 37.3667 235.132 37.44C235.212 37.5133 235.345 37.55 235.532 37.55H236.142ZM242.355 36.12C242.355 36.28 242.345 36.4467 242.325 36.62H238.455C238.481 36.9667 238.591 37.2333 238.785 37.42C238.985 37.6 239.228 37.69 239.515 37.69C239.941 37.69 240.238 37.51 240.405 37.15H242.225C242.131 37.5167 241.961 37.8467 241.715 38.14C241.475 38.4333 241.171 38.6633 240.805 38.83C240.438 38.9967 240.028 39.08 239.575 39.08C239.028 39.08 238.541 38.9633 238.115 38.73C237.688 38.4967 237.355 38.1633 237.115 37.73C236.875 37.2967 236.755 36.79 236.755 36.21C236.755 35.63 236.871 35.1233 237.105 34.69C237.345 34.2567 237.678 33.9233 238.105 33.69C238.531 33.4567 239.021 33.34 239.575 33.34C240.115 33.34 240.595 33.4533 241.015 33.68C241.435 33.9067 241.761 34.23 241.995 34.65C242.235 35.07 242.355 35.56 242.355 36.12ZM240.605 35.67C240.605 35.3767 240.505 35.1433 240.305 34.97C240.105 34.7967 239.855 34.71 239.555 34.71C239.268 34.71 239.025 34.7933 238.825 34.96C238.631 35.1267 238.511 35.3633 238.465 35.67H240.605ZM242.917 36.2C242.917 35.6267 243.023 35.1233 243.237 34.69C243.457 34.2567 243.753 33.9233 244.127 33.69C244.5 33.4567 244.917 33.34 245.377 33.34C245.743 33.34 246.077 33.4167 246.377 33.57C246.683 33.7233 246.923 33.93 247.097 34.19V31.6H248.807V39H247.097V38.2C246.937 38.4667 246.707 38.68 246.407 38.84C246.113 39 245.77 39.08 245.377 39.08C244.917 39.08 244.5 38.9633 244.127 38.73C243.753 38.49 243.457 38.1533 243.237 37.72C243.023 37.28 242.917 36.7733 242.917 36.2ZM247.097 36.21C247.097 35.7833 246.977 35.4467 246.737 35.2C246.503 34.9533 246.217 34.83 245.877 34.83C245.537 34.83 245.247 34.9533 245.007 35.2C244.773 35.44 244.657 35.7733 244.657 36.2C244.657 36.6267 244.773 36.9667 245.007 37.22C245.247 37.4667 245.537 37.59 245.877 37.59C246.217 37.59 246.503 37.4667 246.737 37.22C246.977 36.9733 247.097 36.6367 247.097 36.21Z" fill="white"/>
<path d="M56.872 237.12C56.44 236.288 55.84 235.664 55.072 235.248C54.304 234.816 53.416 234.6 52.408 234.6C51.304 234.6 50.32 234.848 49.456 235.344C48.592 235.84 47.912 236.544 47.416 237.456C46.936 238.368 46.696 239.424 46.696 240.624C46.696 241.824 46.936 242.888 47.416 243.816C47.912 244.728 48.592 245.432 49.456 245.928C50.32 246.424 51.304 246.672 52.408 246.672C53.896 246.672 55.104 246.256 56.032 245.424C56.96 244.592 57.528 243.464 57.736 242.04H51.472V239.856H60.664V241.992C60.488 243.288 60.024 244.48 59.272 245.568C58.536 246.656 57.568 247.528 56.368 248.184C55.184 248.824 53.864 249.144 52.408 249.144C50.84 249.144 49.408 248.784 48.112 248.064C46.816 247.328 45.784 246.312 45.016 245.016C44.264 243.72 43.888 242.256 43.888 240.624C43.888 238.992 44.264 237.528 45.016 236.232C45.784 234.936 46.816 233.928 48.112 233.208C49.424 232.472 50.856 232.104 52.408 232.104C54.184 232.104 55.76 232.544 57.136 233.424C58.528 234.288 59.536 235.52 60.16 237.12H56.872ZM75.4825 242.064C75.4825 242.56 75.4505 243.008 75.3865 243.408H65.2825C65.3625 244.464 65.7545 245.312 66.4585 245.952C67.1625 246.592 68.0265 246.912 69.0505 246.912C70.5225 246.912 71.5625 246.296 72.1705 245.064H75.1225C74.7225 246.28 73.9945 247.28 72.9385 248.064C71.8985 248.832 70.6025 249.216 69.0505 249.216C67.7865 249.216 66.6505 248.936 65.6425 248.376C64.6505 247.8 63.8665 247 63.2905 245.976C62.7305 244.936 62.4505 243.736 62.4505 242.376C62.4505 241.016 62.7225 239.824 63.2665 238.8C63.8265 237.76 64.6025 236.96 65.5945 236.4C66.6025 235.84 67.7545 235.56 69.0505 235.56C70.2985 235.56 71.4105 235.832 72.3865 236.376C73.3625 236.92 74.1225 237.688 74.6665 238.68C75.2105 239.656 75.4825 240.784 75.4825 242.064ZM72.6265 241.2C72.6105 240.192 72.2505 239.384 71.5465 238.776C70.8425 238.168 69.9705 237.864 68.9305 237.864C67.9865 237.864 67.1785 238.168 66.5065 238.776C65.8345 239.368 65.4345 240.176 65.3065 241.2H72.6265ZM81.367 238.008V245.328C81.367 245.824 81.479 246.184 81.703 246.408C81.943 246.616 82.343 246.72 82.903 246.72H84.583V249H82.423C81.191 249 80.247 248.712 79.591 248.136C78.935 247.56 78.607 246.624 78.607 245.328V238.008H77.047V235.776H78.607V232.488H81.367V235.776H84.583V238.008H81.367ZM103.155 232.32V234.552H96.0751V239.472H101.595V241.704H96.0751V249H93.3391V232.32H103.155ZM108.427 237.696C108.827 237.024 109.355 236.504 110.011 236.136C110.683 235.752 111.475 235.56 112.387 235.56V238.392H111.691C110.619 238.392 109.803 238.664 109.243 239.208C108.699 239.752 108.427 240.696 108.427 242.04V249H105.691V235.776H108.427V237.696ZM127.022 242.064C127.022 242.56 126.99 243.008 126.926 243.408H116.822C116.902 244.464 117.294 245.312 117.998 245.952C118.702 246.592 119.566 246.912 120.59 246.912C122.062 246.912 123.102 246.296 123.71 245.064H126.662C126.262 246.28 125.534 247.28 124.478 248.064C123.438 248.832 122.142 249.216 120.59 249.216C119.326 249.216 118.19 248.936 117.182 248.376C116.19 247.8 115.406 247 114.83 245.976C114.27 244.936 113.99 243.736 113.99 242.376C113.99 241.016 114.262 239.824 114.806 238.8C115.366 237.76 116.142 236.96 117.134 236.4C118.142 235.84 119.294 235.56 120.59 235.56C121.838 235.56 122.95 235.832 123.926 236.376C124.902 236.92 125.662 237.688 126.206 238.68C126.75 239.656 127.022 240.784 127.022 242.064ZM124.166 241.2C124.15 240.192 123.79 239.384 123.086 238.776C122.382 238.168 121.51 237.864 120.47 237.864C119.526 237.864 118.718 238.168 118.046 238.776C117.374 239.368 116.974 240.176 116.846 241.2H124.166ZM141.834 242.064C141.834 242.56 141.802 243.008 141.738 243.408H131.634C131.714 244.464 132.106 245.312 132.81 245.952C133.514 246.592 134.378 246.912 135.402 246.912C136.874 246.912 137.914 246.296 138.522 245.064H141.474C141.074 246.28 140.346 247.28 139.29 248.064C138.25 248.832 136.954 249.216 135.402 249.216C134.138 249.216 133.002 248.936 131.994 248.376C131.002 247.8 130.218 247 129.642 245.976C129.082 244.936 128.802 243.736 128.802 242.376C128.802 241.016 129.074 239.824 129.618 238.8C130.178 237.76 130.954 236.96 131.946 236.4C132.954 235.84 134.106 235.56 135.402 235.56C136.65 235.56 137.762 235.832 138.738 236.376C139.714 236.92 140.474 237.688 141.018 238.68C141.562 239.656 141.834 240.784 141.834 242.064ZM138.978 241.2C138.962 240.192 138.602 239.384 137.898 238.776C137.194 238.168 136.322 237.864 135.282 237.864C134.338 237.864 133.53 238.168 132.858 238.776C132.186 239.368 131.786 240.176 131.658 241.2H138.978ZM57.712 288.024L54.784 284.856C54.064 285.064 53.272 285.168 52.408 285.168C50.856 285.168 49.424 284.808 48.112 284.088C46.816 283.352 45.784 282.336 45.016 281.04C44.264 279.728 43.888 278.256 43.888 276.624C43.888 274.992 44.264 273.528 45.016 272.232C45.784 270.936 46.816 269.928 48.112 269.208C49.424 268.472 50.856 268.104 52.408 268.104C53.976 268.104 55.408 268.472 56.704 269.208C58.016 269.928 59.048 270.936 59.8 272.232C60.552 273.528 60.928 274.992 60.928 276.624C60.928 278.16 60.592 279.552 59.92 280.8C59.264 282.032 58.352 283.024 57.184 283.776L61.192 288.024H57.712ZM46.696 276.624C46.696 277.856 46.936 278.944 47.416 279.888C47.912 280.816 48.592 281.536 49.456 282.048C50.32 282.544 51.304 282.792 52.408 282.792C53.512 282.792 54.496 282.544 55.36 282.048C56.224 281.536 56.896 280.816 57.376 279.888C57.872 278.944 58.12 277.856 58.12 276.624C58.12 275.392 57.872 274.312 57.376 273.384C56.896 272.456 56.224 271.744 55.36 271.248C54.496 270.752 53.512 270.504 52.408 270.504C51.304 270.504 50.32 270.752 49.456 271.248C48.592 271.744 47.912 272.456 47.416 273.384C46.936 274.312 46.696 275.392 46.696 276.624ZM75.6666 271.776V285H72.9306V283.44C72.4986 283.984 71.9306 284.416 71.2266 284.736C70.5386 285.04 69.8026 285.192 69.0186 285.192C67.9786 285.192 67.0426 284.976 66.2106 284.544C65.3946 284.112 64.7466 283.472 64.2666 282.624C63.8026 281.776 63.5706 280.752 63.5706 279.552V271.776H66.2826V279.144C66.2826 280.328 66.5786 281.24 67.1706 281.88C67.7626 282.504 68.5706 282.816 69.5946 282.816C70.6186 282.816 71.4266 282.504 72.0186 281.88C72.6266 281.24 72.9306 280.328 72.9306 279.144V271.776H75.6666ZM85.0126 285.216C83.7646 285.216 82.6366 284.936 81.6286 284.376C80.6206 283.8 79.8286 283 79.2526 281.976C78.6766 280.936 78.3886 279.736 78.3886 278.376C78.3886 277.032 78.6846 275.84 79.2766 274.8C79.8686 273.76 80.6766 272.96 81.7006 272.4C82.7246 271.84 83.8686 271.56 85.1326 271.56C86.3966 271.56 87.5406 271.84 88.5646 272.4C89.5886 272.96 90.3966 273.76 90.9886 274.8C91.5806 275.84 91.8766 277.032 91.8766 278.376C91.8766 279.72 91.5726 280.912 90.9646 281.952C90.3566 282.992 89.5246 283.8 88.4686 284.376C87.4286 284.936 86.2766 285.216 85.0126 285.216ZM85.0126 282.84C85.7166 282.84 86.3726 282.672 86.9806 282.336C87.6046 282 88.1086 281.496 88.4926 280.824C88.8766 280.152 89.0686 279.336 89.0686 278.376C89.0686 277.416 88.8846 276.608 88.5166 275.952C88.1486 275.28 87.6606 274.776 87.0526 274.44C86.4446 274.104 85.7886 273.936 85.0846 273.936C84.3806 273.936 83.7246 274.104 83.1166 274.44C82.5246 274.776 82.0526 275.28 81.7006 275.952C81.3486 276.608 81.1726 277.416 81.1726 278.376C81.1726 279.8 81.5326 280.904 82.2526 281.688C82.9886 282.456 83.9086 282.84 85.0126 282.84ZM97.7733 274.008V281.328C97.7733 281.824 97.8853 282.184 98.1093 282.408C98.3493 282.616 98.7493 282.72 99.3093 282.72H100.989V285H98.8293C97.5973 285 96.6533 284.712 95.9973 284.136C95.3413 283.56 95.0133 282.624 95.0133 281.328V274.008H93.4533V271.776H95.0133V268.488H97.7733V271.776H100.989V274.008H97.7733ZM115.631 278.064C115.631 278.56 115.599 279.008 115.535 279.408H105.431C105.511 280.464 105.903 281.312 106.607 281.952C107.311 282.592 108.175 282.912 109.199 282.912C110.671 282.912 111.711 282.296 112.319 281.064H115.271C114.871 282.28 114.143 283.28 113.087 284.064C112.047 284.832 110.751 285.216 109.199 285.216C107.935 285.216 106.799 284.936 105.791 284.376C104.799 283.8 104.015 283 103.439 281.976C102.879 280.936 102.599 279.736 102.599 278.376C102.599 277.016 102.871 275.824 103.415 274.8C103.975 273.76 104.751 272.96 105.743 272.4C106.751 271.84 107.903 271.56 109.199 271.56C110.447 271.56 111.559 271.832 112.535 272.376C113.511 272.92 114.271 273.688 114.815 274.68C115.359 275.656 115.631 276.784 115.631 278.064ZM112.775 277.2C112.759 276.192 112.399 275.384 111.695 274.776C110.991 274.168 110.119 273.864 109.079 273.864C108.135 273.864 107.327 274.168 106.655 274.776C105.983 275.368 105.583 276.176 105.455 277.2H112.775ZM135.334 268.32V270.552H130.894V285H128.158V270.552H123.694V268.32H135.334ZM143.841 285.216C142.593 285.216 141.465 284.936 140.457 284.376C139.449 283.8 138.657 283 138.081 281.976C137.505 280.936 137.217 279.736 137.217 278.376C137.217 277.032 137.513 275.84 138.105 274.8C138.697 273.76 139.505 272.96 140.529 272.4C141.553 271.84 142.697 271.56 143.961 271.56C145.225 271.56 146.369 271.84 147.393 272.4C148.417 272.96 149.225 273.76 149.817 274.8C150.409 275.84 150.705 277.032 150.705 278.376C150.705 279.72 150.401 280.912 149.793 281.952C149.185 282.992 148.353 283.8 147.297 284.376C146.257 284.936 145.105 285.216 143.841 285.216ZM143.841 282.84C144.545 282.84 145.201 282.672 145.809 282.336C146.433 282 146.937 281.496 147.321 280.824C147.705 280.152 147.897 279.336 147.897 278.376C147.897 277.416 147.713 276.608 147.345 275.952C146.977 275.28 146.489 274.776 145.881 274.44C145.273 274.104 144.617 273.936 143.913 273.936C143.209 273.936 142.553 274.104 141.945 274.44C141.353 274.776 140.881 275.28 140.529 275.952C140.177 276.608 140.001 277.416 140.001 278.376C140.001 279.8 140.361 280.904 141.081 281.688C141.817 282.456 142.737 282.84 143.841 282.84ZM152.497 278.328C152.497 277 152.769 275.824 153.313 274.8C153.873 273.776 154.625 272.984 155.569 272.424C156.529 271.848 157.593 271.56 158.761 271.56C159.625 271.56 160.473 271.752 161.305 272.136C162.153 272.504 162.825 273 163.321 273.624V267.24H166.081V285H163.321V283.008C162.873 283.648 162.249 284.176 161.449 284.592C160.665 285.008 159.761 285.216 158.737 285.216C157.585 285.216 156.529 284.928 155.569 284.352C154.625 283.76 153.873 282.944 153.313 281.904C152.769 280.848 152.497 279.656 152.497 278.328ZM163.321 278.376C163.321 277.464 163.129 276.672 162.745 276C162.377 275.328 161.889 274.816 161.281 274.464C160.673 274.112 160.017 273.936 159.313 273.936C158.609 273.936 157.953 274.112 157.345 274.464C156.737 274.8 156.241 275.304 155.857 275.976C155.489 276.632 155.305 277.416 155.305 278.328C155.305 279.24 155.489 280.04 155.857 280.728C156.241 281.416 156.737 281.944 157.345 282.312C157.969 282.664 158.625 282.84 159.313 282.84C160.017 282.84 160.673 282.664 161.281 282.312C161.889 281.96 162.377 281.448 162.745 280.776C163.129 280.088 163.321 279.288 163.321 278.376ZM168.763 278.328C168.763 277 169.035 275.824 169.579 274.8C170.139 273.776 170.891 272.984 171.835 272.424C172.795 271.848 173.851 271.56 175.003 271.56C176.043 271.56 176.947 271.768 177.715 272.184C178.499 272.584 179.123 273.088 179.587 273.696V271.776H182.347V285H179.587V283.032C179.123 283.656 178.491 284.176 177.691 284.592C176.891 285.008 175.979 285.216 174.955 285.216C173.819 285.216 172.779 284.928 171.835 284.352C170.891 283.76 170.139 282.944 169.579 281.904C169.035 280.848 168.763 279.656 168.763 278.328ZM179.587 278.376C179.587 277.464 179.395 276.672 179.011 276C178.643 275.328 178.155 274.816 177.547 274.464C176.939 274.112 176.283 273.936 175.579 273.936C174.875 273.936 174.219 274.112 173.611 274.464C173.003 274.8 172.507 275.304 172.123 275.976C171.755 276.632 171.571 277.416 171.571 278.328C171.571 279.24 171.755 280.04 172.123 280.728C172.507 281.416 173.003 281.944 173.611 282.312C174.235 282.664 174.891 282.84 175.579 282.84C176.283 282.84 176.939 282.664 177.547 282.312C178.155 281.96 178.643 281.448 179.011 280.776C179.395 280.088 179.587 279.288 179.587 278.376ZM197.845 271.776L189.733 291.216H186.901L189.589 284.784L184.381 271.776H187.429L191.149 281.856L195.013 271.776H197.845Z" fill="#10292D"/>
<path d="M128.256 70.8962C127.614 74.1034 125.196 77.1233 121.803 77.7981C120.148 78.1277 118.431 77.9268 116.897 77.2239C115.363 76.521 114.09 75.3521 113.259 73.8835C112.428 72.4149 112.081 70.7215 112.268 69.0445C112.456 67.3675 113.167 65.7923 114.302 64.5433C116.629 61.98 120.558 61.2745 123.766 62.5573" stroke="#9ABF14" stroke-width="2.25" stroke-linecap="round" stroke-linejoin="round"/>
<path d="M117.352 69.6135L120.559 72.8207L128.256 64.4819" stroke="#9ABF14" stroke-width="2.25" stroke-linecap="round" stroke-linejoin="round"/>
<rect x="99" y="41" width="97.2105" height="128" rx="9" stroke="#748F0F" stroke-width="2"/>
<rect x="109.977" y="87.0396" width="53.8816" height="1.71053" rx="0.855263" fill="#00424B"/>
<rect x="109.977" y="93.8813" width="53.8816" height="1.71053" rx="0.855263" fill="#00424B"/>
<rect x="109.977" y="100.724" width="44.4737" height="1.71053" rx="0.855263" fill="#00424B"/>
<rect x="109.977" y="107.565" width="53.8816" height="1.71053" rx="0.855263" fill="#00424B"/>
<rect x="109.977" y="114.408" width="44.4737" height="1.71053" rx="0.855263" fill="#00424B"/>
<rect x="109.977" y="121.25" width="44.4737" height="1.71053" rx="0.855263" fill="#00424B"/>
<rect x="109.977" y="128.092" width="31.6447" height="1.71053" rx="0.855263" fill="#00424B"/>
<rect x="109.977" y="149.474" width="31.6447" height="1.71053" rx="0.855263" fill="#748F0F"/>
<rect x="144.188" y="149.474" width="5.13158" height="1.71053" rx="0.855263" fill="#748F0F"/>
<path d="M165.159 147.736H155.328V137.906L210.762 82.3348L220.73 92.3047L165.159 147.736ZM222.841 90.1831L212.881 80.2239L218.54 74.7438C219.414 73.8644 220.755 73.3819 221.997 73.3819C222.608 73.3803 223.214 73.4998 223.779 73.7335C224.344 73.9673 224.858 74.3107 225.289 74.7438L228.328 77.7823C228.759 78.2135 229.101 78.7258 229.333 79.2896C229.566 79.8534 229.685 80.4576 229.683 81.0675C229.683 82.3187 229.198 83.6503 228.321 84.5279L222.841 90.1831Z" fill="#748F0F"/>
</g>
</g>
<defs>
<filter id="filter0_d_1947_32875" x="0" y="0" width="271" height="356" filterUnits="userSpaceOnUse" color-interpolation-filters="sRGB">
<feFlood flood-opacity="0" result="BackgroundImageFix"/>
<feColorMatrix in="SourceAlpha" type="matrix" values="0 0 0 0 0 0 0 0 0 0 0 0 0 0 0 0 0 0 127 0" result="hardAlpha"/>
<feOffset dx="-7" dy="8"/>
<feGaussianBlur stdDeviation="10"/>
<feComposite in2="hardAlpha" operator="out"/>
<feColorMatrix type="matrix" values="0 0 0 0 0 0 0 0 0 0 0 0 0 0 0 0 0 0 0.15 0"/>
<feBlend mode="normal" in2="BackgroundImageFix" result="effect1_dropShadow_1947_32875"/>
<feBlend mode="normal" in="SourceGraphic" in2="effect1_dropShadow_1947_32875" result="shape"/>
</filter>
<clipPath id="clip0_1947_32875">
<rect x="27" y="12" width="231" height="316" rx="8" fill="white"/>
</clipPath>
</defs>
</svg>
