<?xml version="1.0" encoding="UTF-8"?>
<!DOCTYPE svg PUBLIC "-//W3C//DTD SVG 1.1//EN" "http://www.w3.org/Graphics/SVG/1.1/DTD/svg11.dtd">
<svg xmlns="http://www.w3.org/2000/svg" version="1.1" width="96px" height="96px" style="shape-rendering:geometricPrecision; text-rendering:geometricPrecision; image-rendering:optimizeQuality; fill-rule:evenodd; clip-rule:evenodd" xmlns:xlink="http://www.w3.org/1999/xlink">
<g><path style="opacity:0.922" fill="#9abe13" d="M 44.5,-0.5 C 46.5,-0.5 48.5,-0.5 50.5,-0.5C 51.5887,3.0779 51.7554,6.74457 51,10.5C 48.6667,13.1667 46.3333,13.1667 44,10.5C 43.2446,6.74457 43.4113,3.0779 44.5,-0.5 Z"/></g>
<g><path style="opacity:0.942" fill="#99be13" d="M 66.5,11.5 C 69.8984,11.1796 73.2317,11.513 76.5,12.5C 78.5903,17.5452 82.257,19.3785 87.5,18C 88.8403,20.3494 90.1736,22.6827 91.5,25C 90.4304,26.7092 89.0971,28.2092 87.5,29.5C 88.8333,30.8333 88.8333,32.1667 87.5,33.5C 89.0971,34.7908 90.4304,36.2908 91.5,38C 90.2135,40.0712 89.0468,42.2379 88,44.5C 86.2041,45.767 84.3707,45.767 82.5,44.5C 79.1618,45.177 77.1618,47.177 76.5,50.5C 73.2317,51.487 69.8984,51.8204 66.5,51.5C 66.5718,48.4783 65.2385,46.3116 62.5,45C 60.1893,45.1554 57.856,45.1554 55.5,45C 54.0394,42.5794 52.7061,40.0794 51.5,37.5C 52.3467,36.1552 53.5134,35.1552 55,34.5C 55.6667,32.5 55.6667,30.5 55,28.5C 53.5134,27.8448 52.3467,26.8448 51.5,25.5C 52.6667,23.1667 53.8333,20.8333 55,18.5C 57.4402,17.729 59.9402,17.5624 62.5,18C 65.2385,16.6884 66.5718,14.5217 66.5,11.5 Z M 68.5,25.5 C 77.1709,25.1785 79.5042,28.8452 75.5,36.5C 68.2023,38.7009 65.0356,36.0343 66,28.5C 67.045,27.6266 67.8783,26.6266 68.5,25.5 Z"/></g>
<g><path style="opacity:0.918" fill="#9bbf13" d="M 15.5,11.5 C 21.9229,13.0504 24.2562,16.8837 22.5,23C 17.0483,24.0779 13.3817,21.9112 11.5,16.5C 12.1598,14.1853 13.4931,12.5186 15.5,11.5 Z"/></g>
<g><path style="opacity:0.973" fill="#99be13" d="M 39.5,19.5 C 41.924,19.1924 44.2573,19.5258 46.5,20.5C 40.8653,43.5433 49.8653,56.5433 73.5,59.5C 70.5272,65.6395 66.0272,70.3062 60,73.5C 59.6667,78.1667 59.3333,82.8333 59,87.5C 58.5,89.3333 57.3333,90.5 55.5,91C 49.3877,91.9094 43.3877,91.576 37.5,90C 36.8742,89.2496 36.3742,88.4162 36,87.5C 35.6667,82.8333 35.3333,78.1667 35,73.5C 19.0964,63.4457 15.0964,49.779 23,32.5C 27.1656,26.3502 32.6656,22.0168 39.5,19.5 Z"/></g>
<g><path style="opacity:0.93" fill="#9abe13" d="M -0.5,50.5 C -0.5,48.5 -0.5,46.5 -0.5,44.5C 3.0779,43.4113 6.74457,43.2446 10.5,44C 13.1667,46.3333 13.1667,48.6667 10.5,51C 6.74457,51.7554 3.0779,51.5887 -0.5,50.5 Z"/></g>
<g><path style="opacity:0.928" fill="#9abe13" d="M 16.5,71.5 C 22.0001,70.8314 24.1667,73.1647 23,78.5C 21.2125,80.9576 18.8792,82.6242 16,83.5C 13.8333,82.6667 12.3333,81.1667 11.5,79C 12.5892,76.0844 14.2558,73.5844 16.5,71.5 Z"/></g>
<g><path style="opacity:0.933" fill="#9abe13" d="M 72.5,71.5 C 78.1554,70.9768 81.8221,73.4768 83.5,79C 82.0254,83.3791 79.3587,84.3791 75.5,82C 71.5364,79.3494 70.5364,75.8494 72.5,71.5 Z"/></g>
</svg>
