<?xml version="1.0" encoding="UTF-8"?>
<!DOCTYPE svg PUBLIC "-//W3C//DTD SVG 1.1//EN" "http://www.w3.org/Graphics/SVG/1.1/DTD/svg11.dtd">
<svg xmlns="http://www.w3.org/2000/svg" version="1.1" width="60px" height="60px" style="shape-rendering:geometricPrecision; text-rendering:geometricPrecision; image-rendering:optimizeQuality; fill-rule:evenodd; clip-rule:evenodd" xmlns:xlink="http://www.w3.org/1999/xlink">
<g><path style="opacity:0.961" fill="#99be13" d="M 22.5,5.5 C 25.4082,5.26228 27.7415,6.26228 29.5,8.5C 35.4141,4.77159 40.7474,5.77159 45.5,11.5C 40.5,17.1667 35.1667,22.5 29.5,27.5C 26.3489,24.8496 23.3489,22.0162 20.5,19C 19.6683,18.3123 19.0016,18.479 18.5,19.5C 21.8669,24.0543 25.8669,27.5543 30.5,30C 36.0146,24.3184 41.6813,18.8184 47.5,13.5C 53.2284,18.2526 54.2284,23.5859 50.5,29.5C 52.0314,30.6131 53.0314,32.1131 53.5,34C 51,44.5 44.5,51 34,53.5C 32.1131,53.0314 30.6131,52.0314 29.5,50.5C 28.3869,52.0314 26.8869,53.0314 25,53.5C 14.5,51 8,44.5 5.5,34C 5.96861,32.1131 6.96861,30.6131 8.5,29.5C 6.96861,28.3869 5.96861,26.8869 5.5,25C 7.83064,15.508 13.4973,9.008 22.5,5.5 Z"/></g>
</svg>
