<svg width="25" height="12" viewBox="0 0 25 12" fill="none" xmlns="http://www.w3.org/2000/svg">
<path d="M19.2668 11.0202C19.4838 11.0137 19.6897 10.923 19.8409 10.7674L23.9426 6.6657C24.1493 6.50818 24.2708 6.26342 24.2715 6.00355C24.2721 5.74368 24.1517 5.49833 23.9458 5.33979C23.9442 5.3387 23.9426 5.33761 23.9409 5.33653L19.8409 1.23649C19.6315 1.01835 19.3205 0.93048 19.0278 1.00677C18.7352 1.08305 18.5067 1.31157 18.4304 1.60419C18.3541 1.89681 18.442 2.20781 18.6601 2.41725L21.4098 5.16692L1.71527 5.16692C1.41413 5.16266 1.13403 5.32088 0.982216 5.58097C0.830403 5.84108 0.830403 6.16278 0.982216 6.42288C1.13403 6.68298 1.41413 6.84119 1.71527 6.83693L21.4098 6.83693L18.6601 9.5866C18.4132 9.82666 18.3389 10.1937 18.4731 10.5109C18.6074 10.8281 18.9226 11.0303 19.2668 11.0202Z" fill="#10292D"/>
</svg>
