<svg width="24" height="12" viewBox="0 0 24 12" fill="none" xmlns="http://www.w3.org/2000/svg">
<path d="M18.3977 11.0202C18.6146 11.0137 18.8205 10.923 18.9718 10.7674L23.0734 6.6657C23.2801 6.50818 23.4017 6.26342 23.4023 6.00355C23.403 5.74368 23.2826 5.49833 23.0767 5.33979C23.0751 5.3387 23.0734 5.33761 23.0718 5.33653L18.9718 1.23649C18.7623 1.01835 18.4513 0.93048 18.1587 1.00677C17.8661 1.08305 17.6376 1.31157 17.5613 1.60419C17.485 1.89681 17.5729 2.20781 17.791 2.41725L20.5407 5.16692L0.846125 5.16692C0.544985 5.16266 0.264889 5.32088 0.113076 5.58097C-0.0387378 5.84108 -0.0387378 6.16278 0.113076 6.42288C0.264889 6.68298 0.544985 6.84119 0.846125 6.83693L20.5407 6.83693L17.791 9.5866C17.544 9.82666 17.4698 10.1937 17.604 10.5109C17.7382 10.8281 18.0534 11.0303 18.3977 11.0202Z" fill="#9ABF14"/>
</svg>
