<?xml version="1.0" encoding="UTF-8"?>
<!DOCTYPE svg PUBLIC "-//W3C//DTD SVG 1.1//EN" "http://www.w3.org/Graphics/SVG/1.1/DTD/svg11.dtd">
<svg xmlns="http://www.w3.org/2000/svg" version="1.1" width="50px" height="50px" style="shape-rendering:geometricPrecision; text-rendering:geometricPrecision; image-rendering:optimizeQuality; fill-rule:evenodd; clip-rule:evenodd" xmlns:xlink="http://www.w3.org/1999/xlink">
<g><path style="opacity:0.919" fill="#9abe13" d="M 28.5,1.5 C 31.2776,1.02166 33.2776,2.02166 34.5,4.5C 36.649,0.856225 39.3156,0.522892 42.5,3.5C 41.7542,4.73619 41.4208,6.06953 41.5,7.5C 43.1439,7.71351 44.6439,7.38017 46,6.5C 48.425,9.88213 47.925,12.7155 44.5,15C 47.5511,16.3605 48.2177,18.5272 46.5,21.5C 44.9974,22.0522 43.3307,22.0522 41.5,21.5C 41.2865,23.1439 41.6198,24.6439 42.5,26C 40.6494,26.8372 38.8161,27.6705 37,28.5C 35.7463,24.7265 34.2463,24.2265 32.5,27C 30.765,27.6514 29.0983,27.4847 27.5,26.5C 24.7923,29.165 25.4589,30.4983 29.5,30.5C 29.5,32.5 29.5,34.5 29.5,36.5C 27.6536,36.2222 26.3202,36.8888 25.5,38.5C 28.1706,41.5447 27.504,43.8781 23.5,45.5C 20.2991,42.3698 18.6324,43.0365 18.5,47.5C 14.8419,48.1276 12.3419,46.7943 11,43.5C 7.73578,46.3036 5.23578,45.6369 3.5,41.5C 6.63017,38.2991 5.9635,36.6324 1.5,36.5C 1.5,34.5 1.5,32.5 1.5,30.5C 3.10326,30.6882 4.43659,30.1882 5.5,29C 2.69644,25.7358 3.3631,23.2358 7.5,21.5C 10.7009,24.6302 12.3676,23.9635 12.5,19.5C 14.5,19.5 16.5,19.5 18.5,19.5C 18.5017,23.5411 19.835,24.2077 22.5,21.5C 20.8953,18.4197 21.562,15.9197 24.5,14C 20.8919,12.0431 20.5586,9.5431 23.5,6.5C 24.7362,7.24585 26.0695,7.57918 27.5,7.5C 27.5792,6.06953 27.2458,4.73619 26.5,3.5C 27.2427,2.81815 27.9094,2.15149 28.5,1.5 Z M 32.5,11.5 C 37.1585,11.0146 38.4919,12.848 36.5,17C 31.7282,17.8104 30.3948,15.9771 32.5,11.5 Z M 24.5,22.5 C 25.3864,21.2241 26.3864,21.2241 27.5,22.5C 26.5754,23.5624 25.5754,23.5624 24.5,22.5 Z M 13.5,30.5 C 18.1585,30.0146 19.4919,31.848 17.5,36C 12.7282,36.8104 11.3948,34.9771 13.5,30.5 Z"/></g>
</svg>
