<?xml version="1.0" encoding="UTF-8"?>
<!DOCTYPE svg PUBLIC "-//W3C//DTD SVG 1.1//EN" "http://www.w3.org/Graphics/SVG/1.1/DTD/svg11.dtd">
<svg xmlns="http://www.w3.org/2000/svg" version="1.1" width="96px" height="96px" style="shape-rendering:geometricPrecision; text-rendering:geometricPrecision; image-rendering:optimizeQuality; fill-rule:evenodd; clip-rule:evenodd" xmlns:xlink="http://www.w3.org/1999/xlink">
<g><path style="opacity:0.954" fill="#99be13" d="M 42.5,19.5 C 55.3202,18.1527 60.8202,23.8194 59,36.5C 55.3449,43.0702 49.8449,45.2368 42.5,43C 35.9298,39.3449 33.7632,33.8449 36,26.5C 37.6941,23.6424 39.8607,21.309 42.5,19.5 Z"/></g>
<g><path style="opacity:0.946" fill="#9abe13" d="M 15.5,27.5 C 26.8598,26.71 30.1931,31.5434 25.5,42C 14.9641,45.997 10.4641,42.497 12,31.5C 12.6897,29.6498 13.8564,28.3164 15.5,27.5 Z"/></g>
<g><path style="opacity:0.946" fill="#9abe13" d="M 71.5,27.5 C 82.8598,26.71 86.1931,31.5434 81.5,42C 70.9641,45.997 66.4641,42.497 68,31.5C 68.6897,29.6498 69.8564,28.3164 71.5,27.5 Z"/></g>
<g><path style="opacity:0.942" fill="#9abe13" d="M 11.5,51.5 C 14.8499,51.335 18.1832,51.5017 21.5,52C 17.643,56.3976 15.643,61.5643 15.5,67.5C 11.5633,67.7935 7.72998,67.4601 4,66.5C 1.39468,58.7021 3.89468,53.7021 11.5,51.5 Z"/></g>
<g><path style="opacity:0.977" fill="#9abf13" d="M 37.5,51.5 C 44.175,51.3337 50.8417,51.5004 57.5,52C 62.8124,53.0721 67.3124,55.5721 71,59.5C 71.6667,64.5 71.6667,69.5 71,74.5C 55.5744,75.6571 40.0744,75.8238 24.5,75C 23.363,69.918 23.1963,64.7513 24,59.5C 27.8975,55.6414 32.3975,52.9747 37.5,51.5 Z"/></g>
<g><path style="opacity:0.933" fill="#9abe13" d="M 73.5,52.5 C 80.012,50.4118 85.8454,51.7452 91,56.5C 91.7886,60.0915 91.6219,63.5915 90.5,67C 86.8484,67.4986 83.1817,67.6653 79.5,67.5C 79.4279,61.5948 77.4279,56.5948 73.5,52.5 Z"/></g>
</svg>
