<svg width="119" height="93" viewBox="0 0 119 93" fill="none" xmlns="http://www.w3.org/2000/svg">
<path d="M22.2794 50.5065C22.3878 51.1086 25.258 53.0407 29.7185 55.5169C44.9867 63.9567 44.0189 64.675 45.4346 63.8576C46.9501 62.9826 46.4084 62.551 36.8319 56.6476C26.5596 50.3218 21.9443 48.3603 22.2794 50.5065Z" fill="#9ABF14"/>
<path d="M33.7319 73.4308C33.6223 73.8397 33.8886 73.9786 35.3815 74.446C37.6093 75.1273 40.2593 74.4215 39.6261 73.3248C39.0881 72.439 33.9763 72.5187 33.7319 73.4308Z" fill="#9ABF14"/>
<path d="M34.1787 81.7075C22.7256 84.0661 18.9351 85.1911 18.1899 86.5252C17.5636 87.6047 18.3522 87.6812 21.3442 86.8311C23.8884 86.0801 28.67 84.9678 33.4293 84.0013C37.3326 83.21 38.1594 82.8922 38.881 82.0236C39.8494 80.7998 38.8353 80.7472 34.1787 81.7075Z" fill="#9ABF14"/>
<path d="M35.2566 36.6065C35.3535 37.1887 38.9951 41.1477 41.5157 43.4412C42.1265 43.9925 43.6013 45.5339 44.7837 46.8452C47.0628 49.4111 47.2547 49.5132 48.3913 48.857C49.468 48.2353 49.4909 48.275 45.3858 44.1579C38.2398 36.9843 34.9246 34.5117 35.2566 36.6065Z" fill="#9ABF14"/>
<path d="M23.7642 71.1304C26.1054 71.6397 27.2862 72.5798 28.7618 71.7279C31.1346 70.3579 31.1422 70.1408 26.6645 68.9241C18.3695 66.6678 11.2263 65.8999 10.5409 67.1995C9.9154 68.4646 15.1998 68.6839 23.7642 71.1304Z" fill="#9ABF14"/>
<path d="M93.4776 25.0854C94.2563 22.9343 94.4935 21.0427 94.079 20.3248C93.5034 19.3278 92.0943 19.7423 91.4865 21.1301C87.4063 30.3186 84.6164 41.926 86.38 42.2638C88.1121 42.593 88.8511 41.1561 91.083 33.141C92.0783 29.6152 93.1504 25.9922 93.4776 25.0854Z" fill="#9ABF14"/>
<path d="M56.3979 25.145C56.9425 27.5158 59.0443 32.6299 62.3426 44.0989C62.9953 46.3807 63.0182 46.4204 64.0017 46.6502C64.7964 46.8294 65.8972 46.4335 66.2115 45.8266C66.4806 45.3257 61.7519 29.445 59.775 24.1789C58.972 22.1433 55.7603 22.429 56.3979 25.145Z" fill="#9ABF14"/>
<path d="M107.249 28.1684C102.166 33.3631 93.686 44.1875 93.655 45.5613C93.6192 46.5125 95.7853 46.1659 96.74 45.0564L100.266 40.8939C105.689 34.4925 112.032 26.045 111.767 25.5864C111.206 24.6607 109.99 25.3632 107.249 28.1684Z" fill="#9ABF14"/>
<path d="M73.5703 20.3081C73.5652 21.082 73.4577 23.2444 72.8391 29.2646C72.5484 31.9847 72.5379 37.3082 72.8142 37.7868C73.3668 38.7439 74.1676 33.8681 74.9715 24.5771C75.1397 22.5658 75.3653 20.6542 75.4895 20.3167C76.0021 18.7179 73.5867 18.8629 73.5703 20.3081Z" fill="#9ABF14"/>
</svg>
