<svg width="89" height="67" viewBox="0 0 89 67" fill="none" xmlns="http://www.w3.org/2000/svg">
<path d="M19.0404 36.7535C19.1464 37.1767 21.2219 38.4819 24.4198 40.1383C35.3642 45.7827 34.736 46.3104 35.6671 45.7033C36.6638 45.0534 36.2686 44.7597 29.3722 40.7886C21.975 36.5335 18.6976 35.244 19.0404 36.7535Z" fill="#FAA40F"/>
<path d="M27.902 52.6596C27.8476 52.9531 28.0397 53.0464 29.1002 53.3478C30.6818 53.786 32.4831 53.2277 31.9859 52.4601C31.5659 51.8407 28.0235 52.005 27.902 52.6596Z" fill="#FAA40F"/>
<path d="M28.514 58.5583C20.6468 60.494 18.0613 61.3815 17.6118 62.3535C17.2317 63.1404 17.786 63.1783 19.8289 62.505C21.5645 61.9122 24.8423 61.0127 28.1122 60.218C30.7941 59.5673 31.3542 59.3218 31.8118 58.6839C32.4229 57.7862 31.7126 57.7702 28.514 58.5583Z" fill="#FAA40F"/>
<path d="M27.5149 26.5971C27.6113 27.0049 30.3091 29.7152 32.1531 31.2767C32.5997 31.6519 33.689 32.7059 34.5664 33.6041C36.2592 35.3624 36.3959 35.4303 37.1398 34.9445C37.8445 34.4842 37.8623 34.5117 34.8391 31.6998C29.5762 26.8003 27.179 25.1295 27.5149 26.5971Z" fill="#FAA40F"/>
<path d="M20.8918 51.4578C22.5401 51.7707 23.4074 52.4141 24.3843 51.7776C25.9553 50.7542 25.9492 50.5997 22.784 49.8288C16.9205 48.3991 11.9332 48.0031 11.5271 48.9412C11.1606 49.8535 14.8318 49.8985 20.8918 51.4578Z" fill="#FAA40F"/>
<path d="M67.4701 16.6283C67.8954 15.0847 67.9599 13.7367 67.6354 13.2357C67.1847 12.5399 66.2318 12.8637 65.8844 13.8617C63.546 20.4709 62.2275 28.7704 63.4653 28.9732C64.6808 29.1708 65.1163 28.1351 66.238 22.3977C66.7408 19.8737 67.2915 17.2789 67.4701 16.6283Z" fill="#FAA40F"/>
<path d="M41.7041 17.8419C42.1995 19.4989 43.9025 23.0538 46.7532 31.0557C47.3179 32.6478 47.3357 32.6752 48.0205 32.8163C48.5735 32.9257 49.3061 32.6239 49.4897 32.1902C49.6479 31.8319 45.59 20.7554 43.9647 17.0909C43.3098 15.6753 41.1273 15.9439 41.7041 17.8419Z" fill="#FAA40F"/>
<path d="M77.1688 18.3075C73.9012 22.1321 68.5644 30.0565 68.6154 31.04C68.6407 31.7212 70.1317 31.4271 70.7383 30.613L72.9751 27.56C76.416 22.8649 80.3891 16.6864 80.1804 16.364C79.7406 15.7137 78.9302 16.2422 77.1688 18.3075Z" fill="#FAA40F"/>
<path d="M53.4206 13.8787C53.4576 14.4265 53.497 15.9591 53.3864 20.2325C53.3288 22.1636 53.6008 25.9313 53.8163 26.2642C54.2474 26.93 54.5435 23.4627 54.6103 16.8706C54.6206 15.4437 54.6759 14.0861 54.7437 13.8447C55.0132 12.7025 53.3561 12.8556 53.4206 13.8787Z" fill="#FAA40F"/>
</svg>
