<svg width="72" height="72" viewBox="0 0 72 72" fill="none" xmlns="http://www.w3.org/2000/svg">
<g clip-path="url(#clip0_2667_66073)">
<path d="M58.5 38.25C60.0469 38.25 61.5 38.543 62.8594 39.1289C64.2188 39.7148 65.4141 40.5117 66.4453 41.5195C67.4766 42.5273 68.2852 43.7227 68.8711 45.1055C69.457 46.4883 69.75 47.9531 69.75 49.5C69.75 50.7188 69.5625 51.9023 69.1875 53.0508C68.8125 54.1992 68.25 55.2656 67.5 56.25V71.1562L58.5 66.6562L49.5 71.1562V56.25C48.7734 55.2656 48.2227 54.1992 47.8477 53.0508C47.4727 51.9023 47.2734 50.7188 47.25 49.5C47.25 47.9531 47.543 46.5 48.1289 45.1406C48.7148 43.7812 49.5117 42.5859 50.5195 41.5547C51.5273 40.5234 52.7227 39.7148 54.1055 39.1289C55.4883 38.543 56.9531 38.25 58.5 38.25ZM58.5 42.75C57.5625 42.75 56.6836 42.9258 55.8633 43.2773C55.043 43.6289 54.3281 44.1094 53.7188 44.7188C53.1094 45.3281 52.6289 46.043 52.2773 46.8633C51.9258 47.6836 51.75 48.5625 51.75 49.5C51.75 50.4375 51.9258 51.3164 52.2773 52.1367C52.6289 52.957 53.1094 53.6719 53.7188 54.2812C54.3281 54.8906 55.043 55.3711 55.8633 55.7227C56.6836 56.0742 57.5625 56.25 58.5 56.25C59.4375 56.25 60.3164 56.0742 61.1367 55.7227C61.957 55.3711 62.6719 54.8906 63.2812 54.2812C63.8906 53.6719 64.3711 52.957 64.7227 52.1367C65.0742 51.3164 65.25 50.4375 65.25 49.5C65.25 48.5625 65.0742 47.6836 64.7227 46.8633C64.3711 46.043 63.8906 45.3281 63.2812 44.7188C62.6719 44.1094 61.957 43.6289 61.1367 43.2773C60.3164 42.9258 59.4375 42.75 58.5 42.75ZM63 63.8438V59.8008C61.5938 60.4336 60.0938 60.75 58.5 60.75C56.9062 60.75 55.4062 60.4336 54 59.8008V63.8438L58.5 61.5938L63 63.8438ZM58.5 18C57.2578 18 56.0977 18.2344 55.0195 18.7031C53.9414 19.1719 52.9805 19.8164 52.1367 20.6367C51.293 21.457 50.6484 22.4062 50.2031 23.4844C49.7578 24.5625 49.5234 25.7344 49.5 27C49.5 29.1562 49.0195 31.1836 48.0586 33.082C47.0977 34.9805 45.7383 36.5859 43.9805 37.8984C44.4258 38.1094 44.8477 38.3438 45.2461 38.6016C45.6445 38.8594 46.0547 39.1289 46.4766 39.4102L43.8398 43.0664C42.6914 42.2461 41.4492 41.6133 40.1133 41.168C38.7773 40.7227 37.4062 40.5 36 40.5C34.125 40.5 32.3789 40.8516 30.7617 41.5547C29.1445 42.2578 27.7148 43.2188 26.4727 44.4375C25.2305 45.6562 24.2578 47.0977 23.5547 48.7617C22.8516 50.4258 22.5 52.1719 22.5 54H18C18 52.2891 18.2344 50.6367 18.7031 49.043C19.1719 47.4492 19.8398 45.9492 20.707 44.543C21.5742 43.1367 22.6172 41.8711 23.8359 40.7461C25.0547 39.6211 26.4375 38.6602 27.9844 37.8633C26.25 36.5742 24.9023 34.9805 23.9414 33.082C22.9805 31.1836 22.5 29.1562 22.5 27C22.5 25.7578 22.2656 24.5977 21.7969 23.5195C21.3281 22.4414 20.6836 21.4805 19.8633 20.6367C19.043 19.793 18.0938 19.1484 17.0156 18.7031C15.9375 18.2578 14.7656 18.0234 13.5 18C12.2578 18 11.0977 18.2344 10.0195 18.7031C8.94141 19.1719 7.98047 19.8164 7.13672 20.6367C6.29297 21.457 5.64844 22.4062 5.20312 23.4844C4.75781 24.5625 4.52344 25.7344 4.5 27H0C0 25.7812 0.164063 24.5977 0.492188 23.4492C0.820312 22.3008 1.27734 21.2109 1.86328 20.1797C2.44922 19.1484 3.17578 18.2109 4.04297 17.3672C4.91016 16.5234 5.88281 15.7969 6.96094 15.1875C6.1875 14.3672 5.58984 13.418 5.16797 12.3398C4.74609 11.2617 4.52344 10.1484 4.5 9C4.5 7.75781 4.73438 6.59766 5.20312 5.51953C5.67188 4.44141 6.31641 3.48047 7.13672 2.63672C7.95703 1.79297 8.90625 1.14844 9.98438 0.703125C11.0625 0.257812 12.2344 0.0234375 13.5 0C14.7422 0 15.9023 0.234375 16.9805 0.703125C18.0586 1.17188 19.0195 1.81641 19.8633 2.63672C20.707 3.45703 21.3516 4.40625 21.7969 5.48438C22.2422 6.5625 22.4766 7.73438 22.5 9C22.5 10.1484 22.2891 11.2617 21.8672 12.3398C21.4453 13.418 20.8359 14.3672 20.0391 15.1875C21.9609 16.2422 23.5312 17.6953 24.75 19.5469C25.3828 18.6094 26.1094 17.7656 26.9297 17.0156C27.75 16.2656 28.6406 15.6328 29.6016 15.1172C30.5625 14.6016 31.582 14.2031 32.6602 13.9219C33.7383 13.6406 34.8516 13.5 36 13.5C37.125 13.5 38.2266 13.6406 39.3047 13.9219C40.3828 14.2031 41.4023 14.6016 42.3633 15.1172C43.3242 15.6328 44.2266 16.2656 45.0703 17.0156C45.9141 17.7656 46.6406 18.6094 47.25 19.5469C48.4688 17.6953 50.0391 16.2422 51.9609 15.1875C51.1875 14.3672 50.5898 13.418 50.168 12.3398C49.7461 11.2617 49.5234 10.1484 49.5 9C49.5 7.75781 49.7344 6.59766 50.2031 5.51953C50.6719 4.44141 51.3164 3.48047 52.1367 2.63672C52.957 1.79297 53.9062 1.14844 54.9844 0.703125C56.0625 0.257812 57.2344 0.0234375 58.5 0C59.7422 0 60.9023 0.234375 61.9805 0.703125C63.0586 1.17188 64.0195 1.81641 64.8633 2.63672C65.707 3.45703 66.3516 4.40625 66.7969 5.48438C67.2422 6.5625 67.4766 7.73438 67.5 9C67.5 10.1484 67.2891 11.2617 66.8672 12.3398C66.4453 13.418 65.8359 14.3672 65.0391 15.1875C66.1172 15.7969 67.0781 16.5234 67.9219 17.3672C68.7656 18.2109 69.4922 19.1367 70.1016 20.1445C70.7109 21.1523 71.1797 22.2422 71.5078 23.4141C71.8359 24.5859 72 25.7812 72 27H67.5C67.5 25.7578 67.2656 24.5977 66.7969 23.5195C66.3281 22.4414 65.6836 21.4805 64.8633 20.6367C64.043 19.793 63.0938 19.1484 62.0156 18.7031C60.9375 18.2578 59.7656 18.0234 58.5 18ZM54 9C54 9.63281 54.1172 10.2188 54.3516 10.7578C54.5859 11.2969 54.9023 11.7656 55.3008 12.1641C55.6992 12.5625 56.1797 12.8906 56.7422 13.1484C57.3047 13.4062 57.8906 13.5234 58.5 13.5C59.1328 13.5 59.7188 13.3828 60.2578 13.1484C60.7969 12.9141 61.2656 12.5977 61.6641 12.1992C62.0625 11.8008 62.3906 11.3203 62.6484 10.7578C62.9062 10.1953 63.0234 9.60938 63 9C63 8.36719 62.8828 7.78125 62.6484 7.24219C62.4141 6.70312 62.0977 6.23438 61.6992 5.83594C61.3008 5.4375 60.8203 5.10938 60.2578 4.85156C59.6953 4.59375 59.1094 4.47656 58.5 4.5C57.8672 4.5 57.2812 4.61719 56.7422 4.85156C56.2031 5.08594 55.7344 5.40234 55.3359 5.80078C54.9375 6.19922 54.6094 6.67969 54.3516 7.24219C54.0938 7.80469 53.9766 8.39062 54 9ZM9 9C9 9.63281 9.11719 10.2188 9.35156 10.7578C9.58594 11.2969 9.90234 11.7656 10.3008 12.1641C10.6992 12.5625 11.1797 12.8906 11.7422 13.1484C12.3047 13.4062 12.8906 13.5234 13.5 13.5C14.1328 13.5 14.7188 13.3828 15.2578 13.1484C15.7969 12.9141 16.2656 12.5977 16.6641 12.1992C17.0625 11.8008 17.3906 11.3203 17.6484 10.7578C17.9062 10.1953 18.0234 9.60938 18 9C18 8.36719 17.8828 7.78125 17.6484 7.24219C17.4141 6.70312 17.0977 6.23438 16.6992 5.83594C16.3008 5.4375 15.8203 5.10938 15.2578 4.85156C14.6953 4.59375 14.1094 4.47656 13.5 4.5C12.8672 4.5 12.2812 4.61719 11.7422 4.85156C11.2031 5.08594 10.7344 5.40234 10.3359 5.80078C9.9375 6.19922 9.60938 6.67969 9.35156 7.24219C9.09375 7.80469 8.97656 8.39062 9 9ZM27 27C27 28.2422 27.2344 29.4023 27.7031 30.4805C28.1719 31.5586 28.8164 32.5195 29.6367 33.3633C30.457 34.207 31.4062 34.8516 32.4844 35.2969C33.5625 35.7422 34.7344 35.9766 36 36C37.2422 36 38.4023 35.7656 39.4805 35.2969C40.5586 34.8281 41.5195 34.1836 42.3633 33.3633C43.207 32.543 43.8516 31.5938 44.2969 30.5156C44.7422 29.4375 44.9766 28.2656 45 27C45 25.7578 44.7656 24.5977 44.2969 23.5195C43.8281 22.4414 43.1836 21.4805 42.3633 20.6367C41.543 19.793 40.5938 19.1484 39.5156 18.7031C38.4375 18.2578 37.2656 18.0234 36 18C34.7578 18 33.5977 18.2344 32.5195 18.7031C31.4414 19.1719 30.4805 19.8164 29.6367 20.6367C28.793 21.457 28.1484 22.4062 27.7031 23.4844C27.2578 24.5625 27.0234 25.7344 27 27Z" fill="#9ABF14"/>
</g>
<defs>
<clipPath id="clip0_2667_66073">
<rect width="72" height="72" fill="white"/>
</clipPath>
</defs>
</svg>
