<?xml version="1.0" encoding="UTF-8"?>
<!DOCTYPE svg PUBLIC "-//W3C//DTD SVG 1.1//EN" "http://www.w3.org/Graphics/SVG/1.1/DTD/svg11.dtd">
<svg xmlns="http://www.w3.org/2000/svg" version="1.1" width="50px" height="50px" style="shape-rendering:geometricPrecision; text-rendering:geometricPrecision; image-rendering:optimizeQuality; fill-rule:evenodd; clip-rule:evenodd" xmlns:xlink="http://www.w3.org/1999/xlink">
<g><path style="opacity:0.934" fill="#99be13" d="M 22.5,-0.5 C 23.8333,-0.5 25.1667,-0.5 26.5,-0.5C 26.1826,2.57186 26.5159,5.57186 27.5,8.5C 27.6204,1.00702 29.787,0.00701809 34,5.5C 39.1758,15.8385 36.0092,19.5052 24.5,16.5C 12.9908,19.5052 9.82417,15.8385 15,5.5C 19.213,0.00701809 21.3796,1.00702 21.5,8.5C 22.4841,5.57186 22.8174,2.57186 22.5,-0.5 Z"/></g>
<g><path style="opacity:0.964" fill="#9abe13" d="M 14.5,17.5 C 21.1667,17.5 27.8333,17.5 34.5,17.5C 33.6177,22.2561 32.451,26.9227 31,31.5C 34.268,33.7059 37.768,35.5393 41.5,37C 43.5744,39.3016 44.9077,41.9683 45.5,45C 31.5,45.6667 17.5,45.6667 3.5,45C 4.09231,41.9683 5.42565,39.3016 7.5,37C 11.232,35.5393 14.732,33.7059 18,31.5C 16.549,26.9227 15.3823,22.2561 14.5,17.5 Z"/></g>
</svg>
